<svg xmlns="http://www.w3.org/2000/svg" viewBox="0 0 487.2 491.3"><path fill="#48C1E1" d="M120.6 109.2h36.2v24.2h-36.2z"/><path fill="#046699" d="M164.3 106.6c0 2-1.6 3.6-3.6 3.6h-43.9c-2 0-3.6-1.6-3.6-3.6v-26c0-2 1.6-3.6 3.6-3.6h43.9c2 0 3.6 1.6 3.6 3.6v26z"/><path d="M128.2 106.6v-26c0-2 1.6-3.6 3.6-3.6h-15c-2 0-3.6 1.6-3.6 3.6v26c0 2 1.6 3.6 3.6 3.6h15c-2 0-3.6-1.6-3.6-3.6z" opacity=".1"/><path fill="#A2DFF9" d="M109.4 305.1c.2-.1.3-.2.4-.4.1-.2 0-.4-.1-.6-.3-.5-.5-1.1-.5-1.5 0-3.9 8.6-8 21.3-8 4.1 0 8.1.5 11.5 1.3h.2c.2 0 .4-.1.5-.2.2-.2.2-.4.2-.7-2.2-8.9-3.5-18-3.8-27.3v-.3c0-1.3-.1-2.7-.1-4 0-1.6 1.3-2.9 2.9-2.9h6.3c.2 0 .4-.1.5-.2s.2-.3.2-.5c-.1-.9-.2-1.7-.2-2.4 0-9.9 6.3-18.5 15.7-21.4.2-.1.4-.2.4-.4.1-.2.1-.4 0-.6-.9-1.8-1.4-3.6-1.8-5.5-1.6-9.4 3.3-18.8 12-22.8.3-.2.5-.5.4-.9-.4-1.1-.7-2.3-.9-3.5-1.3-7.7 1.7-15.1 7.2-19.8v-30c0-11.1-9-20.1-20.1-20.1h-46.1c-11 0-20.1 9-20.1 20.1v161.1c4.2-3.5 8.8-6.4 14-8.5z"/><path fill="#046699" d="M164.5 235.9c.2-.1.4-.2.4-.4.1-.2.1-.4 0-.6-.9-1.8-1.4-3.6-1.8-5.5-1.6-9.4 3.3-18.8 12-22.8.3-.2.5-.5.4-.9-.4-1.1-.7-2.3-.9-3.5-1.3-7.7 1.7-15.1 7.2-19.8v-13.5H95.6v74.4h58.1c2.7-3.4 6.4-6 10.8-7.4z"/><path opacity=".1" d="M117.2 296.4v-144c0-11.1 9-20.1 20.1-20.1h-21.7c-11 0-20.1 9-20.1 20.1v161.1c4-3.4 8.7-6.2 13.8-8.3.2-.1.3-.2.4-.4.1-.2 0-.4-.1-.6-.3-.5-.5-1.1-.5-1.5.2-2.4 3.1-4.8 8.1-6.3z"/><path fill="#EF5050" d="M247.7 189.5c.2 1.2.3 2.4.3 3.6 0 .4.3.7.6.7 9 .8 16.4 7.2 18.6 15.9.1.2.2.4.5.5h.2c.2 0 .3-.1.5-.2 3.6-3.4 8.2-5.4 13.1-5.9.4 0 .6-.3.6-.7.3-9.8 4.3-19 11.2-26l.4-.4c-1.5-9.8-6-19.1-13.5-26.7-1.5-1.5-3.9-1.5-5.3 0l-30.7 30.8c1.8 2.5 3 5.3 3.5 8.4z"/><g fill="#C0272D"><path d="M267.3 209.6c.1.2.2.4.5.5h.2c.2 0 .3-.1.5-.2 1.8-1.7 3.8-3 5.9-4-.2-.8-.7-1.6-1.3-2.2l-5.1-5.1c-2-2.1-5.4-2.1-7.4 0 3.2 2.9 5.6 6.7 6.7 11zM278.2 194.1H271c-2.9 0-5.2-2.3-5.2-5.2s2.3-5.2 5.2-5.2h7.2c2.9 0 5.2 2.3 5.2 5.2 0 2.9-2.3 5.2-5.2 5.2zM270 179.6c-1.3 0-2.7-.5-3.7-1.5-2.1-2-2.1-5.4 0-7.4l5.1-5.1c2-2 5.4-2.1 7.4 0 2.1 2 2.1 5.4 0 7.4l-5.1 5.1c-1 1-2.4 1.5-3.7 1.5z"/></g><path fill="#89C947" d="M335.7 168.9c-.1-.2-.2-.3-.3-.4-.1-.1-.3-.2-.4-.3-14.5-5.8-31.1-2.4-42.1 8.7-7.3 7.4-11.3 17.1-11.4 27.1.7-.1 1.5-.1 2.2-.1 10.9 0 20 7.8 22 18.1 7.9-1.3 15.4-5 21.4-11 11-11 14.4-27.5 8.6-42.1z"/><path fill="#D5E962" d="M316.9 187.1c-2.1-2-5.4-2-7.4 0l-18.1 18.2c3.4 1.2 6.5 3.3 8.9 6l16.7-16.7c1.9-2.1 1.9-5.4-.1-7.5z"/><g fill="#FFC502"><path d="M343.3 229c.2 1.1.3 2.1.3 3.2 0 .4.3.7.6.7 2.8.2 5.5 1.1 8 2.6.1.1.2.1.4.1s.4-.1.5-.2c.6-.7 1.1-1.2 1.6-1.7 4.2-4.2 9.3-7.3 14.9-8.9.5-1.9.8-4 .8-6.1 0-12.8-10.3-23.2-23.1-23.2-10.9 0-20 7.5-22.4 17.7 9.1.2 16.8 6.8 18.4 15.8zM184.9 260c-2.3-4.2-3.8-8.7-4.4-13.4-6.8-1.1-12.6-5.5-15.6-11.6-9.7 2.7-16.8 11.7-16.8 22.3 0 .9.1 1.8.2 2.7h36.6z"/></g><path fill="#89C947" d="M361.3 248.6c.7 3.9.1 7.8-1.5 11.4h29.7c7-9.8 8.7-22.7 4.1-34.2-.1-.1-.1-.3-.3-.4-.1-.1-.2-.2-.4-.3-13.3-5.3-28.5-2.2-38.7 8-.7.7-1.4 1.5-2.1 2.3 4.7 2.8 8.2 7.6 9.2 13.2z"/><path fill="#D5E962" d="M359.7 260h6.5l10.3-10.4c2-2.1 2-5.4 0-7.4-2.1-2-5.4-2-7.4 0l-7.7 7.7c.4 3.5-.2 6.9-1.7 10.1z"/><path fill="#368C0E" d="M268.1 210c-2.1-9.4-10.1-16.2-19.4-17 0-1.2-.1-2.5-.3-3.7-2.1-11.9-13.4-19.8-25.3-17.8-6.2 1.1-11.3 4.6-14.5 9.5-4.7-3.5-10.7-5.1-16.8-4-11.9 2.1-19.9 13.4-17.8 25.3.2 1.2.5 2.5 1 3.6-8.8 4.1-14.1 13.6-12.4 23.6 1.6 9.4 9.1 16.4 18 17.8-.9-6-.2-12.2 2.2-18.1 0-.1.1-.1.1-.2 0 0 .1-.1.2-.1 4.2-1.7 8.5-2.5 13-2.5 9.4 0 18.2 3.7 24.9 10.3.5.5.9 1 1.4 1.5-.4-2.4-.6-4.9-.6-7.4 0-1.7 1.4-3.1 3.1-3.1h36.6c0-.5-.1-1-.1-1.5-.1-6.2 2.5-12 6.7-16.2z"/><g fill="#89C947"><path d="M191.5 212.1s-.1 0 0 0c-3 0-5.3-2.4-5.2-5.3.2-9.1 7.6-16.4 16.7-16.4h.3c4.6.1 8.9 2 12 5.4 2 2.1 1.8 5.5-.3 7.4-2.1 2-5.5 1.8-7.4-.3-1.2-1.3-2.7-2-4.4-2-3.4-.1-6.2 2.7-6.3 6.1-.2 2.8-2.6 5.1-5.4 5.1zM220.4 221.1c-.6 0-1.2-.1-1.8-.3-2.7-1-4.1-4-3.1-6.7 2.9-7.9 11.7-11.9 19.6-9 3.9 1.5 7.1 4.5 8.8 8.3 1.1 2.7-.1 5.7-2.8 6.9-2.7 1.1-5.7-.1-6.9-2.8-.5-1.2-1.5-2.1-2.7-2.6-2.5-.9-5.2.4-6.2 2.8-.7 2.1-2.7 3.4-4.9 3.4z"/></g><path fill="#368C0E" d="M306 227.8h-.2v.1h7c2.1 0 3.8 1.7 3.8 3.8 0 10.5-3.4 20.3-9.1 28.2h52.9c1.6-3.5 2.2-7.5 1.5-11.5-1.6-9-9-15.5-17.7-16.3 0-1.1-.1-2.2-.3-3.4-1.9-10.7-12.1-17.9-22.8-16.1-5.6 1-10.2 4.2-13.1 8.6-.9-.7-1.9-1.3-3-1.8.7 2.2 1.1 4.5 1.1 6.9 0 .6 0 1-.1 1.5z"/><path fill="#F7931E" d="M306.7 227.9c0-.5.1-1 .1-1.5 0-12.8-10.3-23.2-23.1-23.2s-23.1 10.4-23.1 23.2c0 .5 0 1 .1 1.5h46z"/><path fill="#89C947" d="M221.3 236.3c-10.1-10.2-25.3-13.3-38.7-8-.1.1-.3.1-.4.3-.1.1-.2.2-.3.4-4.1 10.3-3.1 21.7 2.1 31h47.6c-4.8-6.4-8.1-14.1-9.2-22.4-.3-.4-.7-.9-1.1-1.3z"/><path fill="#D5E962" d="M206.2 260H221l-14.6-14.6c-2-2-5.4-2.1-7.4 0-2.1 2-2.1 5.4 0 7.4l7.2 7.2z"/><path fill="#EF5050" d="M307.9 260c6.1-8.1 9.7-18.1 9.7-29 0-2.1-1.7-3.8-3.8-3.8h-89.1c-2.1 0-3.8 1.7-3.8 3.8 0 10.9 3.6 20.9 9.7 29h77.3z"/><g fill="#C0272D"><path d="M274.7 260v-3.6c0-2.9-2.3-5.2-5.2-5.2s-5.2 2.3-5.2 5.2v3.6h10.4zM284.8 260h8.2c1.7-2.1 1.6-5.1-.3-7l-5.1-5.1c-2-2.1-5.4-2.1-7.4 0-2.1 2-2.1 5.4 0 7.4l4.6 4.7zM253.3 260l4.7-4.7c2-2.1 2-5.4 0-7.4-2.1-2-5.4-2-7.4 0l-5.1 5.1c-1.9 1.9-2 5-.3 7h8.1zM245.3 245.9h-7.2c-2.9 0-5.2-2.3-5.2-5.2 0-2.9 2.3-5.2 5.2-5.2h7.2c2.9 0 5.2 2.3 5.2 5.2 0 2.8-2.3 5.2-5.2 5.2zM300.5 245.9h-7.2c-2.9 0-5.2-2.3-5.2-5.2 0-2.9 2.3-5.2 5.2-5.2h7.2c2.9 0 5.2 2.3 5.2 5.2 0 2.8-2.3 5.2-5.2 5.2z"/></g><path fill="#E6E9ED" d="M143.1 296.2h.2c.2 0 .3 0 .4-.1.2-.1.3-.3.3-.6v-8.9c0-2.5 2-4.5 4.5-4.5s4.5 2 4.5 4.5v8.9c0 .2.1.4.3.6.1.1.3.1.4.1h.2c3.7-1 8-1.6 12.6-1.6 12.7 0 21.3 4.1 21.3 8 0 .5-.2 1-.5 1.5-.1.2-.1.4-.1.6.1.2.2.3.4.4 16.3 6.7 27.9 21 30.1 37.2 0 .2.2.4.3.5.1.1.2.1.4.1h.2L329 301c2.1-.8 4.4-1.2 6.7-1.2 3.2 0 6.4.8 9.2 2.4 4.9 2.7 8.2 7.4 9.2 12.9l1 5.2c0 .2.2.4.4.5.1 0 .2.1.3.1.1 0 .2 0 .4-.1l37.1-21.9c3.2-11.4 4.8-23.2 4.8-35.3 0-2-1.6-3.6-3.6-3.6H142c-2 0-3.6 1.6-3.6 3.6 0 11.2 1.4 22 4.1 32.6.2-.1.4-.1.6 0z"/><path opacity=".1" d="M143.1 296.2h.2c.2 0 .3 0 .4-.1.2-.1.3-.3.3-.6v-8.9c0-2.5 2-4.5 4.5-4.5s4.5 2 4.5 4.5v8.9c0 .2.1.4.3.6.1.1.3.1.4.1h.2c3.1-.9 6.8-1.4 10.6-1.5-2.5-10.1-3.7-20.5-3.7-31.2 0-2 1.6-3.6 3.6-3.6H142c-2 0-3.6 1.6-3.6 3.6 0 11.2 1.4 22 4.1 32.6.2 0 .4 0 .6.1z"/><path fill="#89C947" d="M148.5 298.7c1.4-.8 3.2-1.5 5.2-2.1v-10c0-2.9-2.3-5.2-5.2-5.2-2.9 0-5.2 2.3-5.2 5.2v10c2 .6 3.8 1.3 5.2 2.1z"/><path fill="#EF5050" d="M202.1 396h-18.9c-9 0-16.8-6.4-18.4-15.2l-.2-1c-1.6-8.8 3.3-17.6 11.7-20.8l42.3-16.1c-2.2-17.4-14.5-32-31.3-38.7-1.6 2.8-7.3 5.1-14.6 6-.3 0-.5.2-.6.5-.1.3 0 .6.2.7 3.8 3 6.2 6.2 6.4 8.6.1.8-.1 1.5-.6 2.1-.9 1-2.6 1.5-5.1 1.5-4.7 0-11.1-2-17.1-5.3-2.6-1.5-5-3.1-7-4.7-.1-.1-.3-.2-.5-.2s-.3.1-.5.2c-2 1.7-4.3 3.3-7 4.7-6 3.3-12.4 5.3-17.1 5.3-2.4 0-4.2-.5-5.1-1.5-.5-.6-.7-1.2-.6-2.1.2-2.3 2.6-5.5 6.4-8.6.2-.2.3-.5.2-.7-.1-.3-.3-.5-.6-.5-7.3-.9-13-3.3-14.6-6-18.6 7.4-31.7 24.4-31.7 44.3 0 26.6 23.5 48.2 52.5 48.2H203c1 0 .4-.3-.9-.7z"/><path opacity=".1" d="M100.8 348.5c0-15.8 8.3-29.9 21.1-38.7-6.1-1.1-10.7-3.2-12.1-5.6-18.6 7.4-31.7 24.4-31.7 44.3 0 26.6 23.5 48.2 52.5 48.2h22.7c-29 0-52.5-21.6-52.5-48.2z"/><path fill="#368C0E" d="M188.5 302.6c0-4.8-9.8-8.7-22-8.7-7.4 0-14 1.5-18 3.7-4-2.2-10.5-3.7-18-3.7-12.1 0-22 3.9-22 8.7 0 3.9 6.6 7.3 15.7 8.3-5.6 4.5-8.1 9.1-5.8 11.7 3 3.4 13.3 1.8 23-3.6 2.7-1.5 5.1-3.2 7.1-4.8 2 1.7 4.4 3.3 7.1 4.8 9.7 5.4 20 7 23 3.6 2.3-2.6-.3-7.2-5.8-11.7 9.1-1.1 15.7-4.4 15.7-8.3z"/><path fill="#89C947" d="M436.1 333.6l-1.4-7.6c-.5-2.6-3-4.4-5.6-3.9l-54.4 10 34.7-23.2c1.6-1.1 2.4-3 2.1-4.9-.1-.5-.3-1-.5-1.5l-3.9-7c-.6-1.1-1.7-2-3-2.3-1.3-.3-2.6-.2-3.7.5l-45.2 26.7 8.5 46.1 51.8 9.3c1.3.2 2.6-.1 3.7-.8 1.1-.8 1.8-1.9 2-3.2l1.2-7.9c.1-.5.1-1.1 0-1.6-.3-1.8-1.8-3.4-3.7-3.8l-40.7-9.3 54.4-10c2.4-.4 4.2-3 3.7-5.6z"/><path fill="#F7931E" d="M164.1 380.9c1.7 9.2 9.7 15.8 19.1 15.8l163.6-.1c5.8 0 11.2-2.6 14.9-7 3.7-4.4 5.2-10.2 4.2-15.9l-10.9-59c-1-5.6-4.6-10.5-9.6-13.3-5-2.8-11-3.3-16.4-1.2l-152.9 58.1c-8.7 3.3-13.9 12.4-12.2 21.6l.2 1z"/><path d="M164.1 380.9c.3 1.4.7 2.7 1.2 4 2.3-4 5.9-7.2 10.5-9l159.7-60.7c5.6-2.1 11.9-1.7 17.1 1.3 1.1.6 2.1 1.3 3.1 2.1l-.7-3.9c-1-5.6-4.6-10.5-9.6-13.3-5-2.8-11-3.3-16.4-1.2l-152.9 58.1c-8.7 3.3-13.9 12.4-12.2 21.6l.2 1z" opacity=".1"/><g fill="#FFC502"><path d="M337.4 372.1c-.5-2.8-3.3-4.7-6.1-4.2s-4.7 3.3-4.2 6.1l4.3 22.6h10.7l-4.7-24.5zM309 378.3c-.5-2.8-3.3-4.7-6.1-4.2s-4.7 3.3-4.2 6.1l3.1 16.4h10.7l-3.5-18.3zM281.2 338.8c.6 2.4 2.7 4 5.1 4 .4 0 .9-.1 1.3-.2 2.8-.7 4.5-3.6 3.8-6.4l-5-19.8-9.9 3.8 4.7 18.6zM253.9 373.8c-.5-2.9-3.2-4.7-6.1-4.2-2.9.5-4.7 3.2-4.2 6.1l3.8 21.1h10.7l-4.2-23zM201 364c.5 2.5 2.7 4.2 5.1 4.2.4 0 .7 0 1.1-.1 2.8-.6 4.7-3.4 4.1-6.2l-3.3-15.6-9.9 3.8L201 364z"/></g></svg>