<svg xmlns="http://www.w3.org/2000/svg" xmlns:xlink="http://www.w3.org/1999/xlink" viewBox="0 0 487.2 491.3"><path fill="#FDCC9B" d="M128.5 339.4h38V382h-38z"/><path fill="#FCBC85" d="M128.5 344.5s16 10.2 38 7.8v-12.8h-38v5z"/><ellipse fill="#FCBC85" cx="73.7" cy="273.5" rx="18.5" ry="21.2"/><ellipse fill="#FCBC85" cx="221.3" cy="273.5" rx="18.5" ry="21.2"/><path fill="#FDCC9B" d="M221.2 233.1c0-31.2-22.8-54-73.7-54s-73.7 22.8-73.7 54-5.3 113.2 73.7 113.2 73.7-82.1 73.7-113.2z"/><ellipse fill="#3B2519" cx="111.6" cy="268.4" rx="8" ry="8.7"/><circle fill="#FFF" cx="108.1" cy="264.5" r="2.4"/><path fill="#51362A" d="M98.8 246.7c3.8 1.9 9.8-6.4 23.7.8 2.5 1.3 4-11.3-10.8-11.3-12.9.1-15.1 9.4-12.9 10.5z"/><ellipse fill="#3B2519" cx="184.4" cy="268.4" rx="8" ry="8.7"/><circle fill="#FFF" cx="180.9" cy="264.5" r="2.4"/><path fill="#51362A" d="M196.2 246.7c-3.8 1.9-9.8-6.4-23.7.8-2.5 1.3-4-11.3 10.8-11.3 12.9.1 15.2 9.4 12.9 10.5z"/><path fill="#FCBC85" d="M147.5 299.1c-7.9 0-12.6-5.9-12.6-3 0 2.9 2.3 8.3 12.6 8.3 10.4 0 12.6-5.4 12.6-8.3 0-2.9-4.7 3-12.6 3zM147.5 325.3c-2.7 0-4.4-2-4.4-1.1 0 1 .8 2.9 4.4 2.9 3.6 0 4.4-1.9 4.4-2.9 0-.9-1.7 1.1-4.4 1.1z"/><path fill="#F7945E" d="M147.5 318.1c-12.5 0-20-5.1-20-3.8s3.6 6.4 20 6.4 20-5.1 20-6.4c0-1.3-7.5 3.8-20 3.8z"/><path fill="#F7941E" d="M147.5 356.5v47.9H55.2c0-19.4 48.6-47.9 92.3-47.9zM147.5 356.5v47.9h92.3c0-19.4-48.6-47.9-92.3-47.9z"/><path fill="#F36C21" d="M147.5 356.5c-9.3 0-18.8 1.3-28 3.5.1.1 10.2 13.2 28 13.2 16.5 0 27.4-11.2 29-13-9.5-2.3-19.4-3.7-29-3.7z"/><path fill="#FDCC9B" d="M128.5 358.2s5.6 6.9 19 6.9 19-6.9 19-6.9-19.7-7.2-38 0z"/><path fill="#51362A" d="M208.1 172.4s-27.4-34.8-84.2-21.7C67 163.8 62.8 198 64.5 231.3c1.7 33.3 6.3 52.8 11.7 50.4 5.4-2.4 2.6-24.4 3.2-29.4s5.7-28 40.3-24.6c34.6 3.4 63.7-9.1 63.7-9.1s11.7 14.8 19.5 17.7c15.4 5.7 10.4 43.5 16.4 43.5 5.9 0 35.6-87.4-11.2-107.4z"/><g><path fill="#432B1F" d="M249.5 330.9c8.5 23.6-4.8 67.1-4.8 67.1h76.8V264.4l-84.2 16.1c0 .1 4.6 29 12.2 50.4zm0 0M393.5 330.9c-8.5 23.6 4.8 67.1 4.8 67.1h-76.8V264.4l84.2 16.1c.1.1-4.5 29-12.2 50.4zm0 0"/><path fill="#FDCC9B" d="M303.7 342.4h35.6v39.9h-35.6z"/><path fill="#FCBC85" d="M303.7 347.1s15 9.5 35.6 7.3v-12h-35.6v4.7zm0 0M269.7 280.6c0 11-7.8 19.8-17.4 19.8-9.6 0-17.4-8.9-17.4-19.8s7.8-19.8 17.4-19.8c9.6-.1 17.4 8.8 17.4 19.8zm0 0M408 280.6c0 11-7.8 19.8-17.4 19.8-9.6 0-17.4-8.9-17.4-19.8s7.8-19.8 17.4-19.8c9.6-.1 17.4 8.8 17.4 19.8zm0 0"/><path fill="#FDCC9B" d="M390.6 242.7c0-29.2-21.4-50.6-69.1-50.6s-69.1 21.4-69.1 50.6c0 29.2-5 106.1 69.1 106.1s69.1-76.9 69.1-106.1zm0 0"/><path fill="#3B2519" d="M295.3 275.8c0 4.5-3.3 8.2-7.5 8.2-4.1 0-7.5-3.7-7.5-8.2 0-4.5 3.3-8.2 7.5-8.2s7.5 3.7 7.5 8.2zm0 0"/><path fill="#FFF" d="M286.8 272.2c0 1.2-1 2.2-2.2 2.2-1.2 0-2.2-1-2.2-2.2 0-1.2 1-2.2 2.2-2.2 1.2 0 2.2.9 2.2 2.2zm0 0"/><path fill="#51362A" d="M275.9 258.1c3.5 1.4 9.2-4.6 22.2.6 2.4.9 3.8-8.1-10.2-8.1-12 0-14.2 6.7-12 7.5zm0 0"/><path fill="#3B2519" d="M363.5 275.8c0 4.5-3.3 8.2-7.5 8.2-4.1 0-7.5-3.7-7.5-8.2 0-4.5 3.3-8.2 7.5-8.2s7.5 3.7 7.5 8.2zm0 0"/><path fill="#FFF" d="M355 272.2c0 1.2-1 2.2-2.2 2.2-1.2 0-2.2-1-2.2-2.2 0-1.2 1-2.2 2.2-2.2 1.2 0 2.2.9 2.2 2.2zm0 0"/><path fill="#51362A" d="M367.1 258.1c-3.5 1.4-9.2-4.6-22.2.6-2.4.9-3.8-8.1 10.1-8.1 12.1 0 14.2 6.7 12.1 7.5zm0 0"/><path fill="#FCBC85" d="M321.5 304.6c-7.4 0-11.8-5.5-11.8-2.8s2.1 7.7 11.8 7.7c9.7 0 11.8-5.1 11.8-7.7 0-2.7-4.4 2.8-11.8 2.8zm0 0M321.5 329.2c-2.6 0-4.1-1.9-4.1-1 0 .9.7 2.7 4.1 2.7 3.4 0 4.1-1.8 4.1-2.7 0-.9-1.6 1-4.1 1zm0 0"/><path fill="#F7945E" d="M321.5 322.4c-11.7 0-18.8-4.8-18.8-3.6 0 1.2 3.4 6 18.8 6s18.8-4.8 18.8-6c0-1.2-7.1 3.6-18.8 3.6zm0 0"/><path fill="#F9AA8D" d="M288.4 302c0 5.6-4.5 10.2-10.2 10.2-5.6 0-10.1-4.5-10.1-10.2s4.5-10.2 10.1-10.2 10.2 4.6 10.2 10.2zm0 0M376.1 302c0 5.6-4.5 10.2-10.1 10.2s-10.2-4.5-10.2-10.2c0-5.6 4.5-10.2 10.2-10.2 5.6 0 10.1 4.6 10.1 10.2zm0 0"/><path fill="#694B74" d="M321.5 358.4v44.9h-78c0-18.2 37-44.9 78-44.9zm0 0M321.5 358.4v44.9h78c0-18.2-37.1-44.9-78-44.9zm0 0"/><path fill="#563C60" d="M321.3 358.4c-8.8 0-17.8 1.2-26.6 3.3.1.1 9.7 12.4 26.6 12.4 15.6 0 26-10.5 27.5-12.2-9.1-2.2-18.4-3.5-27.5-3.5zm0 0"/><defs><path id="a" d="M229.2 150.7h195.2v254.1H229.2z"/></defs><clipPath id="b"><use xlink:href="#a" overflow="visible"/></clipPath><path clip-path="url(#b)" fill="#FDCC9B" d="M303.7 360s5.2 6.5 17.8 6.5c12.6 0 17.8-6.5 17.8-6.5s-18.5-6.7-35.6 0zm0 0"/><path clip-path="url(#b)" fill="#51362A" d="M384.2 181.1C339.3 127.7 253.9 149 235 222.8c-18.9 73.7 14.6 108.1 14.6 108.1-12.8-43.4 17.1-88.4 42.7-88.9s66.2-15 66.2-15 6.8 34.7 28.8 47.4c16.6 9.6 10.3 37.7 6 56.4 16.1-6 63.5-127.8-9.1-149.7zm0 0"/></g><g><path fill="#FDCC9B" d="M210.4 321.1h48.8v54.7h-48.8z"/><path fill="#FCBC85" d="M210.4 327.6s20.5 13.1 48.8 10v-16.5h-48.8v6.5z"/><ellipse fill="#FCBC85" cx="140" cy="236.4" rx="23.8" ry="27.2"/><ellipse fill="#FCBC85" cx="329.6" cy="236.4" rx="23.8" ry="27.2"/><path fill="#FDCC9B" d="M329.5 184.5c0-40-29.3-69.3-94.7-69.3s-94.7 29.3-94.7 69.3S133.3 330 234.8 330s94.7-105.5 94.7-145.5z"/><ellipse fill="#3B2519" cx="188.7" cy="229.9" rx="10.3" ry="11.2"/><circle fill="#FFF" cx="184.2" cy="224.9" r="3.1"/><path fill="#86461B" d="M172.3 202c4.8 2.4 12.6-8.2 30.4 1 3.2 1.7 5.2-14.5-13.9-14.5-16.5.1-19.4 12.1-16.5 13.5z"/><ellipse fill="#3B2519" cx="282.2" cy="229.9" rx="10.3" ry="11.2"/><circle fill="#FFF" cx="277.8" cy="224.9" r="3.1"/><path fill="#86461B" d="M297.4 202c-4.8 2.4-12.6-8.2-30.4 1-3.2 1.7-5.2-14.5 13.9-14.5 16.5.1 19.4 12.1 16.5 13.5z"/><path fill="#FCBC85" d="M234.8 269.3c-10.1 0-16.2-7.6-16.2-3.9 0 3.7 2.9 10.6 16.2 10.6s16.2-7 16.2-10.6c.1-3.6-6 3.9-16.2 3.9zM234.8 303c-3.5 0-5.6-2.6-5.6-1.4 0 1.3 1 3.7 5.6 3.7s5.6-2.4 5.6-3.7c0-1.2-2.1 1.4-5.6 1.4z"/><path fill="#F7945E" d="M234.8 293.7c-16.1 0-25.7-6.5-25.7-4.9 0 1.7 4.6 8.2 25.7 8.2s25.7-6.5 25.7-8.2c.1-1.7-9.6 4.9-25.7 4.9z"/><path fill="#D58E64" d="M234.8 343.1v61.5H116.2c0-24.9 62.5-61.5 118.6-61.5z"/><path fill="#D58E64" d="M234.8 343.1v61.5h118.6c.1-24.9-62.4-61.5-118.6-61.5z"/><path fill="#BF805A" d="M234.8 343.1c-11.9 0-24.2 1.7-36 4.5.1.1 13.1 17 36 17 21.2 0 35.3-14.4 37.3-16.7-12.2-3-24.9-4.8-37.3-4.8z"/><path fill="#FDCC9B" d="M210.4 345.2s7.1 8.9 24.4 8.9 24.4-8.9 24.4-8.9-25.3-9.2-48.8 0z"/><path fill="#86461B" d="M234.8 309.1v22.7c-51 0-67.9-27.2-72.8-34.8-3.7-5.6 24 19.8 48.4 19.8 10.8-.1 10.3-7.7 24.4-7.7zM234.8 309.1v22.7c51 0 67.9-27.2 72.8-34.8 3.7-5.6-24 19.8-48.4 19.8-10.7-.1-10.2-7.7-24.4-7.7zM235.5 158.1V78c-83.6 0-99.3 31.2-103.2 89.8-3.9 58.6 4.9 78.7 10.8 78.7 5.8-.1 2.7-67.2 10.7-81.6 14.6-26.3 40.8-6.8 81.7-6.8zM235.5 158.1V78c83.6 0 99.3 31.2 103.2 89.8 3.9 58.6-4.9 78.7-10.8 78.7-5.8-.1-2.7-67.2-10.7-81.6-14.7-26.3-40.9-6.8-81.7-6.8z"/><path fill="#744A25" d="M182.8 352.2c-36.9 12.5-66.6 35.2-66.6 52.4h66.6v-52.4z"/><path fill="#573514" d="M186.4 404.6v-56.1s-9.5 3.7-12.8 5.4l-9.7 50.8 22.5-.1z"/><path fill="#744A25" d="M286.8 352.2c36.9 12.5 66.6 35.2 66.6 52.4h-66.6v-52.4z"/><path fill="#573514" d="M283.3 404.6v-56.1s9.5 3.7 12.8 5.4l9.7 50.8-22.5-.1z"/></g></svg>