<svg xmlns="http://www.w3.org/2000/svg" viewBox="0 0 487.2 491.3"><path fill="#E6E6E6" d="M412.7 147.7v186.2c0 8.2-5.6 15.2-13.2 17.2-1.5.4-3 .6-4.6.6h-300c-9.8 0-17.8-8-17.8-17.8V147.7c0-9.8 8-17.8 17.8-17.8h300c1.6 0 3.1.2 4.6.6 7.6 2 13.2 8.9 13.2 17.2"/><path fill="#B3B3B3" d="M412.7 147.7v17.7H77.1v-17.7c0-9.8 8-17.8 17.8-17.8h300c9.9 0 17.8 7.9 17.8 17.8"/><path fill="#999" d="M97.5 176.1h87.9v12.2H97.5z"/><path fill="#FFF" d="M393.4 236.5H256.1v97.4h137.3v-97.4"/><path fill="#046699" d="M387.6 315.6H262.7v12.2h124.9v-12.2"/><path fill="#F7931E" d="M278.2 291.9h-15.5v12.2h15.5v-12.2"/><path fill="#F9DE58" d="M325.5 268.3h-62.8v12.2h62.8v-12.2"/><path fill="#999" d="M370.6 244.6H262.7v12.3h107.9v-12.3"/><circle fill="#FC7A51" cx="101.5" cy="147.6" r="11.1"/><circle fill="#F9DE58" cx="131.1" cy="147.6" r="11.1"/><path fill="#EEE" d="M409.2 137c2.2 3 3.6 6.7 3.6 10.7v17.7h-17.2c0 26.5-14.4 52.2-39.5 65.3-1.6.7-3.1 1.3-4.7 1.9l2.1 3.9h40.1v97.4H287.1l5.4 17.8h102.4c1.6 0 3.1-.2 4.6-.6 7.6-2 13.2-9 13.2-17.2V147.7c0-4-1.3-7.7-3.5-10.7m-.1-.1c0 .1.1.1 0 0 .1.1 0 .1 0 0m0 0"/><path fill="#CBCBCB" d="M394.9 129.9h-8.7c.3.5.6 1.1.9 1.6 5.7 10.8 8.3 22.4 8.4 33.9h17.2v-17.7c0-4-1.3-7.7-3.6-10.7-2.4-3.1-5.7-5.4-9.6-6.4-1.4-.5-3-.7-4.6-.7"/><path fill="#FFF" d="M393.4 236.5h-40.1l3.9 7.5-1.2.6h14.5v12.2h-107l3.5 11.4h58.4v12.2h-54.7l3.5 11.4h3.9V304h-.1l3.5 11.4h106.1v12.2H285.2l1.9 6.1h106.3v-97.2"/><path fill="#6EC6EB" d="M387.6 315.6H281.5l3.7 12.2h102.4v-12.2"/><path fill="#FDA589" d="M278.2 291.9h-3.9l3.7 12.2h.2v-12.2"/><path fill="#FFC502" d="M325.5 268.3h-58.4l3.7 12.2h54.7v-12.2"/><path fill="#EEE" d="M248.4 165.4h-12.7l21.7 71.1h46.5c-1.1-.2-2.2-.4-3.2-.7l-.7-.2c-17.9-5.6-33.7-18.1-43.1-36.1-5.8-10.9-8.5-22.6-8.5-34.1"/><path fill="#CBCBCB" d="M257.6 129.9h-32.7l10.8 35.5h12.7c0-7.5 1.2-14.8 3.4-21.9 1.5-4.7 3.5-9.3 5.8-13.6"/><path fill="#FFF" d="M303.9 236.5h-46.5l5.3 17.3v-9.2h39.9l2.5-7.9c-.4-.1-.8-.1-1.2-.2"/><path fill="#BABABA" d="M370.6 244.6h-14.5c-10.5 5.3-21.7 7.8-32.8 7.8-7.5 0-15-1.2-22.1-3.4l1.4-4.4h-39.9v9.2l.9 3h107v-12.2"/><path fill="#CECECE" d="M351.3 232.6c-4.6 1.7-9.3 3-14 3.9h16.1l-2.1-3.9"/><path fill="#DBDBDB" d="M353.3 236.5h-16.1c-5.5 1.1-11.1 1.6-16.7 1.6-5.2 0-10.4-.5-15.5-1.4l-2.5 7.9H356l1.2-.6-3.9-7.5"/><path fill="#A4A4A4" d="M356.1 244.6h-53.5l-1.4 4.4c7.1 2.2 14.6 3.4 22.1 3.4 11.1 0 22.3-2.5 32.8-7.8"/><path fill="#DBDBDB" d="M321.9 92c-11.5 0-23.1 2.7-34 8.4-13.3 6.9-23.5 17.3-30.3 29.5h128.6c-9.5-17.1-24.9-29-42.3-34.5-7-2.3-14.5-3.4-22-3.4"/><path fill="#9F9F9F" d="M386.3 129.9H257.6h128.7"/><path fill="#CECECE" d="M395.5 165.4H248.4c0 11.5 2.7 23.2 8.4 34.2 9.4 18 25.2 30.5 43.1 36.1l.7.2c1.1.2 2.2.5 3.2.7h33.3c4.8-.9 9.5-2.2 14-3.9 1.6-.6 3.2-1.2 4.7-1.9 25.3-13.3 39.7-38.9 39.7-65.4"/><path fill="#B2B2B2" d="M386.3 129.9H257.6c-2.4 4.3-4.3 8.9-5.8 13.6-2.2 7-3.4 14.4-3.4 21.9h147.1c0-11.4-2.7-23-8.4-33.9-.3-.6-.5-1.1-.8-1.6"/><path fill="#DBDBDB" d="M337.2 236.5h-33.3c.4.1.8.1 1.2.2 5.1.9 10.3 1.4 15.5 1.4 5.6 0 11.1-.5 16.6-1.6"/><path fill="#FFC502" d="M322 155.5l-3.9 12.3-18.1 57.8c-17.9-5.6-33.7-18.1-43.1-36.1-9.4-18-10.6-38.1-5-56l61.7 19.4 8.4 2.6z"/><path fill="#046699" d="M357.3 234.1c-5.5 2.9-11.3 5-17.1 6.4-13.1 3.1-26.5 2.5-39-1.4l19.6-62.3 2.5-7.8 34 65.1z"/><path fill="#F7931E" d="M356 220.7l-34-65.2-8.4-2.7-61.7-19.4c5.6-18 18.1-33.8 36.1-43.1 1.9-1 3.8-1.9 5.7-2.7 16.5-6.9 34.3-7.3 50.3-2.3 18 5.6 33.8 18.1 43.1 36.1 18.8 36.1 4.9 80.5-31.1 99.3z"/><path fill="#FFF" d="M233.7 196.6H96.4v137.3h137.3V196.6"/><path fill="#046699" d="M135.6 259.6H109v66.5h26.6v-66.5"/><path fill="#FFC502" d="M178.4 237.4h-26.6v88.7h26.6v-88.7"/><path fill="#F7931E" d="M221.2 213h-26.6v113.1h26.6V213"/><path fill="#046699" d="M245.9 312.6V408H66.4v-95.4h179.5"/><path fill="#F2F2F2" d="M77.5 396.9v-73.2h157.3v73.2H77.5"/><path fill="#FC7A51" d="M146.3 390.4L131 373.9l-6.5 8.7-5-3.6 11-14.9 14.5 15.8 22.8-41.2 17.4 27.9 20.5-36.4 5.4 3.1-25.6 45.5-17.3-27.9-21.9 39.5"/><path fill="#999" d="M85.6 336.3h20v8.1h-20zM85.6 356.3h20v8.1h-20zM85.6 376.2h20v8.1h-20z"/><path fill="#A2DFF9" d="M245.9 312.6H135.1l3.3 11.1h96.4v73.2h-74.1l3.4 11.1h81.8v-95.4"/><path fill="#F6F6F6" d="M234.8 323.7h-96.4l13.4 43.9 16-28.9 17.4 27.9 20.5-36.4 5.4 3.1-25.6 45.5-17.3-27.9-13.9 25 6.4 21h74.1v-73.2"/><path fill="#FDA589" d="M205.7 330.2l-20.5 36.4-17.4-27.9-16 28.9 2.5 8.3 13.9-25 17.3 27.9 25.6-45.5-5.4-3.1"/><path fill="#CCC" d="M357.4 380.8l6.3-15.3 18.7 18.7c1.1 1.1 2.5 1.6 3.9 1.6s2.8-.5 3.9-1.6c2.2-2.2 2.2-5.7 0-7.8l-18.7-18.7 15.3-6.3-58.1-28.7 28.7 58.1z"/><path fill="gray" d="M357.4 380.8l6.3-15.3 18.7 18.7c1.1 1.1 2.5 1.6 3.9 1.6s2.8-.5 3.9-1.6l-61.5-61.5 28.7 58.1z"/></svg>