<svg xmlns="http://www.w3.org/2000/svg" viewBox="0 0 487.2 491.3"><path fill="#FDCC9B" d="M380.8 293.6v-3.7c0-9.3-7.6-16.9-16.9-16.9h-76.2l16.1 108.3h82.4c10.2 0 18.5-8.3 18.5-18.5v-2h23.8v-67.3l-47.7.1z"/><path fill="#FCBC85" d="M395.1 347.3c0 10.2-8.3 18.5-18.5 18.5h-72.7L290 273.1h-2.3l16.1 108.3h82.4c10.2 0 18.5-8.3 18.5-18.5v-2h23.8v-15.6H395v2z"/><path fill="#75DC5E" d="M326 222.9c-3.1-11.7-9.9-34.3-14.3-45.4 4.1-2.8 6.2-8 4.9-13.1-1.7-6.5-8.4-10.3-14.8-8.6l-24.2 6.5c-6.5 1.7-10.3 8.4-8.6 14.8 1.4 5.1 5.8 8.5 10.8 8.9 1.7 11.8 7.1 34.7 10.3 46.4-7.2 12.6-12 28.4-8.3 42.4l33.7 125.6c1.1 3.9 5.1 6.3 9 5.2l58.3-15.6c3.9-1.1 6.3-5.1 5.2-9l-33.7-125.6c-3.7-13.9-15.8-25.1-28.3-32.5z"/><path fill="#2AAD52" d="M388 381.1l-33.7-125.6c-3.8-14-15.8-25.2-28.4-32.6-3.1-11.7-9.9-34.3-14.3-45.4 4.1-2.8 6.2-8 4.9-13.1-1.7-6.5-8.4-10.3-14.8-8.6l-10.4 2.8c5.1-1.4 10.6 2.8 12.3 9.2 1.4 5.1 0 10.1-3.2 12.7 4.1 11.1 10.8 33.8 13.9 45.5 10.4 7.9 20.7 19.6 24.4 33.7l33.7 125.6c1.1 3.9-.6 7.8-3.7 8.6l14-3.8c4-1 6.3-5.1 5.3-9z"/><path fill="#D2F5FF" d="M344.8 365.5c-20.1 5.4-40.8-6.5-46.2-26.7l-6-22.4c-5.4-20.1 6.5-40.8 26.7-46.2 20.1-5.4 40.8 6.5 46.2 26.7l6 22.4c5.3 20.2-6.6 40.8-26.7 46.2z"/><path fill="#9CC9D3" d="M341.9 271.3l22 82.1c7.6-9.1 10.9-21.7 7.6-34l-6-22.4c-3.4-12.4-12.4-21.6-23.6-25.7z"/><path fill="#FDCC9B" d="M284.8 273.1h-12.6c-7.5 0-13.5 6.1-13.5 13.5 0 7.5 6.1 13.5 13.5 13.5h12.6c7.5 0 13.5-6.1 13.5-13.5.1-7.5-6-13.5-13.5-13.5zM297.8 300.1h-12.6c-7.5 0-13.5 6.1-13.5 13.5 0 7.5 6.1 13.5 13.5 13.5h12.6c7.5 0 13.5-6.1 13.5-13.5s-6.1-13.5-13.5-13.5zM304.8 327.2h-12.6c-7.5 0-13.5 6.1-13.5 13.5 0 7.5 6.1 13.5 13.5 13.5h12.6c7.5 0 13.5-6.1 13.5-13.5s-6-13.5-13.5-13.5zM310.1 354.3h-12.6c-7.5 0-13.5 6.1-13.5 13.5 0 7.5 6.1 13.5 13.5 13.5h12.6c7.5 0 13.5-6.1 13.5-13.5.1-7.4-6-13.5-13.5-13.5zM354.9 252.1h-46.7c-.8 0-1.5.7-1.5 1.5v4.7c0 12.7 10.3 22.9 22.9 22.9h14.1v12.2c0 18.7 15.1 33.8 33.8 33.8h10.9c4.7 0 8.5-3.8 8.5-8.5V294c-.1-23.1-18.9-41.9-42-41.9z"/><path fill="#FCBC85" d="M191.7 258.3v-4.7c0-.8-.7-1.5-1.5-1.5h-46.7c-23.2 0-41.9 18.8-41.9 41.9v24.7c0 4.7 3.8 8.5 8.5 8.5H121c18.7 0 33.8-15.1 33.8-33.8v-12.2h14.1c12.5 0 22.8-10.2 22.8-22.9z"/><path fill="#75DC5E" d="M172.4 222.9c3.1-11.7 9.9-34.3 14.3-45.4-4.1-2.8-6.2-8-4.9-13.1 1.7-6.5 8.4-10.3 14.8-8.6l24.2 6.5c6.5 1.7 10.3 8.4 8.6 14.8-1.4 5.1-5.8 8.5-10.8 8.9-1.7 11.8-7.1 34.7-10.3 46.4 7.2 12.6 12 28.4 8.3 42.4l-33.7 125.6c-1.1 3.9-5.1 6.3-9 5.2L115.6 390c-3.9-1.1-6.3-5.1-5.2-9L144 255.5c3.8-14 15.8-25.2 28.4-32.6z"/><path fill="#2AAD52" d="M220.8 162.3l-11.1-3c5 1.3 7.6 7.7 5.9 14.1-1.4 5.1-5 8.7-9 9.4-2 11.7-7.6 34.6-10.8 46.3 4.9 12 7.8 27.3 4.1 41.3L166.2 396c-1.1 3.9-4.4 6.5-7.4 5.7l15 4c3.9 1.1 8-1.3 9-5.2l33.7-125.6c3.8-14-1.1-29.8-8.3-42.4 3.2-11.7 8.6-34.7 10.3-46.4 5-.4 9.4-3.8 10.8-8.9 1.8-6.5-2.1-13.1-8.5-14.9z"/><path fill="#D2F5FF" d="M153.5 365.5c20.1 5.4 40.8-6.5 46.2-26.7l6-22.4c5.4-20.1-6.5-40.8-26.7-46.2-20.1-5.4-40.8 6.5-46.2 26.7l-6 22.4c-5.3 20.2 6.6 40.8 26.7 46.2z"/><path fill="#9CC9D3" d="M197 281.2l-22.5 83.9c10.5-3.3 19.3-11.1 23.7-21.8l8.4-31.4c1.6-11.4-2.1-22.6-9.6-30.7z"/><path fill="#FDCC9B" d="M226.1 300.1c7.5 0 13.5-6.1 13.5-13.5 0-7.5-6.1-13.5-13.5-13.5H134.4c-4.1 0-7.8 1.4-10.7 3.8V257c-13.1 7-22 20.7-22.2 36.6H69.7v67.3h23.8v2c0 10.2 8.3 18.5 18.5 18.5h88.7c7.5 0 13.5-6.1 13.5-13.5 0-7.5-6.1-13.5-13.5-13.5h5.3c7.5 0 13.5-6.1 13.5-13.5 0-7.5-6.1-13.5-13.5-13.5h7c7.5 0 13.5-6.1 13.5-13.5s-6.1-13.5-13.5-13.5h.4l12.7-.3z"/><path fill="#FCBC85" d="M200.4 366.8h-75.3c-10.2 0-18.5-8.3-18.5-18.5 0-1.1-.9-2-2-2h-35v14.5h23.8v2c0 10.2 8.3 18.5 18.5 18.5h88.7c7.5 0 13.5-6.1 13.5-13.5 0-2.7-.8-5.2-2.2-7.3-2.2 3.8-6.6 6.3-11.5 6.3z"/><g fill="#F9B732"><path d="M249.2 127.6c-2.9 0-5.3-2.4-5.3-5.3v-22.1c0-2.9 2.4-5.3 5.3-5.3s5.3 2.4 5.3 5.3v22.1c-.1 3-2.4 5.3-5.3 5.3zM230.7 133.3c-1.5 0-3.1-.7-4.1-2l-15.4-19.2c-1.8-2.3-1.5-5.6.8-7.4 2.3-1.8 5.6-1.5 7.4.8l15.4 19.2c1.8 2.3 1.5 5.6-.8 7.4-1 .8-2.2 1.2-3.3 1.2zM267.7 133.3c-1.2 0-2.3-.4-3.3-1.2-2.3-1.8-2.6-5.1-.8-7.4l15.4-19.2c1.8-2.3 5.1-2.6 7.4-.8 2.3 1.8 2.6 5.1.8 7.4l-15.4 19.2c-1.1 1.3-2.6 2-4.1 2z"/></g><circle fill="#FFCA54" cx="306.5" cy="127.3" r="5.7"/><path fill="#F9B732" d="M346.2 168.8c-.5-1.6.4-3.4 2-3.9 4.8-1.5 16-6.4 16.9-19.3.5-7.6 3.3-13.6 8.3-17.9 9.1-7.8 22.1-6.7 22.7-6.6 1.7.2 3 1.7 2.8 3.4-.2 1.7-1.7 3-3.4 2.8-.1 0-11-.9-18.1 5.2-3.7 3.1-5.7 7.7-6.2 13.6-.8 11.7-8.5 20.7-21.2 24.7-1.5.6-3.3-.3-3.8-2z"/><g fill="#FF4B4E"><circle cx="351.9" cy="144.3" r="4"/><circle cx="332" cy="96.9" r="4"/></g><g fill="#00CDB3"><path d="M373.9 206.4c0-1.7 1.3-3.1 3-3.2l6.2-.2c1.7-.1 3.1 1.3 3.2 3 0 1.7-1.3 3.1-3 3.2l-6.2.2c-1.7 0-3.2-1.3-3.2-3zM318.1 116.7c-1.7-.1-3.1-1.5-3-3.2l.2-6.2c.1-1.7 1.5-3.1 3.2-3 1.7.1 3.1 1.5 3 3.2l-.2 6.2c0 1.8-1.5 3.1-3.2 3z"/></g><path fill="#57BAE5" d="M350.2 121.6c0-1.7 1.3-3.1 3-3.2l6.2-.2c1.7-.1 3.1 1.3 3.2 3 0 1.7-1.3 3.1-3 3.2l-6.2.2c-1.7.1-3.2-1.2-3.2-3z"/><g fill="#F9B732"><path d="M424.3 162.7c-15.4-2.8-20.3 7.3-23.9 14.7-3.6 7.3-5.5 11.4-14.6 7.5-8.4-3.6-15.5-4-20.9-1.4-4.4 2.2-6 5.5-6.1 5.9-.9 2.1.6 4.4 2.8 4.4 1.2 0 2.3-.7 2.8-1.8 0-.1 3.7-7.9 19-1.4 14.1 6 18.8-2.6 22.6-10.5 3.6-7.4 6.4-13.3 17.2-11.3 1.7.3 3.3-.8 3.6-2.5.3-1.7-.8-3.3-2.5-3.6zM351 90c-1.7.3-2.8 1.9-2.5 3.6 3 17.3-14.9 14.8-21.8 24.3-2.9 4-3 9-.3 15.4 6.2 14.8-1.1 18.7-1.5 19-.3.1-3.4 1.6-2.4 3.9 1.5 3.3 4.9 1.8 4.9 1.8 3.5-1.5 12.3-9 4.7-27-3.8-9.1 0-10.9 7.6-14.6 7.4-3.5 17.5-8.4 14.9-23.8-.3-1.8-2-2.9-3.6-2.6z"/></g><g><circle fill="#FFCA54" cx="187.2" cy="127.3" r="5.7"/><circle fill="#00CDB3" cx="100.4" cy="150.5" r="5.7"/><path fill="#F9B732" d="M147.4 168.8c.5-1.6-.4-3.4-2-3.9-4.8-1.5-16-6.4-16.9-19.3-.5-7.6-3.3-13.6-8.3-17.9-9.1-7.8-22.1-6.7-22.7-6.6-1.7.2-3 1.7-2.8 3.4.2 1.7 1.7 3 3.4 2.8.1 0 11-.9 18.1 5.2 3.7 3.1 5.7 7.7 6.2 13.6.8 11.7 8.5 20.7 21.2 24.7 1.6.6 3.3-.3 3.8-2z"/><g fill="#FF4B4E"><circle cx="141.7" cy="144.3" r="4"/><circle cx="161.7" cy="96.9" r="4"/></g><g fill="#00CDB3"><path d="M119.8 206.4c0-1.7-1.3-3.1-3-3.2l-6.2-.2c-1.7-.1-3.1 1.3-3.2 3 0 1.7 1.3 3.1 3 3.2l6.2.2c1.7 0 3.1-1.3 3.2-3zM175.5 116.7c1.7-.1 3.1-1.5 3-3.2l-.2-6.2c-.1-1.7-1.5-3.1-3.2-3-1.7.1-3.1 1.5-3 3.2l.2 6.2c.1 1.8 1.6 3.1 3.2 3z"/></g><path fill="#57BAE5" d="M143.5 121.6c0-1.7-1.3-3.1-3-3.2l-6.2-.2c-1.7-.1-3.1 1.3-3.2 3 0 1.7 1.3 3.1 3 3.2l6.2.2c1.7.1 3.1-1.2 3.2-3z"/><g fill="#F9B732"><path d="M69.4 162.7c15.4-2.8 20.3 7.3 23.9 14.7 3.6 7.3 5.5 11.4 14.6 7.5 8.4-3.6 15.5-4 20.9-1.4 4.4 2.2 6 5.5 6.1 5.9.9 2.1-.6 4.4-2.8 4.4-1.2 0-2.3-.7-2.8-1.8 0-.1-3.7-7.9-19-1.4-14.1 6-18.8-2.6-22.6-10.5-3.6-7.4-6.4-13.3-17.2-11.3-1.7.3-3.3-.8-3.6-2.5-.4-1.7.8-3.3 2.5-3.6zM142.7 90c1.7.3 2.8 1.9 2.5 3.6-3 17.3 14.9 14.8 21.8 24.3 2.9 4 3 9 .3 15.4-6.2 14.8 1.1 18.7 1.5 19 .3.1 3.4 1.6 2.4 3.9-1.5 3.3-4.9 1.8-4.9 1.8-3.5-1.5-12.3-9-4.7-27 3.8-9.1 0-10.9-7.6-14.6-7.4-3.5-17.5-8.4-14.9-23.8.3-1.8 1.9-2.9 3.6-2.6z"/></g></g></svg>