<svg xmlns="http://www.w3.org/2000/svg" viewBox="0 0 487.2 491.3"><path fill="#E6E9ED" d="M110.8 126c-3.1-6.4-.4-14.1 6-17.2 2.1-1 4.3-1.4 6.5-1.2 2-4.5 5.6-8.4 10.5-10.7 10.9-5.3 24-.7 29.3 10.2 1.3 2.6 2 5.4 2.1 8.2 4.9-.2 9.6 2.5 11.9 7.2 3.1 6.3.4 13.9-5.9 17-5.7 2.8-12.5.8-16-4.3-.7.5-1.5.9-2.3 1.3-8.6 4.2-18.6 2.2-25.1-4.2-6.4 2.7-13.9.1-17-6.3z"/><circle fill="#E6E9ED" cx="114.1" cy="91.8" r="10.8"/><path fill="#86461B" d="M178.1 189.4h-26c-3.7 0-6.7-3-6.7-6.7v-41.5c0-3.7 3-6.7 6.7-6.7h26c3.7 0 6.7 3 6.7 6.7v41.5c-.1 3.8-3.1 6.7-6.7 6.7z"/><path fill="#FFC502" d="M92.2 307.6h77.6v99.6H92.2z"/><path fill="#EF5050" d="M173.1 329H92.4c-3.3 0-5.7-3.2-4.7-6.4l8-26.4c.6-2.1 2.5-3.5 4.7-3.5h72.7V329z"/><path fill="#FFC502" d="M323.7 307.6h77.6v99.6h-77.6z"/><path fill="#EF5050" d="M320.5 329h80.7c3.3 0 5.7-3.2 4.7-6.4l-8-26.4c-.6-2.1-2.5-3.5-4.7-3.5h-72.7V329z"/><path opacity=".1" d="M320.5 329h80.7c3.3 0 5.7-3.2 4.7-6.4l-8-26.4c-.6-2.1-2.5-3.5-4.7-3.5h-72.7V329z"/><path fill="#FFC502" d="M349.2 201.2v206H144.3v-206l102.5-100.5z"/><path fill="#86461B" d="M199 348.4h-32c-2 0-3.6-1.6-3.6-3.6v-44.3c0-2 1.6-3.6 3.6-3.6h32c2 0 3.6 1.6 3.6 3.6v44.3c.1 1.9-1.6 3.6-3.6 3.6z"/><path fill="#FFF" d="M199 353.5h-32c-4.9 0-8.8-4-8.8-8.8v-44.3c0-4.9 4-8.8 8.8-8.8h32c4.9 0 8.8 4 8.8 8.8v44.3c0 4.9-3.9 8.8-8.8 8.8zm-30.4-10.3h28.9v-41.3h-28.9v41.3z"/><path fill="#86461B" d="M327.7 348.4h-32c-2 0-3.6-1.6-3.6-3.6v-44.3c0-2 1.6-3.6 3.6-3.6h32c2 0 3.6 1.6 3.6 3.6v44.3c.1 1.9-1.5 3.6-3.6 3.6z"/><path fill="#FFF" d="M327.7 353.5h-32c-4.9 0-8.8-4-8.8-8.8v-44.3c0-4.9 4-8.8 8.8-8.8h32c4.9 0 8.8 4 8.8 8.8v44.3c.1 4.9-3.9 8.8-8.8 8.8zm-30.4-10.3h28.9v-41.3h-28.9v41.3z"/><path fill="#86461B" d="M225.4 407.2V295.3c0-4.9 4-8.9 8.9-8.9h24.8c4.9 0 8.9 4 8.9 8.9v111.9h-42.6z"/><path fill="#86461B" d="M273.4 407.2h-10.6V298.3c0-3.7-3-6.7-6.7-6.7h-18.7c-3.7 0-6.7 3-6.7 6.7v108.9h-10.6V291.3c0-5.7 4.6-10.3 10.3-10.3h32.7c5.7 0 10.3 4.6 10.3 10.3v115.9z"/><circle fill="#FFF" cx="239.2" cy="328.4" r="4.8"/><path fill="#573514" d="M144.3 379h204.9v28.2H144.3z"/><path fill="#2AAD52" d="M142.1 396.2c0 3.9-.7 7.6-2.1 11H84c-1.3-3.4-2.1-7.1-2.1-11 0-3.8.7-7.4 2-10.8C88.2 374.1 99.2 366 112 366s23.8 8 28.1 19.4c1.3 3.4 2 7 2 10.8z"/><path fill="#75DC5E" d="M161.5 399.2c0 2.8-.5 5.5-1.5 8h-40.7c-1-2.5-1.5-5.2-1.5-8 0-2.7.5-5.4 1.4-7.8 3.1-8.2 11.1-14 20.4-14s17.3 5.8 20.4 14c1 2.4 1.5 5.1 1.5 7.8z"/><path fill="#2AAD52" d="M411.7 394.4c0 4.5-.9 8.9-2.4 12.8H344c-1.6-4-2.4-8.3-2.4-12.8 0-4.4.8-8.6 2.3-12.5 5-13.2 17.8-22.6 32.8-22.6 15 0 27.7 9.4 32.8 22.6 1.4 3.8 2.2 8 2.2 12.5z"/><path fill="#86461B" d="M334.2 220H162c-4.1 0-7.4 3.3-7.4 7.4v33.1h5.2v-33.1c0-1.3 1-2.3 2.3-2.3h10.3v35.3h5.2v-35.3H193v35.3h5.2v-35.3h15.4v35.3h5.2v-35.3h15.4v35.3h5.2v-35.3h15.4v35.3h5.2v-35.3h15v35.3h5.2v-35.3h15.4v35.3h5.2v-35.3h15.4v35.3h5.2v-35.3h13c1.3 0 2.3 1 2.3 2.3v33.1h5.2v-33.1c-.2-4-3.6-7.4-7.7-7.4z"/><path fill="#EF5050" d="M353.5 255.2v16.6c0 2.5-2 4.5-4.5 4.5H144.5c-2.5 0-4.5-2-4.5-4.5v-16.6c0-2.5 2-4.5 4.5-4.5H349c2.5 0 4.5 2 4.5 4.5zM385.9 219.1L253.6 86.8c-3.8-3.8-9.9-3.8-13.7 0L107.6 219.1c-2.5 2.5-2.5 6.5 0 8.9l5.6 5.6c2.5 2.5 6.5 2.5 8.9 0L245 110.9c1-1 2.6-1 3.6 0l122.8 122.8c2.5 2.5 6.5 2.5 8.9 0l5.6-5.6c2.5-2.5 2.5-6.5 0-9z"/><path opacity=".1" d="M253.6 86.8c-1.9-1.9-4.4-2.8-6.8-2.8v26.2c.7 0 1.3.2 1.8.7l122.8 122.8c2.5 2.5 6.5 2.5 8.9 0l5.6-5.6c2.5-2.5 2.5-6.5 0-8.9L253.6 86.8z"/><path fill="#86461B" d="M271.5 204H222c-2 0-3.5-1.6-3.5-3.5v-24.8c0-15.6 12.7-28.3 28.3-28.3 15.6 0 28.3 12.7 28.3 28.3v24.8c0 1.9-1.6 3.5-3.6 3.5z"/><path fill="#FFF" d="M246.8 142c-18.6 0-33.7 15.1-33.7 33.7v24.8c0 4.9 4 8.9 8.9 8.9h49.5c4.9 0 8.9-4 8.9-8.9v-24.8c0-18.6-15.1-33.7-33.6-33.7zm22.7 30.8h-17.4v-19.4c9.2 2.2 16.2 9.9 17.4 19.4zm-28.1-19.4v19.4H224c1.2-9.5 8.3-17.2 17.4-19.4zm-17.5 30.1h17.5v15h-17.5v-15zm28.3 15.1v-15h17.5v15h-17.5z"/></svg>