<svg xmlns="http://www.w3.org/2000/svg" viewBox="0 0 487.2 491.3"><path fill="#444966" d="M120.3 221v164c0 8.7 8.6 17.3 19.2 17.3h216.8c10.6 0 19.2-8.6 19.2-17.3V221c0-12.6-8.6-21.2-19.2-21.2H139.5c-10.6 0-19.2 8.6-19.2 21.2z"/><path fill="#2E344C" d="M356.3 199.8h-10.8c10.6 0 19.2 8.6 19.2 21.2v164c0 8.7-8.6 17.3-19.2 17.3h10.8c10.6 0 19.2-8.6 19.2-17.3V221c0-12.6-8.6-21.2-19.2-21.2z"/><path fill="#5C9CEE" d="M139.5 355.5c-1.1 0-2-.7-2.3-1.1V221c0-.4.1-4.3 2.3-4.3h216.8c2.3 0 2.3 3.9 2.3 4.3v133.4c-.4.4-1.3 1.1-2.3 1.1H139.5z"/><path fill="#EBEEF2" d="M274 386v4.4c0 2.2-1.8 3.9-3.9 3.9h-44.4c-2.2 0-3.9-1.8-3.9-3.9V386c0-2.2-1.8-3.9-3.9-3.9H104.3c-2.2 0-3.9 1.8-3.9 3.9v10.2c0 7.9 6.4 14.3 14.3 14.3H381c7.9 0 14.3-6.4 14.3-14.3V386c0-2.2-1.8-3.9-3.9-3.9H277.9c-2.1 0-3.9 1.7-3.9 3.9z"/><path fill="#D1D6DE" d="M391.5 382.1h-14.4c2.2 0 3.9 1.8 3.9 3.9v10.2c0 7.9-6.4 14.3-14.3 14.3h14.4c7.9 0 14.3-6.4 14.3-14.3V386c0-2.2-1.8-3.9-3.9-3.9z"/><path fill="#FCAB29" d="M239.5 335.5c0 6.5 3.3 12.2 8.4 15.5 5.1-3.3 8.4-9 8.4-15.5s-3.3-12.2-8.4-15.5c-5.1 3.3-8.4 9-8.4 15.5z"/><path fill="#FA0" d="M383 305.6c-1 0-2.1-.4-2.9-1.2-1.6-1.6-1.7-4.2-.1-5.8l5.1-5.3c1.6-1.6 4.2-1.7 5.8-.1s1.7 4.2.1 5.8l-5.1 5.3c-.7.9-1.8 1.3-2.9 1.3z"/><path fill="#FFD02F" d="M376.5 246.4l-8.6 6.5c-2.2 1.7-5.4 0-5.3-2.9l.3-11c0-1.1-.5-2.2-1.4-2.9l-8.6-6.5c-2.2-1.7-1.6-5.3 1-6.1l10.2-3.1c1.1-.3 1.9-1.2 2.2-2.2l3.3-10.4c.9-2.7 4.4-3.2 5.9-.9l6 9.1c.6.9 1.7 1.5 2.7 1.5h10.7c2.8 0 4.3 3.3 2.6 5.5l-6.5 8.7c-.7.9-.9 2.1-.5 3.2l3.3 10.5c.9 2.7-1.7 5.3-4.3 4.3l-10.1-3.7c-.8-.4-2-.3-2.9.4z"/><path fill="#FF4E61" d="M298.3 332.5c-2.3 0-4.1-1.8-4.1-4.1 0-31.8 12.7-53.4 23.4-65.8 11.6-13.5 23.1-19.5 23.6-19.7 2-1 4.5-.2 5.5 1.8s.2 4.5-1.8 5.5c-.2.1-10.8 5.7-21.3 18-14 16.5-21.1 36.8-21.1 60.2-.1 2.2-1.9 4.1-4.2 4.1z"/><path fill="#5C73BC" d="M360.4 296.2c0-6.3-4.9-11.4-11-11.4s-11 5.1-11 11.4 4.9 11.4 11 11.4c6 0 11-5.1 11-11.4z"/><path fill="#FF4E61" d="M145.4 315.7c-1 0-2.1-.4-2.9-1.2-1.6-1.6-1.7-4.2-.1-5.8l5.1-5.3c1.6-1.6 4.2-1.7 5.8-.1s1.7 4.2.1 5.8l-5.1 5.3c-.8.9-1.8 1.3-2.9 1.3z"/><path fill="#2DC471" d="M95.5 194.7c-1 0-2.1-.4-2.9-1.2-1.6-1.6-1.7-4.2-.1-5.8l5.1-5.3c1.6-1.6 4.2-1.7 5.8-.1 1.6 1.6 1.7 4.2.1 5.8l-5.1 5.3c-.7.8-1.8 1.3-2.9 1.3z"/><path fill="#FFD02F" d="M145.9 260.6l6.5 8.7c1.7 2.3 5.2 1.5 5.9-1.2l2.7-10.6c.3-1.1 1.1-2 2.1-2.4l10-3.7c2.6-1 3-4.6.7-6.1l-9-5.9c-.9-.6-1.5-1.7-1.5-2.8l-.3-11c-.1-2.8-3.3-4.4-5.4-2.6l-8.3 7c-.9.7-2 1-3 .6l-10.2-3.1c-2.7-.8-5 1.9-4 4.6l3.9 10.2c.4 1.1.3 2.2-.3 3.2l-6 9.1c-1.6 2.4.2 5.5 3 5.4l10.6-.6c.9-.2 1.9.3 2.6 1.2z"/><path fill="#FA0" d="M188.3 324.4c-2.3 0-4.1-1.8-4.1-4.1 0-16.7-3.7-32-11-45.5-1.1-2-.3-4.5 1.6-5.6 2-1.1 4.5-.3 5.6 1.6 8 14.7 12 31.3 12 49.4 0 2.3-1.9 4.2-4.1 4.2z"/><path fill="#62D38F" d="M113.2 290.4c0-5-4-9.1-8.9-9.1s-8.8 4.1-8.8 9.1 4 9.1 8.8 9.1c5 0 8.9-4.1 8.9-9.1z"/><path fill="#5C73BC" d="M137.7 200c0-5-4-9.1-8.9-9.1S120 195 120 200s4 9.1 8.8 9.1c5 0 8.9-4.1 8.9-9.1z"/><g><path fill="#FF4E61" d="M241.4 152.7c-.9 0-1.7-.3-2.4-1-1.4-1.3-1.4-3.5-.1-4.9l4.3-4.4c1.3-1.4 3.5-1.4 4.9-.1 1.4 1.3 1.4 3.5.1 4.9l-4.3 4.4c-.7.8-1.6 1.1-2.5 1.1z"/><path fill="#5C73BC" d="M341 137.3c-.9 0-1.7-.3-2.4-1-1.4-1.3-1.4-3.5-.1-4.9l4.3-4.4c1.3-1.4 3.5-1.4 4.9-.1 1.4 1.3 1.4 3.5.1 4.9l-4.3 4.4c-.7.7-1.6 1.1-2.5 1.1z"/><path fill="#FA0" d="M176.2 143.2c-.9 0-1.7-.3-2.4-1-1.4-1.3-1.4-3.5-.1-4.9l4.3-4.4c1.3-1.4 3.5-1.4 4.9-.1 1.4 1.3 1.4 3.5.1 4.9l-4.3 4.4c-.6.7-1.6 1.1-2.5 1.1z"/><path fill="#FFD02F" d="M248.2 221l-11.3 6.1c-2.9 1.6-6.3-1-5.8-4.3l2.2-12.9c.2-1.3-.2-2.7-1.1-3.6l-9.1-9.2c-2.4-2.4-1.1-6.5 2.2-7l12.6-1.9c1.3-.2 2.4-1 3-2.2l5.6-11.8c1.5-3.1 5.7-3.1 7.1 0l5.6 11.8c.6 1.2 1.7 2.1 3 2.2l12.6 1.9c3.3.5 4.6 4.6 2.2 7l-9.1 9.2c-.9.9-1.4 2.3-1.1 3.6l2.2 12.9c.6 3.4-2.9 5.9-5.8 4.3l-11.3-6.1c-1.1-.7-2.5-.7-3.7 0z"/><path fill="#FF4E61" d="M187.6 198.6c-.9 0-1.8-.4-2.5-1.1l-37.3-38.4c-1.3-1.4-1.3-3.6.1-4.9 1.4-1.3 3.6-1.3 4.9.1l37.3 38.4c1.3 1.4 1.3 3.6-.1 4.9-.7.7-1.5 1-2.4 1z"/><path fill="#FA0" d="M200.1 211.6c-.9 0-1.8-.3-2.4-1-1.4-1.3-1.4-3.5-.1-4.9 1.3-1.4 3.5-1.4 4.9-.1 1.4 1.3 1.4 3.5.1 4.9-.6.7-1.6 1.1-2.5 1.1z"/><path fill="#5C73BC" d="M208.3 220c-.9 0-1.7-.3-2.4-1-1.4-1.3-1.4-3.5-.1-4.9 1.3-1.4 3.5-1.4 4.9-.1 1.4 1.3 1.4 3.5.1 4.9-.6.8-1.5 1.1-2.5 1.1z"/><path fill="#FA0" d="M312.6 197.2c-.9 0-1.7-.3-2.4-1-1.4-1.3-1.4-3.5-.1-4.9l37.3-38.4c1.3-1.4 3.5-1.4 4.9-.1s1.4 3.5.1 4.9l-37.3 38.4c-.7.8-1.6 1.1-2.5 1.1z"/><path fill="#FF4E61" d="M300 210.2c-.9 0-1.8-.3-2.5-1-1.3-1.4-1.3-3.6 0-4.9 1.4-1.3 3.6-1.3 4.9 0 1.3 1.4 1.3 3.6 0 4.9-.6.7-1.5 1-2.4 1z"/><path fill="#FA0" d="M291.8 218.7c-.9 0-1.8-.4-2.5-1.1-1.3-1.4-1.3-3.6.1-4.9 1.4-1.3 3.6-1.3 4.9.1 1.3 1.4 1.3 3.6-.1 4.9-.6.6-1.5 1-2.4 1z"/><path fill="#62D38F" d="M287.9 144.9c-.6 0-1.2-.1-1.7-.5-1.7-1-2.2-3.1-1.3-4.7l26.7-46.8c1-1.7 3.1-2.2 4.7-1.3s2.2 3.1 1.3 4.7l-26.7 46.8c-.6 1.2-1.8 1.8-3 1.8z"/><path fill="#FA0" d="M278.9 160.7c-.6 0-1.2-.2-1.8-.5-1.6-1-2.2-3.1-1.2-4.8 1-1.6 3.1-2.2 4.8-1.2 1.6 1 2.2 3.1 1.2 4.8-.7 1.1-1.8 1.7-3 1.7z"/><path fill="#2DC471" d="M273 171c-.6 0-1.2-.2-1.8-.5-1.6-1-2.2-3.1-1.2-4.8 1-1.6 3.1-2.2 4.8-1.2 1.6 1 2.2 3.1 1.2 4.8-.7 1.1-1.8 1.7-3 1.7z"/><path fill="#5C73BC" d="M212.4 144.9c-1.2 0-2.4-.6-3-1.8l-26.7-46.8c-1-1.7-.4-3.8 1.3-4.7 1.7-1 3.8-.4 4.7 1.3l26.7 46.8c1 1.7.4 3.8-1.3 4.7-.6.4-1.1.5-1.7.5z"/><path fill="#FF4E61" d="M221.4 160.7c-1.2 0-2.3-.6-3-1.7-1-1.6-.5-3.8 1.2-4.8 1.6-1 3.8-.5 4.8 1.2 1 1.6.5 3.8-1.2 4.8-.6.4-1.2.5-1.8.5z"/><path fill="#FA0" d="M227.2 171c-1.2 0-2.3-.6-3-1.7-1-1.6-.5-3.8 1.2-4.8 1.6-1 3.8-.5 4.8 1.2 1 1.6.5 3.8-1.2 4.8-.5.4-1.2.5-1.8.5z"/><path fill="#FFD02F" d="M273 116.4c0-5.3-4.2-9.6-9.3-9.6-5.1 0-9.3 4.3-9.3 9.6s4.2 9.6 9.3 9.6c5.1 0 9.3-4.3 9.3-9.6z"/><g fill="#FF4E61"><path d="M245.7 97.8c0-4.3-3.3-7.7-7.5-7.7-4.1 0-7.5 3.4-7.5 7.7 0 4.3 3.3 7.7 7.5 7.7 4.1 0 7.5-3.4 7.5-7.7zM318.2 161.9c0-4.3-3.3-7.7-7.5-7.7-4.1 0-7.5 3.4-7.5 7.7 0 4.3 3.3 7.7 7.5 7.7s7.5-3.4 7.5-7.7zM212.4 105.5c-.9 0-1.7-.3-2.4-1-1.4-1.3-1.4-3.5-.1-4.9l4.3-4.4c1.3-1.4 3.5-1.4 4.9-.1 1.4 1.3 1.4 3.5.1 4.9l-4.3 4.4c-.7.7-1.6 1.1-2.5 1.1z"/></g></g><path fill="#ED5575" d="M287.1 299.4c2.7 0 4.9-2.1 5.1-4.8.1-1 .1-2 .1-2.9 0-24.5-19.9-44.4-44.4-44.4s-44.4 19.9-44.4 44.4c0 1 0 2 .1 2.9.2 2.7 2.4 4.8 5.1 4.8h78.4z"/><path fill="#CC3A60" d="M221.7 255.7c2 13.5 6.2 29.8 11.1 43.6H271c4.2-11.7 7.8-25.2 10.1-37.3-8.1-9.1-20-14.9-33.2-14.9-9.8.1-18.8 3.3-26.2 8.6z"/><path fill="#EBEEF2" d="M259.7 308c2.4 0 4.6-1.5 5.5-3.7 7.8-20.1 14.3-47.8 14.3-63.5 0-22.8-31.5-39.9-31.5-39.9s-31.5 17.1-31.5 39.9c0 15.6 6.4 43.4 14.3 63.5.9 2.3 3 3.7 5.5 3.7h23.4z"/><path fill="#D1D6DE" d="M247.9 200.9s19.2 17.1 19.2 39.9c0 15.6-3.9 43.4-8.7 63.5-.5 2.3-1.9 3.7-3.3 3.7h4.6c2.4 0 4.6-1.5 5.5-3.7 7.8-20.1 14.3-47.8 14.3-63.5-.1-22.8-31.6-39.9-31.6-39.9z"/><circle fill="#8088A0" cx="247.9" cy="251.8" r="11.8"/><path fill="#5C9CEE" d="M220.5 226.4h54.9C266.9 211.2 248 201 248 201s-19 10.2-27.5 25.4z"/><path fill="#3580D3" d="M264.6 226.4h10.7c-7.1-12.6-21.2-21.8-25.9-24.5-.2-.1-.5-.3-.7-.4-.1 0-.1-.1-.2-.1l-.1-.1h-.1s-.1 0-.1-.1c0 0-.1 0-.1-.1h-.1-.1s11.5 10.1 16.7 25.3z"/></svg>