<svg width="800" height="800" version="1.1" id="Layer_1" xmlns="http://www.w3.org/2000/svg" x="0" y="0" xml:space="preserve"><style>.st1{fill:#c33}.st3{fill:#c60}.st7{fill:#7e93fc}.st12{fill:#d0ddfe}.st19{fill:#282642}.st20{fill:#fff}.st21{fill:#eebcc5}.st22{fill:#ecb329}.st23{fill:#00218c}.st25{fill:#c03}.st26{fill:#8c5a50}.st58{fill:#840227}.st77{fill:none;stroke:#282642;stroke-width:.5;stroke-linecap:round;stroke-linejoin:round;stroke-miterlimit:10}.st80{fill:#a7bafc}.st81{fill:#ffea00}.st82{fill:#db9e16}.st84{fill:#524f63}.st85{opacity:.4;fill:#db9e16}</style><path transform="matrix(1 -.00697 .00697 1 -2.685 2.574)" class="st80" d="M268.5 362h198.6v48.7H268.5z"/><path class="st12" d="M268.7 419.8L169.8 478l-.4-57.3 98.9-58.2z"/><path class="st12" d="M284 367.7l.3 43.3-24.7 14.3-1-42.9z"/><path class="st7" d="M467.3 418.6l99.7 56.9-.4-57.3-99.7-56.9z"/><path class="st7" d="M452.3 370.3l.3 40 18.1 10.3 1.5-39.1z"/><path class="st20" d="M550.9 425.5l15.7-8.2-99.7-56-14.6 9zM452.3 370.3l14.6-9.1-198.6 1.5 15.7 8.9zM185.5 428.1l-15.9-8.3 98.4-57.1 16 8.9z"/><path class="st80" d="M237.9 330.9h260.2v63.8H237.9z"/><path class="st12" d="M237.9 405.7l-130.1 75.4V406l130.1-75.4z"/><path class="st12" d="M258.4 337.7v56.6L226 412.9l-1-56.3z"/><path class="st7" d="M498.1 406l130.1 75.4v-75.1l-130.1-75.4z"/><path class="st7" d="M478.9 342.6v52.3l23.7 13.7 2.2-51.3z"/><path class="st20" d="M607.5 415.8l20.6-10.6-130-74.3-19.2 11.7z"/><path class="st20" d="M478.9 342.6l19.2-11.9-260.2.2 20.5 11.8zM128.8 415.8l-20.7-10.9 129.4-74 20.9 11.8z"/><path class="st80" d="M202.3 292.8h331.3v81.3H202.3z"/><path class="st12" d="M202.3 387.9l-165.6 96v-95.6l165.6-96z"/><path class="st12" d="M228.5 301.4v72.1l-41.3 23.7-1.3-71.6z"/><path class="st7" d="M533.6 388.5l165.7 96v-95.6l-165.7-96.1z"/><path class="st7" d="M509.2 307.7v66.7l30.2 17.4 2.8-65.3z"/><path class="st20" d="M673 401l26.3-13.6-165.7-94.6-24.4 14.9z"/><path class="st20" d="M509.2 307.7l24.5-15.1-331.4.3 26.2 15zM63.4 401L37 387l164.9-94.2 26.6 15.1z"/><path class="st7" d="M159.4 346.9v71.7l38.8 21V369z"/><path class="st20" d="M210.5 376l-57.3-32.6 18.3-9.3 56.7 31.7z"/><path class="st19" d="M137.3 435.6s0 5.3-.5 6c-.5.7-2.2.7-2.8-.1-.6-.8.8-6.7.8-6.7l2.5.8z"/><path class="st19" d="M146.3 378.4l2.5 13.5.6 25.5-1.2 21c0 .9-.6 1.6-1.5 1.8-1.2.3-2.4-.6-2.5-1.9l-.8-20.5-.6-18.8-4.5.7-.7 20.5-1.3 19.7c-.1 1.3-1.1 2.3-2.4 2.5-1.8.3-3.4-1.1-3.3-2.9l1-19.7-2.6-32.1 5.4-.6 4.3-1.2 7.6-7.5z"/><path class="st19" d="M149.2 433.8l6.2 2.4-.8.2c-1.3.4-2.6.3-3.9-.1l-4.2-1.4-.2-1.4 2.9.3zM143.4 366.8l2.2 1c2.2 1 3.8 2.9 4.4 5.2l3.2 8.2-8.1 3.5-4.5-8.4 2.8-9.5z"/><path class="st19" d="M121.8 394.9l5.3-21.7c.7-2.7 2.9-4.8 5.6-5.4l3.6-.8 7.1-.2 3.1 3.4 2.2 20s-1.3 5.6-8.1 5.8c-6.9.2-11.5-6.9-11.5-6.9l-.1-1.8-3 7.7-4.2-.1z"/><path class="st20" d="M138.1 367.9l3.6 12.2 1.3-12.9-1-1.3-2.4-.1z"/><path class="st20" d="M143.4 366.8v-2.2l-2.5-.3-3.9.4-.6 2.3 3.5 2.8s.7-1.5.8-1.5c.2 0 2.2 1.2 2.2 1.2l.5-2.7z"/><path class="st22" d="M142.5 368.2l-1.6-1.1-1 1.1 1 2.3-1.4 14.6 2.5 1.8 1.7-1.8-2.1-14.9z"/><path class="st21" d="M134.5 359.4c.1 3.9 2.9 7.1 6.3 7 3.4-.1 6.1-3.3 6-7.3-.1-3.9-2.9-7.1-6.3-7-3.4.1-6.1 3.4-6 7.3z"/><path class="st19" d="M145.6 355c-1.9 1.7-4.9 2.2-7.6 1-.7-.3-1.4-.8-2-1.2 1.1-1.5 2.7-2.5 4.6-2.6 2-.1 3.8 1 5 2.8z"/><path class="st19" d="M136.7 353.9c1.1 2.1 1 5-.5 7.3-.3.4-.6.8-1 1.2-.4-.9-.6-1.9-.6-3-.1-2.2.7-4.2 2.1-5.5z"/><path class="st21" d="M122 395c.1 1.5 1.4 2.6 2.9 2.4 1.5-.1 2.6-1.4 2.4-2.9s-1.4-2.6-2.9-2.4c-1.5.2-2.6 1.5-2.4 2.9zM157 376.4c.1 1.1 1.1 1.9 2.2 1.8 1.1-.1 2-1.1 1.9-2.2-.1-1.1-1.1-1.9-2.2-1.8-1.2.1-2 1.1-1.9 2.2z"/><g><path class="st12" d="M237.9 405.7l-130.1 75.4V406l130.1-75.4z"/><path class="st7" d="M498.1 406l130.1 75.4v-75.1l-130.1-75.4z"/><path class="st7" d="M478.9 342.6v52.3l23.7 13.7 2.2-51.3z"/><path class="st80" d="M237.9 330.9h102.3v63.8H237.9zM385.6 330.9H498v63.8H385.6z"/><path class="st7" d="M478.9 342.6v52.3l23.7 13.7 2.2-51.3z"/><path class="st12" d="M258.4 337.7v56.6L226 412.9l-1-56.3z"/></g><g><path class="st80" d="M268.7 362h198.6v48.7H268.7z"/><path class="st12" d="M268.7 419.1l-99.3 57.6v-57.4l99.3-57.5z"/><path class="st12" d="M284.4 367.2v43.2l-24.8 14.2-.7-43z"/><path class="st7" d="M467.3 419.3l99.3 57.6v-57.3L467.3 362z"/><path class="st7" d="M452.6 370.9v40l18.1 10.4 1.7-39.1z"/><path class="st20" d="M550.8 426.8l15.8-8.1-99.3-56.7-14.7 8.9z"/><path class="st20" d="M452.6 370.9l14.7-9-198.6.1 15.7 9zM185.4 426.8l-15.8-8.3 98.8-56.5 16 9z"/></g><g><path class="st80" d="M268.7 505.5h198.6v57.3H268.7z"/><path class="st7" d="M268.7 562.8l-99.3-56.7v-57.3l99.3 56.7z"/><path class="st20" d="M169.4 419.3h15.8v29.5h-15.8zM550.8 419.3h15.8v29.5h-15.8z"/><path class="st20" d="M185.2 440.7l-15.8 8.1 99.3 56.7 14.7-9.2zM550.8 440.7l15.8 8.1-99.3 56.7-14.7-9.2z"/><path class="st20" d="M282.9 496.3l-14.2 9.2h198.6l-14.7-9.2z"/></g><path class="st20" d="M466.9 505.5l-198.7-.2"/><g><path class="st81" d="M430.3 390.9H306.5l-61.9 35.7 61.9 35.7h123.8l61.8-35.7z"/><path class="st82" d="M306.5 533.8L244.6 498v-71.4l61.9 35.7z"/><path class="st23" d="M272.7 496.9c-.1 0-.1 0 0 0-.5 0-.9-.4-.8-.9l5.9-59.1c0-.4.5-.8.9-.7.4 0 .8.4.7.9l-5.9 59.1c-.1.4-.4.7-.8.7zM253.6 489.5s-.1 0 0 0c-.5 0-.9-.4-.8-.9l5.9-59.1c0-.4.5-.8.9-.7.4 0 .8.4.7.9l-5.9 59.1c-.1.4-.4.7-.8.7z"/><path class="st23" d="M277.1 449.3c-.1 0-.3 0-.4-.1l-18.5-9.7c-.4-.2-.6-.7-.3-1.1.2-.4.7-.6 1.1-.3l18.5 9.7c.4.2.6.7.3 1.1-.1.3-.4.4-.7.4zM276.2 459.9c-.1 0-.3 0-.4-.1l-18.5-9.7c-.4-.2-.6-.7-.3-1.1.2-.4.7-.6 1.1-.3l18.5 9.7c.4.2.6.7.3 1.1-.1.2-.4.4-.7.4zM275.3 470.4c-.1 0-.3 0-.4-.1l-18.5-9.7c-.4-.2-.6-.7-.3-1.1.2-.4.7-.6 1.1-.3l18.5 9.7c.4.2.6.7.3 1.1-.2.2-.4.4-.7.4zM274.3 480.9c-.1 0-.3 0-.4-.1l-18.5-9.7c-.4-.2-.6-.7-.3-1.1.2-.4.7-.6 1.1-.3l18.5 9.7c.4.2.6.7.3 1.1-.1.3-.4.4-.7.4zM273.4 491.5c-.1 0-.3 0-.4-.1l-18.5-9.7c-.4-.2-.6-.7-.3-1.1.2-.4.7-.6 1.1-.3l18.5 9.7c.4.2.6.7.3 1.1-.1.2-.4.4-.7.4z"/><path class="st20" d="M257 430.6l-5.9 14.7c-.4 1-.5 2.1-.3 3.1l4.8 11.8s4.4-.7 4.1-2.8c-.3-2.1.9-5-.3-7.4-1.2-2.4-2.9-4.7-2.9-4.7l2.9-12.2-2.4-2.5z"/><path class="st25" d="M270 476.2l-.5 14.5-5.7-1.2s-1.4-10.4-1.9-10.5c-.5-.1-3.8-.1-3.8-.1s-.7 7.5-1.2 7.1c-.4-.4-5.3-3.2-5-4.2.3-.9 1.9-9.6 2.4-9.4.5.2 7.2.2 7.7.5.6.4 8 3.3 8 3.3z"/><path class="st26" d="M259.3 428c-1.3 0-2.3 1.2-2.3 2.6 0 1.4 1 2.6 2.3 2.6 1.3 0 2.3-1.2 2.3-2.6 0-1.5-1-2.6-2.3-2.6z"/><path class="st20" d="M255.8 448.6l-3.1 22.8s2.2 6.4 7.5 6.7c5.3.3 10-1.2 10-1.2l1.2-22.5s-1.8-2.4-5.6-3.8c-3.9-1.5-10-2-10-2z"/><path class="st20" d="M271.4 454.4s5.9 13.8 6.5 16.5c.6 2.6 0 5.3-2.4 4.4-2.4-.9-7.7-9.2-7.7-10.4 0-1.2-.2-9.6-.2-9.6l3.8-.9z"/><path class="st20" d="M276.3 456.1s-2.3 8.8-2.2 9.1c.1.3 2 10 2 10s2.4 2.8 2-7.4c-.4-10.3-.2-11.4-.2-11.4l-1.6-.3z"/><path class="st26" d="M277.3 453.5c-1.3 0-2.3 1.2-2.3 2.6 0 1.4 1 2.6 2.3 2.6 1.3 0 2.3-1.2 2.3-2.6 0-1.4-1-2.6-2.3-2.6zM259.7 437.4c-3.1.9-4.8 4.5-3.8 7.9 1 3.5 4.4 5.5 7.5 4.6 3.1-.9 4.8-4.5 3.8-7.9-1-3.4-4.4-5.5-7.5-4.6z"/><path class="st19" d="M259.7 437.4c-3.1.9-4.8 4.5-3.8 7.9.4 1.3 1.1 2.4 2 3.2 1.3.6 2.7.9 4.1.5 3.1-.9 4.8-4.5 3.8-7.9-.4-1.3-1.1-2.4-2-3.2-1.3-.7-2.7-.9-4.1-.5z"/><path class="st26" d="M263.7 442.8c-.8.7-.8 2.1 0 3 .3.3.7.6 1.1.7.5 0 .9-.1 1.3-.5.8-.7.8-2.1 0-3-.3-.3-.7-.6-1.1-.7-.5.1-.9.2-1.3.5z"/><path class="st22" d="M430.3 533.8l61.8-35.8v-71.4l-61.8 35.7z"/><path fill="#fccb5e" d="M306.5 462.3h123.8v71.5H306.5z"/><g><path class="st23" d="M458 517.5c-.5 0-.9-.3-1-.8l-13.8-73c-.1-.6.3-1.1.8-1.2.5-.1 1.1.3 1.2.8l13.8 73c.1.6-.3 1.1-.8 1.2h-.2z"/></g><g><path class="st23" d="M481 506.3c-.5 0-.9-.3-1-.8l-13.8-73c-.1-.6.3-1.1.8-1.2.5-.1 1.1.3 1.2.8l13.8 73c.1.6-.3 1.1-.8 1.2h-.2z"/></g><g><path class="st23" d="M447.3 458.8c-.3 0-.7-.2-.9-.5-.3-.5-.2-1.1.3-1.4l22-14c.5-.3 1.1-.2 1.4.3.3.5.2 1.1-.3 1.4l-22 14c-.2.1-.3.2-.5.2z"/></g><g><path class="st23" d="M449.6 471.8c-.3 0-.7-.2-.9-.5-.3-.5-.2-1.1.3-1.4l22-14c.5-.3 1.1-.2 1.4.3.3.5.2 1.1-.3 1.4l-22 14c-.2.1-.3.2-.5.2z"/></g><g><path class="st23" d="M451.9 484.8c-.3 0-.7-.2-.9-.5-.3-.5-.2-1.1.3-1.4l22-14c.5-.3 1.1-.2 1.4.3.3.5.2 1.1-.3 1.4l-22 14c-.2.2-.3.2-.5.2z"/></g><g><path class="st23" d="M454.2 497.8c-.3 0-.7-.2-.9-.5-.3-.5-.2-1.1.3-1.4l22-14c.5-.3 1.1-.2 1.4.3.3.5.2 1.1-.3 1.4l-22 14c-.2.2-.3.2-.5.2z"/></g><g><path class="st23" d="M456.5 510.9c-.3 0-.7-.2-.9-.5-.3-.5-.2-1.1.3-1.4l22-14c.5-.3 1.1-.2 1.4.3.3.5.2 1.1-.3 1.4l-22 14c-.2.1-.3.2-.5.2z"/></g></g><g><path class="st80" d="M268.7 505.5h198.6v57.3H268.7z"/><path class="st7" d="M268.7 562.8l-99.3-56.7v-57.3l99.3 56.7z"/><path class="st12" d="M212.8 473.6v71.7l-38.7 21v-70.6z"/><path class="st20" d="M161.7 502.7l57.3-32.6-18.3-9.3-56.7 31.7zM169.4 419.3h15.8v29.5h-15.8zM550.8 419.3h15.8v29.5h-15.8z"/><path class="st20" d="M185.2 440.7l-15.8 8.1 99.3 56.7 14.7-9.2z"/><path class="st20" d="M282.9 496.3l-14.2 9.2h198.6l-14.7-9.2z"/><path class="st12" d="M487.7 493.9l-20.4 11.6v57.3l20.6-11.7zM543 462.3l-.4 57.5 24-13.7v-57.3z"/><path class="st7" d="M527.4 453.5v55.7l15.4 8.9v-55.5z"/></g><g><path class="st80" d="M237.9 545.7h260.2v75.1H237.9z"/><path class="st12" d="M498.1 620.8l130.1-74.3v-75l-130.1 74.2z"/><path class="st7" d="M237.9 620.8l-130.1-74.3v-75l130.1 74.2z"/><path class="st20" d="M607.5 405h20.6v66.4h-20.6zM122.1 464.7l-14.3 6.8 130.1 74.2 12.9-8.2z"/><path class="st20" d="M611.8 464.1l15.3 7.4L497 545.7l-13.8-8.8z"/><path class="st20" d="M250.8 537.5l-12.9 8.2h260.2l-13.9-8.8z"/></g><g><path class="st80" d="M202.3 588.6h331.3v69.9H202.3z"/><path class="st7" d="M202.3 658.6L36.7 564v-69.9l165.6 94.5z"/><path class="st20" d="M36.7 387.2H63V494H36.7zM673 387.5h26.3V494H673z"/><path class="st7" d="M592.1 492.4V564l38.8 21v-70.6z"/><path class="st20" d="M51.9 486.8l-15.2 7.3 165.6 94.5 13.4-9.1zM606 547.4l93.3-53.3-18.3-9.4-92.7 52.5z"/><path class="st20" d="M643.3 521.4l-57.4-32.6 18.4-9.3 56.6 31.7zM538.1 565.6l-21 11.9 16.5 11.1 22.4-12.7z"/><path class="st20" d="M216 578.9l-13.7 9.7h331.4l-16.6-11.1z"/></g><g><path class="st12" d="M556 575.9l-22.4 12.7v70.1l22.4-12.8zM605.7 547.5v70l93.6-53.4v-70z"/></g><path class="st7" d="M588.3 537.2v70l17.4 10.1v-69.8z"/><g><path class="st20" d="M107.8 404.6h20.6v21.2h-20.6z"/></g><path class="st7" d="M107.8 425.8h20.6v35.6h-20.6z"/><path class="st20" d="M107.8 453.4h20.6v18.1h-20.6z"/><g><path class="st20" d="M340.2 330.9H237.5l20.5 11.8h82.2zM385.6 330.8v11.8h92.9l19.2-11.9z"/></g><path class="st20" d="M128.8 415.8l-20.7-10.9 129.4-74 20.9 11.8zM607.5 415.8l20.6-10.6-130-74.3-19.2 11.7z"/><g><path class="st20" d="M543.4 462.1l23.2-13.3-15.8-8.1-23.4 13.2zM472.4 485.1l-19.8 11.2 14.7 9.2 20.4-11.6z"/></g><g><path class="st82" d="M600.2 314.7v37.4L576 337.8l-.1-37.4z"/></g><path class="st81" d="M599.3 314.2l21.9 12.7-158.7 92.2-22.7-13.8z"/><path class="st22" d="M621.2 326.9l-150.4 87.4 21.3 12.3-16.6 9.6.3 15.3 145.7-84.2z"/><g><path class="st82" d="M646 339.9v38.7l-25.1-14.8v-38.7z"/></g><path class="st20" d="M673 401l26.3-13.6-91.7-52.6-25 14.6zM607.5 415.8l20.6-10.6-71.3-40.9-19.6 11.4zM550.8 426.8l15.8-8.1-52.2-29.7-14.9 8.6z"/><path class="st7" d="M499.5 397.6V438l23.8 13.8 20.8-21.3 3.5-5.5zM537.2 375.7v26.2l21.1 12.1 20.2-14.7zM582.6 349.4V379l32.3 18.6 13.5-22.1z"/><g><path class="st81" d="M575.9 300.4l68.7 2.6 1.4 38.6-22.9-13.5-22.9-13.4z"/></g><g><path class="st19" d="M623.9 634.8l14.8 5-.6 12.5-14.7-6.3zM638.7 639.8l2.4-.8 1.1 10.2-4.1 3.1z"/><path class="st84" d="M623.9 634.8l3-1.1 14.2 5.3-2.4.8z"/><path class="st19" d="M596.2 662.9s-1.3 3.3-2.8 2.4c-1.5-.9-7.2-7-7.2-7s1.3-2.4 7.2 3.3c1.3-.1 2.8 1.3 2.8 1.3z"/><path class="st77" d="M629.4 635.6l.2-1.4c.3-.7 1-1 1.7-.9l2.7 1"/><path class="st19" d="M609.7 635.1l1.9 12.8 14.3 16.5 2.8-1.5-9.5-17.5 5.6-17.8-3.5-2.5-2 .4z"/><path class="st84" d="M605.8 630.5l-7.6 12-4.9 19s.1 1 1 1.7 1.8-.3 1.8-.3l9.3-16 6.7-9.4 6.6-2.4-7.1 12.8 14.3 16.5 2.8-1.5-9.5-17.5 5.6-17.9-9.4-1.2-9.6 4.2z"/><path class="st26" d="M633.1 631.7c1.1.1 1.9 1.2 1.8 2.4-.1 1.2-1.1 2.1-2.2 2-1.1-.1-1.9-1.2-1.8-2.4.1-1.2 1.1-2.2 2.2-2zM585.5 606.6c1.4.1 2.4 1.5 2.3 3.1-.2 1.6-1.4 2.7-2.8 2.6-1.4-.1-2.4-1.5-2.3-3.1.1-1.6 1.4-2.7 2.8-2.6z"/><path class="st1" d="M624.1 607.7l.7 19.8s-3.1 6.9-9 6.6c-5.9-.2-10.9-2.4-10.9-2.4l1.1-24.9s2.2-2.4 6.6-3.6c1.6-.4 3.6-.7 5.4-.9 3.2-.2 6 2.2 6.1 5.4z"/><path class="st1" d="M606.1 606.9l-8.1 11.7-10.5-9-2.6 2.3 9.3 10.4c1.8 2 4.9 2.3 7 .6l10.5-8.1c-.1 0-2.5-10-5.6-7.9z"/><path class="st20" d="M611.8 603.4s1.5.8 3.3.6c1.8-.2 3.1-1.4 3.1-1.4l-.4-1.9-5.6.2-.4 2.5z"/><path class="st26" d="M617.7 588.5c3.3 1.3 4.8 5.4 3.3 9.1-1.5 3.7-5.4 5.6-8.7 4.3-3.3-1.3-4.8-5.4-3.3-9.1 1.5-3.7 5.4-5.6 8.7-4.3z"/><path class="st19" d="M617.7 588.5c3.3 1.3 4.8 5.4 3.3 9.1-.6 1.4-1.5 2.5-2.6 3.4-1.5.6-3.1.7-4.5.1-3.3-1.3-4.8-5.4-3.3-9.1.6-1.4 1.5-2.5 2.6-3.4 1.5-.6 3-.7 4.5-.1z"/><path class="st26" d="M612.8 594.1c.8.9.7 2.4-.3 3.3-.4.3-.8.6-1.3.6s-1-.3-1.4-.7c-.8-.9-.7-2.4.3-3.3.4-.3.8-.6 1.3-.6s1 .3 1.4.7z"/><path class="st1" d="M620 602.6s2.8.3 5.2 4.1c2.5 3.7 8.3 24.4 8.3 24.4s.1 2.5-1.4 1.6-9.1-15.7-9.1-16-2.1-4.6-2.1-5.1c.1-.7-.9-9-.9-9z"/><path class="st19" d="M626.4 663.9s1.2-.9 1.9-.8c.8.1 1.3 2.1 1.3 2.1l-1.7 2.8-5.8-.9s-.9-1.7 1.3-1.5c2.1.2 2.9.1 2.9.1l.1-1.8z"/><path class="st77" d="M636.1 637.9l.2-1.2c.1-1-.4-1.9-1.4-2.2l-1.2-.4"/></g><g><path class="st85" d="M376.3 430.2c0 2.8-5.8 5-13 5s-13-2.3-13-5c0-2.8 5.8-5 13-5s13 2.2 13 5z"/><path class="st19" d="M357.4 354.6c0 3.3 2.6 5.9 5.9 5.9 3.3 0 5.9-2.6 5.9-5.9 0-3.3-2.6-5.9-5.9-5.9-3.2-.1-5.9 2.6-5.9 5.9z"/><path class="st19" d="M355 350.9c0 1.9 1.5 3.4 3.4 3.4s3.4-1.5 3.4-3.4-1.5-3.4-3.4-3.4-3.4 1.6-3.4 3.4z"/><path class="st26" d="M364.8 350c2.8 0 5 2.3 5 5v3.2c0 2.8-2.3 5-5 5-2.8 0-5-2.3-5-5V355c0-2.7 2.3-5 5-5z"/><path class="st23" d="M358.5 428.2s-.5 4.6-.9 5.2c-.5.6-2 .5-2.4-.3-.5-.8 1.2-5.8 1.2-5.8l2.1.9z"/><path class="st25" d="M372 374.8l1.3 11.9-1 22.3-2.3 18.3c-.1.7-.7 1.3-1.4 1.5-1.1.2-2.1-.7-2-1.8l.5-18 .6-16.5-4 .3-1.8 17.9-2.3 17.1c-.2 1.1-1.1 1.9-2.2 2-1.6.1-2.9-1.2-2.7-2.8l2-17.1-.3-21.1 4.7-7.3 3.8-.8 7.1-5.9z"/><path class="st23" d="M369.1 427.6l5.2 2.6-.7.1c-1.1.2-2.3.1-3.4-.4l-3.6-1.6-.1-1.2 2.6.5z"/><path class="st3" d="M371.4 365.1l9.2 13.1 7.9 10.3-1.5 1.6-9.1-8.4-7.8-9.7-1.2-4.9z"/><path class="st19" d="M364.8 350c-2.8 0-5 2.3-5 5v2.6c1.6-.7 2.7-2.3 2.7-4.1 0-.4-.1-.8-.2-1.2.7.5 1.6.8 2.6.8 1.4 0 2.7-.7 3.5-1.7-.9-.8-2.2-1.4-3.6-1.4z"/><circle class="st26" cx="341.2" cy="339.8" r="1.8"/><path class="st26" d="M391 390.7c0 1-.8 1.8-1.8 1.8s-1.8-.8-1.8-1.8.8-1.8 1.8-1.8 1.8.8 1.8 1.8z"/><path class="st3" d="M368.8 364.6l2.6.5.7 12.3 1 8.9s.2 1-3.8 3.3-13-.7-13-.7l-.1-16.6-15.5-30 2.2-1.1 16 22.2 9.9 1.2z"/><path class="st26" d="M368.7 364.6l-2.8 6.2-4-7z"/></g><g><path class="st85" d="M496.8 386.9c1 2.1-6.4 7.8-16.6 12.9-10.2 5.1-19.3 7.5-20.3 5.4-1-2.1 6.4-7.8 16.6-12.9 10.2-5 19.3-7.4 20.3-5.4z"/><path class="st58" d="M465.3 338.5l-11.8 9.2-3.5 13.8 1.6.6 5.9-11.4 12.6-7.1 4-2.5z"/><path class="st25" d="M465.3 338.5s2.7-1.3 5.9-1c4 .4 6 3.6 6 4.2 0 1 2.8 25.1 2.8 25.1s-4.3 2.4-8.9 1.8c-4.6-.6-6.3-1.1-6.3-1.7-.1-1.1.5-28.4.5-28.4z"/><path class="st58" d="M464.7 366.9l15.3-.1 11.1 19.3-2.4 1.5-9.3-11.1-9.5-5.8zM461.5 401.9s-1.3 1.7-1.3 1.9c0 .2.5 2.8.5 2.8s6.1-.7 6.1-.8c0-.1 1.1-1-.5-1.2-1.7-.2-3.7-.1-3.7-.2s.7-2 .7-2l-1.8-.5z"/><path class="st25" d="M471.9 338.6s0 5.7 4.1 7.3l13.6-12.4 4.1-12-2.5-.3-6 11-13.3 6.4z"/><path class="st21" d="M476.8 329.1c-.3-2.7-2.6-4.7-5.3-4.4h-.3c-2.7.3-4.7 2.6-4.4 5.3l.2 2.2c.3 2.7 2.6 4.7 5.3 4.4h.3c2.7-.3 4.7-2.6 4.4-5.3l-.2-2.2zM452.7 363c0 1.1-.9 2.1-2.1 2.1-1.1 0-2.1-.9-2.1-2.1 0-1.1.9-2.1 2.1-2.1 1.2.1 2.1 1 2.1 2.1z"/><path class="st19" d="M474.6 330c-.5.1-.9.5-.9 1-.1.5.2 1 .5 1.3.2.2.4.3.5.5.2.4.1.9-.2 1.3-.6 1-1.5 1.6-2.5 2.1-.3.2-.6.4-.9.4-.5.1-1-.1-1.4-.3-.8-.4-1.7-.7-2.2-1.4-.4-.5-.5-1-.7-1.6-.5-1.8-.4-3.8.2-5.6.3-.8.6-1.6 1.2-2.1s1.3-.7 2.1-.9c.8-.1 1.7-.2 2.5.1.8.3 1.5.8 1.8 1.6.4 1.1.1 2.4.8 3.2.2.3.5.5.4.8-.4.1-.6-.5-1.2-.4z"/><path class="st19" d="M470.7 324.3c-.3.1-.7.3-.9.6-.1.2-.1.3-.1.5-.2 2.5 3.3 4.6 5.3 2.8.8-.7 1.2-2.4.3-3.2-1-1-3.3-1.1-4.6-.7z"/><path class="st25" d="M469 364.2l2.8 19-11.7 19.4 3.8.6 14.8-19.6 1.3-16.8z"/><path fill="#894100" d="M444.1 366.9l2.1.3-2.3 14.2-3.3-.8z"/><path class="st3" d="M456.8 365.9c-.6.1-10.5 1.2-10.5 1.2l-2.3 14.2 12.4-3.9.4-11.5z"/><path class="st3" d="M444.1 366.9l9.3-1.4 3.4.4-10.6 1.3z"/><path d="M448.2 366.7l.3-1.7c.2-.8.9-1.4 1.7-1.5h1.7c.8 0 1.5.7 1.4 1.5l-.1 1.2" fill="none" stroke="#c60" stroke-miterlimit="10"/><path class="st21" d="M492.3 318.2c-.8.1-1.4.8-1.3 1.6.1.8.8 1.4 1.6 1.3.8-.1 1.4-.8 1.3-1.6-.1-.8-.8-1.4-1.6-1.3z"/><path class="st58" d="M491.1 386.1l3.1-3s.7.7.3 1.3c-.4.6-4.3 4-4.3 4l-1.5-.9-.8-3.1 3.2 1.7z"/></g><g><path class="st85" d="M619.6 319.3c0 2-4.1 3.6-9.2 3.6s-9.2-1.6-9.2-3.6 4.1-3.6 9.2-3.6 9.2 1.6 9.2 3.6z"/><path class="st19" d="M603.8 272l-1.1 10 .9 18.7 1.9 15.3c.1.6.5 1.1 1.2 1.2.9.2 1.8-.6 1.7-1.5l-.4-15.1-.5-13.8 3.3.3 1.5 15 1.9 14.3c.2.9.9 1.6 1.9 1.7 1.3.1 2.4-1 2.3-2.3l-1.7-14.3-1.1-18.4-2.6-5.4-3.2-.7-6-5z"/><path class="st20" d="M605.4 264.3l.2-2 2 .7 2.3-.8.7 2.9-2 1.3-2.8-.6z"/><path class="st21" d="M607.5 252.8c-1.9 0-3.5 1.6-3.5 3.5v2.2c0 1.9 1.6 3.5 3.5 3.5s3.5-1.6 3.5-3.5v-2.2c0-2-1.6-3.5-3.5-3.5zM590.8 245.9c-.6.3-.8 1.1-.5 1.7l.4.7c.3.6 1.1.8 1.7.5.6-.3.8-1.1.5-1.7l-.4-.7c-.4-.7-1.1-.9-1.7-.5zM627.4 245.8c-.6-.4-1.4-.2-1.7.4l-.4.7c-.4.6-.2 1.4.4 1.7.6.4 1.4.2 1.7-.4l.4-.7c.3-.6.1-1.4-.4-1.7z"/><path class="st20" d="M593.6 248.1l12 15.3s1.4 1.1 2.1 1.1c.7 0 2.7-.7 2.7-.7l14.1-15.6 1.8 1.8-12.2 17.4 1.4 15.8s-6.2 2.3-8.3 1.6c-2-.7-4.6-2.8-4.6-2.8l-.2-14.3-10.6-18.1 1.8-1.5z"/><path class="st22" d="M606.4 276l.9 1.7 1.6-1.7-1-12.1-.6.1z"/><path class="st19" d="M606.2 316.2l-4.3 2.2.6.1c.9.2 1.9.1 2.8-.3l3-1.3.1-1-2.2.3zM615 316.7s.4 3.8.8 4.3 1.7.4 2-.3c.4-.6-1-4.9-1-4.9l-1.8.9z"/><path class="st22" d="M606.6 262.8h1.9l-.9 1.7z"/><path class="st19" d="M611 256.1c-.1-1.9-1.6-3.4-3.5-3.4-.9 0-1.7.3-2.3.9.5.5 1.7 1 2 1.2.5.3 1.1.5 1.6.7.8.2 1.5.4 2.2.6zM604 256.3v.4c.6-.2 1-.7 1.2-1.3.1-.4.2-1.2 0-1.6-.7.5-1.2 1.4-1.2 2.5z"/><path class="st19" d="M611 256.3c0-.7-.2-1.3-.5-1.8-.1.2-.2.5-.2.7 0 .5 0 .9.2 1.4.1.2.2.5.4.6 0 0 .1 0 .2.1v-1z"/></g><g><linearGradient id="SVGID_1_" gradientUnits="userSpaceOnUse" x1="683.295" y1="330.565" x2="786.37" y2="250.211"><stop offset="0" stop-color="#484ec2" stop-opacity="0"/><stop offset=".983" stop-color="#1f40e5" stop-opacity=".5"/></linearGradient><path d="M775.8 262.9c14.9 8.6 3.1 39.6-9.2 63.7-9.9 19.4-29.7 31.8-51.4 32.1-24 .3-54.4-1.2-68.5-9.3-25.3-14.6-11.9-53.5 13.3-68.2 25.2-14.7 90.5-32.9 115.8-18.3z" fill="url(#SVGID_1_)"/><path class="st7" d="M782.9 269.6v14.2c0 9.5-6.3 19-18.8 26.3-25.2 14.6-66.1 14.6-91.4 0-12.7-7.4-19.1-17-19.1-26.7v-14.2c0 9.6 6.3 19.3 19.1 26.7 25.3 14.6 66.3 14.6 91.4 0 12.5-7.3 18.8-16.8 18.8-26.3z"/><g><path class="st20" d="M763.8 242.9c25.3 14.6 25.5 38.3.3 53-25.2 14.6-66.1 14.6-91.4 0-25.3-14.6-25.5-38.3-.3-53 25.2-14.6 66.1-14.6 91.4 0z"/></g></g><linearGradient id="SVGID_2_" gradientUnits="userSpaceOnUse" x1="683.963" y1="295.315" x2="734.538" y2="240.321"><stop offset="0" stop-color="#484ec2" stop-opacity="0"/><stop offset=".983" stop-color="#1f40e5" stop-opacity=".5"/></linearGradient><path d="M740.3 253.9c-2.4-1.5-24.5-5.7-24.5-5.7-.6 0-38.9 6.4-62.3 10.3-.2 1.3-.3 2.6-.3 3.9 0 24.5 31 44.4 69.3 44.4 5.6 0 11-.4 16.2-1.2 2-21.2 4.2-45.3 4.2-45.3s-.2-4.9-2.6-6.4z" fill="url(#SVGID_2_)"/><g><ellipse cx="721.7" cy="265.9" rx="20.8" ry="13.3" fill="#487acc"/><ellipse class="st12" cx="721.7" cy="251.7" rx="30.7" ry="19.7"/><ellipse cx="721.7" cy="245.6" rx="30.7" ry="19.7" fill="#8cacea"/><ellipse class="st12" cx="721.7" cy="239.4" rx="30.7" ry="19.7"/><linearGradient id="SVGID_3_" gradientUnits="userSpaceOnUse" x1="727.804" y1="248.682" x2="720.119" y2="127.261"><stop offset="0" stop-color="#ecb329"/><stop offset=".981" stop-color="#ffea00"/></linearGradient><path d="M722.3 93.3c-31.5-.3-57.9 24.9-59 56.3-.6 16.4 5.7 31.4 16.1 42.4 7.5 7.8 11.4 18.3 11.4 29.2v14c.4 10.6 14 19.2 30.8 19.2s30.4-8.5 30.8-19.2v-14c0-10.8 3.9-21.3 11.4-29.1 10-10.5 16.2-24.7 16.2-40.4.1-32.1-25.8-58.1-57.7-58.4z" fill="url(#SVGID_3_)"/><radialGradient id="SVGID_4_" cx="733.751" cy="139.589" r="40.565" gradientUnits="userSpaceOnUse"><stop offset="0" stop-color="#fff994"/><stop offset=".178" stop-color="#fff990" stop-opacity=".819"/><stop offset=".338" stop-color="#fff885" stop-opacity=".655"/><stop offset=".492" stop-color="#fff673" stop-opacity=".498"/><stop offset=".642" stop-color="#fff359" stop-opacity=".345"/><stop offset=".789" stop-color="#fff038" stop-opacity=".195"/><stop offset=".932" stop-color="#ffec0f" stop-opacity=".049"/><stop offset=".981" stop-color="#ffea00" stop-opacity="0"/></radialGradient><circle cx="733.8" cy="139.6" r="40.6" fill="url(#SVGID_4_)"/></g></svg>