<svg width="800" height="800" version="1.1" id="Layer_1" xmlns="http://www.w3.org/2000/svg" xmlns:xlink="http://www.w3.org/1999/xlink" x="0" y="0" xml:space="preserve"><style>.st3{fill:#c60}.st4{fill:#9e4b00}.st7{fill:#7e93fc}.st12{fill:#d0ddfe}.st19{fill:#282642}.st20{fill:#fff}.st21{fill:#eebcc5}.st22{fill:#ecb329}.st23{fill:#00218c}.st25{fill:#c03}.st28{fill:#ebf2ff}.st29{fill:#2c2d6f}.st58{fill:#840227}.st77{fill:none;stroke:#282642;stroke-width:.5;stroke-linecap:round;stroke-linejoin:round;stroke-miterlimit:10}.st110{opacity:.2;fill:#ebf2ff}</style><path class="st12" d="M777.7 456.5V264.3c0-10.8-3.5-16.1-10.6-20.2l-254-146.6c-2.6-1.5-5-2-6.8-1.3 0 0 4.3-2.5 4.7-2.6 1.8-.7 4.2-.1 6.7 1.3l254.1 146.7c7 4.1 10.6 9.4 10.6 20.2v192.1c0 5.2-1.4 8.1-3.7 9.1l-3.8 2.1c1.7-1.3 2.8-4.1 2.8-8.6zM599.1 584.4c-6.7 3.9-16.9 4.3-22.7.9L322.3 438.6c-2.6-1.5-3.9-3.5-3.9-5.7v-10.4c.1 2 1.4 3.9 3.9 5.3l254.1 146.7c5.8 3.4 16 2.9 22.7-.9v10.8z"/><path class="st7" d="M599.1 573.7l166.4-96.1c3.4-2 5.3-4.5 5.5-6.9V481.5c-.3 2.4-2.1 4.9-5.5 6.8l-166.4 96.1v-10.7z"/><path class="st28" d="M391.8 375.6l-67.9 39.2c-6.7 3.9-7.5 9.8-1.6 13.1l254.1 146.7c5.8 3.4 16 2.9 22.7-.9l67.9-39.2-275.2-158.9z"/><path class="st12" d="M667 534.5l98.5-56.9c6.7-3.9 7.5-9.8 1.6-13.1l-254-146.7c-5.8-3.4-16-2.9-22.7.9l-98.5 56.9L667 534.5z"/><path class="st29" d="M709.1 477.6l12.7 7.3c.8.4 2.1.4 3-.1l12.2-7c.9-.5 1-1.3.2-1.8l-12.7-7.3c-.8-.4-2.1-.4-3 .1l-12.2 7c-.8.5-.9 1.3-.2 1.8zM691.9 467.6l12.7 7.3c.8.4 2.1.4 3-.1l12.2-7c.9-.5 1-1.3.2-1.8l-12.7-7.3c-.8-.4-2.1-.4-3 .1l-12.2 7c-.8.6-.9 1.4-.2 1.8zM674.7 457.7l12.7 7.3c.8.4 2.1.4 3-.1l12.2-7c.9-.5 1-1.3.2-1.8l-12.7-7.3c-.8-.4-2.1-.4-3 .1l-12.2 7c-.8.6-.9 1.3-.2 1.8zM657.5 447.8l12.7 7.3c.8.4 2.1.4 3-.1l12.2-7c.9-.5 1-1.3.2-1.8l-12.7-7.3c-.8-.4-2.1-.4-3 .1l-12.2 7c-.8.5-.9 1.3-.2 1.8zM640.3 437.8l12.7 7.3c.8.4 2.1.4 3-.1l12.2-7c.9-.5 1-1.3.2-1.8l-12.7-7.3c-.8-.4-2.1-.4-3 .1l-12.2 7c-.8.6-.9 1.4-.2 1.8zM623.1 427.9l12.7 7.3c.8.4 2.1.4 3-.1l12.2-7c.9-.5 1-1.3.2-1.8l-12.7-7.3c-.8-.4-2.1-.4-3 .1l-12.2 7c-.8.6-.9 1.4-.2 1.8zM605.9 418l12.7 7.3c.8.4 2.1.4 3-.1l12.2-7c.9-.5 1-1.3.2-1.8l-12.7-7.3c-.8-.4-2.1-.4-3 .1l-12.2 7c-.8.5-.9 1.3-.2 1.8zM588.7 408l12.7 7.3c.8.4 2.1.4 3-.1l12.2-7c.9-.5 1-1.3.2-1.8l-12.7-7.3c-.8-.4-2.1-.4-3 .1l-12.2 7c-.8.6-.9 1.4-.2 1.8zM571.5 398.1l12.7 7.3c.8.4 2.1.4 3-.1l12.2-7c.9-.5 1-1.3.2-1.8l-12.7-7.3c-.8-.4-2.1-.4-3 .1l-12.2 7c-.8.6-.9 1.4-.2 1.8zM554.3 388.2l12.7 7.3c.8.4 2.1.4 3-.1l12.2-7c.9-.5 1-1.3.2-1.8l-12.7-7.3c-.8-.4-2.1-.4-3 .1l-12.2 7c-.8.5-.9 1.3-.2 1.8zM537.1 378.2l12.7 7.3c.8.4 2.1.4 3-.1l12.2-7c.9-.5 1-1.3.2-1.8l-12.7-7.3c-.8-.4-2.1-.4-3 .1l-12.2 7c-.9.6-.9 1.4-.2 1.8zM519.9 368.3l12.7 7.3c.8.4 2.1.4 3-.1l12.2-7c.9-.5 1-1.3.2-1.8l-12.7-7.3c-.8-.4-2.1-.4-3 .1l-12.2 7c-.9.6-1 1.4-.2 1.8zM502.7 358.4l12.7 7.3c.8.4 2.1.4 3-.1l12.2-7c.9-.5 1-1.3.2-1.8l-12.7-7.3c-.8-.4-2.1-.4-3 .1l-12.2 7c-.9.5-1 1.3-.2 1.8zM477.8 344l20.5 11.8c.8.4 2.1.4 3-.1l12.2-7c.9-.5 1-1.3.2-1.8l-20.5-11.8c-.8-.4-2.1-.4-3 .1l-12.2 7c-.9.5-1 1.3-.2 1.8z"/><g><path class="st29" d="M488.8 352.3l-12.7-7.3c-.8-.4-2.1-.4-3 .1l-12.2 7c-.9.5-1 1.3-.2 1.8l12.7 7.3c.8.4 2.1.4 3-.1l12.2-7c.9-.6 1-1.4.2-1.8zM506 362.2l-12.7-7.3c-.8-.4-2.1-.4-3 .1l-12.2 7c-.9.5-1 1.3-.2 1.8l12.7 7.3c.8.4 2.1.4 3-.1l12.2-7c.9-.6 1-1.4.2-1.8zM523.2 372.1l-12.7-7.3c-.8-.4-2.1-.4-3 .1l-12.2 7c-.9.5-1 1.3-.2 1.8l12.7 7.3c.8.4 2.1.4 3-.1l12.2-7c.9-.5 1-1.3.2-1.8zM540.4 382.1l-12.7-7.3c-.8-.4-2.1-.4-3 .1l-12.2 7c-.9.5-1 1.3-.2 1.8L525 391c.8.4 2.1.4 3-.1l12.2-7c.9-.6 1-1.4.2-1.8zM557.6 392l-12.7-7.3c-.8-.4-2.1-.4-3 .1l-12.2 7c-.9.5-1 1.3-.2 1.8l12.7 7.3c.8.4 2.1.4 3-.1l12.2-7c.9-.6 1-1.4.2-1.8zM574.8 401.9l-12.7-7.3c-.8-.4-2.1-.4-3 .1l-12.2 7c-.9.5-1 1.3-.2 1.8l12.7 7.3c.8.4 2.1.4 3-.1l12.2-7c.9-.5 1-1.3.2-1.8zM592 411.8l-12.7-7.3c-.8-.4-2.1-.4-3 .1l-12.2 7c-.9.5-1 1.3-.2 1.8l12.7 7.3c.8.4 2.1.4 3-.1l12.2-7c.9-.5 1-1.3.2-1.8zM609.2 421.8l-12.7-7.3c-.8-.4-2.1-.4-3 .1l-12.2 7c-.9.5-1 1.3-.2 1.8l12.7 7.3c.8.4 2.1.4 3-.1l12.2-7c.9-.6 1-1.4.2-1.8zM626.4 431.7l-12.7-7.3c-.8-.4-2.1-.4-3 .1l-12.2 7c-.9.5-1 1.3-.2 1.8l12.7 7.3c.8.4 2.1.4 3-.1l12.2-7c.9-.6 1-1.3.2-1.8zM643.6 441.6l-12.7-7.3c-.8-.4-2.1-.4-3 .1l-12.2 7c-.9.5-1 1.3-.2 1.8l12.7 7.3c.8.4 2.1.4 3-.1l12.2-7c.9-.5 1-1.3.2-1.8zM660.8 451.6l-12.7-7.3c-.8-.4-2.1-.4-3 .1l-12.2 7c-.9.5-1 1.3-.2 1.8l12.7 7.3c.8.4 2.1.4 3-.1l12.2-7c.9-.6 1-1.4.2-1.8zM678 461.5l-12.7-7.3c-.8-.4-2.1-.4-3 .1l-12.2 7c-.9.5-1 1.3-.2 1.8l12.7 7.3c.8.4 2.1.4 3-.1l12.2-7c.9-.6 1-1.3.2-1.8zM695.2 471.4l-12.7-7.3c-.8-.4-2.1-.4-3 .1l-12.2 7c-.9.5-1 1.3-.2 1.8l12.7 7.3c.8.4 2.1.4 3-.1l12.2-7c.9-.5 1-1.3.2-1.8zM720.2 485.9L699.7 474c-.8-.4-2.1-.4-3 .1l-12.2 7c-.9.5-1 1.3-.2 1.8l20.5 11.8c.8.4 2.1.4 3-.1l12.2-7c.9-.5 1-1.3.2-1.7z"/></g><g><path class="st29" d="M484.1 369.3L459 354.8c-.8-.4-2.1-.4-3 .1l-12.2 7c-.9.5-1 1.3-.2 1.8l25.1 14.5c.8.4 2.1.4 3-.1l12.2-7c.9-.6 1-1.4.2-1.8zM703 495.6l-25.1-14.5c-.8-.4-2.1-.4-3 .1l-12.2 7c-.9.5-1 1.3-.2 1.8l25.1 14.5c.8.4 2.1.4 3-.1l12.2-7c.8-.5.9-1.3.2-1.8zM501.3 379.2l-12.7-7.3c-.8-.4-2.1-.4-3 .1l-12.2 7c-.9.5-1 1.3-.2 1.8l12.7 7.3c.8.4 2.1.4 3-.1l12.2-7c.9-.5 1-1.3.2-1.8zM518.5 389.2l-12.7-7.3c-.8-.4-2.1-.4-3 .1l-12.2 7c-.9.5-1 1.3-.2 1.8l12.7 7.3c.8.4 2.1.4 3-.1l12.2-7c.9-.6 1-1.4.2-1.8zM535.7 399.1l-12.7-7.3c-.8-.4-2.1-.4-3 .1l-12.2 7c-.9.5-1 1.3-.2 1.8l12.7 7.3c.8.4 2.1.4 3-.1l12.2-7c.9-.6 1-1.4.2-1.8zM552.9 409l-12.7-7.3c-.8-.4-2.1-.4-3 .1l-12.2 7c-.9.5-1 1.3-.2 1.8l12.7 7.3c.8.4 2.1.4 3-.1l12.2-7c.9-.5 1-1.3.2-1.8zM570.1 419l-12.7-7.3c-.8-.4-2.1-.4-3 .1l-12.2 7c-.9.5-1 1.3-.2 1.8l12.7 7.3c.8.4 2.1.4 3-.1l12.2-7c.9-.6 1-1.4.2-1.8zM587.3 428.9l-12.7-7.3c-.8-.4-2.1-.4-3 .1l-12.2 7c-.9.5-1 1.3-.2 1.8l12.7 7.3c.8.4 2.1.4 3-.1l12.2-7c.9-.6 1-1.4.2-1.8zM604.5 438.8l-12.7-7.3c-.8-.4-2.1-.4-3 .1l-12.2 7c-.9.5-1 1.3-.2 1.8l12.7 7.3c.8.4 2.1.4 3-.1l12.2-7c.9-.5 1-1.3.2-1.8zM621.7 448.8l-12.7-7.3c-.8-.4-2.1-.4-3 .1l-12.2 7c-.9.5-1 1.3-.2 1.8l12.7 7.3c.8.4 2.1.4 3-.1l12.2-7c.9-.6 1-1.4.2-1.8zM638.9 458.7l-12.7-7.3c-.8-.4-2.1-.4-3 .1l-12.2 7c-.9.5-1 1.3-.2 1.8l12.7 7.3c.8.4 2.1.4 3-.1l12.2-7c.9-.6 1-1.4.2-1.8zM656.1 468.6l-12.7-7.3c-.8-.4-2.1-.4-3 .1l-12.2 7c-.9.5-1 1.3-.2 1.8l12.7 7.3c.8.4 2.1.4 3-.1l12.2-7c.9-.6 1-1.3.2-1.8zM673.3 478.5l-12.7-7.3c-.8-.4-2.1-.4-3 .1l-12.2 7c-.9.5-1 1.3-.2 1.8l12.7 7.3c.8.4 2.1.4 3-.1l12.2-7c.9-.5 1-1.3.2-1.8z"/></g><g><path class="st29" d="M475.6 384.1l-33.7-19.4c-.8-.4-2.1-.4-3 .1l-12.2 7c-.9.5-1 1.3-.2 1.8l33.7 19.4c.8.4 2.1.4 3-.1l12.2-7c.8-.6.9-1.4.2-1.8zM492.8 394l-12.7-7.3c-.8-.4-2.1-.4-3 .1l-12.2 7c-.9.5-1 1.3-.2 1.8l12.7 7.3c.8.4 2.1.4 3-.1l12.2-7c.9-.5.9-1.3.2-1.8zM510 404l-12.7-7.3c-.8-.4-2.1-.4-3 .1l-12.2 7c-.9.5-1 1.3-.2 1.8l12.7 7.3c.8.4 2.1.4 3-.1l12.2-7c.9-.6.9-1.4.2-1.8zM527.2 413.9l-12.7-7.3c-.8-.4-2.1-.4-3 .1l-12.2 7c-.9.5-1 1.3-.2 1.8l12.7 7.3c.8.4 2.1.4 3-.1l12.2-7c.9-.6 1-1.4.2-1.8zM544.4 423.8l-12.7-7.3c-.8-.4-2.1-.4-3 .1l-12.2 7c-.9.5-1 1.3-.2 1.8l12.7 7.3c.8.4 2.1.4 3-.1l12.2-7c.9-.5 1-1.3.2-1.8zM561.6 433.8l-12.7-7.3c-.8-.4-2.1-.4-3 .1l-12.2 7c-.9.5-1 1.3-.2 1.8l12.7 7.3c.8.4 2.1.4 3-.1l12.2-7c.9-.6 1-1.4.2-1.8zM578.8 443.7l-12.7-7.3c-.8-.4-2.1-.4-3 .1l-12.2 7c-.9.5-1 1.3-.2 1.8l12.7 7.3c.8.4 2.1.4 3-.1l12.2-7c.9-.6 1-1.4.2-1.8zM596 453.6l-12.7-7.3c-.8-.4-2.1-.4-3 .1l-12.2 7c-.9.5-1 1.3-.2 1.8l12.7 7.3c.8.4 2.1.4 3-.1l12.2-7c.9-.5 1-1.3.2-1.8zM613.2 463.6l-12.7-7.3c-.8-.4-2.1-.4-3 .1l-12.2 7c-.9.5-1 1.3-.2 1.8l12.7 7.3c.8.4 2.1.4 3-.1l12.2-7c.9-.6 1-1.4.2-1.8zM630.4 473.5l-12.7-7.3c-.8-.4-2.1-.4-3 .1l-12.2 7c-.9.5-1 1.3-.2 1.8l12.7 7.3c.8.4 2.1.4 3-.1l12.2-7c.9-.6 1-1.4.2-1.8zM647.6 483.4l-12.7-7.3c-.8-.4-2.1-.4-3 .1l-12.2 7c-.9.5-1 1.3-.2 1.8l12.7 7.3c.8.4 2.1.4 3-.1l12.2-7c.9-.6 1-1.3.2-1.8zM685.9 505.5L652.1 486c-.8-.4-2.1-.4-3 .1l-12.2 7c-.9.5-1 1.3-.2 1.8l33.8 19.5c.8.4 2.1.4 3-.1l12.2-7c.8-.6.9-1.3.2-1.8z"/></g><g><path class="st29" d="M596.1 473.4l-81.5-47.1c-.8-.4-2.1-.4-3 .1l-12.2 7c-.9.5-1 1.3-.2 1.8l81.5 47.1c.8.4 2.1.4 3-.1l12.2-7c.9-.5 1-1.3.2-1.8zM489.1 411.7l-12.7-7.3c-.8-.4-2.1-.4-3 .1l-12.2 7c-.9.5-1 1.3-.2 1.8l12.7 7.3c.8.4 2.1.4 3-.1l12.2-7c.9-.6 1-1.4.2-1.8zM510.1 423.8l-16.5-9.5c-.8-.4-2.1-.4-3 .1l-12.2 7c-.9.5-1 1.3-.2 1.8l16.5 9.5c.8.4 2.1.4 3-.1l12.2-7c.9-.6 1-1.4.2-1.8zM621.5 488.1l12.7 7.3c.8.4.7 1.2-.2 1.8l-12.2 7c-.9.5-2.3.6-3 .1l-12.7-7.3c-.8-.4-.7-1.2.2-1.8l12.2-7c.9-.5 2.3-.5 3-.1zM600.6 476l16.5 9.5c.8.4.7 1.2-.2 1.8l-12.2 7c-.9.5-2.3.6-3 .1l-16.5-9.5c-.8-.4-.7-1.2.2-1.8l12.2-7c.8-.5 2.2-.5 3-.1zM437.5 381.9l-12.7-7.3c-.8-.4-2.1-.4-3 .1l-12.2 7c-.9.5-1 1.3-.2 1.8l12.7 7.3c.8.4 2.1.4 3-.1l12.2-7c.9-.6 1-1.4.2-1.8zM454.7 391.8l-12.7-7.3c-.8-.4-2.1-.4-3 .1l-12.2 7c-.9.5-1 1.3-.2 1.8l12.7 7.3c.8.4 2.1.4 3-.1l12.2-7c.9-.6 1-1.4.2-1.8zM471.9 401.7l-12.7-7.3c-.8-.4-2.1-.4-3 .1l-12.2 7c-.9.5-1 1.3-.2 1.8l12.7 7.3c.8.4 2.1.4 3-.1l12.2-7c.9-.5 1-1.3.2-1.8zM668.8 515.4l-30-17.3c-.8-.4-2.1-.4-3 .1l-12.2 7c-.9.5-1 1.3-.2 1.8l30 17.3c.8.4 2.1.4 3-.1l12.2-7c.9-.6 1-1.4.2-1.8z"/></g><g><path class="st29" d="M726.2 467.7L739 475c.8.4 2.1.4 3-.1l6.1-3.5c.9-.5 1-1.3.2-1.8l-12.7-7.3c-.8-.4-2.1-.4-3 .1l-6.1 3.5c-.9.6-1 1.3-.3 1.8zM709 457.8l12.7 7.3c.8.4 2.1.4 3-.1l6.1-3.5c.9-.5 1-1.3.2-1.8l-12.7-7.3c-.8-.4-2.1-.4-3 .1l-6.1 3.5c-.8.5-.9 1.3-.2 1.8zM691.8 447.8l12.7 7.3c.8.4 2.1.4 3-.1l6.1-3.5c.9-.5 1-1.3.2-1.8l-12.7-7.3c-.8-.4-2.1-.4-3 .1L692 446c-.8.6-.9 1.4-.2 1.8zM674.6 437.9l12.7 7.3c.8.4 2.1.4 3-.1l6.1-3.5c.9-.5 1-1.3.2-1.8l-12.7-7.3c-.8-.4-2.1-.4-3 .1l-6.1 3.5c-.8.6-.9 1.3-.2 1.8zM657.4 428l12.7 7.3c.8.4 2.1.4 3-.1l6.1-3.5c.9-.5 1-1.3.2-1.8l-12.7-7.3c-.8-.4-2.1-.4-3 .1l-6.1 3.5c-.8.5-.9 1.3-.2 1.8zM640.2 418l12.7 7.3c.8.4 2.1.4 3-.1l6.1-3.5c.9-.5 1-1.3.2-1.8l-12.7-7.3c-.8-.4-2.1-.4-3 .1l-6.1 3.5c-.8.6-.9 1.4-.2 1.8zM623 408.1l12.7 7.3c.8.4 2.1.4 3-.1l6.1-3.5c.9-.5 1-1.3.2-1.8l-12.7-7.3c-.8-.4-2.1-.4-3 .1l-6.1 3.5c-.8.6-.9 1.3-.2 1.8zM605.8 398.2l12.7 7.3c.8.4 2.1.4 3-.1l6.1-3.5c.9-.5 1-1.3.2-1.8l-12.7-7.3c-.8-.4-2.1-.4-3 .1l-6.1 3.5c-.9.5-.9 1.3-.2 1.8zM588.6 388.2l12.7 7.3c.8.4 2.1.4 3-.1l6.1-3.5c.9-.5 1-1.3.2-1.8l-12.7-7.3c-.8-.4-2.1-.4-3 .1l-6.1 3.5c-.9.6-.9 1.4-.2 1.8zM571.4 378.3l12.7 7.3c.8.4 2.1.4 3-.1l6.1-3.5c.9-.5 1-1.3.2-1.8l-12.7-7.3c-.8-.4-2.1-.4-3 .1l-6.1 3.5c-.9.6-1 1.4-.2 1.8zM554.2 368.4l12.7 7.3c.8.4 2.1.4 3-.1l6.1-3.5c.9-.5 1-1.3.2-1.8l-12.7-7.3c-.8-.4-2.1-.4-3 .1l-6.1 3.5c-.9.5-1 1.3-.2 1.8zM537 358.4l12.7 7.3c.8.4 2.1.4 3-.1l6.1-3.5c.9-.5 1-1.3.2-1.8l-12.7-7.3c-.8-.4-2.1-.4-3 .1l-6.1 3.5c-.9.6-1 1.4-.2 1.8zM519.8 348.5l12.7 7.3c.8.4 2.1.4 3-.1l6.1-3.5c.9-.5 1-1.3.2-1.8l-12.7-7.3c-.8-.4-2.1-.4-3 .1l-6.1 3.5c-.9.6-1 1.4-.2 1.8zM494.8 334.1l20.5 11.8c.8.4 2.1.4 3-.1l6.1-3.5c.9-.5 1-1.3.2-1.8l-20.5-11.8c-.8-.4-2.1-.4-3 .1l-6.1 3.5c-.8.6-.9 1.3-.2 1.8z"/></g><path class="st7" d="M430.6 488.1L472 512c1.1.6 1.1 1.7 0 2.3L426.5 488c1.2-.5 3-.5 4.1.1z"/><path fill="#a0afd5" d="M529.7 330.8l214.9 124 2.9-1.7-214.8-124z"/><path class="st7" d="M777.7 264.3v192.2l4.6-2.7V261.7z"/><g><path d="M513.1 317.8l254.1 146.7c5.8 3.4 10.6 1.4 10.6-8V264.3c0-10.8-3.5-16.1-10.6-20.2L513.1 97.5c-5.8-3.4-10.6-1.9-10.6 8v192.1c0 12.6 4.2 16.5 10.6 20.2z" fill="#6b78bd"/><path class="st29" d="M512.4 98.6l255.5 147.5c4.7 2.7 8.5 9.3 8.5 14.7v197.7c0 5.4-3.8 7.6-8.5 4.9L512.4 315.9c-4.7-2.7-8.5-9.3-8.5-14.7V103.5c-.1-5.4 3.7-7.6 8.5-4.9z"/><defs><path id="XMLID_6_" d="M766.5 441.5V256.6L513.7 110.7v184.8z"/></defs><use xlink:href="#XMLID_6_" overflow="visible" fill="#6b78bd"/><clipPath id="XMLID_2_"><use xlink:href="#XMLID_6_" overflow="visible"/></clipPath><g><path opacity=".2" fill="#eff6fc" d="M548.6 315.7l160-92.5-194.9-112.5v184.8z"/></g></g><g><path class="st12" d="M436.7 455.1l35.1-20.3c2.1-1.2 5.5-1.2 7.6 0l85 49.1c2.1 1.2 2.1 3.2 0 4.4l-35.1 20.3-92.6-53.5zM482.3 483.1l45.6 26.3-19 11c-2.1 1.2-5.5 1.2-7.6 0l-41.8-24.1 22.8-13.2zM480.8 482.2L458 495.4l-41.8-24.1c-2.1-1.2-2.1-3.2 0-4.4l19-11 45.6 26.3z"/></g><g><path class="st7" d="M564.3 485.8l-85-49.1c-2.1-1.2-5.5-1.2-7.6 0L438.3 456l-1.6-1 35.1-20.3c2.1-1.2 5.5-1.2 7.6 0l85 49.1c1.5.9 1.9 2.1 1.3 3.2-.3-.4-.7-.8-1.4-1.2zM482.3 485l-21.2 12.2-1.6-1 22.8-13.1 45.5 26.3-1.6.9zM435.2 457.8l-19 11c-.6.4-1 .8-1.3 1.2-.6-1.1-.2-2.3 1.3-3.1l19-11 45.6 26.3-1.6 1-44-25.4z"/></g><g><path class="st4" d="M568.1 477.6l-5.7 3.2v8.2l5.7-3.2z"/><linearGradient id="SVGID_1_" gradientUnits="userSpaceOnUse" x1="-1433.411" y1="431.135" x2="-1427.631" y2="431.135" gradientTransform="matrix(-1 0 0 1 -955.981 0)"><stop offset="0" stop-color="#ecb329"/><stop offset=".435" stop-color="#f4cb17"/><stop offset=".981" stop-color="#ffea00"/></linearGradient><path fill="url(#SVGID_1_)" d="M477.4 425.5l-5.8 3.1v8.2l5.8-3.2z"/><linearGradient id="SVGID_2_" gradientUnits="userSpaceOnUse" x1="-1518.35" y1="458.76" x2="-1427.631" y2="458.76" gradientTransform="matrix(-1 0 0 1 -955.981 0)"><stop offset="0" stop-color="#ecb329"/><stop offset=".435" stop-color="#f4cb17"/><stop offset=".981" stop-color="#ffea00"/></linearGradient><path fill="url(#SVGID_2_)" d="M471.6 436.7l90.8 52.3v-8.2l-90.8-52.2z"/><path class="st3" d="M471.6 428.6l5.8-3.1 90.7 52.1-5.7 3.2z"/><g><path class="st4" d="M573.9 466.2l-5.7 3.2v8.2l5.7-3.2z"/><linearGradient id="SVGID_3_" gradientUnits="userSpaceOnUse" x1="-1439.197" y1="419.777" x2="-1433.416" y2="419.777" gradientTransform="matrix(-1 0 0 1 -955.981 0)"><stop offset="0" stop-color="#ecb329"/><stop offset=".435" stop-color="#f4cb17"/><stop offset=".981" stop-color="#ffea00"/></linearGradient><path fill="url(#SVGID_3_)" d="M483.2 414.1l-5.8 3.2v8.2l5.8-3.2z"/><linearGradient id="SVGID_4_" gradientUnits="userSpaceOnUse" x1="-1524.136" y1="447.401" x2="-1433.416" y2="447.401" gradientTransform="matrix(-1 0 0 1 -955.981 0)"><stop offset="0" stop-color="#ecb329"/><stop offset=".435" stop-color="#f4cb17"/><stop offset=".981" stop-color="#ffea00"/></linearGradient><path fill="url(#SVGID_4_)" d="M477.4 425.4l90.8 52.2v-8.2l-90.8-52.2z"/><path class="st3" d="M477.4 417.2l5.8-3.1 90.7 52.1-5.7 3.2z"/></g><g><path class="st4" d="M579.7 454.9l-5.8 3.2v8.1l5.8-3.1z"/><linearGradient id="SVGID_5_" gradientUnits="userSpaceOnUse" x1="-1444.977" y1="408.418" x2="-1439.197" y2="408.418" gradientTransform="matrix(-1 0 0 1 -955.981 0)"><stop offset="0" stop-color="#ecb329"/><stop offset=".435" stop-color="#f4cb17"/><stop offset=".981" stop-color="#ffea00"/></linearGradient><path fill="url(#SVGID_5_)" d="M489 402.7l-5.8 3.2v8.2l5.8-3.2z"/><linearGradient id="SVGID_6_" gradientUnits="userSpaceOnUse" x1="-1529.916" y1="436.042" x2="-1439.197" y2="436.042" gradientTransform="matrix(-1 0 0 1 -955.981 0)"><stop offset="0" stop-color="#ecb329"/><stop offset=".435" stop-color="#f4cb17"/><stop offset=".981" stop-color="#ffea00"/></linearGradient><path fill="url(#SVGID_6_)" d="M483.2 414l90.7 52.2v-8.1l-90.7-52.3z"/><path class="st3" d="M483.2 405.8l5.8-3.1 90.7 52.2-5.8 3.2z"/></g><g><path class="st4" d="M585.5 443.5l-5.8 3.2v8.2l5.8-3.2z"/><linearGradient id="SVGID_7_" gradientUnits="userSpaceOnUse" x1="-1450.757" y1="397.059" x2="-1444.977" y2="397.059" gradientTransform="matrix(-1 0 0 1 -955.981 0)"><stop offset="0" stop-color="#ecb329"/><stop offset=".435" stop-color="#f4cb17"/><stop offset=".981" stop-color="#ffea00"/></linearGradient><path fill="url(#SVGID_7_)" d="M494.8 391.4l-5.8 3.2v8.1l5.8-3.1z"/><linearGradient id="SVGID_8_" gradientUnits="userSpaceOnUse" x1="-1535.696" y1="424.683" x2="-1444.977" y2="424.683" gradientTransform="matrix(-1 0 0 1 -955.981 0)"><stop offset="0" stop-color="#ecb329"/><stop offset=".435" stop-color="#f4cb17"/><stop offset=".981" stop-color="#ffea00"/></linearGradient><path fill="url(#SVGID_8_)" d="M489 402.7l90.7 52.2v-8.2L489 394.5z"/><path class="st3" d="M489 394.5l5.8-3.1 90.7 52.1-5.8 3.2z"/></g><g><path class="st4" d="M591.3 432.2l-5.8 3.1v8.2l5.8-3.2z"/><linearGradient id="SVGID_9_" gradientUnits="userSpaceOnUse" x1="-1456.537" y1="385.7" x2="-1450.757" y2="385.7" gradientTransform="matrix(-1 0 0 1 -955.981 0)"><stop offset="0" stop-color="#ecb329"/><stop offset=".435" stop-color="#f4cb17"/><stop offset=".981" stop-color="#ffea00"/></linearGradient><path fill="url(#SVGID_9_)" d="M500.6 380l-5.8 3.2v8.2l5.8-3.2z"/><linearGradient id="SVGID_10_" gradientUnits="userSpaceOnUse" x1="-1541.477" y1="413.325" x2="-1450.757" y2="413.325" gradientTransform="matrix(-1 0 0 1 -955.981 0)"><stop offset="0" stop-color="#ecb329"/><stop offset=".435" stop-color="#f4cb17"/><stop offset=".981" stop-color="#ffea00"/></linearGradient><path fill="url(#SVGID_10_)" d="M494.8 391.3l90.7 52.2v-8.2l-90.7-52.2z"/><path class="st3" d="M494.8 383.1l33.1-18.3 90.7 52.2-33.1 18.3z"/></g><path class="st4" d="M618.6 416.9v40.4L562.4 489l2.9-5.7 3.9-7.5 20.4-40.5 1.7-3.1z"/></g><g><path class="st4" d="M720.4 287.9l-4.8 2.6v6.8l4.8-2.6z"/><linearGradient id="SVGID_11_" gradientUnits="userSpaceOnUse" x1="-1488.376" y1="187.204" x2="-1483.585" y2="187.204" gradientTransform="matrix(-1 0 0 1 -951.981 0)"><stop offset="0" stop-color="#ecb329"/><stop offset=".435" stop-color="#f4cb17"/><stop offset=".981" stop-color="#ffea00"/></linearGradient><path fill="url(#SVGID_11_)" d="M536.4 182.5l-4.8 2.6v6.8l4.8-2.6z"/><linearGradient id="SVGID_12_" gradientUnits="userSpaceOnUse" x1="-1667.57" y1="241.179" x2="-1483.585" y2="241.179" gradientTransform="matrix(-1 0 0 1 -951.981 0)"><stop offset="0" stop-color="#ecb329"/><stop offset=".435" stop-color="#f4cb17"/><stop offset=".981" stop-color="#ffea00"/></linearGradient><path fill="url(#SVGID_12_)" d="M531.6 191.8l184 105.5v-6.8l-184-105.4z"/><path class="st3" d="M531.6 185.1l4.8-2.6 184 105.4-4.8 2.6z"/></g><g><path class="st4" d="M652.3 226.8l-4.8 2.7v6.7l4.8-2.6z"/><linearGradient id="SVGID_13_" gradientUnits="userSpaceOnUse" x1="-1553.044" y1="201.98" x2="-1548.253" y2="201.98" gradientTransform="matrix(-1 0 0 1 -951.981 0)"><stop offset="0" stop-color="#ecb329"/><stop offset=".435" stop-color="#f4cb17"/><stop offset=".981" stop-color="#ffea00"/></linearGradient><path fill="url(#SVGID_13_)" d="M601.1 197.3l-4.8 2.6v6.8l4.8-2.6z"/><linearGradient id="SVGID_14_" gradientUnits="userSpaceOnUse" x1="-1599.487" y1="218.042" x2="-1548.253" y2="218.042" gradientTransform="matrix(-1 0 0 1 -951.981 0)"><stop offset="0" stop-color="#ecb329"/><stop offset=".435" stop-color="#f4cb17"/><stop offset=".981" stop-color="#ffea00"/></linearGradient><path fill="url(#SVGID_14_)" d="M596.3 206.6l51.2 29.6v-6.7l-51.2-29.7z"/><path class="st3" d="M596.3 199.8l4.8-2.5 51.2 29.5-4.8 2.7z"/></g><g><path class="st4" d="M720.4 265.8l-4.8 2.6v6.8l4.8-2.6z"/><linearGradient id="SVGID_15_" gradientUnits="userSpaceOnUse" x1="-1621.128" y1="240.946" x2="-1616.337" y2="240.946" gradientTransform="matrix(-1 0 0 1 -951.981 0)"><stop offset="0" stop-color="#ecb329"/><stop offset=".435" stop-color="#f4cb17"/><stop offset=".981" stop-color="#ffea00"/></linearGradient><path fill="url(#SVGID_15_)" d="M669.1 236.2l-4.7 2.7v6.8l4.7-2.7z"/><linearGradient id="SVGID_16_" gradientUnits="userSpaceOnUse" x1="-1667.57" y1="257.008" x2="-1616.337" y2="257.008" gradientTransform="matrix(-1 0 0 1 -951.981 0)"><stop offset="0" stop-color="#ecb329"/><stop offset=".435" stop-color="#f4cb17"/><stop offset=".981" stop-color="#ffea00"/></linearGradient><path fill="url(#SVGID_16_)" d="M664.4 245.6l51.2 29.6v-6.8l-51.2-29.6z"/><path class="st3" d="M664.4 238.8l4.7-2.6 51.3 29.6-4.8 2.6z"/></g><path class="st110" d="M482.5 317.6l89.7 51.4V197l-89.7-51.3z"/><g><path class="st4" d="M546.2 231.3l-4.8 2.7v45.9l4.8-2.6z"/><linearGradient id="SVGID_17_" gradientUnits="userSpaceOnUse" x1="-1446.926" y1="206.485" x2="-1442.135" y2="206.485" gradientTransform="matrix(-1 0 0 1 -951.981 0)"><stop offset="0" stop-color="#ecb329"/><stop offset=".435" stop-color="#f4cb17"/><stop offset=".981" stop-color="#ffea00"/></linearGradient><path fill="url(#SVGID_17_)" d="M494.9 201.8l-4.7 2.6v6.8l4.7-2.6z"/><linearGradient id="SVGID_18_" gradientUnits="userSpaceOnUse" x1="-1493.369" y1="242.119" x2="-1442.135" y2="242.119" gradientTransform="matrix(-1 0 0 1 -951.981 0)"><stop offset="0" stop-color="#ecb329"/><stop offset=".435" stop-color="#f4cb17"/><stop offset=".981" stop-color="#ffea00"/></linearGradient><path fill="url(#SVGID_18_)" d="M490.2 250.3l51.2 29.6V234l-51.2-29.7z"/><path class="st3" d="M490.2 204.3l4.7-2.5 51.3 29.5-4.8 2.7z"/></g><g><path class="st4" d="M546.2 210.8l-4.8 2.6v6.8l4.8-2.6z"/><linearGradient id="SVGID_19_" gradientUnits="userSpaceOnUse" x1="-1446.926" y1="185.944" x2="-1442.135" y2="185.944" gradientTransform="matrix(-1 0 0 1 -951.981 0)"><stop offset="0" stop-color="#ecb329"/><stop offset=".435" stop-color="#f4cb17"/><stop offset=".981" stop-color="#ffea00"/></linearGradient><path fill="url(#SVGID_19_)" d="M494.9 181.2l-4.7 2.7v6.8l4.7-2.7z"/><linearGradient id="SVGID_20_" gradientUnits="userSpaceOnUse" x1="-1493.369" y1="202.006" x2="-1442.135" y2="202.006" gradientTransform="matrix(-1 0 0 1 -951.981 0)"><stop offset="0" stop-color="#ecb329"/><stop offset=".435" stop-color="#f4cb17"/><stop offset=".981" stop-color="#ffea00"/></linearGradient><path fill="url(#SVGID_20_)" d="M490.2 190.6l51.2 29.6v-6.8l-51.2-29.6z"/><path class="st3" d="M490.2 183.8l4.7-2.6 51.3 29.6-4.8 2.6z"/></g><path class="st110" d="M635.1 404.9l89.7 51.4v-172L635.1 233z"/><g><path class="st4" d="M698.8 318.6l-4.8 2.7v6.7l4.8-2.6z"/><linearGradient id="SVGID_21_" gradientUnits="userSpaceOnUse" x1="-1599.524" y1="293.772" x2="-1594.733" y2="293.772" gradientTransform="matrix(-1 0 0 1 -951.981 0)"><stop offset="0" stop-color="#ecb329"/><stop offset=".435" stop-color="#f4cb17"/><stop offset=".981" stop-color="#ffea00"/></linearGradient><path fill="url(#SVGID_21_)" d="M647.5 289.1l-4.7 2.6v6.8l4.7-2.7z"/><linearGradient id="SVGID_22_" gradientUnits="userSpaceOnUse" x1="-1645.966" y1="309.834" x2="-1594.733" y2="309.834" gradientTransform="matrix(-1 0 0 1 -951.981 0)"><stop offset="0" stop-color="#ecb329"/><stop offset=".435" stop-color="#f4cb17"/><stop offset=".981" stop-color="#ffea00"/></linearGradient><path fill="url(#SVGID_22_)" d="M642.8 298.4L694 328v-6.7l-51.2-29.7z"/><path class="st3" d="M642.8 291.6l4.7-2.5 51.3 29.5-4.8 2.7z"/></g><g><path class="st4" d="M698.8 298.1l-4.8 2.6v6.8l4.8-2.6z"/><linearGradient id="SVGID_23_" gradientUnits="userSpaceOnUse" x1="-1599.524" y1="273.231" x2="-1594.733" y2="273.231" gradientTransform="matrix(-1 0 0 1 -951.981 0)"><stop offset="0" stop-color="#ecb329"/><stop offset=".435" stop-color="#f4cb17"/><stop offset=".981" stop-color="#ffea00"/></linearGradient><path fill="url(#SVGID_23_)" d="M647.5 268.5l-4.7 2.7v6.7l4.7-2.6z"/><linearGradient id="SVGID_24_" gradientUnits="userSpaceOnUse" x1="-1645.966" y1="289.293" x2="-1594.733" y2="289.293" gradientTransform="matrix(-1 0 0 1 -951.981 0)"><stop offset="0" stop-color="#ecb329"/><stop offset=".435" stop-color="#f4cb17"/><stop offset=".981" stop-color="#ffea00"/></linearGradient><path fill="url(#SVGID_24_)" d="M642.8 277.9l51.2 29.6v-6.8l-51.2-29.6z"/><path class="st3" d="M642.8 271.1l4.7-2.6 51.3 29.6-4.8 2.6z"/></g><g><path class="st12" d="M652.6 347c.1-.3.2-.5.2-.7-.8-4.8 2.2-9.7 2.2-9.7l7.6-3.2c.8-.4 1.7-.8 2.6-1.1 5.1-1.6 11.2-.6 17 3.4 12.4 8.5 19.3 27.3 15.4 42-1.8 6.7-5.6 11.4-10.3 13.7l-.6.2c-.4.2-.7.3-1.1.4l-8.6 3.7s-7-2.7-10.1-7.7c-11.7-8.6-18.1-26.7-14.3-41z"/><ellipse transform="rotate(-19.413 666.27 366.069)" class="st28" cx="666.4" cy="366.1" rx="22.4" ry="31.6"/></g><g><path class="st12" d="M595.9 254.4c0-.1.1-.2.1-.3-.3-2-.5-3.4-.5-3.4l4.6-1.9c.3-.2.7-.3 1.1-.4 2.1-.6 4.6-.2 7 1.4 5.1 3.5 8 11.3 6.3 17.3-.7 2.8-2.3 4.7-4.3 5.7l-.2.1c-.1.1-.3.1-.5.2l-5.3 2.2s-1.1-1.8-2.5-3.8c-4.8-3.8-7.4-11.3-5.8-17.1z"/><ellipse transform="rotate(-19.413 600.353 262.652)" class="st28" cx="600.4" cy="262.7" rx="9.3" ry="13.1"/></g><g><path class="st58" d="M549.3 298.2l-3.3 24.2 9.7 13.5 2.5-1.1-5.7-14.5 8.2-21.6-5.5-3.9z"/><path class="st25" d="M555.2 294.8s4.3-2.1 9.5-1.6c6.6.7 9.8 5.8 9.8 6.8 0 1.7 4.5 40.9 4.5 40.9s-7.1 4-14.6 2.9c-7.5-1-10.2-1.9-10.2-2.7.1-1.7 1-46.3 1-46.3z"/><path class="st58" d="M554.3 341.1l24.8-.2-10.2 54.4-4.6.6-.9-29.3-4.6-16.5zM549 398.2s-2.2 2.8-2.2 3.1c0 .3.8 4.6.8 4.6s10-1.1 10-1.3c0-.2 1.9-1.6-.9-2-2.7-.4-6-.2-6-.4s1.1-3.2 1.1-3.2l-2.8-.8z"/><path class="st25" d="M566 295s.1 9.3 6.7 11.9l22.1-20.3 6.7-19.5-4.1-.6-9.9 17.9L566 295z"/><path class="st21" d="M574 279.6c-.4-4.4-4.3-7.6-8.7-7.2h-.5c-4.4.4-7.6 4.3-7.2 8.7l.3 3.6c.4 4.4 4.3 7.6 8.7 7.2h.5c4.4-.4 7.6-4.3 7.2-8.7l-.3-3.6z"/><path class="st19" d="M570.3 281c-.8.1-1.4.9-1.5 1.7-.1.8.3 1.6.8 2.2.3.3.6.5.8.9.4.7.1 1.5-.2 2.2-.9 1.6-2.5 2.6-4 3.5-.5.3-.9.6-1.5.7-.8.1-1.6-.2-2.3-.5-1.3-.6-2.8-1.2-3.6-2.3-.6-.7-.9-1.7-1.1-2.6-.7-3-.6-6.2.3-9.1.4-1.3 1-2.5 2-3.4.9-.8 2.1-1.2 3.4-1.4 1.4-.2 2.8-.3 4.1.2s2.5 1.4 3 2.6c.7 1.7.1 3.9 1.2 5.3.4.4.8.8.6 1.4-.6-.6-1-1.5-2-1.4z"/><path class="st19" d="M564 271.7c-.5.2-1.1.4-1.4.9-.1.2-.2.5-.2.8-.3 4.1 5.4 7.5 8.6 4.6 1.4-1.2 2-3.9.5-5.2-1.6-1.5-5.4-1.7-7.5-1.1z"/><path class="st25" d="M561.2 336.8l4.5 30.8-19 31.7 6.2 1.1 24.1-32.1 2.1-27.4z"/><path class="st21" d="M599.2 261.7c-1.3.1-2.2 1.3-2.1 2.5.1 1.3 1.3 2.2 2.5 2.1 1.3-.1 2.2-1.3 2.1-2.5-.1-1.3-1.3-2.2-2.5-2.1z"/><path class="st58" d="M568.9 395.3l6.6-2.3s.6 1.5-.4 2.2c-1 .6-9.2 3.1-9.2 3.1l-1.5-2.3 1-5.2 3.5 4.5z"/></g><g><path class="st23" d="M83.4 547.2l-20.8 16.3-6.3 24.4 2.9 1 10.4-20.1 22.3-12.7 7.1-4.3z"/><path class="st7" d="M83.4 547.2s4.7-2.3 10.3-1.7c7.1.7 10.7 6.3 10.7 7.4 0 1.8 4.9 44.3 4.9 44.3s-7.7 4.3-15.8 3.2-11.1-2-11.1-2.9c.1-2 1-50.3 1-50.3z"/><path class="st23" d="M82.5 597.3l26.8-.2 19.8 34.2-4.2 2.5-16.6-19.4L91.6 604z"/><path class="st58" d="M76.7 659.2s-2.4 3-2.4 3.4c0 .4.9 5 .9 5s10.8-1.2 10.8-1.4c0-.2 2-1.7-.9-2.2-2.9-.4-6.5-.2-6.5-.4s1.1-3.4 1.1-3.4l-3-1z"/><path class="st7" d="M95.2 547.4s.1 10.1 7.3 12.9l24-22 7.3-21.2-4.4-.6-10.7 19.4-23.5 11.5z"/><path class="st21" d="M103.8 530.7c-.4-4.7-4.7-8.2-9.4-7.8l-.6.1c-4.7.4-8.2 4.7-7.8 9.4l.4 3.9c.4 4.7 4.7 8.2 9.4 7.8l.6-.1c4.7-.4 8.2-4.7 7.8-9.4l-.4-3.9zM61.3 590.6c0 2-1.6 3.6-3.6 3.6s-3.6-1.6-3.6-3.6 1.6-3.6 3.6-3.6c1.9-.1 3.6 1.6 3.6 3.6z"/><path class="st19" d="M99.9 532.2c-.9.1-1.5.9-1.6 1.8-.1.9.3 1.7.9 2.3.3.3.7.6.9 1 .4.7.2 1.7-.3 2.4-1 1.7-2.7 2.8-4.4 3.8-.5.3-1 .6-1.6.7-.8.1-1.7-.2-2.5-.5-1.5-.6-3-1.3-4-2.5-.6-.8-1-1.8-1.2-2.8-.8-3.2-.7-6.7.3-9.9.4-1.4 1.1-2.8 2.2-3.7 1-.9 2.3-1.3 3.6-1.5 1.5-.3 3-.3 4.4.2 1.4.5 2.7 1.5 3.2 2.9.7 1.9.1 4.2 1.4 5.7.4.5.9.9.7 1.5-.6-.6-1-1.5-2-1.4z"/><path class="st19" d="M93 522.1c-.6.2-1.2.5-1.5 1-.1.3-.2.6-.2.9-.4 4.4 5.9 8.1 9.4 5 1.5-1.3 2.2-4.3.6-5.7-1.9-1.6-6-1.9-8.3-1.2z"/><path class="st7" d="M90 592.7l4.9 33.4-20.6 34.2 6.7 1.3 26.1-34.8 2.2-29.7z"/><linearGradient id="SVGID_25_" gradientUnits="userSpaceOnUse" x1="44.836" y1="596.047" x2="44.836" y2="589.9"><stop offset="0" stop-color="#ecb329"/><stop offset=".435" stop-color="#f4cb17"/><stop offset=".981" stop-color="#ffea00"/></linearGradient><path fill="url(#SVGID_25_)" d="M46.1 597.4l3.7.5-4.1 25-5.8-1.4z"/><linearGradient id="SVGID_26_" gradientUnits="userSpaceOnUse" x1="45.7" y1="609.29" x2="68.386" y2="609.29"><stop offset="0" stop-color="#ecb329"/><stop offset=".435" stop-color="#f4cb17"/><stop offset=".981" stop-color="#ffea00"/></linearGradient><path d="M68.4 595.7c-1.1.2-18.6 2.2-18.6 2.2l-4.1 25 21.9-6.9.8-20.3z" fill="url(#SVGID_26_)"/><path class="st3" d="M46.1 597.4l16.4-2.5 5.9.8-18.6 2.2z"/><path d="M53.2 597.1l.6-3c.3-1.5 1.6-2.5 3.1-2.6l3-.1c1.5 0 2.6 1.2 2.4 2.7l-.3 2" fill="none" stroke="#c60" stroke-miterlimit="10"/><path class="st21" d="M131.1 511.3c-1.4.1-2.4 1.4-2.3 2.7.1 1.4 1.4 2.4 2.7 2.3 1.4-.1 2.4-1.4 2.3-2.7-.1-1.4-1.3-2.4-2.7-2.3z"/><path class="st58" d="M129.1 631.3l5.5-5.3s1.2 1.3.5 2.3c-.7 1.1-7.6 7.1-7.6 7.1l-2.6-1.6-1.4-5.5 5.6 3z"/></g><g><path class="st12" d="M194.2 554.8l7.9-8.7 80.5-45.8c4.9-2.8 9-10.5 9.1-17l1.3-211.6c6.2-8.2 3.9-18.1 3.9-18.1l-6.8-4c-1.6-.9-3.6-.9-5.9.4l-88.8 50.5c-4.9 2.8-9 10.5-9.1 17L185 543.9c0 3.3 1 5.7 2.6 7l6.6 3.9z"/><path class="st7" d="M203.6 344.4l8.1 17.2 81.2-71.5.1-18.5c6.2-8.2 3.9-18.1 3.9-18.1l-6.8-4c-1.6-.9-3.6-.9-5.9.4l-88.8 50.5c-4.9 2.8-9 10.5-9.1 17l-.2 16.9 17.5 10.1zM204.8 527.9l-19.7-11.4-.1 27.4c0 3.3 1 5.7 2.6 7l6.6 3.8 7.9-8.7 18.8-10.7-16.1-7.4z"/><path class="st12" d="M201.8 304.1l88.8-50.5c4.9-2.8 8.9.3 8.9 6.8l-1.4 226.5c0 6.6-4.1 14.2-9.1 17l-88.8 50.5c-4.9 2.8-8.9-.3-8.9-6.8l1.4-226.5c0-6.5 4.1-14.2 9.1-17z"/><path class="st28" d="M191.4 518.9l106.7-60.5 1.8-182.4-107.4 61.7z"/><path class="st110" d="M326 284.4L218.6 346l-1.1 181.3 106.7-60.6"/><ellipse transform="rotate(-51.908 249.824 504.81)" class="st7" cx="249.8" cy="504.8" rx="14.3" ry="8.1"/><path class="st7" d="M223.4 308.1l42.4-24.2c.8-.4 1.4 0 1.4 1.1 0 1-.6 2.2-1.4 2.7l-42.4 24.2c-.8.4-1.4 0-1.4-1.1s.7-2.3 1.4-2.7zM270.3 281.1c.8-.4 1.4 0 1.4 1.1 0 1-.6 2.2-1.4 2.7-.8.4-1.4 0-1.4-1.1s.6-2.3 1.4-2.7z"/><path class="st3" d="M246.6 402.2c-2.2-2.6-2.6-6.6 0-9.6l39.2-45.3c2.3-2.6 5.6-3.1 8.2-2 .6.2 1.1.5 1.7.9l12.6 6.9-.9 11.2-8.7 9.3v23.7c0 4.1-3.3 7.3-7.3 7.3h-21.6l-6.6 7.1-12.5-7.3c-1.7-.1-3-1-4.1-2.2z"/><linearGradient id="SVGID_27_" gradientUnits="userSpaceOnUse" x1="135.41" y1="428.927" x2="181.325" y2="358.534" gradientTransform="matrix(-1 0 0 1 451.056 0)"><stop offset="0" stop-color="#ecb329"/><stop offset=".435" stop-color="#f4cb17"/><stop offset=".981" stop-color="#ffea00"/></linearGradient><path d="M260.1 400.2l39.2-45.3c4.4-5.1 12.9-2 12.9 4.8V405c0 4.1-3.3 7.3-7.3 7.3h-39.2c-6.3.1-9.7-7.3-5.6-12.1z" fill="url(#SVGID_27_)"/><g><path class="st25" d="M290.1 464.1l2.5 22.1-1.9 41.3-4.2 33.9c-.2 1.4-1.2 2.5-2.6 2.7-2 .4-3.9-1.2-3.8-3.3l1-33.3 1.1-30.5-7.4.6-3.4 33.1-4.3 31.6c-.4 2-2 3.6-4.1 3.8-2.9.3-5.3-2.2-5-5.1l3.8-31.7 2.3-40.6 5.8-11.9 7-1.5 13.2-11.2z"/><path class="st20" d="M286.5 446.9l-.5-4.3-4.3 1.6-5.2-1.9-1.5 6.4 4.4 2.9 6.3-1.2z"/><path class="st21" d="M281.9 421.5c4.2 0 7.7 3.5 7.7 7.7v4.9c0 4.2-3.5 7.7-7.7 7.7s-7.7-3.5-7.7-7.7v-4.9c0-4.2 3.5-7.7 7.7-7.7zM318.8 406.2c1.3.8 1.8 2.4 1 3.8l-.9 1.5c-.8 1.3-2.4 1.8-3.8 1-1.3-.8-1.8-2.4-1-3.8l.9-1.5c.8-1.3 2.5-1.7 3.8-1zM238 406c1.3-.8 3-.4 3.8.9l.9 1.5c.8 1.3.4 3-.9 3.8-1.3.8-3 .4-3.8-.9l-.9-1.5c-.8-1.3-.4-3 .9-3.8z"/><path class="st20" d="M312.6 411.1L286.1 445s-3.1 2.5-4.6 2.5c-1.5 0-5.9-1.5-5.9-1.5l-31.2-34.6-4 4 26.9 38.5-3 34.8s13.7 5 18.3 3.5c4.5-1.5 10.1-6.3 10.1-6.3l.5-31.5 23.5-39.9-4.1-3.4z"/><path class="st22" d="M284.3 472.9l-2.1 3.7-3.5-3.7 2.4-26.8 1.1.3z"/><path class="st25" d="M284.7 561.7l9.6 4.8-1.3.2c-2.1.4-4.3.1-6.2-.7l-6.6-2.9-.1-2.3 4.6.9zM265.3 562.9s-.8 8.5-1.7 9.6c-.8 1.1-3.7.8-4.5-.6-.8-1.4 2.3-10.7 2.3-10.7l3.9 1.7z"/><path class="st22" d="M283.8 443.7h-4.1l1.9 3.8z"/><path class="st19" d="M274.2 428.9c.2-4.1 3.5-7.4 7.7-7.4 1.9 0 3.7.7 5 1.9-1 1.1-3.8 2.3-4.5 2.6-1.2.6-2.4 1.1-3.6 1.5-1.5.6-3 1-4.6 1.4zM289.6 429.2v.9c-1.3-.5-2.2-1.6-2.6-3-.3-1-.4-2.7.1-3.6 1.5 1.5 2.5 3.5 2.5 5.7z"/><path class="st19" d="M274.2 429.2c0-1.5.4-2.9 1.2-4.1.2.5.4 1.1.5 1.6.1 1-.1 2.1-.4 3-.2.5-.5 1.1-.9 1.4-.1.1-.2.1-.3.2v-2.1z"/></g></g><g><linearGradient id="SVGID_28_" gradientUnits="userSpaceOnUse" x1="214.959" y1="509.791" x2="238.579" y2="509.791" gradientTransform="matrix(-1 0 0 1 614.806 0)"><stop offset="0" stop-color="#ecb329"/><stop offset=".435" stop-color="#f4cb17"/><stop offset=".981" stop-color="#ffea00"/></linearGradient><path fill="url(#SVGID_28_)" d="M399.2 496.3l-23 7.8 1 19.2 22.6-9.8z"/><linearGradient id="SVGID_29_" gradientUnits="userSpaceOnUse" x1="237.567" y1="512.997" x2="243.978" y2="512.997" gradientTransform="matrix(-1 0 0 1 614.806 0)"><stop offset="0" stop-color="#ecb329"/><stop offset=".435" stop-color="#f4cb17"/><stop offset=".981" stop-color="#ffea00"/></linearGradient><path fill="url(#SVGID_29_)" d="M376.2 504.1l-3.7-1.4-1.7 15.9 6.4 4.7z"/><linearGradient id="SVGID_30_" gradientUnits="userSpaceOnUse" x1="237.607" y1="492.105" x2="229.606" y2="498.949" gradientTransform="matrix(-1 0 0 1 614.806 0)"><stop offset="0" stop-color="#ecb329"/><stop offset=".435" stop-color="#f4cb17"/><stop offset=".981" stop-color="#ffea00"/></linearGradient><path fill="url(#SVGID_30_)" d="M399.2 496.3l-4.8-1.7-21.9 8.1 3.7 1.4z"/><path class="st19" d="M441.9 539.6s2 5.1 4.4 3.7c2.4-1.3 11.1-10.8 11.1-10.8s-2-3.7-11.1 5.1c-2.1-.2-4.4 2-4.4 2z"/><path class="st77" d="M390.7 497.4l-.4-2.2c-.5-1-1.5-1.6-2.6-1.4l-4.2 1.5"/><path class="st29" d="M421 496.8l-2.9 19.7L396 542l-4.3-2.4 14.6-27-8.6-27.5 5.4-3.8 3.1.6z"/><path class="st7" d="M427.1 489.7l11.7 18.6 7.5 29.4s-.2 1.5-1.6 2.6c-1.4 1-2.8-.5-2.8-.5L427.7 515l-10.3-14.5-10.1-3.7 10.9 19.7L396 542l-4.4-2.4 14.7-27-8.6-27.6 14.6-1.8 14.8 6.5z"/><path class="st21" d="M384.9 491.4c-1.7.2-3 1.8-2.8 3.7.2 1.9 1.7 3.3 3.4 3.1 1.7-.2 3-1.8 2.8-3.7-.2-1.8-1.7-3.3-3.4-3.1zM458.4 452.7c-2.2.2-3.8 2.4-3.5 4.8s2.2 4.2 4.4 4c2.2-.2 3.8-2.4 3.5-4.8-.3-2.4-2.2-4.2-4.4-4z"/><path class="st7" d="M398.8 454.4l-1.2 30.6s4.8 10.6 13.8 10.2c9.1-.4 16.8-3.7 16.8-3.7l-1.7-38.4s-3.4-3.7-10.1-5.6c-2.5-.7-5.5-1.1-8.3-1.4-4.8-.4-9.1 3.4-9.3 8.3z"/><path class="st7" d="M426.7 453.2l12.6 18 16.2-13.9 4 3.6-14.4 16.1c-2.8 3.1-7.5 3.5-10.8 1l-16.2-12.5c0-.1 3.7-15.5 8.6-12.3z"/><path class="st20" d="M417.8 447.8s-2.4 1.3-5.2 1c-2.8-.3-4.7-2.1-4.7-2.1l.6-2.9 8.7.3.6 3.7z"/><path class="st21" d="M408.6 424.8c-5.1 2.1-7.5 8.4-5.2 14.1s8.3 8.7 13.5 6.6c5.1-2.1 7.5-8.4 5.2-14.1-2.3-5.7-8.3-8.7-13.5-6.6z"/><path class="st19" d="M408.6 424.8c-5.1 2.1-7.5 8.4-5.2 14.1.9 2.2 2.3 3.9 3.9 5.2 2.2.9 4.7 1 7 .1 5.1-2.1 7.5-8.4 5.2-14.1-.9-2.2-2.3-3.9-3.9-5.2-2.2-.9-4.7-1-7-.1z"/><path class="st21" d="M416.3 433.3c-1.3 1.4-1 3.6.5 5 .6.5 1.3.9 2 1 .8-.1 1.6-.4 2.1-1 1.3-1.4 1-3.6-.5-5-.6-.5-1.3-.9-2-1-.7.1-1.5.4-2.1 1z"/><path class="st7" d="M405.1 446.5s-4.3.5-8.1 6.3-12.8 37.7-12.8 37.7-.1 3.8 2.2 2.5c2.4-1.3 14-24.3 14-24.7s3.2-7.1 3.2-7.9 1.5-13.9 1.5-13.9z"/><path class="st19" d="M395.2 541.3s-1.8-1.3-3-1.2c-1.2.2-2 3.3-2 3.3l2.7 4.3 9-1.3s1.3-2.7-2-2.3c-3.3.3-4.5.2-4.5.2l-.2-3z"/><path class="st77" d="M380.3 501.1l-.3-1.9c-.2-1.5.7-2.9 2.1-3.4l1.8-.6"/></g></svg>