<svg width="800" height="800" version="1.1" id="Layer_1" xmlns="http://www.w3.org/2000/svg" xmlns:xlink="http://www.w3.org/1999/xlink" x="0" y="0" xml:space="preserve"><style>.st3{fill:#c60}.st4{fill:#9e4b00}.st7{fill:#7e93fc}.st12{fill:#d0ddfe}.st19{fill:#282642}.st20{fill:#fff}.st21{fill:#eebcc5}.st24{fill:none}.st28{fill:#ebf2ff}.st29{fill:#2c2d6f}.st59{enable-background:new}.st79{fill:none;stroke:#282642;stroke-width:.25;stroke-miterlimit:10}.st189{fill:#353a8e}.st190{fill:#474891}.st191{fill:#f1f1f1}.st192{fill:#cccbcb}.st193{fill:#e52f32}.st194{fill:#2c337b}.st196{fill:#202141}.st197{fill:#464891}.st198{fill:#30368b}.st199{fill:#50539f}.st200{fill:#2babe2}.st202{fill:#2a265e}.st203{fill:#2b2760}.st205{fill:#2c2964}.st206{fill:#2d2a66}.st207{fill:#2e2b68}.st209{fill:#302d6c}.st210{fill:#312e6e}.st212{fill:#323072}</style><path class="st4" d="M604.3 555.3c0 .3 0 .5-.1.8-.1.3-.3.7-.5 1-.1.2-.2.5-.4.7-.3.4-.7.8-1 1.2-.2.2-.3.3-.4.5-.6.5-1.3 1-2.1 1.5l-147 85.4c-6.3 3.7-16.6 3.7-22.9 0l-148-85.4c-.8-.5-1.5-1-2.1-1.5-.2-.2-.3-.4-.5-.6-.3-.4-.7-.7-1-1.1-.2-.2-.2-.5-.4-.7-.2-.3-.4-.7-.5-1-.1-.3-.1-.5-.1-.8-.1-.3-.2-.7-.2-1l-.1 10.4c0 2.4 1.6 4.9 4.8 6.7l147.9 85.4c6.4 3.7 16.6 3.7 22.9 0l147-85.4c3.1-1.8 4.7-4.2 4.7-6.6l.1-10.4c0 .3-.1.6-.1.9z"/><path class="st3" d="M277.4 556.1c.1.3.3.7.5 1 .1.2.2.5.4.7.3.4.6.7 1 1.1.2.2.3.4.5.6.6.5 1.3 1 2.1 1.5l147.9 85.4c6.4 3.7 16.6 3.7 22.9 0l147-85.4c.8-.5 1.5-1 2.1-1.5.2-.2.3-.3.4-.5.4-.4.8-.8 1-1.2.2-.2.2-.5.4-.7.2-.3.4-.7.5-1 .1-.3.1-.5.1-.8.5-2.7-1-5.6-4.6-7.7l-147.9-85.4c-6.4-3.7-16.6-3.7-23 0l-147 85.4c-3.2 1.8-4.7 4.2-4.7 6.6 0 .3.1.7.2 1 .1.4.1.6.2.9z"/><g class="st59"><g class="st59"><defs><path id="SVGID_71_" class="st59" d="M519.9 535.1l-.1 14.2c0 1.2-.8 2.3-2.3 3.2l.1-14.2c1.5-.8 2.3-2 2.3-3.2z"/></defs><use xlink:href="#SVGID_71_" overflow="visible" fill="#9e4b00"/><clipPath id="SVGID_1_"><use xlink:href="#SVGID_71_" overflow="visible"/></clipPath><g clip-path="url(#SVGID_1_)"><path class="st4" d="M519.9 535.1l-.1 14.2c0 1.2-.8 2.3-2.3 3.2l.1-14.2c1.5-.8 2.3-2 2.3-3.2"/></g></g><g class="st59"><defs><path id="SVGID_73_" class="st59" d="M361.5 549.3l.1-14.2c0 1.2.8 2.3 2.3 3.2l-.1 14.2c-1.5-.9-2.3-2-2.3-3.2z"/></defs><clipPath id="SVGID_2_"><use xlink:href="#SVGID_73_" overflow="visible"/></clipPath><g clip-path="url(#SVGID_2_)"><path class="st4" d="M363.9 538.3l-.1 14.2c-1.5-.9-2.3-2.1-2.3-3.2l.1-14.2c0 1.2.8 2.3 2.3 3.2"/></g></g><path class="st4" d="M517.6 538.3l-.1 14.2-71 41.3.1-14.2zM435.4 579.6v14.2l-71.6-41.3.1-14.2z"/><linearGradient id="SVGID_3_" gradientUnits="userSpaceOnUse" x1="440.745" y1="409.234" x2="440.745" y2="639.949"><stop offset="0" stop-color="#ecb329"/><stop offset=".435" stop-color="#f4cb17"/><stop offset=".981" stop-color="#ffea00"/></linearGradient><path d="M517.6 531.9c3.1 1.8 3.1 4.7 0 6.4l-71 41.3c-3.1 1.8-8 1.8-11.1 0L364 538.3c-3.1-1.8-3.1-4.6 0-6.4l71-41.3c3-1.8 8-1.8 11.1 0l71.5 41.3z" fill="url(#SVGID_3_)"/><g class="st59"><defs><path id="SVGID_76_" class="st59" d="M446.6 579.6l-.1 14.2c-3.1 1.8-8 1.8-11.1 0l.1-14.2c3 1.8 8 1.8 11.1 0z"/></defs><clipPath id="SVGID_4_"><use xlink:href="#SVGID_76_" overflow="visible"/></clipPath><g clip-path="url(#SVGID_4_)"><path class="st4" d="M446.6 579.6l-.1 14.2c-3.1 1.8-8 1.8-11.1 0l.1-14.2c3 1.8 8 1.8 11.1 0"/></g></g></g><path class="st24" d="M396 525.8c0-.1-.1-.1-.1-.2.1 0 .1.1.1.2zM396.4 526.2l-.2-.2.2.2zM485.4 525.8zM395.8 525.3v-.2.2z"/><path class="st4" d="M485.4 525.8c-.2.3-.5.6-1 .9L444 550.1c-1.7 1-4.6 1-6.3 0L397 526.6c-.2-.1-.4-.3-.6-.4l-.2-.2c-.1-.1-.2-.2-.2-.3 0-.1-.1-.1-.1-.2-.1-.1-.1-.2-.2-.3v-.2-.3 8.1c0 .7.4 1.3 1.3 1.8l40.7 23.5c1.7 1 4.6 1 6.3 0l40.4-23.5c.9-.5 1.3-1.2 1.3-1.8v-8.1c.1.4 0 .8-.3 1.1z"/><path class="st3" d="M395.7 525.1v.2c0 .1.1.2.2.3 0 .1.1.1.1.2.1.1.2.2.2.3l.2.2c.2.1.4.3.6.4l40.7 23.5c1.7 1 4.6 1 6.3 0l40.4-23.5c.4-.2.7-.5 1-.8.2-.3.3-.6.3-1 0-.7-.4-1.3-1.3-1.9l-40.7-23.5c-1.7-1-4.6-1-6.3 0L397 523c-.9.5-1.3 1.2-1.3 1.8v.3z"/><path class="st20" d="M410.9 524.8l29.7-17.3 29.9 17.3-29.6 17.3z"/><g><g class="st59"><linearGradient id="SVGID_5_" gradientUnits="userSpaceOnUse" x1="571.967" y1="409.234" x2="571.967" y2="639.949"><stop offset="0" stop-color="#ecb329"/><stop offset=".435" stop-color="#f4cb17"/><stop offset=".981" stop-color="#ffea00"/></linearGradient><path fill="url(#SVGID_5_)" d="M530.5 555.5l10-5.9 72.9 42.1-10 5.9z"/><linearGradient id="SVGID_6_" gradientUnits="userSpaceOnUse" x1="527.13" y1="553.427" x2="631.029" y2="615.505"><stop offset="0" stop-color="#ecb329"/><stop offset=".435" stop-color="#f4cb17"/><stop offset=".981" stop-color="#ffea00"/></linearGradient><path fill="url(#SVGID_6_)" d="M614.9 599.1l-.1 13.2-11.4-6.6v-5l-72.9-42.1v-3.1l72.9 42.1v-5.1z"/><g><linearGradient id="SVGID_7_" gradientUnits="userSpaceOnUse" x1="510.454" y1="700.225" x2="672.923" y2="555.57"><stop offset="0" stop-color="#ecb329"/><stop offset=".435" stop-color="#f4cb17"/><stop offset=".981" stop-color="#ffea00"/></linearGradient><path fill="url(#SVGID_7_)" d="M614.9 599.1l10-5.8v13.2l-10.1 5.8z"/></g><g><linearGradient id="SVGID_8_" gradientUnits="userSpaceOnUse" x1="642.697" y1="628.163" x2="612.531" y2="590.871"><stop offset="0" stop-color="#ecb329"/><stop offset=".435" stop-color="#f4cb17"/><stop offset=".981" stop-color="#ffea00"/></linearGradient><path fill="url(#SVGID_8_)" d="M603.4 592.5l10.1-5.8 11.4 6.6-10 5.8z"/></g></g><g class="st59"><linearGradient id="SVGID_9_" gradientUnits="userSpaceOnUse" x1="532.102" y1="409.234" x2="532.102" y2="639.949"><stop offset="0" stop-color="#ecb329"/><stop offset=".435" stop-color="#f4cb17"/><stop offset=".981" stop-color="#ffea00"/></linearGradient><path fill="url(#SVGID_9_)" d="M490.6 583.4l10.1-5.9 72.9 42.1-10.1 5.9z"/><linearGradient id="SVGID_10_" gradientUnits="userSpaceOnUse" x1="504.356" y1="591.543" x2="608.255" y2="653.621"><stop offset="0" stop-color="#ecb329"/><stop offset=".435" stop-color="#f4cb17"/><stop offset=".981" stop-color="#ffea00"/></linearGradient><path fill="url(#SVGID_10_)" d="M575 627v13.2l-11.5-6.6v-5l-72.9-42.1v-3.1l72.9 42.1v-5.1z"/><g><linearGradient id="SVGID_11_" gradientUnits="userSpaceOnUse" x1="506.685" y1="695.992" x2="669.155" y2="551.337"><stop offset="0" stop-color="#ecb329"/><stop offset=".435" stop-color="#f4cb17"/><stop offset=".981" stop-color="#ffea00"/></linearGradient><path fill="url(#SVGID_11_)" d="M575 627l10.1-5.8-.1 13.2-10 5.8z"/></g><g><linearGradient id="SVGID_12_" gradientUnits="userSpaceOnUse" x1="604.955" y1="658.693" x2="574.789" y2="621.401"><stop offset="0" stop-color="#ecb329"/><stop offset=".435" stop-color="#f4cb17"/><stop offset=".981" stop-color="#ffea00"/></linearGradient><path fill="url(#SVGID_12_)" d="M563.5 620.4l10.1-5.8 11.5 6.6L575 627z"/></g></g><g class="st59"><linearGradient id="SVGID_13_" gradientUnits="userSpaceOnUse" x1="492.237" y1="409.234" x2="492.237" y2="639.949"><stop offset="0" stop-color="#ecb329"/><stop offset=".435" stop-color="#f4cb17"/><stop offset=".981" stop-color="#ffea00"/></linearGradient><path fill="url(#SVGID_13_)" d="M450.8 611.3l10-5.9 72.9 42.1-10 5.9z"/><linearGradient id="SVGID_14_" gradientUnits="userSpaceOnUse" x1="481.582" y1="629.66" x2="585.481" y2="691.738"><stop offset="0" stop-color="#ecb329"/><stop offset=".435" stop-color="#f4cb17"/><stop offset=".981" stop-color="#ffea00"/></linearGradient><path fill="url(#SVGID_14_)" d="M535.1 654.9v13.2l-11.5-6.6.1-5-73-42.1.1-3.1 72.9 42.1v-5.1z"/><g><linearGradient id="SVGID_15_" gradientUnits="userSpaceOnUse" x1="502.916" y1="691.759" x2="665.386" y2="547.104"><stop offset="0" stop-color="#ecb329"/><stop offset=".435" stop-color="#f4cb17"/><stop offset=".981" stop-color="#ffea00"/></linearGradient><path fill="url(#SVGID_15_)" d="M535.1 654.9l10.1-5.8v13.2l-10.1 5.8z"/></g><g><linearGradient id="SVGID_16_" gradientUnits="userSpaceOnUse" x1="567.213" y1="689.223" x2="537.047" y2="651.931"><stop offset="0" stop-color="#ecb329"/><stop offset=".435" stop-color="#f4cb17"/><stop offset=".981" stop-color="#ffea00"/></linearGradient><path fill="url(#SVGID_16_)" d="M523.7 648.3l10-5.8 11.5 6.6-10.1 5.8z"/></g></g><g class="st59"><linearGradient id="SVGID_17_" gradientUnits="userSpaceOnUse" x1="310.673" y1="409.234" x2="310.673" y2="639.949"><stop offset="0" stop-color="#ecb329"/><stop offset=".435" stop-color="#f4cb17"/><stop offset=".981" stop-color="#ffea00"/></linearGradient><path fill="url(#SVGID_17_)" d="M352.2 555.5l-10.1-5.9-72.9 42.1 10.1 5.9z"/><linearGradient id="SVGID_18_" gradientUnits="userSpaceOnUse" x1="360.643" y1="542.722" x2="266.219" y2="610.027"><stop offset="0" stop-color="#ecb329"/><stop offset=".435" stop-color="#f4cb17"/><stop offset=".981" stop-color="#ffea00"/></linearGradient><path fill="url(#SVGID_18_)" d="M267.8 599.1v13.2l11.5-6.6v-5l72.9-42.1v-3.1l-72.9 42.1-.1-5.1z"/><g><linearGradient id="SVGID_19_" gradientUnits="userSpaceOnUse" x1="262.762" y1="767.359" x2="262.762" y2="697.74"><stop offset="0" stop-color="#ecb329"/><stop offset=".435" stop-color="#f4cb17"/><stop offset=".981" stop-color="#ffea00"/></linearGradient><path fill="url(#SVGID_19_)" d="M267.8 599.1l-10.1-5.8.1 13.2 10 5.8z"/></g><g><linearGradient id="SVGID_20_" gradientUnits="userSpaceOnUse" x1="311.718" y1="561.57" x2="252.106" y2="604.749"><stop offset="0" stop-color="#ecb329"/><stop offset=".435" stop-color="#f4cb17"/><stop offset=".981" stop-color="#ffea00"/></linearGradient><path fill="url(#SVGID_20_)" d="M279.2 592.5l-10-5.8-11.5 6.6 10.1 5.8z"/></g></g><g class="st59"><linearGradient id="SVGID_21_" gradientUnits="userSpaceOnUse" x1="350.538" y1="409.234" x2="350.538" y2="639.949"><stop offset="0" stop-color="#ecb329"/><stop offset=".435" stop-color="#f4cb17"/><stop offset=".981" stop-color="#ffea00"/></linearGradient><path fill="url(#SVGID_21_)" d="M392 583.4l-10-5.9-72.9 42.1 10 5.9z"/><linearGradient id="SVGID_22_" gradientUnits="userSpaceOnUse" x1="387.264" y1="580.068" x2="292.84" y2="647.374"><stop offset="0" stop-color="#ecb329"/><stop offset=".435" stop-color="#f4cb17"/><stop offset=".981" stop-color="#ffea00"/></linearGradient><path fill="url(#SVGID_22_)" d="M307.6 627l.1 13.2 11.4-6.6v-5l72.9-42.1v-3.1l-72.9 42.1v-5.1z"/><g><linearGradient id="SVGID_23_" gradientUnits="userSpaceOnUse" x1="302.627" y1="767.359" x2="302.627" y2="697.74"><stop offset="0" stop-color="#ecb329"/><stop offset=".435" stop-color="#f4cb17"/><stop offset=".981" stop-color="#ffea00"/></linearGradient><path fill="url(#SVGID_23_)" d="M307.6 627l-10-5.8v13.2l10.1 5.8z"/></g><g><linearGradient id="SVGID_24_" gradientUnits="userSpaceOnUse" x1="338.693" y1="598.812" x2="279.081" y2="641.991"><stop offset="0" stop-color="#ecb329"/><stop offset=".435" stop-color="#f4cb17"/><stop offset=".981" stop-color="#ffea00"/></linearGradient><path fill="url(#SVGID_24_)" d="M319.1 620.4l-10.1-5.8-11.4 6.6 10 5.8z"/></g></g><g class="st59"><linearGradient id="SVGID_25_" gradientUnits="userSpaceOnUse" x1="390.403" y1="409.234" x2="390.403" y2="639.949"><stop offset="0" stop-color="#ecb329"/><stop offset=".435" stop-color="#f4cb17"/><stop offset=".981" stop-color="#ffea00"/></linearGradient><path fill="url(#SVGID_25_)" d="M431.9 611.3l-10.1-5.9-72.9 42.1 10.1 5.9z"/><linearGradient id="SVGID_26_" gradientUnits="userSpaceOnUse" x1="413.884" y1="617.414" x2="319.46" y2="684.72"><stop offset="0" stop-color="#ecb329"/><stop offset=".435" stop-color="#f4cb17"/><stop offset=".981" stop-color="#ffea00"/></linearGradient><path fill="url(#SVGID_26_)" d="M347.5 654.9v13.2l11.5-6.6v-5l72.9-42.1v-3.1L359 653.4v-5.1z"/><g><linearGradient id="SVGID_27_" gradientUnits="userSpaceOnUse" x1="342.491" y1="767.359" x2="342.491" y2="697.74"><stop offset="0" stop-color="#ecb329"/><stop offset=".435" stop-color="#f4cb17"/><stop offset=".981" stop-color="#ffea00"/></linearGradient><path fill="url(#SVGID_27_)" d="M347.5 654.9l-10.1-5.8.1 13.2 10 5.8z"/></g><g><linearGradient id="SVGID_28_" gradientUnits="userSpaceOnUse" x1="365.668" y1="636.054" x2="306.056" y2="679.232"><stop offset="0" stop-color="#ecb329"/><stop offset=".435" stop-color="#f4cb17"/><stop offset=".981" stop-color="#ffea00"/></linearGradient><path fill="url(#SVGID_28_)" d="M359 648.3l-10.1-5.8-11.5 6.6 10.1 5.8z"/></g></g><g><g class="st59"><linearGradient id="SVGID_29_" gradientUnits="userSpaceOnUse" x1="541.883" y1="425.671" x2="560.175" y2="402.807"><stop offset="0" stop-color="#ecb329"/><stop offset=".435" stop-color="#f4cb17"/><stop offset=".981" stop-color="#ffea00"/></linearGradient><path fill="url(#SVGID_29_)" d="M529.5 452.8l-10-5.8v-5.1l10 5.9z"/><linearGradient id="SVGID_30_" gradientUnits="userSpaceOnUse" x1="537.9" y1="422.485" x2="556.192" y2="399.62"><stop offset="0" stop-color="#ecb329"/><stop offset=".435" stop-color="#f4cb17"/><stop offset=".981" stop-color="#ffea00"/></linearGradient><path fill="url(#SVGID_30_)" d="M529.5 444.7l-10-5.9v-5l10 5.9z"/><linearGradient id="SVGID_31_" gradientUnits="userSpaceOnUse" x1="621.348" y1="397.454" x2="612.659" y2="400.883"><stop offset="0" stop-color="#ecb329"/><stop offset=".435" stop-color="#f4cb17"/><stop offset=".981" stop-color="#ffea00"/></linearGradient><path fill="url(#SVGID_31_)" d="M529.5 439.7l-10-5.9 11.4-6.6L541 433z"/><g><linearGradient id="SVGID_32_" gradientUnits="userSpaceOnUse" x1="465.984" y1="490.235" x2="556.814" y2="424.563"><stop offset="0" stop-color="#ecb329"/><stop offset=".435" stop-color="#f4cb17"/><stop offset=".981" stop-color="#ffea00"/></linearGradient><path fill="url(#SVGID_32_)" d="M541 433v13.2l-11.5 6.6v-5l-72.9 42.1v-3.1l72.9-42.1v-5z"/></g><g><linearGradient id="SVGID_33_" gradientUnits="userSpaceOnUse" x1="497.223" y1="443.688" x2="507.601" y2="434.199"><stop offset="0" stop-color="#ecb329"/><stop offset=".435" stop-color="#f4cb17"/><stop offset=".981" stop-color="#ffea00"/></linearGradient><path fill="url(#SVGID_33_)" d="M456.6 489.9l-10-5.9v-3.1l10 5.9z"/></g><g><linearGradient id="SVGID_34_" gradientUnits="userSpaceOnUse" x1="488.043" y1="409.234" x2="488.043" y2="639.949"><stop offset="0" stop-color="#ecb329"/><stop offset=".435" stop-color="#f4cb17"/><stop offset=".981" stop-color="#ffea00"/></linearGradient><path fill="url(#SVGID_34_)" d="M456.6 486.8l-10-5.9 72.9-42.1 10 5.9z"/></g></g><g class="st59"><linearGradient id="SVGID_35_" gradientUnits="userSpaceOnUse" x1="583.029" y1="458.588" x2="601.321" y2="435.724"><stop offset="0" stop-color="#ecb329"/><stop offset=".435" stop-color="#f4cb17"/><stop offset=".981" stop-color="#ffea00"/></linearGradient><path fill="url(#SVGID_35_)" d="M576.8 478.2l-10.1-5.9v-5l10.1 5.8z"/><linearGradient id="SVGID_36_" gradientUnits="userSpaceOnUse" x1="579.046" y1="455.401" x2="597.338" y2="432.537"><stop offset="0" stop-color="#ecb329"/><stop offset=".435" stop-color="#f4cb17"/><stop offset=".981" stop-color="#ffea00"/></linearGradient><path fill="url(#SVGID_36_)" d="M576.7 470l-10-5.8v-5.1l10 5.9z"/><linearGradient id="SVGID_37_" gradientUnits="userSpaceOnUse" x1="636.361" y1="435.487" x2="627.672" y2="438.917"><stop offset="0" stop-color="#ecb329"/><stop offset=".435" stop-color="#f4cb17"/><stop offset=".981" stop-color="#ffea00"/></linearGradient><path fill="url(#SVGID_37_)" d="M576.7 465l-10-5.9 11.4-6.6 10.1 5.9z"/><g><linearGradient id="SVGID_38_" gradientUnits="userSpaceOnUse" x1="494.218" y1="529.284" x2="585.048" y2="463.612"><stop offset="0" stop-color="#ecb329"/><stop offset=".435" stop-color="#f4cb17"/><stop offset=".981" stop-color="#ffea00"/></linearGradient><path fill="url(#SVGID_38_)" d="M588.2 458.4v13.1l-11.4 6.7v-5.1l-72.9 42.1-.1-3.1 72.9-42.1v-5z"/></g><g><linearGradient id="SVGID_39_" gradientUnits="userSpaceOnUse" x1="531.334" y1="480.996" x2="541.712" y2="471.508"><stop offset="0" stop-color="#ecb329"/><stop offset=".435" stop-color="#f4cb17"/><stop offset=".981" stop-color="#ffea00"/></linearGradient><path fill="url(#SVGID_39_)" d="M503.9 515.2l-10.1-5.9v-3.1l10 5.9z"/></g><g><linearGradient id="SVGID_40_" gradientUnits="userSpaceOnUse" x1="535.268" y1="409.234" x2="535.268" y2="639.949"><stop offset="0" stop-color="#ecb329"/><stop offset=".435" stop-color="#f4cb17"/><stop offset=".981" stop-color="#ffea00"/></linearGradient><path fill="url(#SVGID_40_)" d="M503.8 512.1l-10-5.9 72.9-42 10 5.8z"/></g></g><g class="st59"><linearGradient id="SVGID_41_" gradientUnits="userSpaceOnUse" x1="622.396" y1="490.081" x2="640.687" y2="467.217"><stop offset="0" stop-color="#ecb329"/><stop offset=".435" stop-color="#f4cb17"/><stop offset=".981" stop-color="#ffea00"/></linearGradient><path fill="url(#SVGID_41_)" d="M620.8 503.8l-10-5.9-.1-5 10.1 5.8z"/><linearGradient id="SVGID_42_" gradientUnits="userSpaceOnUse" x1="618.413" y1="486.895" x2="636.704" y2="464.03"><stop offset="0" stop-color="#ecb329"/><stop offset=".435" stop-color="#f4cb17"/><stop offset=".981" stop-color="#ffea00"/></linearGradient><path fill="url(#SVGID_42_)" d="M620.8 495.6l-10.1-5.8v-5l10.1 5.8z"/><linearGradient id="SVGID_43_" gradientUnits="userSpaceOnUse" x1="651.055" y1="472.713" x2="642.367" y2="476.142"><stop offset="0" stop-color="#ecb329"/><stop offset=".435" stop-color="#f4cb17"/><stop offset=".981" stop-color="#ffea00"/></linearGradient><path fill="url(#SVGID_43_)" d="M620.8 490.6l-10.1-5.8 11.5-6.6 10 5.8z"/><g><linearGradient id="SVGID_44_" gradientUnits="userSpaceOnUse" x1="521.513" y1="567.036" x2="612.343" y2="501.364"><stop offset="0" stop-color="#ecb329"/><stop offset=".435" stop-color="#f4cb17"/><stop offset=".981" stop-color="#ffea00"/></linearGradient><path fill="url(#SVGID_44_)" d="M632.2 484l.1 13.2-11.5 6.6v-5.1l-72.9 42.1v-3.1l72.9-42.1v-5z"/></g><g><linearGradient id="SVGID_45_" gradientUnits="userSpaceOnUse" x1="564.158" y1="516.898" x2="574.536" y2="507.41"><stop offset="0" stop-color="#ecb329"/><stop offset=".435" stop-color="#f4cb17"/><stop offset=".981" stop-color="#ffea00"/></linearGradient><path fill="url(#SVGID_45_)" d="M547.9 540.8l-10.1-5.8v-3.1l10.1 5.8z"/></g><g><linearGradient id="SVGID_46_" gradientUnits="userSpaceOnUse" x1="579.318" y1="409.234" x2="579.318" y2="639.949"><stop offset="0" stop-color="#ecb329"/><stop offset=".435" stop-color="#f4cb17"/><stop offset=".981" stop-color="#ffea00"/></linearGradient><path fill="url(#SVGID_46_)" d="M547.9 537.7l-10.1-5.8 72.9-42.1 10.1 5.8z"/></g></g></g><g><g class="st59"><linearGradient id="SVGID_47_" gradientUnits="userSpaceOnUse" x1="340.414" y1="428.201" x2="320.773" y2="389.756"><stop offset="0" stop-color="#ecb329"/><stop offset=".435" stop-color="#f4cb17"/><stop offset=".981" stop-color="#ffea00"/></linearGradient><path fill="url(#SVGID_47_)" d="M345.4 453.2l10-5.8v-5.1l-10 5.9z"/><linearGradient id="SVGID_48_" gradientUnits="userSpaceOnUse" x1="343.728" y1="426.507" x2="324.088" y2="388.062"><stop offset="0" stop-color="#ecb329"/><stop offset=".435" stop-color="#f4cb17"/><stop offset=".981" stop-color="#ffea00"/></linearGradient><path fill="url(#SVGID_48_)" d="M345.4 445.1l10.1-5.9v-5l-10.1 5.8z"/><linearGradient id="SVGID_49_" gradientUnits="userSpaceOnUse" x1="323.163" y1="454.299" x2="337.899" y2="440.274"><stop offset="0" stop-color="#ecb329"/><stop offset=".435" stop-color="#f4cb17"/><stop offset=".981" stop-color="#ffea00"/></linearGradient><path fill="url(#SVGID_49_)" d="M345.4 440l10.1-5.8-11.5-6.6-10.1 5.8z"/><g><linearGradient id="SVGID_50_" gradientUnits="userSpaceOnUse" x1="376.474" y1="467.279" x2="315.581" y2="400.349"><stop offset="0" stop-color="#ecb329"/><stop offset=".435" stop-color="#f4cb17"/><stop offset=".981" stop-color="#ffea00"/></linearGradient><path fill="url(#SVGID_50_)" d="M333.9 433.4v13.2l11.5 6.6v-5l72.9 42v-3.1l-72.9-42V440z"/></g><g><linearGradient id="SVGID_51_" gradientUnits="userSpaceOnUse" x1="374.255" y1="432.622" x2="369.995" y2="428.006"><stop offset="0" stop-color="#ecb329"/><stop offset=".435" stop-color="#f4cb17"/><stop offset=".981" stop-color="#ffea00"/></linearGradient><path fill="url(#SVGID_51_)" d="M418.3 490.2l10-5.8.1-3.1-10.1 5.8z"/></g><g><linearGradient id="SVGID_52_" gradientUnits="userSpaceOnUse" x1="386.872" y1="409.234" x2="386.872" y2="639.949"><stop offset="0" stop-color="#ecb329"/><stop offset=".435" stop-color="#f4cb17"/><stop offset=".981" stop-color="#ffea00"/></linearGradient><path fill="url(#SVGID_52_)" d="M418.3 487.1l10.1-5.8-72.9-42.1-10.1 5.9z"/></g></g><g class="st59"><linearGradient id="SVGID_53_" gradientUnits="userSpaceOnUse" x1="292.706" y1="452.573" x2="273.065" y2="414.128"><stop offset="0" stop-color="#ecb329"/><stop offset=".435" stop-color="#f4cb17"/><stop offset=".981" stop-color="#ffea00"/></linearGradient><path fill="url(#SVGID_53_)" d="M298.1 478.5l10.1-5.8v-5.1l-10 5.9z"/><linearGradient id="SVGID_54_" gradientUnits="userSpaceOnUse" x1="296.02" y1="450.88" x2="276.38" y2="412.435"><stop offset="0" stop-color="#ecb329"/><stop offset=".435" stop-color="#f4cb17"/><stop offset=".981" stop-color="#ffea00"/></linearGradient><path fill="url(#SVGID_54_)" d="M298.2 470.4l10-5.9v-5l-10 5.8z"/><linearGradient id="SVGID_55_" gradientUnits="userSpaceOnUse" x1="310.543" y1="441.528" x2="305.927" y2="447.742"><stop offset="0" stop-color="#ecb329"/><stop offset=".435" stop-color="#f4cb17"/><stop offset=".981" stop-color="#ffea00"/></linearGradient><path fill="url(#SVGID_55_)" d="M298.2 465.3l10-5.8-11.4-6.6-10.1 5.8z"/><g><linearGradient id="SVGID_56_" gradientUnits="userSpaceOnUse" x1="338.034" y1="502.253" x2="277.14" y2="435.323"><stop offset="0" stop-color="#ecb329"/><stop offset=".435" stop-color="#f4cb17"/><stop offset=".981" stop-color="#ffea00"/></linearGradient><path fill="url(#SVGID_56_)" d="M286.7 458.7v13.2l11.4 6.6.1-5 72.9 42.1v-3.1l-72.9-42.1v-5.1z"/></g><g><linearGradient id="SVGID_57_" gradientUnits="userSpaceOnUse" x1="336.138" y1="467.807" x2="331.878" y2="463.191"><stop offset="0" stop-color="#ecb329"/><stop offset=".435" stop-color="#f4cb17"/><stop offset=".981" stop-color="#ffea00"/></linearGradient><path fill="url(#SVGID_57_)" d="M371.1 515.6l10-5.9v-3.1l-10 5.9z"/></g><g><linearGradient id="SVGID_58_" gradientUnits="userSpaceOnUse" x1="339.647" y1="409.234" x2="339.647" y2="639.949"><stop offset="0" stop-color="#ecb329"/><stop offset=".435" stop-color="#f4cb17"/><stop offset=".981" stop-color="#ffea00"/></linearGradient><path fill="url(#SVGID_58_)" d="M371.1 512.5l10-5.9-72.9-42.1-10 5.9z"/></g></g><g class="st59"><linearGradient id="SVGID_59_" gradientUnits="userSpaceOnUse" x1="247.385" y1="475.726" x2="227.745" y2="437.281"><stop offset="0" stop-color="#ecb329"/><stop offset=".435" stop-color="#f4cb17"/><stop offset=".981" stop-color="#ffea00"/></linearGradient><path fill="url(#SVGID_59_)" d="M254.1 504.2l10.1-5.9v-5l-10.1 5.8z"/><linearGradient id="SVGID_60_" gradientUnits="userSpaceOnUse" x1="250.7" y1="474.033" x2="231.06" y2="435.588"><stop offset="0" stop-color="#ecb329"/><stop offset=".435" stop-color="#f4cb17"/><stop offset=".981" stop-color="#ffea00"/></linearGradient><path fill="url(#SVGID_60_)" d="M254.1 496l10.1-5.8v-5.1l-10.1 5.9z"/><linearGradient id="SVGID_61_" gradientUnits="userSpaceOnUse" x1="294.429" y1="429.558" x2="289.813" y2="435.772"><stop offset="0" stop-color="#ecb329"/><stop offset=".435" stop-color="#f4cb17"/><stop offset=".981" stop-color="#ffea00"/></linearGradient><path fill="url(#SVGID_61_)" d="M254.1 491l10.1-5.9-11.5-6.6-10 5.9z"/><g><linearGradient id="SVGID_62_" gradientUnits="userSpaceOnUse" x1="301.171" y1="535.791" x2="240.278" y2="468.861"><stop offset="0" stop-color="#ecb329"/><stop offset=".435" stop-color="#f4cb17"/><stop offset=".981" stop-color="#ffea00"/></linearGradient><path fill="url(#SVGID_62_)" d="M242.7 484.4l-.1 13.1 11.5 6.7v-5.1l72.9 42.1v-3.1L254.1 496v-5z"/></g><g><linearGradient id="SVGID_63_" gradientUnits="userSpaceOnUse" x1="299.576" y1="501.557" x2="295.315" y2="496.941"><stop offset="0" stop-color="#ecb329"/><stop offset=".435" stop-color="#f4cb17"/><stop offset=".981" stop-color="#ffea00"/></linearGradient><path fill="url(#SVGID_63_)" d="M327 541.2l10.1-5.8v-3.1l-10.1 5.8z"/></g><g><linearGradient id="SVGID_64_" gradientUnits="userSpaceOnUse" x1="295.596" y1="409.234" x2="295.596" y2="639.949"><stop offset="0" stop-color="#ecb329"/><stop offset=".435" stop-color="#f4cb17"/><stop offset=".981" stop-color="#ffea00"/></linearGradient><path fill="url(#SVGID_64_)" d="M327 538.1l10.1-5.8-72.9-42.1-10.1 5.8z"/></g></g></g></g><g><g class="st59"><path class="st189" d="M567.2 315.6c0 8.6 6 19.1 13.6 23.5l-23.3 13.5c-7.5-4.3-13.6-14.9-13.6-23.5 7.7-4.5 15.5-9 23.3-13.5z"/><path class="st190" d="M572.9 328.8c-7.1 4.1-14.2 8.3-21.3 12.4l-.3-.6c7.8-4.5 15.5-9 23.3-13.5l.3.6c-.7.3-1.4.7-2 1.1zM574.1 326.4c.1.2.2.5.4.7-7.8 4.5-15.5 9-23.3 13.5-.1-.2-.3-.4-.4-.7 7.8-4.5 15.6-9 23.3-13.5z"/><path class="st190" d="M572.2 327.5c-7.1 4.1-14.2 8.3-21.3 12.4l-.3-.6c7.8-4.5 15.5-9 23.3-13.5l.3.6c-.7.4-1.4.7-2 1.1z"/><path class="st190" d="M572.2 320.9c.3 1.6.9 3.3 1.7 4.9-7.8 4.5-15.5 9-23.3 13.5-.8-1.6-1.4-3.3-1.7-4.9 7.7-4.5 15.5-9 23.3-13.5zM574.9 327.6c1.4 2.2 3.2 4.2 5.2 5.5-7.8 4.5-15.5 9-23.3 13.5-2-1.3-3.8-3.3-5.2-5.5 7.7-4.5 15.5-9 23.3-13.5z"/><path class="st190" d="M580 333.1c.2.1.4.3.7.4-7.8 4.5-15.5 9-23.3 13.5-.2-.1-.4-.3-.7-.4 7.8-4.4 15.6-8.9 23.3-13.5zM580.7 333.6l-23.3 13.5c7.8-4.5 15.5-9 23.3-13.5z"/><path class="st191" d="M580.8 333.6c.8.4 1.5.8 2.3 1-7.8 4.5-15.5 9-23.3 13.5-.7-.2-1.5-.5-2.2-.9 7.6-4.6 15.4-9.1 23.2-13.6-7.8 4.5-15.5 9-23.3 13.5 7-4 16.3-9.4 23.3-13.5z"/><path class="st190" d="M580.7 333.6c.8.5 1.6.8 2.3 1-7.8 4.5-15.5 9-23.3 13.5-.7-.2-1.5-.5-2.3-1 7.8-4.5 15.5-9 23.3-13.5zM571.9 318.4c0 .8.1 1.6.2 2.5-7.8 4.5-15.5 9-23.3 13.5-.2-.8-.2-1.7-.2-2.5 7.8-4.5 15.6-9 23.3-13.5-7.8 4.5-15.5 9-23.3 13.5 0-1.1.2-2.1.5-2.9 7.8-4.5 15.5-9 23.3-13.5-.3.8-.5 1.8-.5 2.9zM572.4 315.3c0 .1 0 .1 0 0-7.8 4.6-15.6 9.1-23.3 13.6v-.1c7.8-4.4 15.6-8.9 23.3-13.5z"/><path class="st190" d="M584.6 334.8c-7.8 4.5-15.5 9-23.3 13.5-.5 0-1-.1-1.6-.2 7.8-4.5 15.5-9 23.3-13.5.6.1 1.1.2 1.6.2z"/><path class="st191" d="M584.7 334.8c-7.8 4.5-15.5 9-23.3 13.5-.5 0-1.1-.1-1.7-.2 7.8-4.5 15.5-9 23.3-13.5.6.1 1.2.2 1.7.2z"/><path class="st190" d="M573.7 313.4c-.5.5-.9 1.2-1.2 2-7.8 4.5-15.5 9-23.3 13.5.3-.8.7-1.5 1.2-2 7.7-4.5 15.5-9 23.3-13.5zM584.6 334.8c.5 0 1-.1 1.4-.2-7.8 4.5-15.5 9-23.3 13.5-.4.1-.9.2-1.4.2 5.5-3.2 11-6.4 16.6-9.6 1.1-.6 2.2-1.3 3.4-1.9.4-.3.9-.5 1.3-.8.1-.1.3-.2.4-.2.1-.1.3-.2.4-.2.2-.1.6-.3.8-.5.2-.2.3-.3.4-.3zM574.4 312.8c-.2.2-.5.3-.7.5-7.8 4.5-15.5 9-23.3 13.5.2-.2.4-.4.7-.5 7.7-4.5 15.5-9 23.3-13.5z"/><path class="st190" d="M569.7 315.5l-18.6 10.8.1-.1 23.3-13.5-.1.1c-1.6.9-3.2 1.8-4.7 2.7z"/><path class="st191" d="M584.7 334.8c.8 0 1.6-.2 2.3-.6l-23.3 13.5c-.7.4-1.4.6-2.3.6 5.7-3.3 11.5-6.7 17.2-10 1-.6 2.1-1.2 3.1-1.8.1-.1.3-.2.4-.3.1-.1.3-.2.4-.3.1-.1.3-.2.4-.3.1-.1.3-.2.4-.2.2-.1.6-.3.8-.5.3 0 .5-.1.6-.1z"/><path class="st189" d="M571.1 306.9c-2.4 1.4-3.9 4.4-4 8.7-7.8 4.5-15.5 9-23.3 13.5 0-4.3 1.5-7.3 4-8.7 7-4 16.3-9.4 23.3-13.5zM580.7 339.1c3.8 2.2 7.2 2.4 9.7.9l-23.3 13.5c-2.5 1.4-5.9 1.2-9.7-.9 7-4 16.4-9.4 23.3-13.5z"/><path class="st190" d="M586.1 334.6c.3-.1.7-.2 1-.4l-23.3 13.5c-.3.2-.6.3-1 .4 3.9-2.3 7.8-4.5 11.6-6.8.5-.3 1.1-.6 1.5-.9 2-1.2 4-2.3 6-3.5.8-.5 2-1.1 2.8-1.6.4-.2.9-.5 1.4-.7z"/><path class="st192" d="M552.9 326.8l23.3-13.5c-1.4.8-2.3 2.6-2.3 5 0 5 3.5 11.1 7.8 13.6 2.2 1.3 4.2 1.4 5.6.6L564.1 346c-1.4.8-3.4.7-5.6-.6-4.3-2.5-7.9-8.6-7.8-13.6-.1-2.4.8-4.2 2.2-5z"/><path class="st191" d="M589.5 328.7c-.3 1.8-1 3.1-2.2 3.8L564.1 346c1.2-.7 2-2 2.2-3.8 6.9-4.1 16.3-9.5 23.2-13.5z"/><path class="st191" d="M589.6 328.6c0 2.8-1 4.7-2.6 5.6l-23.3 13.5c1.6-.9 2.6-2.9 2.6-5.6 0-5.6-3.9-12.4-8.8-15.2l23.3-13.5c4.9 2.8 8.8 9.6 8.8 15.2z"/><path class="st192" d="M587 330.1l-.3.2c.1 0 .2-.1.3-.2zm-3.3 1.9l-1.1.6c.4-.1.8-.3 1.1-.6zm-1.4.9l-2.6 1.5c.9-.6 1.8-1 2.6-1.5zm-4 2.3l-2.2 1.3c.7-.4 1.4-.9 2.2-1.3zm-4.8 2.8l-.3.2c.1-.1.2-.1.3-.2zm-1.4.8l-3 1.7c1-.5 2-1.1 3-1.7zm-3.3 1.9l-2.5 1.5c.8-.5 1.6-1 2.5-1.5zm18.5-8.2L565.8 345c-.4 1.3-1.2 2.2-2.1 2.7l23.3-13.5c1.6-.9 2.5-2.8 2.6-5.5-.3 1.8-1.1 3.1-2.3 3.8z"/><path class="st191" d="M576.2 313.3c1.2-.7 2.7-.7 4.5 0-6.9 4-13.7 8-20.6 11.9l-2.7 1.6c-1.7-.7-3.3-.7-4.5 0 7-4 16.3-9.4 23.3-13.5z"/><path class="st192" d="M551.2 326.3l23.3-13.5c.9-.5 1.9-.7 3-.5h.1c.9.1 1.9.5 3 1.1l-23.3 13.5c-1.1-.6-2.1-.9-3-1.1h-.1c-1.1-.2-2.1 0-3 .5z"/><path class="st191" d="M580.6 313.2c-7.8 4.5-15.5 9-23.3 13.5-1-.6-2-.9-3-1 2.4-1.4 4.7-2.7 7.1-4.1.9-.5 2.1-1.2 3-1.8 4.4-2.5 8.8-5.1 13.1-7.6 1.1.1 2.1.5 3.1 1z"/><path class="st191" d="M580.6 313.2c.1 0 .1.1.2.1l-23.3 13.5c-.1 0-.1-.1-.2-.1 7.8-4.4 15.5-8.9 23.3-13.5z"/><path class="st190" d="M590.4 340.1l-23.3 13.5c2.4-1.4 4-4.4 4-8.7 0-7.1-4.1-15.5-9.8-20.7l23.3-13.5c5.7 5.2 9.8 13.6 9.8 20.7 0 4.2-1.5 7.2-4 8.7z"/><path class="st189" d="M553.8 315.6l23.2-13.5v4.2l-23.2 13.5z"/><path class="st193" d="M561.3 320l23.3-13.6v4.3l-23.3 13.5z"/><path class="st190" d="M547.8 320.4l23.3-13.5c1.6-.9 3.6-1.2 5.9-.6 1.2.3 2.5.8 3.8 1.6 1.3.8 2.6 1.7 3.8 2.8l-23.3 13.5c-1.2-1.1-2.5-2-3.8-2.8-1.3-.8-2.6-1.3-3.8-1.6-2.2-.5-4.2-.3-5.9.6z"/><path class="st193" d="M553.8 315.6l23.2-13.5 7.6 4.3-23.3 13.6z"/><path class="st194" d="M541.4 309.3l23.3-13.5c3.7-2.1 8.6-2.1 14.1.5.7.3 1.4.7 2.1 1.1.7.4 1.4.8 2.1 1.3l-23.3 13.5c-.7-.5-1.4-.9-2.1-1.3-.7-.4-1.4-.8-2.1-1.1-5.5-2.6-10.4-2.7-14.1-.5z"/><path class="st194" d="M596.9 351.2l-23.3 13.5c4.1-2.4 6.6-7.4 6.6-14.6 0-13.6-9-30.1-20.6-38l23.3-13.5c11.6 7.9 20.6 24.4 20.6 38 0 7.2-2.5 12.2-6.6 14.6z"/><path class="st12" d="M559.7 312.2c11.6 7.9 20.6 24.4 20.6 38 0 14.4-10.3 20.3-22.8 13-12.6-7.3-22.7-24.9-22.7-39.3 0-13.6 9.1-19.6 20.7-14.1.7.3 1.4.7 2.1 1.1.7.4 1.4.8 2.1 1.3zm-2.2 40.4c7.5 4.3 13.6.8 13.6-7.8 0-7.1-4.1-15.5-9.8-20.7v-4.2l-7.6-4.4v4.2c-5.7-1.4-9.8 2.2-9.9 9.3.1 8.8 6.1 19.3 13.7 23.6"/><path class="st190" d="M561.3 324.2c5.7 5.2 9.8 13.6 9.8 20.7 0 8.6-6.1 12.1-13.6 7.8s-13.6-14.9-13.6-23.5c0-7.1 4.2-10.7 9.9-9.3 1.2.3 2.5.8 3.8 1.6 1.3.6 2.5 1.6 3.7 2.7zm-3.9 22.9c4.9 2.8 8.8.6 8.9-5 0-5.6-3.9-12.4-8.8-15.2-1.1-.6-2.2-1-3.2-1.2h-.1c-3.3-.4-5.6 1.9-5.6 6.2 0 5.6 4 12.4 8.8 15.2"/><path class="st191" d="M557.5 326.9c4.8 2.8 8.8 9.6 8.8 15.2s-4 7.8-8.8 5c4.8 2.7 8.7.5 8.8-4.9-.6 4.1-3.8 5.5-7.8 3.2-4.3-2.5-7.9-8.6-7.8-13.6 0-4.5 3-6.6 6.8-5-1.1-.6-2.1-.9-3-1.1.9.2 1.9.5 3 1.2z"/><path class="st192" d="M557.4 326.8c-3.8-1.6-6.7.5-6.8 5 0 5 3.5 11.1 7.8 13.6 4 2.3 7.2.8 7.8-3.2-.1 5.5-4 7.7-8.8 4.9-4.9-2.8-8.8-9.6-8.8-15.2 0-4.3 2.3-6.6 5.6-6.2h.1c1 .2 2 .5 3.1 1.1z"/><linearGradient id="SVGID_65_" gradientUnits="userSpaceOnUse" x1="-3857.035" y1="319.883" x2="-3849.454" y2="319.883" gradientTransform="matrix(-1 0 0 1 -3295.698 0)"><stop offset="0" stop-color="#ecb329"/><stop offset=".435" stop-color="#f4cb17"/><stop offset=".981" stop-color="#ffea00"/></linearGradient><path d="M561.3 320v4.2c-1.2-1.1-2.5-2-3.8-2.8-1.3-.8-2.6-1.3-3.8-1.6v-4.2l7.6 4.4z" fill="url(#SVGID_65_)"/><path class="st12" d="M559.7 306.2v6c-.7-.5-1.4-.9-2.1-1.3-.7-.4-1.4-.8-2.1-1.1v-6l4.2 2.4z"/><path class="st196" d="M555.5 303.8l23.3-13.6 4.2 2.5-23.3 13.5z"/><g><path class="st7" d="M559.7 306.2l23.3-13.5-.1 5.9-23.2 13.6z"/></g></g><g class="st59"><path class="st7" d="M513.3 267.5l23.3-13.5 41.2 23.8-23.2 13.5z"/><path class="st189" d="M618.6 311.4l-23.3 13.5c1-.6 1.6-1.8 1.6-3.5l23.3-13.5c0 1.7-.6 2.9-1.6 3.5zM596.9 315.8l23.3-13.6v5.7l-23.3 13.5z"/><path class="st7" d="M554.6 291.3l23.2-13.5 42.4 24.4-23.3 13.6z"/><path class="st189" d="M505.2 244.7l23.3-13.5 49.4 28.5-23.3 13.5z"/><path class="st189" d="M554.6 273.2l23.3-13.5 52.1 30.1-23.3 13.5z"/><path class="st12" d="M606.8 297.3l-.1 6-52.1-30.1-49.4-28.5v-6l4.4 2.5 5.4 3.1 39.6 22.9 39.6 22.9 5.3 3.1z"/><path class="st189" d="M510.4 241.7l18.1-10.5v-6l-23.3 13.5 4.4 2.5z"/><path class="st189" d="M505.2 238.7l23.3-13.5 4.4 2.5-23.3 13.5z"/><path class="st196" d="M509.6 241.2l23.3-13.5 5.3 3.1-23.2 13.5z"/><path class="st7" d="M515 244.3l23.2-13.5 39.7 22.9-23.3 13.5z"/><path class="st12" d="M596.9 315.8v5.6c0 3.5-2.5 4.9-5.5 3.1l-72.6-41.9c-3-1.8-5.5-6-5.5-9.5v-5.6l41.2 23.8 42.4 24.5z"/><path class="st7" d="M554.6 267.2l23.3-13.5 39.6 22.9-23.3 13.5z"/><path class="st196" d="M594.2 290.1l23.3-13.5 5.3 3-23.3 13.6zM606.8 297.3l23.2-13.5v6l-23.3 13.5z"/><path class="st189" d="M599.5 293.2l23.3-13.6 7.2 4.2-23.2 13.5z"/></g><g class="st59"><path class="st29" d="M518.5 238.8l23.3-13.5c-1.8 1-3 2.9-3.6 5.6L515 244.3c.5-2.6 1.8-4.5 3.5-5.5z"/><path class="st189" d="M551.2 226.1c-2.4 1.4-4.7 2.7-7.1 4.1-5.4 3.1-10.8 6.3-16.2 9.4-.1-.6-.2-1.1-.2-1.6 7.8-4.5 15.5-9 23.3-13.5 0 .5.1 1.1.2 1.6z"/><path class="st189" d="M527.8 233.5L551 220v4.5L527.8 238z"/><path class="st12" d="M527.8 233.5v4.5c0 .5.1 1.1.2 1.6-6.4-3.7-11.7-1.5-13 4.7l-5.3-3.1c1.2-9.4 8.9-12.9 18.1-7.7z"/><path class="st29" d="M514.8 232.4l23.3-13.5c3.3-1.9 7.9-1.7 12.9 1.2l-23.3 13.5c-5-2.9-9.6-3.2-12.9-1.2z"/><path class="st190" d="M603.2 259.1l-23.3 13.5c.7-.4 1.2-1.1 1.4-2.1.1-.4.2-.9.2-1.4l23.3-13.5c0 .5-.1 1-.2 1.4-.2 1-.7 1.7-1.4 2.1zM581.5 264.6l23.3-13.6v4.6l-23.3 13.5zM527.8 231.6l23.3-13.5 53.7 31-23.3 13.6z"/><path class="st12" d="M581.5 262.7v6.4c0 .5-.1 1-.2 1.4-.6 2.4-2.8 3.2-5.4 1.7l-42.8-24.7c-2.6-1.5-4.7-4.8-5.3-7.9-.1-.6-.2-1.1-.2-1.6v-6.4l53.9 31.1z"/><path class="st190" d="M581.5 262.7l23.3-13.6v1.9l-23.3 13.6z"/><path class="st29" d="M581.5 264.6l23.3-13.5c9.2 5.4 16.8 17.7 18 28.6l-23.3 13.5c-1.2-11-8.8-23.2-18-28.6z"/><path class="st12" d="M581.5 264.6c9.2 5.4 16.8 17.7 18 28.6l-5.3-3.1c-1.2-7.6-6.5-15.9-12.9-19.6.1-.4.2-.9.2-1.4v-4.5z"/></g><path class="st196" d="M448.7 335.5h-.1l-1.7 1 1.7-1zM458.8 284.5c0-.3.1-.6.1-.9-.1.3-.1.6-.1.9z"/><path class="st29" d="M491.7 220.7c-.5.4-1.1.7-1.7 1.1-1.5 1-2.9 2.1-4.2 3.3l-.3.3c-1.5 1.3-2.9 2.6-4.2 4-.4.5-.8 1-1.3 1.4-.9 1-1.8 2-2.6 3-.5.6-.9 1.3-1.4 1.9-.7 1-1.5 1.9-2.1 3-.5.7-.9 1.5-1.4 2.2-.6 1-1.3 2-1.8 3.1-.4.8-.9 1.6-1.3 2.4-.5 1.1-1.1 2.1-1.6 3.2-.4.9-.8 1.7-1.1 2.6-.5 1.1-.9 2.3-1.4 3.4-.3.9-.7 1.9-1 2.8l-1.2 3.6c-.3 1-.6 2-.8 3-.3 1.3-.6 2.5-.9 3.8-.2 1-.5 2-.7 3.1-.3 1.3-.5 2.7-.7 4.1-.2 1.1-.4 2.1-.5 3.2-.2 1.4-.4 2.9-.5 4.3 0 .3-.1.6-.1.9-.1.8-.2 1.5-.2 2.3-.1 1.5-.2 3.1-.3 4.7-.1 1-.1 2.1-.2 3.1-.1 1.8-.1 3.6 0 5.4v2.7c.1 2.8.2 5.5.3 8.4l1.2 18.4 23.3-13.5-1.2-18.4c-2.6-40.5 8.6-72.2 30.7-88.6l-11.6 6.7c-3.4 1.6-6.3 3.2-9.2 5.1z"/><path class="st12" d="M459.6 329.5l-1.2-18.4c-.2-2.8-.3-5.6-.3-8.4V300v-5.4c0-1.1.1-2.1.2-3.1.1-1.6.2-3.2.3-4.7.1-.8.2-1.5.2-2.3 0-.3.1-.6.1-.9.2-1.5.3-2.9.5-4.3.2-1.1.3-2.1.5-3.2.2-1.4.5-2.7.7-4.1.2-1 .4-2.1.7-3.1.3-1.3.6-2.6.9-3.8.3-1 .5-2 .8-3 .4-1.2.7-2.4 1.2-3.6.3-.9.7-1.9 1-2.8.4-1.2.9-2.3 1.4-3.4.4-.9.7-1.8 1.1-2.6.5-1.1 1-2.2 1.6-3.2.4-.8.8-1.6 1.3-2.4.6-1.1 1.2-2.1 1.8-3.1.5-.7.9-1.5 1.4-2.2l2.1-3c.5-.6.9-1.3 1.4-1.9.8-1.1 1.7-2 2.6-3 .4-.5.8-1 1.3-1.4 1.4-1.4 2.8-2.8 4.2-4l.3-.3c1.4-1.2 2.8-2.3 4.2-3.3.5-.4 1.1-.7 1.7-1.1 2.8-1.9 5.8-3.6 9-4.9l-33.5-19.3-2.1-1.2c-25.8 15.1-36 52.6-26.7 98.7l8.5 42.6 1.7-.9.1-.1-.1.1-1.7.9 19.2 26.8 4.5 2.6.1-32.5 23.3-13.5-4.2-2.4-.3-.2-6.7-1.2-23.1 13.2zm15-118.8c0-.1 0-.1.1-.2.2-.4.4-.7.7-1 .1 0 .1-.1.2-.1.6-.5 1.5-.6 2.5-.3.3.1.7.3 1 .5 1.9 1.1 3.6 3.5 4.3 5.8.2.8.4 1.6.4 2.3 0 3-2.1 4.2-4.7 2.7-.4-.2-.7-.5-1-.7-2.1-1.8-3.7-4.8-3.6-7.4-.2-.6-.1-1.1.1-1.6zM464 221.1c.1 0 .1-.1.2-.1.6-.5 1.5-.6 2.5-.3.3.1.7.3 1.1.5 2.6 1.5 4.7 5.1 4.7 8.1s-2.1 4.2-4.7 2.7c-.4-.2-.7-.5-1.1-.7-2.1-1.8-3.7-4.8-3.7-7.4 0-1.3.4-2.2 1-2.8zm-6.8 15.1c.3.1.7.3 1 .5 2.6 1.5 4.7 5.1 4.7 8.1s-2.1 4.2-4.7 2.7c-.4-.2-.7-.5-1-.7-2.1-1.8-3.7-4.8-3.6-7.4-.1-2.6 1.5-3.8 3.6-3.2z"/><path class="st29" d="M470.6 365.8l23.3-13.5.1-32.5-23.3 13.5z"/><path class="st197" d="M488.4 181.7l-23.3 13.5 2.1 1.2 33.5 19.4 11.6-6.8 11.7-6.8-33.5-19.3z"/><path class="st189" d="M640.2 433l5.4 7.6 1.3-16.9-10.8 6.3 4.2 2.4zM650.1 357.6c.1 0 .2-.1.4-.1.9-.2 1.5-1 1.8-2.1l-3.5 2c.4.2.9.2 1.3.2zM640.7 331.1c.1 0 .2-.1.4-.1.9-.2 1.5-1 1.8-2l-3.5 2c.5.1.9.1 1.3.1zM629.6 306.5c.1 0 .2-.1.4-.1.9-.2 1.5-1 1.8-2.1l-3.5 2c.4.2.8.3 1.3.2z"/><path class="st12" d="M667.2 426c9.5-35.3-.5-84.4-26.1-129.2l-2.1-1.2-33.5-19.3c29.6 47.1 45 100.4 41.7 143.9l-.3 3.6-1.3 16.9-5.4-7.5v-.6l-4.2-2.4-.1 32.5 4.2 2.4.4-.2 5.6 1.1 12.3-7.2 8.8-32.8zm-35.5-121.6c-.3 1.1-.9 1.8-1.8 2.1-.1 0-.2.1-.4.1-.4 0-.9 0-1.4-.1-.3-.1-.7-.3-1.1-.5-2.6-1.5-4.7-5.1-4.7-8.1s2.1-4.2 4.7-2.7c.4.2.7.5 1.1.7 2.1 1.8 3.7 4.8 3.7 7.4.1.4 0 .7-.1 1.1zm9.4 26.6c-.1 0-.2.1-.4.1-.4 0-.9 0-1.4-.1-.3-.1-.7-.3-1-.5-2.6-1.5-4.7-5.2-4.7-8.1 0-1.5.5-2.5 1.4-3 .1-.1.3-.1.4-.1.1 0 .2-.1.3-.1h.8c.2 0 .4.1.6.1.1 0 .2 0 .3.1.3.1.6.2.9.4.4.2.7.5 1 .7 2.1 1.8 3.7 4.8 3.6 7.4 0 .4-.1.8-.2 1.2-.1.9-.7 1.6-1.6 1.9zm1.9 17.8c0-3 2.1-4.2 4.7-2.7.4.2.7.5 1 .7 2.1 1.8 3.7 4.8 3.6 7.4 0 .4-.1.8-.2 1.1-.3 1.1-.9 1.8-1.8 2.1-.1 0-.2.1-.4.1-.4 0-.9 0-1.4-.1-.3-.1-.7-.3-1-.5-2.4-1.5-4.5-5.1-4.5-8.1z"/><path class="st7" d="M467.7 231.9c2.6 1.5 4.7.3 4.7-2.7s-2.1-6.6-4.7-8.1c-.4-.2-.7-.4-1.1-.5-1-.3-1.9-.2-2.5.3-.1 0-.1.1-.2.1-.6.6-1 1.5-1 2.7 0 2.6 1.6 5.6 3.7 7.4.4.4.7.6 1.1.8zM479 220.4c2.6 1.5 4.7.3 4.7-2.7 0-.8-.1-1.5-.4-2.3-.7-2.4-2.4-4.7-4.3-5.8-.4-.2-.7-.4-1-.5-1-.3-1.9-.2-2.5.3-.1 0-.1.1-.2.1-.3.3-.5.6-.7 1 0 .1 0 .1-.1.2-.2.4-.3.9-.3 1.5 0 2.6 1.6 5.6 3.6 7.4.5.3.8.6 1.2.8zM458.2 247.5c2.6 1.5 4.7.3 4.7-2.7s-2.1-6.6-4.7-8.1c-.4-.2-.7-.4-1-.5-2.1-.7-3.7.6-3.7 3.2s1.6 5.6 3.6 7.4c.4.3.7.5 1.1.7zM639.4 320.4c-.3-.3-.7-.5-1-.7-.3-.2-.6-.3-.9-.4-.1 0-.2 0-.3-.1-.2 0-.4-.1-.6-.1h-.8c-.1 0-.2.1-.3.1-.1 0-.3.1-.4.1-.8.5-1.4 1.5-1.4 3 0 3 2.1 6.6 4.7 8.1.4.2.7.4 1 .5l3.5-2c.1-.4.2-.7.2-1.2 0-2.5-1.6-5.6-3.7-7.3z"/><path class="st189" d="M627.2 295.1c-2.6-1.5-4.7-.3-4.7 2.7s2.1 6.6 4.7 8.1c.4.2.7.4 1.1.5l3.5-2c.1-.4.2-.7.2-1.1 0-2.6-1.6-5.6-3.7-7.4-.4-.3-.8-.6-1.1-.8z"/><path class="st7" d="M648.8 357.4l3.5-2c.1-.4.2-.7.2-1.1 0-2.6-1.6-5.6-3.6-7.4-.3-.3-.7-.5-1-.7-2.6-1.5-4.7-.3-4.7 2.7s2.1 6.6 4.7 8.1c.2.2.5.3.9.4z"/><path class="st197" d="M641.1 296.8l23.3-13.5-2.1-1.2-33.5-19.4-23.3 13.6 33.5 19.3z"/><path class="st29" d="M664.4 283.3l-23.3 13.5c25.6 44.8 35.6 93.9 26.1 129.2l-8.8 32.6-12.3 7.2 23.3-13.5 12.3-7.2 8.8-32.6c9.4-35.3-.5-84.4-26.1-129.2z"/><g><path class="st198" d="M412.3 149.2v7.9l20.4 19.7V161z"/><path class="st199" d="M479.3 133.9l-20.5-11.8-46.5 27.1 20.4 11.8z"/><path class="st12" d="M432.7 161v15.8l232.9 134.5.1-15.8z"/><path class="st29" d="M665.7 295.5l46.5-27.1-232.9-134.5-46.6 27.1z"/><path class="st198" d="M686.1 307.3l-20.4-11.8-.1 15.8 20.5 3.9 46.5-27.1.1-7.9z"/><path class="st199" d="M686.1 307.3l46.6-27.1-20.5-11.8-46.5 27.1z"/></g><g><g class="st59"><path class="st7" d="M737.4 249.5v11.4c-10.3-5-22.7-7.8-35.3-8.4v-11.4c12.6.6 25 3.4 35.3 8.4zM690.8 241v11.4c-12.6.7-25 3.5-35.2 8.4v-11.4c10.2-4.9 22.6-7.7 35.2-8.4z"/><path class="st200" d="M691 269.9v11.4l-.2-28.8V241z"/><path class="st7" d="M760 274.5v11.4c-1.2-7.3-6.1-14.5-14.7-20.4v-11.4c8.7 5.9 13.6 13.1 14.7 20.4zM745.3 254.1v11.4l-35.2 20.4.1-11.4zM683.1 274.5v11.4l-35.4-20.4v-11.4zM647.7 254.1v11.4c-8.6 5.9-13.4 13.1-14.5 20.4v-11.4c1.1-7.3 5.9-14.5 14.5-20.4z"/><path class="st7" d="M760.1 281l-.1 11.4h-49.8V281zM683.1 281v11.4h-49.9l.1-11.4z"/><path class="st7" d="M737.7 306l-.1 11.4-35.3-20.4v-11.4zM691.1 285.6V297l-35.2 20.4V306z"/><path class="st200" d="M691.3 314.5l-.1 11.4-.1-28.9v-11.4z"/><path class="st7" d="M771.5 278v11.4c0 11-7.3 22.1-21.7 30.5-29.1 16.9-76.6 16.9-105.9 0-14.7-8.5-22.1-19.7-22.1-30.9v-11.4c0 11.2 7.3 22.4 22.1 30.9 29.3 16.9 76.8 16.9 105.9 0 14.4-8.5 21.7-19.5 21.7-30.5z"/><path class="st20" d="M749.4 247.1c29.3 16.9 29.4 44.4.3 61.3-29.1 16.9-76.6 16.9-105.9 0-29.3-16.9-29.5-44.4-.4-61.3 29.2-16.9 76.7-16.9 106 0zm-3.8 54.3c8.6-5.9 13.4-13.1 14.5-20.4h-49.9l35.4 20.4M690.8 241c-12.6.7-25 3.5-35.2 8.4l35.4 20.4-.2-28.8m54.5 13.1l-35.2 20.4H760c-1.1-7.3-6-14.5-14.7-20.4M655.9 306c10.3 5 22.7 7.8 35.3 8.4l-.2-28.9-35.1 20.5m-7.9-4.6l35.2-20.4h-49.9c1.1 7.3 6 14.5 14.7 20.4m-.3-47.3c-8.6 5.9-13.4 13.1-14.5 20.4h49.9l-35.4-20.4m54.8 60.4c12.7-.6 25-3.5 35.2-8.4l-35.4-20.4.2 28.8m-.3-44.6l35.2-20.4c-10.3-5-22.7-7.8-35.3-8.4l.1 28.8"/></g><g class="st59"><path class="st7" d="M489.4 107.5v11.4c-10.3-5-22.7-7.8-35.3-8.4V99.1c12.7.6 25.1 3.4 35.3 8.4zM442.9 99.1v11.4c-12.6.7-25 3.5-35.2 8.4v-11.4c10.2-5 22.6-7.8 35.2-8.4z"/><path class="st200" d="M443.1 128v11.4l-.2-28.8V99.1z"/><path class="st7" d="M512.1 132.5v11.4c-1.2-7.3-6.1-14.5-14.7-20.4v-11.4c8.6 5.9 13.5 13.1 14.7 20.4zM497.4 112.1v11.4L462.2 144v-11.5zM435.2 132.5l-.1 11.5-35.3-20.5v-11.4z"/><path class="st7" d="M399.8 112.2v11.4c-8.6 5.9-13.4 13.1-14.5 20.4v-11.4c1.1-7.3 5.9-14.5 14.5-20.4zM512.1 139v11.4h-49.8V139z"/><path class="st7" d="M435.2 139.1v11.4h-49.9l.1-11.4zM489.8 164l-.1 11.5-35.4-20.5.1-11.4z"/><path class="st7" d="M443.2 143.7l-.1 11.4-35.1 20.4v-11.4z"/><path class="st200" d="M443.3 172.6V184l-.2-28.9.1-11.4z"/><path class="st7" d="M523.6 136v11.4c0 11-7.3 22.1-21.7 30.5-29.1 16.9-76.6 16.9-105.9 0-14.7-8.5-22.1-19.7-22.1-30.9v-11.4c0 11.2 7.3 22.4 22.1 30.9 29.3 16.9 76.8 16.9 105.9 0 14.4-8.5 21.6-19.5 21.7-30.5z"/><path class="st20" d="M501.5 105.2c29.3 16.9 29.4 44.4.3 61.3-29.1 16.9-76.6 16.9-105.9 0-29.3-16.9-29.5-44.4-.4-61.3 29.2-16.9 76.7-16.9 106 0zm-3.8 54.3c8.6-5.9 13.4-13.1 14.5-20.4h-49.9l35.4 20.4m-54.8-60.4c-12.6.7-25 3.5-35.2 8.4l35.4 20.4-.2-28.8m54.5 13.1l-35.2 20.4h49.9c-1.2-7.3-6.1-14.5-14.7-20.4M408 164.1c10.3 5 22.7 7.8 35.3 8.4l-.2-28.9-35.1 20.5m-7.9-4.6l35.2-20.4h-49.9c1.1 7.3 6 14.5 14.7 20.4m-.3-47.3c-8.6 5.9-13.4 13.1-14.5 20.4h49.9l-35.4-20.4m54.7 60.4c12.7-.6 25-3.5 35.2-8.4l-35.4-20.4.2 28.8m-.2-44.6l35.2-20.4c-10.3-5-22.7-7.8-35.3-8.4l.1 28.8"/></g></g></g><g><g class="st59"><path fill="#323071" d="M160.6 269.7l-22.7-13.1.1 25.3 22.6 13.2z"/><path class="st7" d="M307.3 171.6l.7.4c6.8 3.9 10.9 11.1 10.9 19s-4.2 15.2-11 19.1l-147.3 85-.1-25.4-22.6-13.2 147.3-85c6.9-3.9 15.3-3.9 22.1.1z"/></g><path class="st28" d="M266.4 194.9l-.7-.4c-5.1-3-11-3.8-16.6-2.5l12.9-7.4c6.8-3.9 15.2-3.9 22 0l.7.4c6.8 3.9 10.9 11.1 10.9 19s-4.2 15.2-11 19.1l-13.4 7.7c4.1-4.2 6.5-10 6.5-16.1.1-8.2-4.3-15.7-11.3-19.8z"/><g><g class="st59"><path class="st29" d="M368.4 470.6l-11.3 6.6c-3.8 2.2-6.1 6.9-6.2 13.5 0 3.1.5 6.3 1.4 9.6l11.3-6.6c-.9-3.3-1.4-6.5-1.4-9.6.1-6.6 2.4-11.3 6.2-13.5zM361.4 446.4l-11.3 6.6c5.6-3.3 13.5-2.8 22.1 2.2l11.3-6.6c-8.6-5.1-16.5-5.5-22.1-2.2z"/><path class="st28" d="M372.2 455.1c-17.1-9.9-31.1-1.9-31.1 17.7 0 7.8 2.2 16.3 5.8 24.2l5.5 3.2c-.9-3.3-1.4-6.5-1.4-9.6 0-13.4 9.5-18.8 21.2-12.1 11.7 6.7 21.1 23.1 21.1 36.5 0 3.1-.6 5.7-1.5 7.9l5.5 3.2c3.7-3.7 5.9-9.7 5.9-17.5 0-19.6-13.9-43.6-31-53.5z"/><path class="st29" d="M397.2 526.2l11.3-6.6c3.7-3.7 5.9-9.7 5.9-17.5.1-19.7-13.8-43.7-30.9-53.6l-11.3 6.6c17.1 9.9 31 33.9 30.9 53.6 0 7.8-2.2 13.7-5.9 17.5z"/></g><path class="st29" d="M377.7 455.1c3.5 0 6.3-2.8 6.3-6.3v-21h-12.6v21c.1 3.5 2.9 6.3 6.3 6.3z"/><g class="st59"><path class="st189" d="M367.9 297.8l19.5-11.4v22l-19.6 11.3z"/><path class="st12" d="M240.9 212.9l-.6.4c-5.8 3.4-9.4 9.6-9.5 16.4 0 6.8 3.6 13.1 9.5 16.5l127.5 73.6.1-21.9 19.6-11.4L260 212.8c-5.9-3.4-13.2-3.4-19.1.1z"/></g><path class="st12" d="M377.7 431.6c10.2 0 18.4-8.2 18.4-18.4v-88.5h-36.8v88.5c0 10.2 8.3 18.4 18.4 18.4z"/><g><g class="st59"><path class="st20" d="M340.9 283.4l36.6 21.3 36.7-21.2-36.5-21.3z"/><path class="st28" d="M340.9 283.4l.1 39.3 36.6 21.2-.1-39.2z"/><path class="st7" d="M377.5 304.7l.1 39.2 36.7-21.2-.1-39.2z"/></g></g></g><g><path class="st24" d="M55.2 532.7c.2.2.4.4.6.7-.3-.3-.5-.5-.6-.7zM56 533.6l1.2.9-1.2-.9zM54.6 531.6l.3.6-.3-.6zM250.6 531.6c.1-.2 0-.3.1-.5 0 .2 0 .3-.1.5zM249.2 533.6l.3-.3-.3.3zM250.1 532.6c.1-.1.1-.3.2-.4-.1.2-.1.3-.2.4z"/><path class="st12" d="M54.6 531.6l.3.6c.1.1.1.3.2.4.2.2.4.4.6.7l.3.3 1.2.9 88.1 51.2c3.8 2.2 10 2.2 13.8 0l88.7-51.2c.5-.3.9-.6 1.3-.9l.3-.3c.2-.2.4-.4.6-.7.1-.1.1-.3.2-.4.1-.2.3-.4.3-.6.1-.2 0-.3.1-.5 0-.2.1-.4.1-.6l.1 17.6c0 1.4-1 2.9-2.9 4l-88.7 51.2c-3.8 2.2-10 2.2-13.8 0l-88.1-51.2c-1.4-.8-2.3-1.8-2.6-2.9-.1-.4-.2-.7-.2-1.1l-.1-17.6c0 .2.1.4.1.6.1.2.1.4.1.5z"/><path class="st28" d="M250.7 531.1c0 .2 0 .3-.1.5l-.3.6c-.1.1-.1.3-.2.4-.2.2-.4.4-.6.7l-.3.3c-.4.3-.8.6-1.3.9l-88.7 51.2c-3.8 2.2-10 2.2-13.8 0l-88.1-51.2c-.5-.3-.9-.6-1.2-.9l-.3-.3c-.2-.2-.4-.4-.6-.7-.1-.1-.1-.3-.2-.4l-.3-.6c-.1-.2 0-.3-.1-.5-.3-1.6.6-3.4 2.8-4.6l88.7-51.2c3.8-2.2 10-2.2 13.8 0l88.1 51.2c1.9 1.1 2.8 2.5 2.8 4 0 .2-.1.4-.1.6z"/><g><path class="st24" d="M144.1 245.1c-.5-.5-1-1-1.5-1.4.3.3.7.6 1 .9.2.1.4.3.5.5zM152.3 254.6c-.1-.1-.1-.2-.2-.3 0 0 .1.1.2.3 0-.1 0-.1 0 0zM162 270.9c0-.1-.1-.2-.1-.2s0 .1.1.1c-.1 0-.1 0 0 .1zM159 264.9c-.2-.4-.4-.8-.6-1.1.1.2.2.3.3.4 0 .3.1.5.3.7zM155.6 259.3c.1.2.2.4.4.6-.3-.5-.6-.9-.9-1.4.1.1.1.2.2.3.1.2.2.3.3.5zM148 249.2l-.6-.6c.1.2.3.3.5.5.1 0 .1.1.1.1zM141.2 242.3c-.6-.6-1.3-1.1-1.9-1.6.4.4.9.7 1.3 1.1.2.1.4.3.6.5zM134.5 237c-1.1-.8-2.3-1.5-3.5-2.2 1.1.6 2.2 1.3 3.3 2l.2.2zM119.1 230.2c-.2 0-.4-.1-.6-.1h.3c.1 0 .2.1.3.1zM137.9 239.5c-.7-.6-1.5-1.1-2.2-1.7.6.4 1.2.9 1.8 1.3l.4.4zM126.8 232.7c-.3-.1-.5-.2-.8-.3l.6.3c.1-.1.2 0 .2 0zM182.8 542.2c0 .2-.1.4-.1.5 0-.2 0-.3.1-.5zM181.1 547.5c-.1.2-.2.4-.2.5 0-.1.1-.3.2-.5zM183.9 536.2c0 .2 0 .3-.1.5.1-.2.1-.3.1-.5zM178.8 552.3c-.1.2-.2.3-.3.5.1-.2.2-.4.3-.5zM184.4 530v-.3.3zM167.8 288zM166.4 282.6c-.1-.5-.3-1-.5-1.6 0 .1.1.2.1.3.1.5.3.9.4 1.3zM176 556.4c-.1.1-.2.3-.4.4l.4-.4zM172.3 560.2c.1-.1.2-.2.4-.3-.2 0-.3.1-.4.3zM163.9 275.5c.2.5.4 1.1.6 1.6-.2-.5-.4-1.1-.6-1.6zM107 230.8c.1 0 .1 0 .2-.1-.4.1-.8.3-1.3.5.1-.1.3-.1.4-.2.3-.1.5-.2.7-.2zM109.8 230h.3c-.5.1-.9.2-1.3.3.1 0 .2-.1.4-.1.2-.1.4-.2.6-.2zM113.2 229.6c-.5 0-.9.1-1.4.1.3 0 .5-.1.8-.1h.6zM116.2 229.7c-.4 0-.7 0-1.1-.1h.6c.1.1.3.1.5.1z"/><path class="st12" d="M76.4 460.4L92.9 253c.8-10.5 5.2-17.7 11.6-21.2.5-.2 1-.5 1.5-.7.4-.2.8-.3 1.3-.5s1-.3 1.6-.5c.4-.1.9-.2 1.3-.3.6-.1 1.1-.2 1.7-.2.5 0 .9-.1 1.4-.1h1.8c.4 0 .7 0 1.1.1.2 0 .4 0 .6.1.6.1 1.1.2 1.7.3.2 0 .4.1.6.1.4.1.9.2 1.3.3.6.1 1.1.3 1.7.5.9.3 1.8.6 2.6.9.4.2.9.3 1.3.5.3.1.5.2.8.3.3.1.5.2.8.3 1.2.5 2.3 1.1 3.5 1.8 1.2.7 2.3 1.4 3.5 2.2.3.2.6.4.9.7.1.1.2.1.3.2.7.5 1.5 1.1 2.2 1.7.3.2.6.5.9.7.2.1.3.3.5.4.6.5 1.3 1.1 1.9 1.6.2.2.5.4.7.7l.7.7c.5.5 1 .9 1.5 1.4 1.1 1.1 2.1 2.2 3.2 3.3l.2.2.6.6c1.2 1.4 2.4 2.9 3.6 4.4.2.2.3.4.5.6.1.1.1.2.2.3 1 1.3 1.9 2.6 2.8 3.9.3.5.6.9.9 1.4.8 1.3 1.6 2.6 2.3 3.9.2.4.4.7.6 1.1 0 0 0 .1.1.1.9 1.7 1.8 3.3 2.6 5l.3.6c0 .1.1.2.1.2.7 1.5 1.4 3.1 2 4.6.2.5.4 1.1.6 1.6.5 1.3.9 2.6 1.3 3.9.2.5.3 1.1.5 1.6.5 1.8 1 3.6 1.4 5.4.4 1.7.6 3.3.9 5 .2 1.4.3 2.7.4 4.1l15.2 225.6c.2 2.4.2 4.8.1 7.1v.3c-.1 2.2-.2 4.2-.5 6.2 0 .2 0 .3-.1.5-.3 1.9-.6 3.7-1.1 5.5 0 .2-.1.4-.1.5-.4 1.7-1 3.3-1.6 4.8-.1.2-.2.4-.2.5-.6 1.5-1.3 2.9-2.1 4.2-.1.2-.2.3-.3.5-.8 1.3-1.6 2.5-2.5 3.6-.1.1-.2.3-.4.4-.9 1.1-1.9 2.1-3 3-.1.1-.2.2-.4.3-1.1.9-2.2 1.7-3.4 2.4-9.8 5.8-23.5 5.2-38.7-3.6-31.7-17.9-56.6-63.4-53.8-98.2z"/><path class="st202" d="M198.7 260.4c.5 1.3.9 2.6 1.2 3.9-.3-1.3-.8-2.6-1.2-3.9zM166.4 282.6c-.1-.4-.2-.8-.4-1.2.1.4.3.8.4 1.2z"/><path class="st203" d="M198.4 259.3c.1.4.3.7.4 1.1-.2-.3-.3-.7-.4-1.1zM197.5 256.8c.2.5.4 1.1.6 1.6-.3-.5-.5-1-.6-1.6z"/><path d="M196.1 253.4c.5 1.1 1 2.3 1.4 3.4-.5-1.1-1-2.3-1.4-3.4z" fill="#2c2862"/><path class="st205" d="M161.9 270.8s0-.1-.1-.1l-.3-.6c.2.2.3.4.4.7zM194.5 250.1c.6 1.1 1.1 2.2 1.6 3.3-.5-1.1-1.1-2.2-1.6-3.3z"/><path class="st206" d="M192.9 246.8c.2.4.5.9.7 1.3-.2-.4-.5-.8-.7-1.3zM193.8 248.7c.2.5.5.9.7 1.4-.2-.5-.4-1-.7-1.4z"/><path class="st207" d="M159 265s0-.1 0 0c-.2-.3-.3-.6-.4-.8.1.3.3.6.4.8zM191.1 243.6c.6 1.1 1.2 2.1 1.8 3.2-.6-1-1.2-2.1-1.8-3.2z"/><path d="M189.1 240.4c.7 1 1.4 2.1 2 3.2-.6-1.1-1.3-2.1-2-3.2z" fill="#2f2c6a"/><path class="st209" d="M186.9 237.1c.3.4.6.9.9 1.3-.3-.5-.6-.9-.9-1.3zM187.9 238.6l1.2 1.8h-.1c-.3-.6-.7-1.2-1.1-1.8zM155.6 259.3c-.1-.2-.2-.3-.3-.5.1.2.2.3.3.5z"/><path class="st210" d="M184.3 233.6c.9 1.1 1.8 2.3 2.6 3.4-.9-1.1-1.7-2.3-2.6-3.4zM152.2 254.5c0-.1-.1-.1-.1-.2-.2-.2-.3-.4-.5-.6.2.2.4.5.6.8z"/><path d="M181.3 229.9c1.1 1.2 2.1 2.4 3.1 3.7-1.1-1.3-2.1-2.5-3.1-3.7z" fill="#322f70"/><path class="st212" d="M177.1 225.4c1.5 1.4 2.9 2.9 4.2 4.5-1.4-1.6-2.8-3.1-4.2-4.5zM147.9 249.1c-.1-.2-.3-.3-.5-.5l-.2-.2c.3.2.5.4.7.7z"/><path class="st29" d="M172.7 559.8c1.1-.9 2-1.9 3-3 .1-.1.2-.3.4-.4.9-1.1 1.7-2.3 2.5-3.6.1-.2.2-.3.3-.5.8-1.3 1.4-2.7 2.1-4.2.1-.2.2-.4.2-.5.6-1.5 1.1-3.1 1.6-4.8 0-.2.1-.4.1-.5.4-1.7.8-3.6 1.1-5.5 0-.2.1-.3.1-.5.3-2 .4-4 .5-6.2v-.3c.1-2.3 0-4.6-.1-7.1L169 297c-.1-1.3-.2-2.7-.4-4.1-.2-1.6-.5-3.3-.9-5-.4-1.8-.9-3.6-1.4-5.4-.1-.4-.2-.8-.4-1.2 0-.1-.1-.2-.1-.3-.4-1.3-.9-2.6-1.3-3.9-.2-.5-.4-1.1-.6-1.6-.6-1.5-1.3-3.1-2-4.6 0 0 0-.1-.1-.1-.1-.2-.2-.5-.3-.7-.8-1.7-1.7-3.4-2.6-5-.1-.3-.3-.5-.4-.8-.1-.2-.2-.3-.3-.4-.8-1.3-1.5-2.6-2.3-3.9-.1-.2-.2-.4-.4-.6-.1-.2-.2-.3-.3-.5-.1-.1-.1-.2-.2-.3-.9-1.3-1.8-2.7-2.8-3.9 0 0 0-.1-.1-.1-.2-.3-.4-.5-.6-.8-1.2-1.5-2.4-3-3.6-4.4l-.1-.1c-.2-.2-.4-.4-.6-.7-1-1.2-2.1-2.3-3.2-3.3-.2-.2-.3-.4-.5-.5-.3-.3-.7-.6-1-.9l-.7-.7c-.2-.2-.5-.4-.7-.7-.2-.2-.4-.4-.6-.5-.4-.4-.9-.7-1.3-1.1-.2-.1-.3-.3-.5-.4-.3-.2-.6-.5-.9-.7-.1-.1-.3-.2-.4-.3-.6-.5-1.2-.9-1.8-1.3-.1-.1-.2-.1-.3-.2-.3-.2-.6-.4-.9-.7-.1 0-.1-.1-.2-.1-1.1-.7-2.2-1.4-3.3-2-1.2-.7-2.3-1.3-3.5-1.8-.3-.1-.5-.2-.8-.3-.1 0-.1 0-.2-.1l-.6-.3c-.4-.2-.9-.3-1.3-.5-.9-.3-1.8-.6-2.6-.9-.6-.2-1.1-.3-1.7-.5-.4-.1-.9-.2-1.3-.3-.1 0-.2 0-.3-.1h-.3c-.6-.1-1.1-.2-1.7-.3-.2 0-.4 0-.6-.1-.2 0-.4 0-.5-.1h-.6c-.6 0-1.2-.1-1.8 0h-.6c-.3 0-.5.1-.8.1-.6.1-1.2.1-1.7.2h-.3c-.2 0-.4.1-.7.2-.1 0-.2.1-.4.1-.5.1-1.1.3-1.6.5-.1 0-.1 0-.2.1-.2.1-.4.1-.7.2-.1.1-.3.1-.4.2-.5.2-1 .4-1.5.7l-.6.3 33.3-19.3c.1 0 .1-.1.2-.1.6-.4 1.3-.7 1.9-.9.1-.1.3-.1.4-.1.2-.1.4-.2.6-.2.3-.1.6-.2 1-.3.4-.1.8-.2 1.1-.3.2-.1.4-.1.7-.2.1 0 .2-.1.4-.1.8-.1 1.5-.2 2.3-.3h2.6c.2 0 .4.1.7.1.4 0 .8.1 1.2.1.4 0 .7.1 1 .1.3 0 .6.1 1 .2.5.1 1.1.2 1.6.3.3.1.6.1.8.2l.9.3c.9.3 1.8.6 2.6.9l.9.3c.3.1.6.3 1 .4.3.1.6.3.9.4 1.2.5 2.3 1.1 3.5 1.8 1.1.6 2.1 1.3 3.2 2 .3.2.7.5 1 .7l2.1 1.5c.4.3.8.6 1.2 1l1.8 1.5c.4.4.8.7 1.3 1.1.6.5 1.1 1 1.7 1.6.2.2.4.3.5.5 1.4 1.4 2.8 2.9 4.2 4.5 1.1 1.2 2.1 2.4 3.1 3.7.9 1.1 1.7 2.3 2.5 3.5.3.4.6.8.9 1.3.1.1.1.2.2.2.4.6.8 1.2 1.1 1.8.7 1.1 1.4 2.1 2 3.2.6 1.1 1.2 2.1 1.8 3.2.2.4.5.9.7 1.3.1.2.2.3.2.5.2.5.4 1 .7 1.5.5 1.1 1.1 2.2 1.5 3.3.5 1.1.9 2.3 1.4 3.4.2.5.4 1.1.6 1.6l.3.9c.1.4.2.7.3 1.1.4 1.3.9 2.6 1.2 3.9.4 1.5.8 2.9 1.1 4.4.4 1.7.6 3.3.9 5 0 .1 0 .2.1.4.2 1.2.3 2.5.4 3.7l15.2 225.6c.5 7.4-.1 14-1.5 19.7-1 3.8-2.4 7.2-4.1 10.1-.9 1.5-1.8 2.8-2.9 4.1-2.1 2.5-4.5 4.6-7.2 6.1L168.4 563c.1 0 .1-.1.2-.2 1.2-.7 2.3-1.5 3.4-2.4.4-.4.5-.5.7-.6z"/><g><path class="st24" d="M115.9 264.1c.2-.1.4-.1.6-.2-.2.1-.4.1-.6.2zM120.1 263.9c.2 0 .4.1.7.1-.3 0-.5-.1-.7-.1zM121.7 264.3c.2.1.4.1.6.2-.2-.1-.4-.2-.6-.2zM114.8 264.5c.2-.1.3-.2.5-.2-.2 0-.4.1-.5.2zM123.5 264.9c.1.1.3.1.4.2-.1-.1-.3-.1-.4-.2zM118.6 263.8h.6-.6zM117.9 263.7c-.2 0-.4 0-.6.1.1 0 .3 0 .6-.1zM141.3 297.3s0 .1 0 0c0 .1 0 0 0 0zM140.4 300.2c0 .1 0 .1 0 0 0 .1 0 .1 0 0zM138.9 302.6s0-.1 0 0c0-.1 0 0 0 0z"/><path class="st7" d="M138.9 302.6s0-.1 0 0c.6-.7 1.1-1.4 1.5-2.3.4-.9.7-1.8.9-2.9.2-1.1.3-2.2.3-3.5 0-10.3-7.2-22.7-16.1-27.9-.6-.3-1.1-.6-1.7-.9-.1-.1-.3-.1-.4-.2-.4-.2-.8-.3-1.2-.5-.2-.1-.4-.1-.6-.2l-.9-.3c-.2 0-.4-.1-.7-.1-.3 0-.6-.1-.8-.1h-1.4c-.2 0-.4 0-.6.1-.2 0-.5 0-.7.1-.2 0-.4.1-.6.2-.2.1-.5.1-.7.2-.2.1-.3.2-.5.2l-.6.3 2.6-1.5c2.9-1.7 7-1.5 11.5 1.1 8.9 5.1 16.1 17.6 16.1 27.9 0 5.1-1.8 8.7-4.7 10.4l-2.6 1.5c.7-.5 1.3-1 1.9-1.6z"/><path class="st28" d="M114.1 264.8l.6-.3c.2-.1.3-.2.5-.2.2-.1.5-.1.7-.2.2-.1.4-.1.6-.2.2 0 .5-.1.7-.1.2 0 .4-.1.6-.1h1.4c.3 0 .6.1.8.1.2 0 .4.1.7.1l.9.3c.2.1.4.1.6.2.4.1.8.3 1.2.5.1.1.3.1.4.2.5.3 1.1.5 1.7.9 8.9 5.1 16.1 17.6 16.1 27.9 0 1.3-.1 2.4-.3 3.5-.2 1.1-.5 2-.9 2.9-.4.9-.9 1.6-1.4 2.2v.1c-.6.6-1.2 1.2-1.9 1.6-2.9 1.7-7 1.5-11.5-1.1-8.9-5.2-16.1-17.6-16.1-27.9-.1-5.1 1.7-8.7 4.6-10.4z"/><g><path class="st24" d="M116.6 459.2l1.2.3-1.2-.3zM120 460.4c.3.1.7.2 1 .4-.3-.1-.7-.2-1-.4zM113.4 458.5c.4.1.8.1 1.3.2-.5-.1-.9-.1-1.3-.2zM156.6 518.5c0 1.3-.1 2.5-.2 3.7.1-1.2.2-2.5.2-3.7zM156.2 523.3c-.1.8-.2 1.5-.3 2.2.2-.7.3-1.4.3-2.2zM110.4 458.2h1.3-1.3zM105 458.8c.4-.1.7-.2 1.1-.3-.3.1-.7.2-1.1.3zM102.6 459.7c.4-.2.7-.4 1.1-.5-.4.1-.8.3-1.1.5zM108.8 458.2c-.4 0-.8.1-1.2.1.4 0 .8-.1 1.2-.1zM155.6 526.8c-.2.6-.3 1.3-.5 1.9.2-.6.3-1.3.5-1.9zM151 536l.9-1.2c-.3.5-.5.9-.9 1.2zM150.2 536.8c-.3.3-.6.7-1 1l1-1zM154.7 529.8c-.2.5-.4 1.1-.6 1.6.2-.5.3-1 .6-1.6zM153.4 532.5c-.2.5-.5.9-.8 1.4.3-.4.6-.9.8-1.4z"/><path class="st7" d="M150.2 536.8c.3-.3.6-.5.9-.8l.9-1.2c.2-.3.5-.6.7-1 .3-.4.5-.9.8-1.4.2-.4.4-.7.6-1.1.2-.5.4-1.1.6-1.6.2-.4.3-.8.5-1.2.2-.6.3-1.2.5-1.9l.3-1.2c.1-.7.2-1.5.3-2.2.1-.4.1-.8.2-1.2.1-1.2.2-2.4.2-3.7.1-20.6-14.4-45.6-32.3-55.9-1.1-.6-2.2-1.2-3.3-1.7-.3-.2-.7-.3-1-.4-.7-.3-1.5-.6-2.2-.9l-1.2-.3c-.6-.2-1.3-.4-1.9-.5-.4-.1-.8-.1-1.3-.2-.6-.1-1.2-.2-1.7-.3h-1.3c-.5 0-1.1-.1-1.6 0-.4 0-.8.1-1.2.1-.5.1-1 .1-1.5.2-.4.1-.8.2-1.1.3-.5.1-.9.2-1.4.4-.4.1-.7.3-1.1.5l-1.2.6h-.1l5.2-3c5.9-3.4 14-2.9 23 2.3 17.9 10.3 32.3 35.3 32.3 55.9 0 10.2-3.6 17.4-9.4 20.8l-5.2 3c.4-.2.7-.5 1.1-.7.3-.2.7-.4 1-.7.2-.3.5-.6.9-1z"/><path class="st28" d="M101.4 460.3l1.2-.6c.4-.2.7-.4 1.1-.5.4-.2.9-.3 1.4-.4.4-.1.7-.2 1.1-.3.5-.1 1-.1 1.5-.2.4 0 .8-.1 1.2-.1H111.8c.6.1 1.1.2 1.7.3.4.1.8.1 1.3.2.6.1 1.3.4 1.9.5l1.2.3c.7.2 1.5.6 2.2.9.3.1.7.2 1 .4 1.1.5 2.2 1.1 3.3 1.7 17.9 10.3 32.3 35.3 32.3 55.9 0 1.3-.1 2.5-.2 3.7 0 .4-.1.8-.2 1.2-.1.8-.2 1.5-.3 2.2l-.3 1.2c-.2.6-.3 1.3-.5 1.9-.1.4-.3.8-.5 1.2-.2.5-.4 1.1-.6 1.6-.2.4-.4.7-.6 1.1-.2.5-.5.9-.8 1.4-.2.4-.5.7-.7 1l-.9 1.2c-.3.3-.6.6-.9.8-.3.3-.6.7-1 1-.3.3-.6.4-1 .7-5.9 4.2-14.5 4-24.1-1.5-17.9-10.3-32.3-35.4-32.3-55.9.1-10.4 3.7-17.6 9.6-20.9z"/></g></g></g></g></g><g><path class="st3" d="M663.1 518.2l.1 46.9 6.9 32.6 8.8 1.7-3.6-37.6 2.3-31.8 10.2 1.5 4.1 67.7 10.8.4-.6-33.6 4.6-48.8-5.4-5.9s-8.8-3.5-10-3.5c-1.2 0-17.6 2.4-17.6 2.4l-10.6 8z"/><ellipse class="st19" cx="699.4" cy="422.5" rx="10.6" ry="10.4"/><path class="st21" d="M681.3 451.4s-2.4 16.4-1 18.1c1.3 1.7 7.9-2.9 8-3.9.7-4.4 1.7-19.1 1.7-19.1l-8.7 4.9z"/><path class="st21" d="M699.7 440.2c-2.2 9.2-10.5 15.2-18.5 13.4-8-1.9-12.7-10.8-10.5-20.1 2.2-9.2 10.5-15.2 18.5-13.4 8 1.9 12.7 10.9 10.5 20.1z"/><path class="st20" d="M680.5 456.2s.3 11.9 1.7 10.9c1.3-1 7.1-9.6 7.1-9.6l12.1 15.4-5.2 27.5 10.3 16.6c-21.6 17.6-43.5 1.1-43.5 1.1l4.7-22.7c.5-2.3.2-4.6-.8-6.7l-1.9-4c-1-2-1.3-4.3-.9-6.4l1.9-9.9-.5-15.7 15 3.5z"/><path class="st19" d="M692.8 427.1c-4.1-.5-8.1-1-12.2-1.5-1.7-.3-3.7-.5-5.4-.8 2.7-2.9 6.1-5.5 10.1-5.7 4.1-.2 7.8 2.3 11 4.8 1.1.9 2.3 1.8 2.9 3.1.5 1.1 2 3.2 2 4.5.2 5.4-.5 11.9-4.8 15.9-.3-1.6-1.7-4.3-1.2-5.8.4-1.4 3.1-2.6 3.3-4s-.3-3.1-1.7-3.6c-1.3-.5-3 2.8-4.1 3.7-.4-3 .1-6 .1-10.6z"/><path class="st79" d="M674.6 433c-.5 2.9-2.5 4.9-4.6 4.6-2.1-.3-3.4-2.9-2.9-5.8s2.5-4.9 4.6-4.6c2.1.4 3.4 2.9 2.9 5.8zM684.1 436.2c-.5 2.9-2.5 4.9-4.6 4.6-2.1-.3-3.4-2.9-2.9-5.8s2.5-4.9 4.6-4.6c2.1.4 3.4 3 2.9 5.8z"/><path class="st20" d="M631.7 391.7l12.5 35.7 21.4 25.4 1.1 16.9-32-35.5s-10.5-35.2-9.5-36.7c1-1.4 6.5-5.8 6.5-5.8zM692.9 470.5l2.5-4.4 6 6.9 18.4 33.3 6.5 29.9s-7 4.4-7.5 2.4c-.5-2-6-20.6-10.5-28.9-4.5-8.3-16.1-24.3-16.1-24.3l.7-14.9z"/><ellipse class="st21" cx="627.6" cy="391.1" rx="5.5" ry="5.4"/><path class="st3" d="M670 597.7l-10.6 11.6s.6 5.5 7.3 4.2l11.5-7.8.6-6.3-8.8-1.7zM691.7 599.1v6.6s2.4 18.2 6.4 16.9c3.9-1.3 4.7-15.7 4.7-15.7l-.3-7.4-10.8-.4z"/><ellipse class="st21" cx="722.2" cy="543" rx="5.5" ry="5.4"/></g></svg>