<svg width="800" height="800" version="1.1" id="Layer_1" xmlns="http://www.w3.org/2000/svg" xmlns:xlink="http://www.w3.org/1999/xlink" x="0" y="0" xml:space="preserve"><style>.st1{fill:#c33}.st3{fill:#c60}.st7{fill:#7e93fc}.st12{fill:#d0ddfe}.st17{fill:#ea6868}.st19{fill:#282642}.st20{fill:#fff}.st21{fill:#eebcc5}.st23{fill:#00218c}.st26{fill:#8c5a50}.st28{fill:#ebf2ff}.st29{fill:#2c2d6f}.st213{fill:#97adfc}.st214{fill:#becffc}.st215{fill:#e9f1ff}.st219{fill:#ffd3b3}</style><path id="Rectangle_3_3_" class="st1" d="M418.8 103.3l85.5 49.3v169.2l-85.5-49.3V103.3z"/><path id="Rectangle_3_1_" class="st28" d="M330.3 153.6l85.5 49.3v169.2l-85.5-49.3V153.6z"/><path class="st7" d="M415.7 202.9l88.6-50.2v169.2l-88.6 50.2z"/><path class="st12" d="M330.3 153.6l88.5-50.3 85.5 49.4-88.6 50.2z"/><g><path id="Rectangle_3_31_" class="st1" d="M417.3 102.8l85.5 49.3v169.2L417.3 272V102.8z"/><path id="Rectangle_3_30_" class="st28" d="M328.7 153.1l85.5 49.3v169.2l-85.5-49.3V153.1z"/><path id="Rectangle_3_29_" class="st7" d="M341.1 182.7l60.9 35.1v5.7l-60.9-35.1v-5.7z"/><path id="Rectangle_3_28_" class="st7" d="M341.1 196.9L402 232v5.7l-60.9-35.1v-5.7z"/><path id="Rectangle_3_27_" class="st7" d="M341.1 211l60.9 35.1v5.7l-60.9-35.1V211z"/><path id="Rectangle_3_26_" class="st7" d="M341.1 225.2l60.9 35.1v5.7l-60.9-35.1v-5.7z"/><path id="Rectangle_3_25_" class="st7" d="M341.1 239.4l60.9 35.1v5.7l-60.9-35.1v-5.7z"/><path id="Rectangle_3_5_" class="st7" d="M341.1 253.5l60.9 35.1v5.7l-60.9-35.1v-5.7z"/><path id="Rectangle_3_4_" class="st7" d="M341.1 267.7l60.9 35.1v5.7l-60.9-35.1v-5.7z"/><path class="st7" d="M414.2 202.4l88.6-50.3v169.2l-88.6 50.3z"/><path class="st213" d="M420.2 210.5l76.5-43.5v146.3l-76.5 43.4z"/><path class="st214" d="M427 219.5l63-35.7v42.7l-63 35.8z"/><path class="st12" d="M328.7 153.1l88.6-50.3 85.5 49.3-88.6 50.3z"/><path class="st7" d="M351.8 152.5l65.1-37 62.8 36.3-65.1 37z"/><g><ellipse transform="rotate(-70.587 421.877 209.508)" class="st12" cx="421.9" cy="209.5" rx="5.6" ry="3.9"/><path class="st12" d="M425.4 205.2l-1.1-.7-4.9 2.4-.5 2.7.7 5 1.3.7 1.8-3.2z"/><ellipse transform="rotate(-70.587 422.994 210.158)" class="st215" cx="423" cy="210.2" rx="5.6" ry="3.9"/><path class="st12" d="M421.5 212c.4 1.4 1.7 1.9 2.9 1.1 1.2-.8 1.9-2.7 1.5-4.1-.2-.8-.7-1.3-1.2-1.4-.5-.2-1.1-.1-1.7.3-1.2.8-1.8 2.7-1.5 4.1z"/><path class="st12" d="M426 208.1l-1.3-.6-1.1.7s-.8.8-.9.8c0 0-.5 1.2-.5 1.4 0 .2.4 2.8.4 2.8l1.4.6s1.5-2.3 1.5-2.4c0 .1.5-3.3.5-3.3z"/><ellipse transform="rotate(-70.587 424.845 210.954)" class="st28" cx="424.9" cy="211" rx="3.1" ry="2.2"/></g><g><ellipse transform="rotate(-70.587 495.278 167.28)" class="st12" cx="495.3" cy="167.3" rx="5.6" ry="3.9"/><path class="st12" d="M498.8 162.9l-1.1-.6-4.9 2.4-.5 2.7.7 5 1.3.7 1.8-3.3z"/><ellipse transform="rotate(-70.587 496.395 167.93)" class="st215" cx="496.4" cy="167.9" rx="5.6" ry="3.9"/><path class="st12" d="M494.9 169.8c.4 1.4 1.7 1.9 2.9 1.1 1.2-.8 1.9-2.7 1.5-4.1-.2-.8-.7-1.3-1.2-1.4-.5-.2-1.1-.1-1.7.3-1.2.8-1.8 2.6-1.5 4.1z"/><path class="st12" d="M499.4 165.9l-1.3-.6-1.1.7s-.8.8-.9.8c0 0-.5 1.2-.5 1.4 0 .2.4 2.8.4 2.8l1.4.6s1.5-2.3 1.5-2.4l.5-3.3z"/><ellipse transform="rotate(-70.587 498.246 168.726)" class="st28" cx="498.3" cy="168.7" rx="3.1" ry="2.2"/></g><g><ellipse transform="rotate(-70.587 421.88 355.015)" class="st12" cx="421.9" cy="355" rx="5.6" ry="3.9"/><path class="st12" d="M425.4 350.7l-1.1-.6-4.9 2.3-.5 2.7.7 5 1.3.7 1.8-3.2z"/><ellipse transform="rotate(-70.587 422.996 355.665)" class="st215" cx="423" cy="355.7" rx="5.6" ry="3.9"/><path class="st12" d="M421.5 357.5c.4 1.4 1.7 1.9 2.9 1.1 1.2-.8 1.9-2.7 1.5-4.1-.2-.8-.7-1.3-1.2-1.4-.5-.2-1.1-.1-1.7.3-1.2.8-1.8 2.7-1.5 4.1z"/><path class="st12" d="M426 353.6l-1.3-.6-1.1.7s-.8.8-.9.8c0 0-.5 1.2-.5 1.4 0 .2.4 2.8.4 2.8l1.4.6s1.5-2.3 1.5-2.4c0 .1.5-3.3.5-3.3z"/><ellipse transform="rotate(-70.587 424.847 356.461)" class="st28" cx="424.9" cy="356.5" rx="3.1" ry="2.2"/></g><g><ellipse transform="rotate(-70.587 495.28 312.788)" class="st12" cx="495.3" cy="312.8" rx="5.6" ry="3.9"/><path class="st12" d="M498.8 308.4l-1.1-.6-4.9 2.4-.5 2.7.7 5 1.3.7 1.8-3.3z"/><ellipse transform="rotate(-70.587 496.397 313.438)" class="st215" cx="496.4" cy="313.5" rx="5.6" ry="3.9"/><path class="st12" d="M494.9 315.3c.4 1.4 1.7 1.9 2.9 1.1 1.2-.8 1.9-2.7 1.5-4.1-.2-.8-.7-1.3-1.2-1.4-.5-.2-1.1-.1-1.7.3-1.2.8-1.8 2.7-1.5 4.1z"/><path class="st12" d="M499.4 311.4l-1.3-.6-1.1.7s-.8.8-.9.8c0 0-.5 1.2-.5 1.4 0 .2.4 2.8.4 2.8l1.4.6s1.5-2.3 1.5-2.4c0 .1.5-3.3.5-3.3z"/><ellipse transform="rotate(-70.587 498.248 314.234)" class="st28" cx="498.3" cy="314.3" rx="3.1" ry="2.2"/></g><path class="st7" d="M351.8 147.5v5h127.9v-5.7z"/><path class="st28" d="M351.8 147.5l65.1-37 62.8 36.3-65.1 37z"/><path class="st7" d="M373.7 147.3l42.8-24.2 3 1.7-42.7 24.3zM381.2 150.7l42.7-24.2 3.1 1.7-42.8 24.3zM389.1 154.9l42.8-24.3 3 1.7-42.8 24.3zM396.6 158.7l42.8-24.2 3 1.7-42.7 24.3zM404.3 162.8l42.7-24.3 3.1 1.8-42.8 24.2zM411 167.1l42.8-24.3 3 1.7-42.8 24.3z"/><path class="st214" d="M414.6 183.8v5l-62.8-36.3v-5z"/></g><g><path id="Rectangle_3_23_" class="st28" d="M441.8 142.2l144.8 81.4v240.1l-144.8-81.4V142.2z"/><path id="Rectangle_3_22_" class="st3" d="M454.1 171.9l115.7 67.7v5.7l-115.7-67.7v-5.7z"/><path id="Rectangle_3_21_" class="st3" d="M454.1 186.1l115.7 67.7v5.7l-115.7-67.7v-5.7z"/><path id="Rectangle_3_20_" class="st3" d="M454.1 200.2l115.7 67.7v5.7l-115.7-67.7v-5.7z"/><path id="Rectangle_3_19_" class="st3" d="M454.1 214.4l115.7 67.7v5.7l-115.7-67.7v-5.7z"/><path id="Rectangle_3_18_" class="st3" d="M454.1 228.5l115.7 67.7v5.7l-115.7-67.7v-5.7z"/><path id="Rectangle_3_17_" class="st3" d="M454.1 242.7l115.7 67.7v5.7l-115.7-67.7v-5.7z"/><path id="Rectangle_3_16_" class="st3" d="M454.1 256.9l115.7 67.7v5.7l-115.7-67.7v-5.7z"/><path class="st3" d="M586.6 223.7l88.5-50.3v240.1l-88.5 50.3z"/><linearGradient id="SVGID_1_" gradientUnits="userSpaceOnUse" x1="617.003" y1="345.329" x2="753.791" y2="81.778"><stop offset="0" stop-color="#ecb329"/><stop offset=".435" stop-color="#f4cb17"/><stop offset=".981" stop-color="#ffea00"/></linearGradient><path fill="url(#SVGID_1_)" d="M592.6 231.7l76.5-43.4v217.1l-76.5 43.5z"/><linearGradient id="SVGID_2_" gradientUnits="userSpaceOnUse" x1="598.348" y1="333.464" x2="643.808" y2="208.896"><stop offset="0" stop-color="#ecb329"/><stop offset=".435" stop-color="#f4cb17"/><stop offset=".981" stop-color="#ffea00"/></linearGradient><path fill="url(#SVGID_2_)" d="M599.4 240.8l63-35.8v42.8l-63 35.8z"/><linearGradient id="SVGID_3_" gradientUnits="userSpaceOnUse" x1="517.765" y1="200.478" x2="640.605" y2="71.707"><stop offset="0" stop-color="#ecb329"/><stop offset=".435" stop-color="#f4cb17"/><stop offset=".981" stop-color="#ffea00"/></linearGradient><path fill="url(#SVGID_3_)" d="M441.8 142.2L530.3 92l144.8 81.4-88.5 50.3z"/><g><ellipse transform="rotate(-70.587 594.269 230.77)" class="st219" cx="594.3" cy="230.8" rx="5.6" ry="3.9"/><path class="st219" d="M597.7 226.4l-1-.6-4.9 2.4-.6 2.7.8 5 1.3.7 1.8-3.3z"/><ellipse transform="rotate(-70.587 595.386 231.42)" class="st215" cx="595.4" cy="231.4" rx="5.6" ry="3.9"/><path class="st219" d="M593.9 233.3c.4 1.4 1.7 1.9 2.9 1.1 1.2-.8 1.9-2.7 1.5-4.1-.2-.8-.7-1.3-1.2-1.4-.5-.2-1.1-.1-1.7.3-1.2.8-1.8 2.6-1.5 4.1z"/><path class="st219" d="M598.4 229.4l-1.3-.6-1.1.7s-.8.8-.9.8c0 0-.5 1.2-.5 1.4 0 .2.4 2.8.4 2.8l1.4.6s1.5-2.3 1.5-2.4l.5-3.3z"/><ellipse transform="rotate(-70.587 597.236 232.215)" class="st28" cx="597.3" cy="232.2" rx="3.1" ry="2.2"/></g><g><ellipse transform="rotate(-70.587 667.67 188.542)" class="st219" cx="667.7" cy="188.6" rx="5.6" ry="3.9"/><path class="st219" d="M671.2 184.2l-1.1-.6-4.9 2.4-.5 2.6.7 5 1.3.7 1.8-3.2z"/><ellipse transform="rotate(-70.587 668.787 189.192)" class="st215" cx="668.8" cy="189.2" rx="5.6" ry="3.9"/><path class="st219" d="M667.3 191c.4 1.4 1.7 1.9 2.9 1.1 1.2-.8 1.9-2.7 1.5-4.1-.2-.8-.7-1.3-1.2-1.4-.5-.2-1.1-.1-1.7.3-1.2.9-1.8 2.7-1.5 4.1z"/><path class="st219" d="M671.8 187.2l-1.3-.6-1.1.7s-.8.8-.9.8c0 0-.5 1.2-.5 1.4 0 .2.4 2.8.4 2.8l1.4.6s1.5-2.3 1.5-2.4l.5-3.3z"/><ellipse transform="rotate(-70.587 670.637 189.988)" class="st28" cx="670.7" cy="190" rx="3.1" ry="2.2"/></g><g><ellipse transform="rotate(-70.587 594.272 447.178)" class="st219" cx="594.3" cy="447.2" rx="5.6" ry="3.9"/><path class="st219" d="M597.7 442.8l-1-.6-4.9 2.4-.6 2.7.8 5 1.3.7 1.8-3.3z"/><ellipse transform="rotate(-70.587 595.389 447.828)" class="st215" cx="595.4" cy="447.9" rx="5.6" ry="3.9"/><path class="st219" d="M593.9 449.7c.4 1.4 1.7 1.9 2.9 1.1s1.9-2.7 1.5-4.1c-.2-.8-.7-1.3-1.2-1.4-.5-.2-1.1-.1-1.7.3-1.2.8-1.8 2.6-1.5 4.1z"/><path class="st219" d="M598.4 445.8l-1.3-.6-1.1.8s-.8.8-.9.8c0 0-.5 1.2-.5 1.4 0 .2.4 2.8.4 2.8l1.4.6s1.5-2.3 1.5-2.4c0-.1.5-3.4.5-3.4z"/><ellipse transform="rotate(-70.587 597.24 448.624)" class="st28" cx="597.3" cy="448.6" rx="3.1" ry="2.2"/></g><g><ellipse transform="rotate(-70.587 667.673 404.95)" class="st12" cx="667.7" cy="405" rx="5.6" ry="3.9"/><path class="st12" d="M671.2 400.6l-1.1-.6-4.9 2.4-.5 2.7.7 4.9 1.3.8 1.8-3.3z"/><ellipse transform="rotate(-70.587 668.79 405.6)" class="st215" cx="668.8" cy="405.6" rx="5.6" ry="3.9"/><path class="st12" d="M667.3 407.5c.4 1.4 1.7 1.9 2.9 1.1 1.2-.8 1.9-2.7 1.5-4.1-.2-.8-.7-1.3-1.2-1.4-.5-.2-1.1-.1-1.7.3-1.2.8-1.8 2.6-1.5 4.1z"/><path class="st12" d="M671.8 403.6l-1.3-.6-1.1.7s-.8.8-.9.8-.5 1.2-.5 1.4c0 .2.4 2.8.4 2.8l1.4.6s1.5-2.3 1.5-2.4l.5-3.3z"/><ellipse transform="rotate(-70.587 670.64 406.396)" class="st28" cx="670.7" cy="406.4" rx="3.1" ry="2.2"/></g><path class="st3" d="M584.2 136l-54.3-31.3-56.2 31.9h-8.9v5l62.9 36.3 65.1-36.9v-5z"/><path class="st28" d="M464.8 136.6l65.1-36.9 62.9 36.3-65.1 36.9z"/><path class="st3" d="M486.8 136.5l42.7-24.3 3.1 1.8-42.8 24.3zM494.2 139.9l42.8-24.3 3 1.8-42.7 24.2zM502.1 144.1l42.8-24.3 3 1.7-42.7 24.3zM509.7 147.9l42.7-24.3 3.1 1.8-42.8 24.2zM517.3 152l42.7-24.3 3.1 1.7-42.8 24.3zM524 156.2l42.8-24.2 3 1.7-42.7 24.3z"/><path class="st219" d="M527.7 172.9v5l-62.9-36.3v-5z"/></g><g><path id="Rectangle_3_7_" class="st1" d="M703.7 259l85.5 49.3v169.2l-85.5-49.3V259z"/><path id="Rectangle_3_6_" class="st28" d="M615.2 309.3l85.5 49.3v169.2l-85.5-49.3V309.3z"/><path id="Rectangle_3_9_" class="st7" d="M627.5 339l60.9 35.1v5.7l-60.9-35.1V339z"/><path id="Rectangle_3_10_" class="st7" d="M627.5 353.1l60.9 35.1v5.7l-60.9-35.1v-5.7z"/><path id="Rectangle_3_11_" class="st7" d="M627.5 367.3l60.9 35.1v5.7L627.5 373v-5.7z"/><path id="Rectangle_3_12_" class="st7" d="M627.5 381.5l60.9 35.1v5.7l-60.9-35.1v-5.7z"/><path id="Rectangle_3_13_" class="st7" d="M627.5 395.6l60.9 35.1v5.7l-60.9-35.1v-5.7z"/><path id="Rectangle_3_14_" class="st7" d="M627.5 409.8l60.9 35.1v5.7l-60.9-35.1v-5.7z"/><path id="Rectangle_3_15_" class="st7" d="M627.5 423.9l60.9 35.1v5.7l-60.9-35.1v-5.7z"/><path class="st7" d="M700.6 358.7l88.6-50.3v169.2l-88.6 50.3z"/><path class="st213" d="M706.6 366.7l76.6-43.4v146.2L706.6 513z"/><path class="st214" d="M713.4 375.8l63-35.8v42.8l-63 35.8z"/><path class="st12" d="M615.2 309.3l88.5-50.3 85.5 49.4-88.6 50.3z"/><path class="st7" d="M638.2 308.7l65.1-37 62.8 36.3-65.1 37z"/><g><ellipse transform="rotate(-70.587 708.275 365.75)" class="st12" cx="708.3" cy="365.8" rx="5.6" ry="3.9"/><path class="st12" d="M711.8 361.4l-1.1-.6-4.9 2.4-.5 2.7.7 4.9 1.3.8 1.8-3.3z"/><ellipse transform="rotate(-70.587 709.392 366.4)" class="st215" cx="709.4" cy="366.4" rx="5.6" ry="3.9"/><path class="st12" d="M707.9 368.3c.4 1.4 1.7 1.9 2.9 1.1s1.9-2.7 1.5-4.1c-.2-.8-.7-1.3-1.2-1.4-.5-.2-1.1-.1-1.7.3-1.2.8-1.8 2.6-1.5 4.1z"/><path class="st12" d="M712.4 364.4l-1.3-.6-1.1.7s-.8.8-.9.8c0 0-.5 1.2-.5 1.4 0 .2.4 2.8.4 2.8l1.4.6s1.5-2.3 1.5-2.4l.5-3.3z"/><ellipse transform="rotate(-70.587 711.242 367.196)" class="st28" cx="711.3" cy="367.2" rx="3.1" ry="2.2"/></g><g><ellipse transform="rotate(-70.587 781.676 323.522)" class="st12" cx="781.7" cy="323.5" rx="5.6" ry="3.9"/><path class="st12" d="M785.2 319.2l-1.1-.6-4.9 2.4-.5 2.6.7 5 1.3.7 1.8-3.2z"/><ellipse transform="rotate(-70.587 782.793 324.172)" class="st215" cx="782.8" cy="324.2" rx="5.6" ry="3.9"/><path class="st12" d="M781.4 326c.4 1.4 1.7 1.9 2.9 1.1s1.9-2.7 1.5-4.1c-.2-.8-.7-1.3-1.2-1.4-.5-.2-1.1-.1-1.7.3-1.3.9-1.9 2.7-1.5 4.1z"/><path class="st12" d="M785.9 322.1l-1.3-.6-1.1.7s-.8.8-.9.8c0 0-.5 1.2-.5 1.4 0 .2.4 2.8.4 2.8l1.4.6s1.5-2.3 1.5-2.4c-.1.1.5-3.3.5-3.3z"/><ellipse transform="rotate(-70.587 784.643 324.968)" class="st28" cx="784.7" cy="325" rx="3.1" ry="2.2"/></g><g><ellipse transform="rotate(-70.587 708.277 511.257)" class="st12" cx="708.3" cy="511.3" rx="5.6" ry="3.9"/><path class="st12" d="M711.8 506.9l-1.1-.6-4.9 2.4-.5 2.7.7 5 1.3.7 1.8-3.3z"/><ellipse transform="rotate(-70.587 709.394 511.907)" class="st215" cx="709.4" cy="511.9" rx="5.6" ry="3.9"/><path class="st12" d="M707.9 513.8c.4 1.4 1.7 1.9 2.9 1.1 1.2-.8 1.9-2.7 1.5-4.1-.2-.8-.7-1.3-1.2-1.4-.5-.2-1.1-.1-1.7.3-1.2.8-1.8 2.6-1.5 4.1z"/><path class="st12" d="M712.4 509.9l-1.3-.6-1.1.7s-.8.8-.9.8c0 0-.5 1.2-.5 1.4 0 .2.4 2.8.4 2.8l1.4.6s1.5-2.3 1.5-2.4l.5-3.3z"/><ellipse transform="rotate(-70.587 711.244 512.703)" class="st28" cx="711.3" cy="512.7" rx="3.1" ry="2.2"/></g><g><ellipse transform="rotate(-70.587 781.678 469.03)" class="st12" cx="781.7" cy="469.1" rx="5.6" ry="3.9"/><path class="st12" d="M785.2 464.7l-1.1-.6-4.9 2.4-.5 2.6.7 5 1.3.7 1.8-3.2z"/><ellipse transform="rotate(-70.587 782.795 469.68)" class="st215" cx="782.8" cy="469.7" rx="5.6" ry="3.9"/><path class="st12" d="M781.4 471.5c.4 1.4 1.7 1.9 2.9 1.1 1.2-.8 1.9-2.7 1.5-4.1-.2-.8-.7-1.3-1.2-1.4-.5-.2-1.1-.1-1.7.3-1.3.9-1.9 2.7-1.5 4.1z"/><path class="st12" d="M785.9 467.7l-1.3-.6-1.1.7s-.8.8-.9.8c0 0-.5 1.2-.5 1.4 0 .2.4 2.8.4 2.8l1.4.6s1.5-2.3 1.5-2.4c-.1 0 .5-3.3.5-3.3z"/><ellipse transform="rotate(-70.587 784.645 470.476)" class="st28" cx="784.7" cy="470.5" rx="3.1" ry="2.2"/></g><path class="st7" d="M638.2 303.7v5h127.9V303z"/><path class="st28" d="M638.2 303.7l65.1-37 62.8 36.3-65.1 37z"/><path class="st7" d="M660.1 303.6l42.8-24.3 3 1.7-42.7 24.3zM667.6 307l42.7-24.3 3.1 1.7-42.8 24.3zM675.5 311.1l42.8-24.2 3 1.7-42.7 24.3zM683 315l42.8-24.3 3 1.7-42.7 24.3zM690.7 319.1l42.7-24.3 3.1 1.7-42.8 24.3zM697.4 323.3l42.8-24.3 3 1.8-42.7 24.2z"/><path class="st214" d="M701 340v5l-62.8-36.3v-5z"/></g><g><path class="st7" d="M503.8 440.6h-.2c-.9-.1-1.5-.9-1.4-1.7l23.5-243.5c.1-.9.9-1.5 1.7-1.4.9.1 1.5.9 1.4 1.7l-23.5 243.5c0 .8-.7 1.4-1.5 1.4zM466.6 426.2h-.2c-.9-.1-1.5-.9-1.4-1.7L488.5 181c.1-.9.9-1.5 1.7-1.4.9.1 1.5.9 1.4 1.7l-23.5 243.5c0 .8-.7 1.4-1.5 1.4z"/><path class="st7" d="M524.5 219.7c-.2 0-.5-.1-.7-.2l-36-18.8c-.8-.4-1.1-1.4-.7-2.2.4-.8 1.4-1.1 2.2-.7l36 18.8c.8.4 1.1 1.4.7 2.2-.3.6-.9.9-1.5.9zM522.7 240.3c-.2 0-.5-.1-.7-.2l-36-18.8c-.8-.4-1.1-1.4-.7-2.2.4-.8 1.4-1.1 2.2-.7l36 18.8c.8.4 1.1 1.4.7 2.2-.3.6-.9.9-1.5.9zM520.9 260.9c-.2 0-.5-.1-.7-.2l-36-18.8c-.8-.4-1.1-1.4-.7-2.2.4-.8 1.4-1.1 2.2-.7l36 18.8c.8.4 1.1 1.4.7 2.2-.3.5-.9.9-1.5.9zM519.1 281.4c-.2 0-.5-.1-.7-.2l-36-18.8c-.8-.4-1.1-1.4-.7-2.2.4-.8 1.4-1.1 2.2-.7l36 18.8c.8.4 1.1 1.4.7 2.2-.3.6-.9.9-1.5.9zM517.3 302c-.2 0-.5-.1-.7-.2l-36-18.8c-.8-.4-1.1-1.4-.7-2.2.4-.8 1.4-1.1 2.2-.7l36 18.8c.8.4 1.1 1.4.7 2.2-.3.6-.9.9-1.5.9zM514.9 324c-.2 0-.5-.1-.7-.2l-36-18.8c-.8-.4-1.1-1.4-.7-2.2.4-.8 1.4-1.1 2.2-.7l36 18.8c.8.4 1.1 1.4.7 2.2-.4.6-1 .9-1.5.9zM513.1 344.5c-.2 0-.5-.1-.7-.2l-36-18.8c-.8-.4-1.1-1.4-.7-2.2.4-.8 1.4-1.1 2.2-.7l36 18.8c.8.4 1.1 1.4.7 2.2-.4.6-1 .9-1.5.9zM509.8 367.8c-.2 0-.5-.1-.7-.2l-36-18.8c-.8-.4-1.1-1.4-.7-2.2.4-.8 1.4-1.1 2.2-.7l36 18.8c.8.4 1.1 1.4.7 2.2-.4.5-.9.9-1.5.9zM508 388.3c-.2 0-.5-.1-.7-.2l-36-18.8c-.8-.4-1.1-1.4-.7-2.2.4-.8 1.4-1.1 2.2-.7l36 18.8c.8.4 1.1 1.4.7 2.2-.4.6-.9.9-1.5.9zM506.1 410.3c-.2 0-.5-.1-.7-.2l-36-18.8c-.8-.4-1.1-1.4-.7-2.2.4-.8 1.4-1.1 2.2-.7l36 18.8c.8.4 1.1 1.4.7 2.2-.4.6-1 .9-1.5.9zM504.3 430.9c-.2 0-.5-.1-.7-.2l-36-18.8c-.8-.4-1.1-1.4-.7-2.2.4-.8 1.4-1.1 2.2-.7l36 18.8c.8.4 1.1 1.4.7 2.2-.4.6-1 .9-1.5.9z"/><g><path class="st20" d="M485.2 183.1l-11.5 28.7c-.8 1.9-1 4-.6 6l9.3 23s8.5-1.4 8-5.4c-.6-4 1.7-9.8-.6-14.3-2.3-4.6-5.7-9.2-5.7-9.2l5.7-23.7-4.6-5.1z"/><path class="st26" d="M489.8 178.1c-2.5 0-4.6 2.3-4.6 5.1s2 5.1 4.6 5.1c2.5 0 4.6-2.3 4.6-5.1-.1-2.9-2.1-5.1-4.6-5.1z"/><path class="st20" d="M513.3 229.7s11.5 27 12.6 32.1c1.1 5.2 0 10.3-4.6 8.6-4.6-1.7-15.1-17.9-15.1-20.2 0-2.3-.4-18.8-.4-18.8l7.5-1.7z"/><path class="st20" d="M523 232.9s-4.5 17.1-4.3 17.8c.2.6 3.9 19.6 3.9 19.6s4.7 5.5 3.9-14.5c-.8-20-.4-22.3-.4-22.3l-3.1-.6z"/><path class="st26" d="M524.9 228c-2.5 0-4.6 2.3-4.6 5.1s2 5.1 4.6 5.1c2.5 0 4.6-2.3 4.6-5.1-.1-2.9-2.1-5.1-4.6-5.1zM490.6 196.5c-6.1 1.8-9.4 8.7-7.4 15.4s8.5 10.8 14.6 9c6.1-1.8 9.4-8.7 7.4-15.4-2-6.8-8.6-10.8-14.6-9z"/><path class="st19" d="M490.6 196.5c-6.1 1.8-9.4 8.7-7.4 15.4.7 2.5 2.1 4.7 3.9 6.3 2.5 1.3 5.2 1.7 8 .9 6.1-1.8 9.4-8.7 7.4-15.4-.7-2.5-2.1-4.7-3.9-6.3-2.5-1.3-5.3-1.7-8-.9z"/><path class="st26" d="M498.4 207.1c-1.6 1.4-1.6 4 0 5.8.6.7 1.3 1.1 2.1 1.3.9 0 1.8-.3 2.5-.9 1.6-1.4 1.6-4 0-5.8-.6-.7-1.3-1.1-2.1-1.3-.9-.1-1.8.2-2.5.9z"/></g><path class="st19" d="M497.3 323.4l.8 9.9 11.4 6s3.4-1.6 1.1-3.9c-2.4-2.3-4.6-4.1-4.6-4.1l-.8-3.1-7.9-4.8zM476.2 313l.8 9.9 11.4 6s3.4-1.6 1.1-3.9-3.9-4.3-3.9-4.3l-1.5-2.9-7.9-4.8z"/><path class="st3" d="M510.6 272.1l-2.1 58-11.2-6.8s-1.4-45.3-2.4-45.5c-1-.2-4.8-.3-4.8-.3l-4.2 41-11.4-3.6s4.6-50.4 5.7-50c1 .4 14.1.4 15.1 1 1 .7 15.3 6.2 15.3 6.2z"/><path class="st20" d="M482.9 218.2l-6 44.5s4.2 12.5 14.6 13.1c10.3.6 19.5-2.3 19.5-2.3l2.3-43.8s-3.4-4.6-10.9-7.5c-7.5-2.8-19.5-4-19.5-4z"/></g><g><path class="st12" d="M40.5 526.5V318.4c0-11.7 3.8-17.4 11.4-21.8l275.2-158.9c2.8-1.6 5.4-2.2 7.4-1.4 0 0-4.6-2.7-5.1-2.8-2-.7-4.5-.2-7.3 1.4L46.9 293.7c-7.6 4.5-11.4 10.1-11.4 21.8v208.1c0 5.6 1.5 8.7 4 9.9l4.1 2.3c-1.9-1.3-3.1-4.3-3.1-9.3zM233.9 665.1c7.3 4.2 18.3 4.7 24.6 1l275.2-158.9c2.8-1.6 4.2-3.8 4.3-6.1v-11.3c-.1 2.2-1.5 4.2-4.2 5.8L258.6 654.5c-6.3 3.6-17.3 3.2-24.6-1v11.6z"/><path class="st7" d="M233.9 653.5L53.7 549.4c-3.7-2.1-5.7-4.8-6-7.4v11.7c.3 2.6 2.3 5.3 6 7.4l180.2 104.1v-11.7z"/><path class="st28" d="M458.5 438.9l73.5 42.5c7.3 4.2 8.1 10.6 1.8 14.2L258.6 654.5c-6.3 3.6-17.3 3.2-24.6-1L160.4 611l298.1-172.1z"/><path class="st12" d="M160.4 611L53.7 549.4c-7.3-4.2-8.1-10.6-1.8-14.2l275.2-158.9c6.3-3.6 17.3-3.2 24.6 1l106.7 61.6-298 172.1z"/><path class="st29" d="M114.7 549.4l-13.8 8c-.8.5-2.3.4-3.3-.1l-13.2-7.6c-1-.6-1.1-1.4-.2-1.9l13.8-8c.8-.5 2.3-.4 3.3.1l13.2 7.6c.9.5 1 1.4.2 1.9zM133.3 538.6l-13.8 8c-.8.5-2.3.4-3.3-.1l-13.2-7.6c-1-.6-1.1-1.4-.2-1.9l13.8-8c.8-.5 2.3-.4 3.3.1l13.2 7.6c1 .6 1.1 1.4.2 1.9zM152 527.9l-13.8 8c-.8.5-2.3.4-3.3-.1l-13.2-7.6c-1-.6-1.1-1.4-.2-1.9l13.8-8c.8-.5 2.3-.4 3.3.1l13.2 7.6c.9.5 1 1.4.2 1.9zM170.6 517.1l-13.8 8c-.8.5-2.3.4-3.3-.1l-13.2-7.6c-1-.6-1.1-1.4-.2-1.9l13.8-8c.8-.5 2.3-.4 3.3.1l13.2 7.6c.9.6 1.1 1.4.2 1.9zM189.2 506.3l-13.8 8c-.8.5-2.3.4-3.3-.1l-13.2-7.6c-1-.6-1.1-1.4-.2-1.9l13.8-8c.8-.5 2.3-.4 3.3.1l13.2 7.6c1 .6 1.1 1.5.2 1.9zM207.9 495.6l-13.8 8c-.8.5-2.3.4-3.3-.1l-13.2-7.6c-1-.6-1.1-1.4-.2-1.9l13.8-8c.8-.5 2.3-.4 3.3.1l13.2 7.6c.9.5 1 1.4.2 1.9zM226.5 484.8l-13.8 8c-.8.5-2.3.4-3.3-.1l-13.2-7.6c-1-.6-1.1-1.4-.2-1.9l13.8-8c.8-.5 2.3-.4 3.3.1l13.2 7.6c.9.6 1.1 1.4.2 1.9zM245.1 474.1l-13.8 8c-.8.5-2.3.4-3.3-.1l-13.2-7.6c-1-.6-1.1-1.4-.2-1.9l13.8-8c.8-.5 2.3-.4 3.3.1l13.2 7.6c1 .5 1.1 1.4.2 1.9zM263.8 463.3l-13.8 8c-.8.5-2.3.4-3.3-.1l-13.2-7.6c-1-.6-1.1-1.4-.2-1.9l13.8-8c.8-.5 2.3-.4 3.3.1l13.2 7.6c.9.6 1 1.4.2 1.9zM282.4 452.5l-13.8 8c-.8.5-2.3.4-3.3-.1l-13.2-7.6c-1-.6-1.1-1.4-.2-1.9l13.8-8c.8-.5 2.3-.4 3.3.1l13.2 7.6c1 .6 1.1 1.5.2 1.9zM301.1 441.8l-13.8 8c-.8.5-2.3.4-3.3-.1l-13.2-7.6c-1-.6-1.1-1.4-.2-1.9l13.8-8c.8-.5 2.3-.4 3.3.1l13.2 7.6c.9.5 1 1.4.2 1.9zM319.7 431l-13.8 8c-.8.5-2.3.4-3.3-.1l-13.2-7.6c-1-.6-1.1-1.4-.2-1.9l13.8-8c.8-.5 2.3-.4 3.3.1l13.2 7.6c.9.6 1 1.4.2 1.9zM338.3 420.3l-13.8 8c-.8.5-2.3.4-3.3-.1l-13.2-7.6c-1-.6-1.1-1.4-.2-1.9l13.8-8c.8-.5 2.3-.4 3.3.1l13.2 7.6c1 .5 1.1 1.4.2 1.9zM365.4 404.6l-22.2 12.8c-.8.5-2.3.4-3.3-.1l-13.2-7.6c-1-.6-1.1-1.4-.2-1.9l22.2-12.8c.8-.5 2.3-.4 3.3.1l13.2 7.6c.9.6 1 1.5.2 1.9z"/><g><path class="st29" d="M353.4 413.6l13.8-8c.8-.5 2.3-.4 3.3.1l13.2 7.6c1 .6 1.1 1.4.2 1.9l-13.8 8c-.8.5-2.3.4-3.3-.1l-13.2-7.6c-.9-.5-1-1.4-.2-1.9zM334.8 424.4l13.8-8c.8-.5 2.3-.4 3.3.1l13.2 7.6c1 .6 1.1 1.4.2 1.9l-13.8 8c-.8.5-2.3.4-3.3-.1l-13.2-7.6c-1-.6-1.1-1.4-.2-1.9zM316.1 435.2l13.8-8c.8-.5 2.3-.4 3.3.1l13.2 7.6c1 .6 1.1 1.4.2 1.9l-13.8 8c-.8.5-2.3.4-3.3-.1l-13.2-7.6c-.9-.6-1-1.5-.2-1.9zM297.5 445.9l13.8-8c.8-.5 2.3-.4 3.3.1l13.2 7.6c1 .6 1.1 1.4.2 1.9l-13.8 8c-.8.5-2.3.4-3.3-.1l-13.2-7.6c-.9-.5-1-1.4-.2-1.9zM278.9 456.7l13.8-8c.8-.5 2.3-.4 3.3.1l13.2 7.6c1 .6 1.1 1.4.2 1.9l-13.8 8c-.8.5-2.3.4-3.3-.1l-13.2-7.6c-1-.6-1.1-1.4-.2-1.9zM260.2 467.4l13.8-8c.8-.5 2.3-.4 3.3.1l13.2 7.6c1 .6 1.1 1.4.2 1.9l-13.8 8c-.8.5-2.3.4-3.3-.1l-13.2-7.6c-.9-.5-1-1.4-.2-1.9zM241.6 478.2l13.8-8c.8-.5 2.3-.4 3.3.1l13.2 7.6c1 .6 1.1 1.4.2 1.9l-13.8 8c-.8.5-2.3.4-3.3-.1l-13.2-7.6c-.9-.6-1-1.4-.2-1.9zM223 488.9l13.8-8c.8-.5 2.3-.4 3.3.1l13.2 7.6c1 .6 1.1 1.4.2 1.9l-13.8 8c-.8.5-2.3.4-3.3-.1l-13.2-7.6c-1-.5-1.1-1.4-.2-1.9zM204.3 499.7l13.8-8c.8-.5 2.3-.4 3.3.1l13.2 7.6c1 .6 1.1 1.4.2 1.9l-13.8 8c-.8.5-2.3.4-3.3-.1l-13.2-7.6c-.9-.6-1-1.4-.2-1.9zM185.7 510.5l13.8-8c.8-.5 2.3-.4 3.3.1l13.2 7.6c1 .6 1.1 1.4.2 1.9l-13.8 8c-.8.5-2.3.4-3.3-.1l-13.2-7.6c-.9-.6-1-1.4-.2-1.9zM167.1 521.2l13.8-8c.8-.5 2.3-.4 3.3.1l13.2 7.6c1 .6 1.1 1.4.2 1.9l-13.8 8c-.8.5-2.3.4-3.3-.1l-13.2-7.6c-1-.5-1.1-1.4-.2-1.9zM148.4 532l13.8-8c.8-.5 2.3-.4 3.3.1l13.2 7.6c1 .6 1.1 1.4.2 1.9l-13.8 8c-.8.5-2.3.4-3.3-.1l-13.2-7.6c-.9-.6-1-1.4-.2-1.9zM129.8 542.7l13.8-8c.8-.5 2.3-.4 3.3.1l13.2 7.6c1 .6 1.1 1.4.2 1.9l-13.8 8c-.8.5-2.3.4-3.3-.1l-13.2-7.6c-.9-.5-1.1-1.4-.2-1.9zM102.7 558.4l22.2-12.8c.8-.5 2.3-.4 3.3.1l13.2 7.6c1 .6 1.1 1.4.2 1.9L119.5 568c-.8.5-2.3.4-3.3-.1l-13.2-7.6c-1-.6-1.1-1.5-.3-1.9z"/></g><g><path class="st29" d="M358.5 432.1l27.2-15.7c.8-.5 2.3-.4 3.3.1l13.2 7.6c1 .6 1.1 1.4.2 1.9l-27.2 15.7c-.8.5-2.3.4-3.3-.1l-13.2-7.6c-1-.6-1.1-1.4-.2-1.9zM121.4 569l27.2-15.7c.8-.5 2.3-.4 3.3.1l13.2 7.6c1 .6 1.1 1.4.2 1.9l-27.2 15.7c-.8.5-2.3.4-3.3-.1l-13.2-7.6c-.9-.6-1-1.4-.2-1.9zM339.8 442.9l13.8-8c.8-.5 2.3-.4 3.3.1l13.2 7.6c1 .6 1.1 1.4.2 1.9l-13.8 8c-.8.5-2.3.4-3.3-.1l-13.2-7.6c-.9-.6-1-1.5-.2-1.9zM321.2 453.6l13.8-8c.8-.5 2.3-.4 3.3.1l13.2 7.6c1 .6 1.1 1.4.2 1.9l-13.8 8c-.8.5-2.3.4-3.3-.1l-13.2-7.6c-.9-.6-1-1.4-.2-1.9zM302.6 464.4l13.8-8c.8-.5 2.3-.4 3.3.1l13.2 7.6c1 .6 1.1 1.4.2 1.9l-13.8 8c-.8.5-2.3.4-3.3-.1l-13.2-7.6c-1-.6-1.1-1.4-.2-1.9zM283.9 475.1l13.8-8c.8-.5 2.3-.4 3.3.1l13.2 7.6c1 .6 1.1 1.4.2 1.9l-13.8 8c-.8.5-2.3.4-3.3-.1l-13.2-7.6c-.9-.5-1-1.4-.2-1.9zM265.3 485.9l13.8-8c.8-.5 2.3-.4 3.3.1l13.2 7.6c1 .6 1.1 1.4.2 1.9l-13.8 8c-.8.5-2.3.4-3.3-.1l-13.2-7.6c-.9-.6-1-1.4-.2-1.9zM246.7 496.6l13.8-8c.8-.5 2.3-.4 3.3.1l13.2 7.6c1 .6 1.1 1.4.2 1.9l-13.8 8c-.8.5-2.3.4-3.3-.1l-13.2-7.6c-1-.5-1.1-1.4-.2-1.9zM228 507.4l13.8-8c.8-.5 2.3-.4 3.3.1l13.2 7.6c1 .6 1.1 1.4.2 1.9l-13.8 8c-.8.5-2.3.4-3.3-.1l-13.2-7.6c-.9-.6-1-1.4-.2-1.9zM209.4 518.2l13.8-8c.8-.5 2.3-.4 3.3.1l13.2 7.6c1 .6 1.1 1.4.2 1.9l-13.8 8c-.8.5-2.3.4-3.3-.1l-13.2-7.6c-.9-.6-1-1.4-.2-1.9zM190.8 528.9l13.8-8c.8-.5 2.3-.4 3.3.1l13.2 7.6c1 .6 1.1 1.4.2 1.9l-13.8 8c-.8.5-2.3.4-3.3-.1l-13.2-7.6c-1-.5-1.1-1.4-.2-1.9zM172.1 539.7l13.8-8c.8-.5 2.3-.4 3.3.1l13.2 7.6c1 .6 1.1 1.4.2 1.9l-13.8 8c-.8.5-2.3.4-3.3-.1l-13.2-7.6c-.9-.6-1-1.4-.2-1.9zM153.5 550.4l13.8-8c.8-.5 2.3-.4 3.3.1l13.2 7.6c1 .6 1.1 1.4.2 1.9l-13.8 8c-.8.5-2.3.4-3.3-.1l-13.2-7.6c-.9-.5-1.1-1.4-.2-1.9z"/></g><g><path class="st29" d="M367.7 448.1l36.5-21.1c.8-.5 2.3-.4 3.3.1l13.2 7.6c1 .6 1.1 1.4.2 1.9l-36.5 21.1c-.8.5-2.3.4-3.3-.1L368 450c-1-.5-1.1-1.4-.3-1.9zM349.1 458.9l13.8-8c.8-.5 2.3-.4 3.3.1l13.2 7.6c1 .6 1.1 1.4.2 1.9l-13.8 8c-.8.5-2.3.4-3.3-.1l-13.2-7.6c-.9-.6-1-1.4-.2-1.9zM330.5 469.6l13.8-8c.8-.5 2.3-.4 3.3.1l13.2 7.6c1 .6 1.1 1.4.2 1.9l-13.8 8c-.8.5-2.3.4-3.3-.1l-13.2-7.6c-1-.5-1.1-1.4-.2-1.9zM311.8 480.4l13.8-8c.8-.5 2.3-.4 3.3.1l13.2 7.6c1 .6 1.1 1.4.2 1.9l-13.8 8c-.8.5-2.3.4-3.3-.1l-13.2-7.6c-.9-.6-1-1.4-.2-1.9zM293.2 491.2l13.8-8c.8-.5 2.3-.4 3.3.1l13.2 7.6c1 .6 1.1 1.4.2 1.9l-13.8 8c-.8.5-2.3.4-3.3-.1l-13.2-7.6c-.9-.6-1-1.5-.2-1.9zM274.6 501.9l13.8-8c.8-.5 2.3-.4 3.3.1l13.2 7.6c1 .6 1.1 1.4.2 1.9l-13.8 8c-.8.5-2.3.4-3.3-.1l-13.2-7.6c-1-.5-1.1-1.4-.2-1.9zM255.9 512.7l13.8-8c.8-.5 2.3-.4 3.3.1l13.2 7.6c1 .6 1.1 1.4.2 1.9l-13.8 8c-.8.5-2.3.4-3.3-.1l-13.2-7.6c-.9-.6-1-1.4-.2-1.9zM237.3 523.4l13.8-8c.8-.5 2.3-.4 3.3.1l13.2 7.6c1 .6 1.1 1.4.2 1.9l-13.8 8c-.8.5-2.3.4-3.3-.1l-13.2-7.6c-.9-.5-1-1.4-.2-1.9zM218.7 534.2l13.8-8c.8-.5 2.3-.4 3.3.1l13.2 7.6c1 .6 1.1 1.4.2 1.9l-13.8 8c-.8.5-2.3.4-3.3-.1l-13.2-7.6c-1-.6-1.1-1.4-.2-1.9zM200 545l13.8-8c.8-.5 2.3-.4 3.3.1l13.2 7.6c1 .6 1.1 1.4.2 1.9l-13.8 8c-.8.5-2.3.4-3.3-.1l-13.2-7.6c-.9-.6-1-1.5-.2-1.9zM181.4 555.7l13.8-8c.8-.5 2.3-.4 3.3.1l13.2 7.6c1 .6 1.1 1.4.2 1.9l-13.8 8c-.8.5-2.3.4-3.3-.1l-13.2-7.6c-.9-.6-1-1.4-.2-1.9zM139.9 579.7l36.6-21.1c.8-.5 2.3-.4 3.3.1l13.2 7.6c1 .6 1.1 1.4.2 1.9l-36.6 21.1c-.8.5-2.3.4-3.3-.1l-13.2-7.6c-.9-.6-1-1.5-.2-1.9z"/></g><g><path class="st29" d="M237.2 544.9l88.3-51c.8-.5 2.3-.4 3.3.1l13.2 7.6c1 .6 1.1 1.4.2 1.9l-88.3 51c-.8.5-2.3.4-3.3-.1l-13.2-7.6c-1-.6-1.1-1.4-.2-1.9zM353.1 478l13.8-8c.8-.5 2.3-.4 3.3.1l13.2 7.6c1 .6 1.1 1.4.2 1.9l-13.8 8c-.8.5-2.3.4-3.3-.1l-13.2-7.6c-1-.6-1.1-1.4-.2-1.9zM330.4 491.1l17.8-10.3c.8-.5 2.3-.4 3.3.1l13.2 7.6c1 .6 1.1 1.4.2 1.9l-17.8 10.3c-.8.5-2.3.4-3.3-.1l-13.2-7.6c-1-.6-1.1-1.4-.2-1.9zM209.6 560.8l-13.8 8c-.8.5-.7 1.3.2 1.9l13.2 7.6c1 .6 2.4.6 3.3.1l13.8-8c.8-.5.7-1.3-.2-1.9l-13.2-7.6c-1-.5-2.4-.6-3.3-.1zM232.3 547.7L214.5 558c-.8.5-.7 1.3.2 1.9l13.2 7.6c1 .6 2.4.6 3.3.1l17.8-10.3c.8-.5.7-1.3-.2-1.9l-13.2-7.6c-1-.5-2.4-.6-3.3-.1zM409 445.7l13.8-8c.8-.5 2.3-.4 3.3.1l13.2 7.6c1 .6 1.1 1.4.2 1.9l-13.8 8c-.8.5-2.3.4-3.3-.1l-13.2-7.6c-1-.6-1.1-1.4-.2-1.9zM390.3 456.5l13.8-8c.8-.5 2.3-.4 3.3.1l13.2 7.6c1 .6 1.1 1.4.2 1.9l-13.8 8c-.8.5-2.3.4-3.3-.1l-13.2-7.6c-.9-.6-1-1.4-.2-1.9zM371.7 467.2l13.8-8c.8-.5 2.3-.4 3.3.1l13.2 7.6c1 .6 1.1 1.4.2 1.9l-13.8 8c-.8.5-2.3.4-3.3-.1l-13.2-7.6c-.9-.5-1.1-1.4-.2-1.9zM158.4 590.3l32.5-18.8c.8-.5 2.3-.4 3.3.1l13.2 7.6c1 .6 1.1 1.4.2 1.9L175.2 600c-.8.5-2.3.4-3.3-.1l-13.2-7.6c-1-.6-1.1-1.5-.3-2z"/></g><g><path class="st29" d="M96.2 538.7l-13.8 8c-.8.5-2.3.4-3.3-.1l-6.6-3.8c-1-.6-1.1-1.4-.2-1.9l13.8-8c.8-.5 2.3-.4 3.3.1l6.6 3.8c.9.5 1 1.4.2 1.9zM114.8 527.9l-13.8 8c-.8.5-2.3.4-3.3-.1l-6.6-3.8c-1-.6-1.1-1.4-.2-1.9l13.8-8c.8-.5 2.3-.4 3.3.1l6.6 3.8c1 .6 1.1 1.4.2 1.9zM133.5 517.2l-13.8 8c-.8.5-2.3.4-3.3-.1l-6.6-3.8c-1-.6-1.1-1.4-.2-1.9l13.8-8c.8-.5 2.3-.4 3.3.1l6.6 3.8c.9.5 1 1.4.2 1.9zM152.1 506.4l-13.8 8c-.8.5-2.3.4-3.3-.1l-6.6-3.8c-1-.6-1.1-1.4-.2-1.9l13.8-8c.8-.5 2.3-.4 3.3.1l6.6 3.8c.9.6 1 1.4.2 1.9zM170.7 495.6l-13.8 8c-.8.5-2.3.4-3.3-.1l-6.6-3.8c-1-.6-1.1-1.4-.2-1.9l13.8-8c.8-.5 2.3-.4 3.3.1l6.6 3.8c1 .6 1.1 1.5.2 1.9zM189.4 484.9l-13.8 8c-.8.5-2.3.4-3.3-.1l-6.6-3.8c-1-.6-1.1-1.4-.2-1.9l13.8-8c.8-.5 2.3-.4 3.3.1l6.6 3.8c.9.6 1 1.4.2 1.9zM208 474.1l-13.8 8c-.8.5-2.3.4-3.3-.1l-6.6-3.8c-1-.6-1.1-1.4-.2-1.9l13.8-8c.8-.5 2.3-.4 3.3.1l6.6 3.8c.9.6 1 1.4.2 1.9zM226.6 463.4l-13.8 8c-.8.5-2.3.4-3.3-.1l-6.6-3.8c-1-.6-1.1-1.4-.2-1.9l13.8-8c.8-.5 2.3-.4 3.3.1l6.6 3.8c1 .5 1.1 1.4.2 1.9zM245.3 452.6l-13.8 8c-.8.5-2.3.4-3.3-.1l-6.6-3.8c-1-.6-1.1-1.4-.2-1.9l13.8-8c.8-.5 2.3-.4 3.3.1l6.6 3.8c.9.6 1 1.4.2 1.9zM263.9 441.9l-13.8 8c-.8.5-2.3.4-3.3-.1l-6.6-3.8c-1-.6-1.1-1.4-.2-1.9l13.8-8c.8-.5 2.3-.4 3.3.1l6.6 3.8c.9.5 1 1.4.2 1.9zM282.5 431.1l-13.8 8c-.8.5-2.3.4-3.3-.1l-6.6-3.8c-1-.6-1.1-1.4-.2-1.9l13.8-8c.8-.5 2.3-.4 3.3.1l6.6 3.8c1 .6 1.1 1.4.2 1.9zM301.2 420.3l-13.8 8c-.8.5-2.3.4-3.3-.1l-6.6-3.8c-1-.6-1.1-1.4-.2-1.9l13.8-8c.8-.5 2.3-.4 3.3.1l6.6 3.8c.9.6 1 1.4.2 1.9zM319.8 409.6l-13.8 8c-.8.5-2.3.4-3.3-.1l-6.6-3.8c-1-.6-1.1-1.4-.2-1.9l13.8-8c.8-.5 2.3-.4 3.3.1l6.6 3.8c.9.5 1 1.4.2 1.9zM346.9 394l-22.2 12.8c-.8.5-2.3.4-3.3-.1l-6.6-3.8c-1-.6-1.1-1.4-.2-1.9l22.2-12.8c.8-.5 2.3-.4 3.3.1l6.6 3.8c.9.5 1 1.4.2 1.9z"/></g><path class="st7" d="M416.4 560.8l-44.9 25.9c-1.2.7-1.2 1.8 0 2.5l49.3-28.4c-1.2-.7-3.1-.7-4.4 0z"/><path fill="#a0afd5" d="M309.1 390.4L76.3 524.7l-3.1-1.8 232.7-134.4z"/><path class="st7" d="M40.5 318.4v208.1l-5-2.8V315.5z"/><g><path d="M327.1 376.3L51.9 535.2c-6.3 3.6-11.4 1.6-11.4-8.6V318.4c0-11.7 3.8-17.4 11.4-21.8l275.2-158.9c6.3-3.6 11.4-2 11.4 8.6v208.1c.1 13.6-4.5 17.9-11.4 21.9z" fill="#6b78bd"/><path class="st29" d="M327.9 138.9L51.1 298.6c-5.1 2.9-9.3 10.1-9.3 16v214.1c0 5.9 4.2 8.2 9.3 5.3l276.7-159.8c5.1-2.9 9.3-10.1 9.3-16V144.1c0-5.8-4.1-8.2-9.2-5.2z"/><defs><path id="XMLID_324_" d="M52.6 510.3V310.1l273.9-158.2v200.3z"/></defs><use xlink:href="#XMLID_324_" overflow="visible" fill="#6b78bd"/><clipPath id="XMLID_2_"><use xlink:href="#XMLID_324_" overflow="visible"/></clipPath><g><path opacity=".2" fill="#eff6fc" d="M288.6 374L115.3 273.9l211.2-122v200.3z"/></g></g><g><path class="st12" d="M409.9 525l-38-21.9c-2.3-1.3-5.9-1.3-8.2 0l-92.1 53.1c-2.3 1.3-2.3 3.4 0 4.8l38 21.9L409.9 525zM360.5 555.4l-49.4 28.5 20.6 11.9c2.3 1.3 5.9 1.3 8.2 0l45.2-26.1-24.6-14.3zM362.1 554.4l24.7 14.2 45.2-26.1c2.3-1.3 2.3-3.4 0-4.8l-20.6-11.9-49.3 28.6z"/></g><g><path class="st7" d="M271.6 558.3l92.1-53.1c2.3-1.3 6-1.3 8.2 0l36.2 20.9 1.8-1-38-21.9c-2.3-1.3-5.9-1.3-8.2 0l-92.1 53.1c-1.6.9-2.1 2.3-1.4 3.4.2-.5.7-1 1.4-1.4zM360.5 557.4l22.9 13.2 1.8-1-24.7-14.2-49.4 28.5 1.8 1zM411.4 528l20.6 11.9c.7.4 1.1.8 1.4 1.3.6-1.2.2-2.5-1.4-3.4l-20.6-11.9-49.4 28.5 1.8 1 47.6-27.4z"/></g><g><path fill="#c6c6c6" d="M453.8 274.1l-23-14.2L444 256l-19.2-11.8-15.5-6.5-4.1 6.5-.9 27.4 29.4 17.4z"/><path class="st7" d="M433.9 266.3l4.6-1.6 15.3 9.4-20.1 14.9-14.2-8.4z"/><path class="st12" d="M404.9 253.4l-19.2-11.8-21.8 12.6v16.9s-4.4 10.2-11.8 11.6l-10.6-4.8-16.8 24.1 12.3 7.8 7 4 14 2 14.7-10L392 289l13.3-34.9-.4-.7z"/><path class="st12" d="M331.2 343.7c1 3.8 2.7 6.9 4.9 9.4l-11.5 18.1 15.4 6.5 11.3-17.9c3.8.1 8-.5 12.4-2v16l21.8-12.6v-16c4.4-3.7 8.6-7.8 12.4-12.3l11.3 4.8 15.4-24.3-11.5-4.8c2.2-5 3.9-10.1 4.9-15.1l10.8-15.3 5.5-15.9-16.6 9.6c-1.1-3.6-2.8-6.6-5.1-9l11.8-18.6-15.4-6.5-11.9 18.8c-3.6 0-7.6.6-11.8 2v-16.9l-21.8 12.6v16.9c-4.2 3.5-8.1 7.4-11.8 11.6l-10.6-4.8-16.4 24 11.8 5c-2.2 4.9-3.9 9.9-5.1 14.8l-16.6 9.6v21.8l16.4-9.5zm71.2-28.5c-.5 1-19.6 28.2-19.6 28.2s-7.4 11.6-7.4 11.9 15.6-.9 18.1-1.6c2.5-.6 16.9-10.9 16.9-10.9l12-15.6 2.8-16.7v-17.3l-5.9-5.4-7.7 5.4s-8.7 21-9.2 22zm-51.8 9.3c0-15.1 9-35.4 24.1-44.2 15.1-8.7 27.3-3.5 27.3 11.6s-12.2 34.4-27.3 43.1c-15.1 8.8-24.1 4.6-24.1-10.5zm20.1 47.2c5.4.4 12.4-2 12.4-2v16l-18.6-12.2 6.2-1.8zm53.3-58.4s.7 4.8.9 5.1 19 6.9 19 6.9l-19.2-11.8-.7-.2z"/><path class="st7" d="M350.7 333.6l-19.2-11.8s1.2-6.5 4.5-12.6l8 4.7 11.8 5-5.1 14.7zM334.1 343.2l-19.2-11.8v21.8l19.2 11.8zM350.4 355.6s1.9 6.2 4.9 9.4l-18.6-12.2 13.7 2.8z"/><path class="st20" d="M350.4 355.6c1 3.8 2.7 6.9 4.9 9.4l-11.5 18.1 15.4 6.5 11.3-17.9c3.8.1 8-.5 12.4-2v16l21.8-12.6v-16c4.4-3.7 8.6-7.8 12.4-12.3l11.3 4.8 15.4-24.3-11.5-4.8c2.2-5 3.9-10.1 4.9-15.1l16.3-9.4v-21.8l-16.6 9.6c-1.1-3.6-2.8-6.6-5.1-9L444 256l-15.4-6.5-11.9 18.8c-3.6 0-7.6.6-11.8 2v-16.9L383 266v16.9c-4.2 3.5-8.1 7.4-11.8 11.6l-11.9-5-15.4 24.3 11.8 5c-2.2 4.9-3.9 9.9-5.1 14.8l-16.6 9.6V365l16.4-9.4zm16.2-20.3c0-15.1 12.2-34.4 27.3-43.1 15.1-8.7 27.3-3.5 27.3 11.6s-12.2 34.4-27.3 43.1c-15 8.7-27.3 3.5-27.3-11.6z"/><path class="st12" d="M324.7 371.2l19.2 11.8 11.5-18.1-5.2-3.4-6.6.6s-10.6 8.3-10.7 8.4-8.2.7-8.2.7z"/><path class="st7" d="M383 266l-19.2-11.9v17l19.2 11.8zM416.6 268.4l-11.7-7.6v-7.7L401 251l8.3-13.3 19.3 11.8z"/><g><ellipse cx="271.6" cy="495.9" rx="30.1" ry="19.3" fill="#aa1d1d"/><ellipse class="st17" cx="271.6" cy="475.3" rx="44.5" ry="28.5"/><ellipse class="st1" cx="271.6" cy="466.4" rx="44.5" ry="28.5"/><ellipse class="st17" cx="271.6" cy="457.5" rx="44.5" ry="28.5"/><linearGradient id="SVGID_4_" gradientUnits="userSpaceOnUse" x1="262.311" y1="436.579" x2="279.018" y2="246.261"><stop offset="0" stop-color="#ecb329"/><stop offset=".981" stop-color="#ffea00"/></linearGradient><path d="M272.5 245.6c-45.6-.5-83.9 36.1-85.5 81.6-.8 23.8 8.2 45.6 23.3 61.4 10.8 11.3 16.6 26.6 16.6 42.3v20.3h.1c.6 15.4 20.3 27.8 44.7 27.8 24.3 0 44.1-12.4 44.7-27.8h.1V431c0-15.6 5.7-30.9 16.5-42.2 14.5-15.2 23.5-35.8 23.5-58.5-.2-46.5-37.6-84.2-84-84.7z" fill="url(#SVGID_4_)"/><radialGradient id="SVGID_5_" cx="289.163" cy="312.762" r="58.809" gradientUnits="userSpaceOnUse"><stop offset="0" stop-color="#fff994"/><stop offset=".178" stop-color="#fff990" stop-opacity=".819"/><stop offset=".338" stop-color="#fff885" stop-opacity=".655"/><stop offset=".492" stop-color="#fff673" stop-opacity=".498"/><stop offset=".642" stop-color="#fff359" stop-opacity=".345"/><stop offset=".789" stop-color="#fff038" stop-opacity=".195"/><stop offset=".932" stop-color="#ffec0f" stop-opacity=".049"/><stop offset=".981" stop-color="#ffea00" stop-opacity="0"/></radialGradient><circle cx="289.2" cy="312.8" r="58.8" fill="url(#SVGID_5_)"/></g><g><path class="st12" d="M246.2 391.9l-23-14.2 13.2-3.8-19.2-11.9-15.5-6.5-4.1 6.5-.9 27.5 29.4 17.3z"/><path class="st7" d="M226.4 384.1l4.5-1.6 15.3 9.4-20.1 14.9-14.2-8.4z"/><path class="st12" d="M197.3 371.2L178 359.4 156.2 372v16.9s-4.4 10.2-11.8 11.6l-10.6-4.8-16.8 24.1 12.3 7.8 7 4 14 2 14.7-10 19.3-16.8 13.3-34.9-.3-.7z"/><path class="st12" d="M123.6 461.6c1 3.8 2.7 6.9 4.9 9.4l-11.4 18 15.4 6.5 11.3-17.9c3.8.1 8-.5 12.4-2v16L178 479v-16c4.4-3.7 8.6-7.8 12.4-12.3l11.3 4.8 15.4-24.3-11.5-4.8c2.2-5 3.9-10.1 4.9-15.1l10.8-15.3 5.5-15.9-16.6 9.6c-1.1-3.6-2.8-6.6-5.1-9l11.8-18.6-15.4-6.5-11.9 18.8c-3.6 0-7.6.6-11.8 2v-16.9L156.2 372v16.9c-4.2 3.5-8.1 7.4-11.8 11.6l-10.6-4.8-16.8 24.1 11.8 5c-2.2 4.9-3.9 9.9-5.1 14.8l-16.6 9.6V471l16.5-9.4zm71.3-28.6c-.5 1-19.6 28.2-19.6 28.2s-7.4 11.6-7.4 11.9c0 .3 15.6-.9 18.1-1.6 2.5-.6 16.9-10.9 16.9-10.9l12-15.6 2.8-16.7V411l-5.9-5.4-7.7 5.4c-.1.1-8.7 21-9.2 22zm-51.9 9.3c0-15.1 9-35.4 24.1-44.2 15.1-8.7 27.3-3.5 27.3 11.6s-12.2 34.4-27.3 43.1c-15.1 8.8-24.1 4.6-24.1-10.5zm20.1 47.2c5.4.4 12.4-2 12.4-2v16l-18.6-12.2 6.2-1.8zm53.4-58.4s.7 4.8.9 5.1c.3.3 19 6.9 19 6.9l-19.2-11.8-.7-.2z"/><path class="st7" d="M143.1 451.4l-19.2-11.8s1.2-6.5 4.5-12.6l8 4.7 11.8 5-5.1 14.7zM126.5 461l-19.2-11.8V471l19.2 11.8zM142.8 473.4s1.9 6.2 4.9 9.4l-18.6-12.2 13.7 2.8z"/><path class="st20" d="M142.8 473.4c1 3.8 2.7 6.9 4.9 9.4l-11.5 18.1 15.4 6.5 11.3-17.9c3.8.1 8-.5 12.4-2v16l21.8-12.6v-16c4.4-3.7 8.6-7.8 12.4-12.3l11.3 4.8 15.4-24.3-11.5-4.8c2.2-5 3.9-10.1 4.9-15.1l16.3-9.4V392l-16.6 9.6c-1.1-3.6-2.8-6.6-5.1-9L236 374l-15.4-6.5-11.6 18.7c-3.6 0-7.6.6-11.8 2v-16.9l-21.8 12.6v16.9c-4.2 3.5-8.1 7.4-11.8 11.6l-11.9-5-15.4 24.3 11.8 5c-2.2 4.9-3.9 9.9-5.1 14.8l-16.6 9.6v21.8l16.4-9.5zm16.2-20.2c0-15.1 12.2-34.4 27.3-43.1 15.1-8.7 27.3-3.5 27.3 11.6s-12.2 34.4-27.3 43.1c-15 8.6-27.3 3.5-27.3-11.6z"/><path class="st12" d="M117.1 489l19.2 11.8 11.5-18.1-5.2-3.4-6.6.7s-10.6 8.3-10.7 8.4c-.2 0-8.2.6-8.2.6z"/><path class="st7" d="M175.5 383.8L156.2 372v16.9l19.3 11.8zM209 386.2l-11.7-7.5V371l-3.9-2.2 8.3-13.3 19.3 11.8z"/></g></g><g><path class="st23" d="M263.7 570.1s-.7 12.6-1.7 13.9c-1 1.3-4.4 1-5.4-.7s2.7-12.7 2.7-12.7l4.4-.5z"/><path class="st21" d="M285.9 457.5l4 25-3 49.9-2.8 37.4c-.2 1.6.6 2.6-1.1 2.9-2.4.5-4.6-1.5-4.5-3.9l1.2-39.5 1.3-36.2-8.8.7-4 42.9-5.1 33.8-3.8.9.9-36.8 4-49.3 2.2-16.2 8.4-1.8 11.1-9.8z"/><path class="st23" d="M284 569.8l8.9 4.8-.6 1.1c-2.5.5-3.5.3-5.8-.7l-7.8-3.5-.2-2.7 5.5 1z"/><path class="st3" d="M273.1 459.3L261.5 477l-6.2 45.9s19.8 6.5 28.6 1.5 8.4-7.2 8.4-7.2l-1.8-39.6-9.7-26.8c-.2-3.4-1.5-8.5-4.9-9.1l-1.2-4-8.8 2.4h.9c-2.6 1.8-.8.6-1.5 3.7l7.8 15.5z"/><path class="st21" d="M267.2 433.1l14.5-1.3-4.3 14.6z"/><path class="st19" d="M260.9 412.6c0 7.2 5.8 13 13 13s13-5.8 13-13-5.8-13-13-13c-7.2.1-13 5.9-13 13z"/><ellipse transform="rotate(-43.886 266.021 403.467)" class="st19" cx="266" cy="403.5" rx="7.4" ry="7.4"/><path d="M283.5 431.6s22.5 21.1 22.8 20.2c.3-.9 10.7-19.2 10.7-19.2l3 1.8-10 24.2c-.8 1.9-3.1 2.8-5 1.9l-22.1-9.2.6-19.7z" fill="#d9e6f4"/><path class="st21" d="M275.3 402c6.1 0 11 4.9 11 11v7c0 6.1-4.9 11-11 11s-11-4.9-11-11v-7c0-6 5-11 11-11z"/><path class="st19" d="M275.3 402c-6.1 0-11 5-11 11v5.7c3.5-1.5 5.9-4.9 5.9-9 0-.9-.2-1.7-.4-2.6 1.6 1.1 3.5 1.8 5.6 1.8 3.1 0 5.9-1.5 7.6-3.8-1.9-1.8-4.6-3.1-7.7-3.1z"/><path class="st20" d="M288 458.1l3.3-4.9c1.5-2.3 1.7-5.2.4-7.6l-1.9-3.7c-2.9-3.8-3-9.7-6.3-10.4l-22.1 2-.7.5c-1.7 1.2-2.8 8.7-.4 16.1 1.3 3.8 6.7 10.3 6.7 10.3l-5.9 16.8c1 1.3 3 2.9 6.8 3 5.9.3 19-.4 23.3-3l-3.2-19.1z"/><path class="st20" d="M260.7 434.1l-16.8 27.1 6.1 28.6 4.5.6-.9-28.6 14-18.6z"/><path fill="#ecb329" d="M242.4 487.9l22.5 8-4 21.6-23.1-8.9z"/><circle class="st21" cx="251.8" cy="492.5" r="3.9"/><path transform="rotate(-50.327 318.233 428.134)" class="st23" d="M317.8 419h.9v18.4h-.9z"/><circle class="st21" cx="319.4" cy="431.5" r="3.9"/></g></g></svg>