<svg width="800" height="800" xmlns="http://www.w3.org/2000/svg"><linearGradient id="a" gradientTransform="matrix(-1 0 0 1 512.122 0)" gradientUnits="userSpaceOnUse" x1="259.662" x2="277.937" y1="580.88" y2="372.7"><stop offset="0" stop-color="#ecb329"/><stop offset=".981" stop-color="#ffea00"/></linearGradient><radialGradient id="b" cx="289.035" cy="445.441" gradientTransform="matrix(-1 0 0 1 512.122 0)" gradientUnits="userSpaceOnUse" r="64.328"><stop offset="0" stop-color="#fff994"/><stop offset=".178" stop-color="#fff990" stop-opacity=".819"/><stop offset=".338" stop-color="#fff885" stop-opacity=".655"/><stop offset=".492" stop-color="#fff673" stop-opacity=".498"/><stop offset=".642" stop-color="#fff359" stop-opacity=".345"/><stop offset=".789" stop-color="#fff038" stop-opacity=".195"/><stop offset=".932" stop-color="#ffec0f" stop-opacity=".049"/><stop offset=".981" stop-color="#ffea00" stop-opacity="0"/></radialGradient><path d="M380.6 138l124 71.2v228.7l-124-71.2z" fill="#fc3"/><path d="M662.6 187.6l124 71.2v339.7l-124-71.2z" fill="#c33"/><path d="M252.2 210.5l124 71.2v228.7l-124-71.2z" fill="#fc3"/><path d="M376.2 281.7l128.4-72.5v228.6l-128.4 72.6z" fill="#d8a016"/><path d="M521.6 310.7l124 71.2v137.2l-124-71.2z" fill="#c60"/><path d="M517.2 454.5l128.4-72.6v137.2l-128.4 72.6z" fill="#9e4b00"/><path d="M393.2 383.3l128.4-72.6 124 71.2-128.4 72.6z" fill="#f28f36"/><path d="M393.2 383.3l124 71.2v137.2l-124-71.2z" fill="#c60"/><path d="M534.2 260.2l124 71.2v339.7l-124-71.2z" fill="#c33"/><path d="M658.2 331.4l128.4-72.6v339.8l-128.4 72.5z" fill="#aa1d1d"/><path d="M534.2 260.2l128.4-72.6 124 71.2-128.4 72.6z" fill="#ea6868"/><path d="M252.2 210.5L380.6 138l124 71.2-128.4 72.5z" fill="#ffe5a4"/><path d="M677.1 268.2c0 4.1-8.6 7.4-19.2 7.4s-19.2-3.3-19.2-7.4 8.6-7.4 19.2-7.4 19.2 3.3 19.2 7.4z" fill="#aa1d1d" opacity=".4"/><path d="M644 170.1l-2.3 20.8 1.8 38.8 4 31.8c.2 1.3 1.1 2.3 2.4 2.6 1.9.4 3.7-1.2 3.6-3.1l-.9-31.3-1.1-28.7 7 .5 3.2 31 4 29.7c.3 1.9 1.9 3.4 3.9 3.6 2.8.2 5-2.1 4.7-4.8l-3.6-29.8-2.2-38.1L663 182l-6.7-1.4z" fill="#282642"/><path d="M647.5 154l.4-4.1 4 1.5 5-1.8 1.4 6-4.2 2.8-5.9-1.1z" fill="#fff"/><path d="M651.8 130.1c-4 0-7.3 3.3-7.3 7.2v4.6c0 4 3.3 7.2 7.3 7.2s7.3-3.3 7.3-7.2v-4.6c0-3.9-3.3-7.2-7.3-7.2zM616.9 115.8c-1.2.7-1.7 2.3-1 3.5l.8 1.4c.7 1.2 2.3 1.7 3.5 1s1.7-2.3 1-3.5l-.8-1.4c-.7-1.3-2.3-1.7-3.5-1zM693.3 115.6c-1.2-.8-2.8-.4-3.6.8l-.9 1.4c-.8 1.2-.4 2.8.8 3.6s2.8.4 3.6-.8l.9-1.4c.8-1.3.4-2.9-.8-3.6z" fill="#eebcc5"/><path d="M622.7 120.4l25 31.8s2.9 2.3 4.3 2.3 5.6-1.4 5.6-1.4l29.4-32.5 3.8 3.8-25.4 36.2 2.9 32.7s-13 4.7-17.2 3.3c-4.3-1.4-9.5-5.9-9.5-5.9l-.5-29.6-22.1-37.5z" fill="#fff"/><path d="M649.5 178.4l2 3.5 3.3-3.5-2.2-25.2-1.1.3z" fill="#ecb329"/><path d="M649.1 261.8l-9.1 4.5 1.2.2c2 .4 4 .1 5.9-.7l6.2-2.7.1-2.2zM667.5 262.9s.8 8 1.6 9c.8 1.1 3.5.8 4.3-.5s-2.1-10.1-2.1-10.1z" fill="#282642"/><path d="M650 151h3.9l-1.8 3.5z" fill="#ecb329"/><path d="M659 137.1c-.2-3.9-3.3-7-7.3-7-1.8 0-3.5.7-4.7 1.8 1 1 3.6 2.1 4.2 2.4 1.1.5 2.3 1 3.4 1.4 1.5.6 3 1 4.4 1.4zM644.5 137.4v.8c1.2-.5 2.1-1.5 2.5-2.8.3-.9.3-2.5-.1-3.4-1.5 1.3-2.4 3.2-2.4 5.4z" fill="#282642"/><path d="M659.1 137.4c0-1.4-.4-2.7-1.1-3.8-.2.5-.4 1-.4 1.5-.1 1 .1 1.9.4 2.8.2.5.4 1 .8 1.3.1.1.2.1.3.2z" fill="#282642"/><g fill="#00218c"><path d="M440.1 556.4h-.1c-.6-.1-1-.6-.9-1.1l15.4-156c.1-.6.6-1 1.1-.9.6.1 1 .6.9 1.1l-15.4 156c-.1.5-.5.9-1 .9zM415.8 547.1h-.1c-.6-.1-1-.6-.9-1.1l15.4-156c.1-.6.6-1 1.1-.9.6.1 1 .6.9 1.1l-15.4 156c0 .5-.5.9-1 .9z"/><path d="M447.2 480.9c-.2 0-.3 0-.5-.1l-23.5-12.2c-.5-.3-.7-.9-.4-1.4s.9-.7 1.4-.4l23.5 12.2c.5.3.7.9.4 1.4-.2.3-.6.5-.9.5zM446 494.3c-.2 0-.3 0-.5-.1L422 481.9c-.5-.3-.7-.9-.4-1.4s.9-.7 1.4-.4l23.5 12.2c.5.3.7.9.4 1.4-.2.4-.5.6-.9.6zM444.8 507.6c-.2 0-.3 0-.5-.1l-23.5-12.2c-.5-.3-.7-.9-.4-1.4s.9-.7 1.4-.4l23.5 12.2c.5.3.7.9.4 1.4-.1.3-.5.5-.9.5zM443.6 520.9c-.2 0-.3 0-.5-.1l-23.5-12.2c-.5-.3-.7-.9-.4-1.4s.9-.7 1.4-.4l23.5 12.2c.5.3.7.9.4 1.4-.1.3-.5.5-.9.5zM448.9 468.4c-.2 0-.3 0-.5-.1L425 456c-.5-.3-.7-.9-.4-1.4s.9-.7 1.4-.4l23.5 12.2c.5.3.7.9.4 1.4-.2.4-.6.6-1 .6z"/><path d="M447.2 480.9c-.2 0-.3 0-.5-.1l-23.5-12.2c-.5-.3-.7-.9-.4-1.4s.9-.7 1.4-.4l23.5 12.2c.5.3.7.9.4 1.4-.2.3-.6.5-.9.5zM446 494.3c-.2 0-.3 0-.5-.1L422 481.9c-.5-.3-.7-.9-.4-1.4s.9-.7 1.4-.4l23.5 12.2c.5.3.7.9.4 1.4-.2.4-.5.6-.9.6zM444.8 507.6c-.2 0-.3 0-.5-.1l-23.5-12.2c-.5-.3-.7-.9-.4-1.4s.9-.7 1.4-.4l23.5 12.2c.5.3.7.9.4 1.4-.1.3-.5.5-.9.5zM443.6 520.9c-.2 0-.3 0-.5-.1l-23.5-12.2c-.5-.3-.7-.9-.4-1.4s.9-.7 1.4-.4l23.5 12.2c.5.3.7.9.4 1.4-.1.3-.5.5-.9.5zM442.5 534.2c-.2 0-.3 0-.5-.1l-23.5-12.2c-.5-.3-.7-.9-.4-1.4s.9-.7 1.4-.4l23.5 12.2c.5.3.7.9.4 1.4-.2.3-.5.5-.9.5zM440.4 547.1c-.2 0-.3 0-.5-.1l-23.5-12.2c-.5-.3-.7-.9-.4-1.4s.9-.7 1.4-.4l23.5 12.2c.5.3.7.9.4 1.4-.2.3-.5.5-.9.5zM419.5 520.1l23.5 12.2"/></g><path d="M428 391.3l-7.5 18.6c-.5 1.2-.6 2.6-.4 3.9l6.1 14.9s5.6-.9 5.2-3.5 1.1-6.3-.4-9.3-3.7-6-3.7-6l3.7-15.4z" fill="#fff"/><path d="M444.5 449l-1.4 36.9-6.2-1.2-1-.2s-.7-28.9-1.3-29c-.7-.1-5.1-2.9-5.1-2.9l-1.7 21.5-7.4-.8s-.1-30.4 4.3-28.9c.7.2 9.2.3 9.8.7.7.3 10 3.9 10 3.9z" fill="#c03"/><path d="M431 388c-1.6 0-3 1.5-3 3.3s1.3 3.3 3 3.3c1.6 0 3-1.5 3-3.3-.1-1.8-1.4-3.3-3-3.3z" fill="#8c5a50"/><path d="M426.5 414.1l-3.9 28.8s2.8 8.1 9.5 8.5 12.7-1.5 12.7-1.5l1.5-28.4s-2.2-3-7.1-4.8c-4.9-1.9-12.7-2.6-12.7-2.6z" fill="#fff"/><path d="M446.3 421.5s7.5 17.5 8.2 20.8 0 6.7-3 5.6-9.8-11.6-9.8-13.1-.3-12.2-.3-12.2z" fill="#fff"/><path d="M452.6 423.6s-2.9 11.1-2.8 11.5 2.5 12.7 2.5 12.7 3.1 3.6 2.5-9.4c-.5-13-.3-14.4-.3-14.4z" fill="#fff"/><path d="M453.9 420.4c-1.6 0-3 1.5-3 3.3s1.3 3.3 3 3.3c1.6 0 3-1.5 3-3.3-.1-1.8-1.4-3.3-3-3.3zM431.5 400c-4 1.2-6.1 5.6-4.8 10s5.5 7 9.5 5.8 6.1-5.6 4.8-10-5.6-7-9.5-5.8z" fill="#8c5a50"/><path d="M431.5 400c-4 1.2-6.1 5.6-4.8 10 .5 1.7 1.4 3 2.6 4.1 1.6.8 3.4 1.1 5.2.6 4-1.2 6.1-5.6 4.8-10-.5-1.7-1.4-3-2.6-4.1-1.6-.9-3.4-1.1-5.2-.6z" fill="#282642"/><path d="M436.6 406.8c-1 .9-1 2.6 0 3.7.4.4.9.7 1.4.9.6 0 1.2-.2 1.7-.6 1-.9 1-2.6 0-3.7-.4-.4-.9-.7-1.4-.9-.7 0-1.3.2-1.7.6z" fill="#8c5a50"/><path d="M421.5 473.4l-.8 2.7s1 8.3 5.3 7.9c1.7-.4.4-8.1.4-8.1l.2-1.9zM437 484.7l-.7 2.8s.8 4.1 6.6 3c0 0 3.3-1 .8-3l-2.5-1.1-.2-.8z" fill="#282642"/><path d="M397.9 215.7c0 3.8-8 6.9-17.9 6.9s-17.9-3.1-17.9-6.9 8-6.9 17.9-6.9 17.9 3.1 17.9 6.9z" fill="#db9e16" opacity=".4"/><path d="M371.9 112.2c0 4.5 3.6 8.1 8.1 8.1s8.1-3.6 8.1-8.1-3.6-8.1-8.1-8.1-8.1 3.7-8.1 8.1z" fill="#282642"/><path d="M368.5 107.3c0 2.5 2.1 4.6 4.6 4.6 2.6 0 4.6-2.1 4.6-4.6s-2.1-4.6-4.6-4.6-4.6 2-4.6 4.6z" fill="#282642"/><path d="M382.1 106c3.8 0 6.9 3.1 6.9 6.9v4.3c0 3.8-3.1 6.9-6.9 6.9s-6.9-3.1-6.9-6.9v-4.3c0-3.8 3.1-6.9 6.9-6.9z" fill="#8c5a50"/><path d="M373.4 212.9s-.6 6.3-1.3 7.1c-.6.8-2.7.6-3.4-.4-.6-1 1.7-7.9 1.7-7.9z" fill="#00218c"/><path d="M391.9 140l1.8 16.3-1.4 30.5-3.1 25c-.1 1-.9 1.8-1.9 2-1.5.3-2.9-.9-2.8-2.4l.7-24.6.8-22.6-5.5.4L378 189l-3.2 23.4c-.3 1.5-1.5 2.7-3.1 2.8-2.2.2-4-1.6-3.7-3.8l2.8-23.4-.5-28.9 6.5-9.9 5.2-1.1z" fill="#c03"/><path d="M387.9 212.1l7.1 3.6-1 .2c-1.6.3-3.2.1-4.6-.5l-4.9-2.2-.1-1.7z" fill="#00218c"/><path d="M391.2 126.6l12.5 18 10.9 14.1-2.1 2.2-12.5-11.5-10.7-13.3-1.6-6.7z" fill="#c60"/><path d="M382.1 106c-3.8 0-6.9 3.1-6.9 6.9v3.6c2.2-.9 3.7-3.1 3.7-5.6 0-.6-.1-1.1-.2-1.6 1 .7 2.2 1.1 3.5 1.1 2 0 3.7-.9 4.8-2.3-1.3-1.3-3-2.1-4.9-2.1z" fill="#282642"/><ellipse cx="349.6" cy="92" fill="#8c5a50" rx="2.4" ry="2.4"/><path d="M418.1 161.7c0 1.3-1.1 2.4-2.4 2.4s-2.4-1.1-2.4-2.4 1.1-2.4 2.4-2.4 2.4 1 2.4 2.4z" fill="#8c5a50"/><path d="M387.6 125.9l3.6.7 1 16.9 1.4 12.1s.2 1.4-5.3 4.5-17.9-1-17.9-1l-.1-22.7L349 95.3l3.1-1.5 22.1 30.4z" fill="#c60"/><path d="M387.4 126l-3.9 8.5-5.5-9.6z" fill="#8c5a50"/><path d="M43 403.1l25.2-15.5-14.5-4.2 21.1-13 16.8-7.1 4.6 7.1 1 30.1L65 419.4z" fill="#c6c6c6"/><path d="M64.7 394.6l-5-1.8L43 403.1l22 16.3 15.5-9.1z" fill="#7e93fc"/><path d="M96.5 380.5l21-13 23.9 13.8v18.5s4.8 11.2 12.9 12.7l11.6-5.3 18.3 26.4-13.4 8.6-7.6 4.4-15.3 2.2-16-11-21.1-18.4-14.6-38.2z" fill="#d0ddfe"/><path d="M195 489.6v-23.9l-18.1-10.5c-1.2-5.3-3.1-10.8-5.5-16.2l12.9-5.5-18.3-26.4-11.6 5.3c-4-4.6-8.3-8.9-12.9-12.7v-18.5l-23.9-13.8v18.5c-4.6-1.5-8.9-2.2-12.9-2.1l-13.1-20.6-16.9 7.1 12.9 20.4c-2.4 2.6-4.3 5.9-5.5 9.8L64 390.2l6 17.4 11.8 16.8c1.1 5.4 3 11 5.4 16.5l-12.5 5.3 16.9 26.6 12.4-5.2c4.1 4.9 8.7 9.5 13.5 13.5v17.5l23.9 13.8v-17.5c4.8 1.6 9.4 2.3 13.5 2.1l12.4 19.5 16.9-7.1-12.5-19.8c2.4-2.7 4.3-6.2 5.4-10.3zM89.2 424.1l-8.4-5.9-6.5 5.9v19l3 18.3 13.1 17.1s15.7 11.2 18.5 11.9c2.7.7 19.8 2 19.8 1.7s-8.1-13-8.1-13-20.8-29.7-21.4-30.8c-.6-1.3-10-24.2-10-24.2zm40.3 45.7c-16.5-9.5-29.9-30.7-29.9-47.2s13.4-22.2 29.9-12.6c16.5 9.5 26.4 31.8 26.4 48.3s-9.9 21.1-26.4 11.5zm11.3 42.1l-20.4 13.4v-17.5s7.6 2.6 13.5 2.1zm-66-65.7l-21 13s20.5-7.3 20.8-7.5c.3-.3 1-5.6 1-5.6z" fill="#d0ddfe"/><path d="M155.8 468.3l21-13s-1.3-7.1-4.9-13.8l-8.8 5.1-12.9 5.5zM173.9 478.7l21.1-12.9v23.8l-21.1 13zM156.1 492.3s-2.1 6.8-5.4 10.3l20.4-13.3z" fill="#7e93fc"/><path d="M173.9 502.6v-23.9l-18.1-10.5c-1.2-5.3-3.1-10.8-5.5-16.2l12.9-5.5-16.9-26.5-13.1 5.5c-4-4.6-8.3-8.9-12.9-12.7v-18.5l-23.9-13.8V399c-4.6-1.5-8.9-2.2-12.9-2.1l-13.1-20.6-16.9 7.1 12.9 20.4c-2.4 2.6-4.3 5.9-5.5 9.8L43 403.1V427l17.9 10.3c1.1 5.4 3 11 5.4 16.5l-12.5 5.3 16.9 26.6 12.4-5.2c4.1 4.9 8.7 9.5 13.5 13.5v17.5l23.9 13.8v-17.5c4.8 1.6 9.4 2.3 13.5 2.1l12.4 19.5 16.9-7.1-12.5-19.8c2.4-2.7 4.3-6.2 5.4-10.3zm-65.4-19.8c-16.5-9.5-29.9-30.7-29.9-47.2S92 413.4 108.5 423s29.9 30.7 29.9 47.2-13.4 22.1-29.9 12.6z" fill="#fff"/><path d="M184.3 509.4l-21 13-12.5-19.8 5.7-3.7 7.2.7s11.6 9.1 11.7 9.2 8.9.6 8.9.6z" fill="#d0ddfe"/><path d="M120.4 394.3l21-13v18.5l-21 13zM83.7 396.9l12.8-8.3v-8.4l4.2-2.3-9.1-14.6-21 13z" fill="#7e93fc"/><ellipse cx="242.3" cy="645.7" fill="#aa1d1d" rx="32.9" ry="21.1"/><ellipse cx="242.3" cy="623.3" fill="#ea6868" rx="48.7" ry="31.2"/><ellipse cx="242.3" cy="613.5" fill="#c33" rx="48.7" ry="31.2"/><ellipse cx="242.3" cy="603.8" fill="#ea6868" rx="48.7" ry="31.2"/><path d="M241.3 372c49.9-.5 91.8 39.5 93.5 89.3.9 26.1-9 49.8-25.5 67.2-11.8 12.4-18.1 29.1-18.1 46.2V597h-.1c-.6 16.9-22.2 30.4-48.8 30.4s-48.2-13.6-48.8-30.4h-.1v-22.2c0-17.1-6.2-33.8-18-46.1-15.9-16.6-25.7-39.2-25.7-64-.1-50.9 40.9-92.2 91.6-92.7z" fill="url(#a)"/><circle cx="223.1" cy="445.4" fill="url(#b)" r="64.3"/><path d="M270 532l25.3-15.5-14.5-4.2 21-13 16.9-7.1 4.5 7.1 1 30-32.2 19z" fill="#d0ddfe"/><path d="M291.8 523.5l-5-1.8L270 532l22 16.3 15.6-9.2z" fill="#7e93fc"/><path d="M323.6 509.4l21-13 23.9 13.8v18.5s4.8 11.2 12.9 12.7l11.6-5.3 18.3 26.4-13.4 8.6-7.6 4.4-15.3 2.2-16-11-21.1-18.4-14.6-38.2z" fill="#d0ddfe"/><path d="M422.1 618.5v-23.9L404 584.1c-1.2-5.3-3.1-10.8-5.5-16.2l12.9-5.5-18.4-26.3-11.6 5.3c-4-4.6-8.3-8.9-12.9-12.7v-18.5l-23.9-13.8v18.5c-4.6-1.5-8.9-2.2-12.9-2.1l-13.1-20.6-16.9 7.1 12.9 20.4c-2.4 2.6-4.3 5.9-5.5 9.8l-18-10.5 6 17.4 11.8 16.8c1.1 5.4 3 11 5.4 16.5l-12.5 5.3 16.9 26.6 12.4-5.2c4.1 4.9 8.7 9.5 13.5 13.5v17.5l23.9 13.8v-17.5c4.8 1.6 9.4 2.3 13.5 2.1l12.4 19.5 16.9-7.1-12.5-19.8c2.4-2.7 4.3-6.2 5.4-10.3zM316.3 553l-8.4-5.9-6.5 5.9v19l3 18.3 13.1 17.1s15.7 11.2 18.5 11.9 19.8 2 19.8 1.7-8.1-13-8.1-13-20.8-29.7-21.4-30.8c-.6-1.3-10-24.2-10-24.2zm40.3 45.7c-16.5-9.5-29.9-30.7-29.9-47.2s13.4-22.2 29.9-12.6c16.5 9.5 26.4 31.8 26.4 48.3s-9.9 21-26.4 11.5zm11.2 42l-20.4 13.4v-17.5s7.6 2.6 13.5 2.1zm-66-65.7l-21 13s20.5-7.3 20.8-7.5c.3-.3 1-5.6 1-5.6z" fill="#d0ddfe"/><path d="M382.9 597.1l21-13s-1.3-7.1-4.9-13.8l-8.8 5.1-12.9 5.5zM401 607.6l21.1-12.9v23.8l-21.1 13zM383.1 621.2s-2.1 6.8-5.4 10.3l20.4-13.3z" fill="#7e93fc"/><path d="M401 631.5v-23.9l-18.1-10.5c-1.2-5.3-3.1-10.8-5.5-16.2l12.9-5.5-16.9-26.6-13.1 5.5c-4-4.6-8.3-8.9-12.9-12.7v-18.5l-23.9-13.8v18.5c-4.6-1.5-8.9-2.2-12.9-2.1l-13.1-20.6-16.9 7.1 12.9 20.4c-2.4 2.6-4.3 5.9-5.5 9.8L270 532v23.9l17.9 10.3c1.1 5.4 3 11 5.4 16.5l-12.5 5.3 16.9 26.6 12.4-5.2c4.1 4.9 8.7 9.5 13.5 13.5v17.5l23.9 13.8v-17.5c4.8 1.6 9.4 2.3 13.5 2.1l12.4 19.5 16.9-7.1-12.5-19.8c2.4-2.7 4.3-6.2 5.4-10.3zm-65.5-19.9c-16.5-9.5-29.9-30.7-29.9-47.2s13.4-22.2 29.9-12.6c16.5 9.5 29.9 30.7 29.9 47.2s-13.4 22.2-29.9 12.6z" fill="#fff"/><path d="M411.3 638.3l-21 13-12.5-19.8 5.7-3.7 7.2.7s11.6 9.1 11.7 9.2c.1-.1 8.9.6 8.9.6z" fill="#d0ddfe"/><path d="M347.5 523.2l21-13v18.5l-21 13zM310.7 525.7l12.9-8.2v-8.4l4.2-2.4-9.1-14.5-21 12.9z" fill="#7e93fc"/><path d="M139.1 662.9s.6 9.9 1.4 11 3.4.8 4.2-.5-2.1-10-2.1-10z" fill="#00218c"/><path d="M121.7 574.4l-3.1 19.6 2.4 39.2 2.2 29.4c.2 1.3-.4 2 .8 2.3 1.9.4 3.6-1.1 3.5-3.1l-.9-31-1.1-28.4 6.9.5 3.1 33.7 4 26.6 3 .7-.7-28.9-3.1-38.7-1.7-12.7-6.6-1.4z" fill="#eebcc5"/><path d="M123.2 662.6l-7 3.7.5.8c2 .4 2.8.3 4.6-.6l6.2-2.7.1-2.1z" fill="#00218c"/><path d="M131.7 575.8l9.1 13.9 4.9 36.1s-15.6 5.1-22.5 1.2-6.6-5.7-6.6-5.7l1.4-31.1 7.7-21c.2-2.7 1.2-6.6 3.8-7.2l1-3.1 6.9 1.9h-.7c2 1.4.6.5 1.2 2.9z" fill="#c60"/><path d="M136.4 555.2l-11.5-1 3.5 11.5z" fill="#eebcc5"/><path d="M141.3 539.1c0 5.6-4.6 10.2-10.2 10.2s-10.2-4.6-10.2-10.2 4.6-10.2 10.2-10.2c5.6.1 10.2 4.6 10.2 10.2z" fill="#282642"/><ellipse cx="137.3" cy="531.9" fill="#282642" rx="5.8" ry="5.8" transform="rotate(-46.114 137.31 531.95)"/><path d="M123.6 554s-17.7 16.6-17.9 15.9-8.4-15.1-8.4-15.1l-2.4 1.4 7.9 19c.6 1.5 2.4 2.2 3.9 1.5l17.4-7.2z" fill="#d9e6f4"/><path d="M130 530.8c-4.8 0-8.7 3.9-8.7 8.6v5.5c0 4.8 3.9 8.7 8.6 8.7 4.8 0 8.7-3.9 8.7-8.6v-5.5c0-4.8-3.9-8.7-8.6-8.7z" fill="#eebcc5"/><path d="M130 530.8c4.8 0 8.6 3.9 8.6 8.7v4.5c-2.7-1.2-4.6-3.9-4.6-7 0-.7.1-1.4.3-2-1.2.9-2.8 1.4-4.4 1.4-2.4 0-4.6-1.2-6-3 1.6-1.6 3.7-2.6 6.1-2.6z" fill="#282642"/><path d="M120 574.9l-2.6-3.8c-1.2-1.8-1.3-4.1-.3-6l1.5-2.9c2.3-3 2.3-7.6 5-8.1l17.4 1.6.5.4c1.3.9 2.2 6.8.3 12.6-1 3-5.3 8.1-5.3 8.1l4.6 13.2c-.8 1.1-2.4 2.2-5.4 2.4-4.7.2-15-.3-18.3-2.3z" fill="#fff"/><path d="M141.5 556l13.2 21.3-4.8 22.4-3.6.5.7-22.5-11-14.6z" fill="#fff"/><path d="M155.9 598.3l-17.7 6.2 3.1 17 18.2-6.9z" fill="#ecb329"/><circle cx="148.5" cy="601.9" fill="#eebcc5" r="3"/><path d="M90.549 555.658l11.084-9.193.446.54-11.083 9.192z" fill="#00218c"/><circle cx="95.4" cy="553.9" fill="#eebcc5" r="3"/></svg>