<svg id="Layer_1" data-name="Layer 1" xmlns="http://www.w3.org/2000/svg" viewBox="0 0 523.23 521.42"><defs><style>.cls-1{fill:#d1dbef}.cls-2{fill:#808cc5}.cls-4{fill:#2b2e6e}.cls-6{fill:#6b78b9}.cls-9{fill:#fff}.cls-11{fill:#e96768}.cls-15{fill:#293580}.cls-16{fill:#edbbc3}.cls-18{fill:#282642}</style><linearGradient id="Degradado_sin_nombre_16" x1="-6065.47" y1="280.67" x2="-6055.09" y2="162.32" gradientTransform="matrix(-1 0 0 1 -5812.51 0)" gradientUnits="userSpaceOnUse"><stop offset="0" stop-color="#eab226"/><stop offset=".98" stop-color="#fde800"/></linearGradient><radialGradient id="Degradado_sin_nombre_22" cx="-6048.78" cy="203.67" r="36.57" gradientTransform="matrix(-.97 -.23 -.23 .97 -5607.3 -1371.76)" gradientUnits="userSpaceOnUse"><stop offset="0" stop-color="#fcf396"/><stop offset=".14" stop-color="#fcf394" stop-opacity=".99"/><stop offset=".27" stop-color="#fcf28d" stop-opacity=".94"/><stop offset=".39" stop-color="#fcf282" stop-opacity=".87"/><stop offset=".5" stop-color="#fcf073" stop-opacity=".77"/><stop offset=".62" stop-color="#fcef5f" stop-opacity=".63"/><stop offset=".73" stop-color="#fded47" stop-opacity=".47"/><stop offset=".84" stop-color="#fdeb2a" stop-opacity=".28"/><stop offset=".95" stop-color="#fde909" stop-opacity=".06"/><stop offset=".98" stop-color="#fde800" stop-opacity="0"/></radialGradient></defs><path class="cls-1" d="M390.9 336.6V207.18c0-7.27-2.37-10.81-7.1-13.58L212.65 94.79c-1.74-1-3.34-1.37-4.58-.87s2.88-1.67 3.15-1.77c1.23-.47 2.81-.1 4.53.89l171.14 98.81c4.73 2.77 7.11 6.31 7.11 13.59v129.41c0 3.48-1 5.44-2.47 6.13l-2.53 1.45c1.16-.88 1.9-2.76 1.9-5.83zM270.62 422.76c-4.54 2.61-11.4 2.9-15.32.63L84.16 324.58a4.57 4.57 0 0 1-2.65-3.81v-7a4.65 4.65 0 0 0 2.64 3.6l171.15 98.8c3.92 2.26 10.78 2 15.32-.64z"/><path class="cls-2" d="M270.62 415.53l112.08-64.71c2.3-1.33 3.55-3 3.72-4.62v6.53a3.64 3.64 0 0 1 0 .66v.05c-.18 1.62-1.43 3.28-3.72 4.61l-112.08 64.71z"/><path d="M131 282.12l-45.74 26.39c-4.54 2.62-5 6.58-1.1 8.85l171.14 98.81c3.92 2.26 10.78 2 15.32-.64l45.73-26.4z" fill="#ebf1f9"/><path class="cls-1" d="M316.35 389.13l66.35-38.31c4.53-2.62 5-6.58 1.1-8.84l-171.15-98.81c-3.92-2.27-10.78-2-15.31.63L131 282.12z"/><path class="cls-4" d="M344.74 350.8l8.57 4.95a2.27 2.27 0 0 0 2-.09l8.2-4.74c.61-.35.68-.87.15-1.18l-8.56-4.94a2.3 2.3 0 0 0-2 .08l-8.21 4.74c-.6.38-.67.88-.15 1.18zM333.16 344.11l8.56 4.95a2.27 2.27 0 0 0 2-.09l8.21-4.74c.6-.34.67-.87.14-1.18l-8.56-4.94a2.27 2.27 0 0 0-2 .09l-8.21 4.73c-.6.35-.67.88-.14 1.18zM321.57 337.42l8.56 4.95a2.29 2.29 0 0 0 2.05-.09l8.2-4.74c.61-.34.67-.87.15-1.18l-8.53-4.94a2.27 2.27 0 0 0-2 .09l-8.2 4.73c-.69.35-.75.88-.23 1.18zM310 330.73l8.57 4.95a2.27 2.27 0 0 0 2-.09l8.2-4.74c.61-.34.67-.87.15-1.17l-8.56-4.95a2.29 2.29 0 0 0-2.05.09l-8.2 4.73c-.59.35-.65.88-.11 1.18zM298.39 324l8.61 5a2.27 2.27 0 0 0 2-.09l8.21-4.74c.6-.34.67-.87.14-1.17l-8.56-5a2.27 2.27 0 0 0-2 .09l-8.21 4.73c-.64.39-.71.92-.19 1.18zM286.81 317.35l8.56 4.95a2.27 2.27 0 0 0 2-.09l8.21-4.74c.6-.34.67-.87.15-1.17l-8.57-4.95a2.27 2.27 0 0 0-2 .09l-8.16 4.73c-.65.35-.72.88-.19 1.18zM275.22 310.66l8.56 4.95a2.29 2.29 0 0 0 2.05-.09l8.2-4.74c.61-.34.67-.87.15-1.17l-8.57-4.95a2.27 2.27 0 0 0-2 .09l-8.2 4.73c-.65.35-.71.88-.19 1.18zM263.63 304l8.57 4.95a2.27 2.27 0 0 0 2-.09l8.2-4.73c.61-.35.67-.88.15-1.18L274 298a2.29 2.29 0 0 0-2 .09l-8.2 4.73c-.62.32-.69.85-.17 1.18zM252.05 297.28l8.56 5a2.27 2.27 0 0 0 2-.09l8.21-4.73c.6-.35.67-.88.14-1.18l-8.56-5a2.27 2.27 0 0 0-2 .09l-8.21 4.73c-.6.35-.67.9-.14 1.18zM240.46 290.59l8.56 5a2.27 2.27 0 0 0 2-.09l8.21-4.73c.6-.35.67-.88.15-1.18l-8.57-5a2.27 2.27 0 0 0-2 .09l-8.2 4.73c-.61.35-.67.88-.15 1.18zM228.87 283.9l8.57 5a2.27 2.27 0 0 0 2-.09l8.2-4.73c.61-.35.67-.88.15-1.18l-8.56-5a2.29 2.29 0 0 0-2.05.09l-8.2 4.73c-.57.35-.63.88-.11 1.18zM217.28 277.21l8.57 5a2.27 2.27 0 0 0 2-.09l8.21-4.73c.6-.35.67-.88.14-1.18l-8.56-5a2.27 2.27 0 0 0-2 .09l-8.21 4.7c-.6.38-.67.91-.15 1.21zM205.7 270.52l8.56 5a2.27 2.27 0 0 0 2-.09l8.21-4.73c.6-.35.67-.88.15-1.18l-8.57-5a2.27 2.27 0 0 0-2 .09l-8.21 4.73c-.6.35-.67.88-.14 1.18zM188.87 260.81l13.8 8a2.29 2.29 0 0 0 2.05-.09l8.2-4.73c.61-.35.67-.88.15-1.18l-13.8-8a2.3 2.3 0 0 0-2 .08l-8.27 4.74c-.58.37-.65.88-.13 1.18zM196.32 266.4l-8.57-4.94a2.27 2.27 0 0 0-2 .08l-8.2 4.74c-.61.35-.67.88-.15 1.18l8.56 4.94a2.26 2.26 0 0 0 2.05-.08l8.2-4.74c.57-.35.63-.88.11-1.18zM207.9 273.09l-8.56-4.94a2.24 2.24 0 0 0-2 .08l-8.25 4.77c-.6.35-.67.88-.14 1.18l8.56 4.94a2.24 2.24 0 0 0 2-.08l8.21-4.74c.64-.38.71-.91.18-1.21zM219.49 279.78l-8.56-4.94a2.24 2.24 0 0 0-2 .08l-8.21 4.74c-.6.35-.67.88-.15 1.18l8.57 4.94a2.27 2.27 0 0 0 2-.08l8.21-4.74c.65-.35.65-.88.14-1.18zM231.08 286.47l-8.56-4.94a2.26 2.26 0 0 0-2.05.08l-8.2 4.74c-.61.35-.67.88-.15 1.18l8.56 4.94a2.29 2.29 0 0 0 2-.08l8.2-4.74c.66-.35.72-.88.2-1.18zM242.67 293.16l-8.57-4.94a2.24 2.24 0 0 0-2 .08l-8.25 4.7c-.6.35-.67.88-.14 1.18l8.56 4.94a2.27 2.27 0 0 0 2-.08l8.21-4.74c.64-.3.71-.84.19-1.14zM254.25 299.85l-8.56-4.94a2.24 2.24 0 0 0-2 .08l-8.21 4.74c-.6.35-.67.88-.14 1.18l8.56 4.94a2.27 2.27 0 0 0 2-.08l8.21-4.74c.6-.35.67-.88.14-1.18zM265.84 306.54l-8.56-4.94a2.26 2.26 0 0 0-2 .08l-8.2 4.74c-.61.35-.67.88-.15 1.18l8.57 4.94a2.27 2.27 0 0 0 2-.08l8.2-4.74c.6-.35.66-.88.14-1.18zM277.43 313.23l-8.57-4.94a2.24 2.24 0 0 0-2 .08l-8.2 4.74c-.61.35-.67.88-.15 1.18l8.56 4.94a2.29 2.29 0 0 0 2.05-.08l8.2-4.74c.57-.35.68-.88.11-1.18zM289 319.92l-8.55-4.92a2.24 2.24 0 0 0-2 .08l-8.21 4.74c-.6.35-.67.88-.14 1.18l8.56 4.94a2.27 2.27 0 0 0 2-.08l8.21-4.74c.6-.37.67-.9.13-1.2zM300.6 326.61l-8.6-4.94a2.24 2.24 0 0 0-2 .08l-8.21 4.74c-.6.35-.67.88-.15 1.18l8.57 4.94a2.27 2.27 0 0 0 2-.08l8.21-4.74c.64-.35.71-.88.18-1.18zM312.19 333.3l-8.56-4.94a2.26 2.26 0 0 0-2.05.08l-8.2 4.74c-.61.35-.67.87-.15 1.18l8.56 4.94a2.29 2.29 0 0 0 2-.08l8.2-4.74c.66-.35.72-.88.2-1.18zM323.78 340l-8.57-4.94a2.24 2.24 0 0 0-2 .08l-8.2 4.74c-.61.35-.68.87-.15 1.18l8.56 4.94a2.27 2.27 0 0 0 2-.08l8.21-4.74c.6-.36.67-.89.15-1.18zM335.36 346.68l-8.56-4.94a2.24 2.24 0 0 0-2 .08l-8.21 4.74c-.6.35-.67.87-.14 1.18l8.56 4.94a2.27 2.27 0 0 0 2-.08l8.21-4.74c.6-.35.67-.86.14-1.18zM352.19 356.39l-13.8-8a2.26 2.26 0 0 0-2.05.08l-8.2 4.74c-.61.35-.67.87-.15 1.18l13.8 8a2.24 2.24 0 0 0 2-.08l8.21-4.74c.64-.35.71-.87.19-1.18zM193.17 277.88l-16.93-9.77a2.24 2.24 0 0 0-2 .08l-8.24 4.74c-.6.35-.67.87-.15 1.18l16.93 9.77a2.3 2.3 0 0 0 2-.08l8.21-4.74c.63-.35.7-.88.18-1.18zM340.58 363l-16.93-9.78a2.27 2.27 0 0 0-2 .09L313.4 358c-.6.35-.67.88-.15 1.18l16.93 9.82a2.27 2.27 0 0 0 2-.09l8.21-4.73c.61-.36.71-.89.19-1.18zM204.75 284.57l-8.56-4.95a2.27 2.27 0 0 0-2 .09l-8.21 4.74c-.6.35-.67.87-.14 1.18l8.56 4.94a2.3 2.3 0 0 0 2-.08l8.21-4.74c.6-.35.67-.88.14-1.18zM216.34 291.26l-8.56-4.95a2.29 2.29 0 0 0-2.05.09l-8.2 4.74c-.61.35-.67.87-.15 1.18l8.57 4.94a2.3 2.3 0 0 0 2-.08l8.2-4.74c.65-.35.71-.88.19-1.18zM227.93 298l-8.57-5a2.27 2.27 0 0 0-2 .09l-8.2 4.74c-.61.34-.67.87-.15 1.18l8.56 4.94a2.29 2.29 0 0 0 2.05-.09l8.2-4.73c.57-.35.63-.88.11-1.13zM239.52 304.64l-8.52-4.95a2.27 2.27 0 0 0-2 .09l-8.21 4.74c-.6.34-.67.87-.14 1.18l8.56 4.94a2.27 2.27 0 0 0 2-.09l8.21-4.73c.58-.35.58-.88.1-1.18zM251.1 311.33l-8.56-4.95a2.27 2.27 0 0 0-2 .09l-8.21 4.74c-.6.34-.67.87-.15 1.18l8.57 4.94a2.27 2.27 0 0 0 2-.09l8.21-4.73c.6-.35.67-.88.14-1.18zM262.69 318l-8.56-4.95a2.29 2.29 0 0 0-2 .09l-8.2 4.74c-.61.34-.67.87-.15 1.17l8.52 4.95a2.27 2.27 0 0 0 2-.09l8.2-4.73c.65-.33.71-.86.19-1.18zM274.28 324.71l-8.57-4.95a2.27 2.27 0 0 0-2 .09l-8.2 4.74c-.61.34-.67.87-.15 1.17l8.56 4.95a2.29 2.29 0 0 0 2.05-.09l8.2-4.73c.56-.35.63-.89.11-1.18zM285.86 331.4l-8.56-4.95a2.27 2.27 0 0 0-2 .09l-8.21 4.74c-.6.34-.67.87-.14 1.17l8.56 4.95a2.27 2.27 0 0 0 2-.09l8.21-4.73c.6-.35.67-.88.14-1.18zM297.45 338.09l-8.56-4.95a2.27 2.27 0 0 0-2 .09l-8.25 4.77c-.6.34-.67.87-.15 1.17l8.57 4.95a2.27 2.27 0 0 0 2-.09l8.2-4.73c.65-.38.74-.91.19-1.21zM309 344.78l-8.57-4.95a2.27 2.27 0 0 0-2 .09l-8.2 4.73c-.61.35-.67.88-.15 1.18l8.56 4.95a2.29 2.29 0 0 0 2.05-.09l8.2-4.73c.61-.35.67-.88.11-1.18zM320.63 351.47l-8.57-5a2.27 2.27 0 0 0-2 .09l-8.21 4.73c-.6.35-.67.88-.14 1.18l8.56 5a2.27 2.27 0 0 0 2-.09l8.21-4.73c.6-.35.67-.88.15-1.18zM187.4 287.85l-22.68-13.1a2.27 2.27 0 0 0-2 .09l-8.2 4.74c-.61.34-.67.87-.15 1.17l22.63 13.1a2.27 2.27 0 0 0 2-.09l8.21-4.73c.65-.35.72-.88.19-1.18zM199 294.54l-8.56-5a2.27 2.27 0 0 0-2 .09l-8.21 4.74c-.6.34-.67.87-.15 1.17l8.57 5a2.27 2.27 0 0 0 2-.09l8.2-4.73c.6-.35.67-.88.15-1.18zM210.58 301.23l-8.57-5a2.27 2.27 0 0 0-2 .09l-8.2 4.74c-.61.34-.67.87-.15 1.17l8.56 5a2.29 2.29 0 0 0 2-.09l8.2-4.73c.58-.35.68-.88.16-1.18zM222.17 307.92L213.6 303a2.27 2.27 0 0 0-2 .09l-8.21 4.74c-.6.34-.67.87-.14 1.17l8.56 4.95a2.27 2.27 0 0 0 2-.09l8.19-4.76c.62-.35.69-.88.17-1.18zM233.75 314.61l-8.56-4.95a2.27 2.27 0 0 0-2 .09l-8.21 4.73c-.6.35-.67.88-.15 1.18l8.57 4.95a2.27 2.27 0 0 0 2-.09l8.21-4.73c.6-.35.67-.88.14-1.18zM245.34 321.3l-8.56-4.95a2.29 2.29 0 0 0-2.05.09l-8.2 4.73c-.61.35-.67.88-.15 1.18l8.62 4.95a2.27 2.27 0 0 0 2-.09l8.2-4.73c.6-.35.66-.88.14-1.18zM256.93 328l-8.57-5a2.27 2.27 0 0 0-2 .09l-8.2 4.73c-.61.35-.67.88-.15 1.18l8.56 4.95a2.29 2.29 0 0 0 2.05-.09l8.2-4.73c.57-.31.63-.84.11-1.13zM268.51 334.68l-8.51-4.95a2.27 2.27 0 0 0-2 .09l-8.21 4.73c-.6.35-.67.88-.14 1.18l8.56 4.95a2.27 2.27 0 0 0 2-.09l8.21-4.73c.58-.35.58-.86.09-1.18zM280.1 341.37l-8.56-4.95a2.27 2.27 0 0 0-2 .09l-8.21 4.73c-.6.35-.67.88-.15 1.18l8.57 4.95a2.27 2.27 0 0 0 2-.09l8.21-4.73c.6-.35.67-.88.14-1.18zM291.69 348.06l-8.57-4.95a2.27 2.27 0 0 0-2 .09l-8.2 4.73c-.61.35-.67.88-.15 1.18l8.56 4.95a2.29 2.29 0 0 0 2-.09l8.2-4.73c.62-.35.68-.88.16-1.18zM303.28 354.75l-8.57-4.95a2.27 2.27 0 0 0-2 .09l-8.21 4.73c-.6.35-.67.88-.14 1.18l8.56 4.95a2.27 2.27 0 0 0 2-.09l8.21-4.73c.6-.35.67-.88.15-1.18zM329.06 369.63l-22.76-13.14a2.27 2.27 0 0 0-2 .09l-8.21 4.73c-.6.35-.67.88-.15 1.18l22.77 13.15a2.27 2.27 0 0 0 2-.09l8.21-4.74c.6-.35.67-.87.14-1.18zM268.59 348l-54.92-31.7a2.27 2.27 0 0 0-2 .09l-8.2 4.73c-.61.35-.67.88-.15 1.18l54.87 31.7a2.27 2.27 0 0 0 2-.09l8.21-4.74c.6-.32.71-.85.19-1.17zM196.53 306.42l-8.53-4.95a2.27 2.27 0 0 0-2 .09l-8.21 4.73c-.6.35-.67.88-.14 1.18l8.56 4.95a2.27 2.27 0 0 0 2-.09l8.21-4.74c.58-.34.64-.87.11-1.17zM210.65 314.57l-11.09-6.41a2.27 2.27 0 0 0-2 .09l-8.25 4.75c-.6.35-.67.88-.15 1.18l11.1 6.41a2.27 2.27 0 0 0 2-.09l8.2-4.74c.65-.36.71-.89.19-1.19zM285.73 357.91l8.56 4.94c.52.31.46.83-.15 1.18l-8.2 4.74a2.27 2.27 0 0 1-2 .09l-8.57-4.95c-.52-.3-.46-.83.15-1.18l8.2-4.74a2.32 2.32 0 0 1 2.01-.08zM271.61 349.76l11.09 6.4c.53.31.46.84-.14 1.18l-8.21 4.74a2.27 2.27 0 0 1-2 .09l-11.09-6.41c-.53-.3-.46-.83.14-1.18l8.21-4.73a2.27 2.27 0 0 1 2-.09zM161.77 286.35l-8.56-5a2.27 2.27 0 0 0-2 .09l-8.21 4.78c-.6.35-.67.88-.14 1.18l8.56 5a2.27 2.27 0 0 0 2-.09l8.21-4.73c.6-.4.67-.93.14-1.23zM173.36 293l-8.56-5a2.29 2.29 0 0 0-2.05.09l-8.2 4.73c-.61.35-.67.88-.15 1.18l8.57 5a2.27 2.27 0 0 0 2-.09l8.2-4.73c.65-.31.71-.84.19-1.18zM185 299.73l-8.57-5a2.27 2.27 0 0 0-2 .09l-8.2 4.73c-.61.35-.67.88-.15 1.18l8.56 5a2.29 2.29 0 0 0 2-.09l8.2-4.74c.57-.34.63-.9.16-1.17zM317.55 376.28l-20.24-11.68a2.3 2.3 0 0 0-2 .08l-8.2 4.74c-.61.35-.67.88-.15 1.18l20.23 11.68a2.26 2.26 0 0 0 2.05-.08l8.2-4.74c.56-.35.63-.88.11-1.18zM356.26 344.15l8.56 5a2.27 2.27 0 0 0 2-.09l4.08-2.35c.61-.35.67-.88.15-1.18l-8.56-5a2.29 2.29 0 0 0-2 .09L356.4 343c-.6.32-.67.85-.14 1.15zM344.67 337.46l8.56 5a2.29 2.29 0 0 0 2-.09l4.08-2.35c.6-.35.67-.88.14-1.18l-8.56-5a2.27 2.27 0 0 0-2 .09l-4.08 2.35c-.6.35-.66.88-.14 1.18zM333.08 330.77l8.57 5a2.27 2.27 0 0 0 2-.09l4.08-2.35c.6-.35.67-.88.15-1.18l-8.57-5a2.27 2.27 0 0 0-2 .09l-4.08 2.35c-.6.35-.67.88-.15 1.18zM321.5 324.08l8.56 4.95a2.27 2.27 0 0 0 2-.09l4.08-2.35c.61-.35.67-.88.15-1.18l-8.56-5a2.29 2.29 0 0 0-2 .09l-4.08 2.35c-.65.4-.65.93-.15 1.23zM309.91 317.39l8.56 4.95a2.29 2.29 0 0 0 2-.09l4.08-2.35c.6-.35.67-.88.14-1.18l-8.56-5a2.27 2.27 0 0 0-2 .09l-4.08 2.35c-.6.4-.66.93-.14 1.23zM298.32 310.7l8.57 4.95a2.27 2.27 0 0 0 2-.09l4.08-2.35c.6-.35.67-.88.15-1.18l-8.57-4.95a2.27 2.27 0 0 0-2 .09l-4.08 2.36c-.61.34-.67.87-.15 1.17zM286.73 304l8.57 5a2.27 2.27 0 0 0 2-.09l4.08-2.35c.61-.35.67-.88.15-1.18l-8.53-4.99a2.27 2.27 0 0 0-2 .09l-4.08 2.36c-.64.34-.71.87-.19 1.16zM275.15 297.32l8.56 4.95a2.27 2.27 0 0 0 2-.09l4.08-2.35c.61-.35.67-.88.15-1.18l-8.56-4.94a2.26 2.26 0 0 0-2.05.08l-4.08 2.36c-.56.34-.63.85-.1 1.17zM263.56 290.63l8.56 4.95a2.29 2.29 0 0 0 2.05-.09l4.08-2.35c.6-.35.67-.88.14-1.18l-8.56-4.96a2.24 2.24 0 0 0-2 .08l-4.08 2.36c-.65.36-.75.89-.19 1.19zM252 283.94l8.57 4.95a2.27 2.27 0 0 0 2-.09l4.08-2.35c.6-.35.67-.88.15-1.18l-8.57-4.94a2.24 2.24 0 0 0-2 .08l-4.08 2.36c-.63.34-.7.87-.15 1.17zM240.39 277.26l8.61 4.94a2.27 2.27 0 0 0 2-.09l4.08-2.35c.61-.35.67-.88.15-1.18l-8.56-4.94a2.26 2.26 0 0 0-2 .08l-4.08 2.36c-.66.34-.73.92-.2 1.18zM228.8 270.57l8.56 4.94a2.29 2.29 0 0 0 2-.09l4.08-2.35c.6-.35.67-.88.14-1.18l-8.51-4.89a2.24 2.24 0 0 0-2 .08l-4.07 2.31c-.66.34-.72.87-.2 1.18zM217.21 263.88l8.57 4.94a2.27 2.27 0 0 0 2-.09l4.08-2.35c.6-.35.67-.88.14-1.18l-8.56-4.94a2.24 2.24 0 0 0-2 .08l-4.08 2.36c-.61.35-.67.87-.15 1.18zM200.39 254.16l13.8 8a2.3 2.3 0 0 0 2-.08l4.08-2.36c.61-.35.67-.88.15-1.18l-13.8-8a2.27 2.27 0 0 0-2 .09l-4.08 2.37c-.61.33-.67.86-.15 1.16z"/><path class="cls-2" d="M157.12 357.93L185 374a.82.82 0 0 1 0 1.56l-30.63-17.68a3 3 0 0 1 2.75.05z"/><path fill="#9faed4" d="M223.89 251.94l144.71 83.55 1.98-1.14-144.71-83.55-1.98 1.14z"/><path class="cls-2" d="M390.9 207.18V336.6l3.1-1.79V205.4l-3.1 1.78z"/><path class="cls-6" d="M212.65 243.17L383.8 342c3.92 2.26 7.1 1 7.1-5.38V207.18c0-7.27-2.37-10.81-7.1-13.58L212.65 94.79c-3.92-2.27-7.1-1.26-7.1 5.38v129.42c0 8.41 2.81 11.11 7.1 13.58z"/><path class="cls-4" d="M212.18 95.53l172.09 99.36a12.69 12.69 0 0 1 5.75 9.92V338c0 3.63-2.58 5.11-5.75 3.27l-172.09-99.39a12.69 12.69 0 0 1-5.75-9.92V98.81c0-3.64 2.57-5.11 5.75-3.28z"/><path id="_Clipping_Path_" data-name="&lt;Clipping Path&gt;" class="cls-6" d="M383.38 326.51V201.99l-170.31-98.33v124.52l170.31 98.33z"/><path fill="#eef5fb" opacity=".2" d="M236.6 241.76l107.79-62.28-131.32-75.82v124.52l23.53 13.58z"/><path class="cls-1" d="M161.21 335.67L184.84 322a5.7 5.7 0 0 1 5.12 0l57.24 33.05c1.42.82 1.42 2.14 0 2.95l-23.63 13.65zM191.91 354.53l30.69 17.72-12.8 7.38a5.61 5.61 0 0 1-5.11 0l-28.13-16.23zM190.92 354l-15.34 8.86-28.13-16.24c-1.42-.82-1.43-2.14 0-3l12.8-7.38z"/><path class="cls-2" d="M247.2 356.36L190 323.31a5.67 5.67 0 0 0-5.12 0l-22.52 13-1.11-.64L184.84 322a5.7 5.7 0 0 1 5.12 0l57.24 33.05c1 .58 1.28 1.4.88 2.13a2.4 2.4 0 0 0-.88-.82zM191.91 355.81l-14.24 8.21-1.11-.64 15.35-8.85 30.69 17.72-1.11.64-29.58-17.08zM160.23 337.52l-12.8 7.38a2.29 2.29 0 0 0-.86.83c-.4-.72-.12-1.54.86-2.11l12.8-7.38L190.92 354l-1.11.64z"/><path fill="#c6c5c4" d="M133.88 179.62l14.34-8.84-8.23-2.37 11.96-7.37 9.6-4.05 2.57 4.05.56 17.06-18.29 10.78-12.51-9.26z"/><path class="cls-2" d="M146.24 174.77l-2.83-1-9.53 5.85 12.51 9.26 8.84-5.21-8.99-8.9z"/><path class="cls-1" d="M164.32 166.75l12-7.36 13.57 7.83v10.53s2.72 6.36 7.32 7.23l6.6-3 10.42 15-7.63 4.87-4.34 2.5-8.71 1.24-9.12-6.23-12-10.47-8.28-21.71z"/><path class="cls-1" d="M220.29 228.8v-13.56l-10.3-6a49.21 49.21 0 0 0-3.15-9.21l7.35-3.11-10.42-15-6.6 3a60.91 60.91 0 0 0-7.32-7.23v-10.47l-13.57-7.83v10.53a22.65 22.65 0 0 0-7.28-1.22l-7.45-11.7-9.6 4 7.35 11.59a14 14 0 0 0-3.15 5.57l-10.3-5.94 3.43 9.89 6.72 9.54a48.75 48.75 0 0 0 3.07 9.39l-7.12 3 9.6 15.13 7-3a61.22 61.22 0 0 0 7.69 7.67v9.92l13.57 7.84v-9.93a22.45 22.45 0 0 0 7.7 1.22l7 11.11 9.6-4-7.13-11.24a14.29 14.29 0 0 0 3.07-5.84zm-60.14-37.27l-4.77-3.38-3.7 3.38v10.78l1.71 10.4 7.46 9.7s9 6.38 10.5 6.76a106.48 106.48 0 0 0 11.26 1c0-.16-4.61-7.4-4.61-7.4s-11.85-16.88-12.17-17.53-5.68-13.71-5.68-13.71zm22.92 26c-9.39-5.42-17-17.43-17-26.82s7.61-12.6 17-7.18 15 18.07 15 27.46-5.61 12.01-15 6.54zm6.41 23.9L177.89 249v-9.92a23.28 23.28 0 0 0 7.69 1.22zM152 204.09l-12 7.36s11.67-4.12 11.82-4.28a26.67 26.67 0 0 0 .59-3.17z"/><path class="cls-2" d="M198 216.65l12-7.36a31.12 31.12 0 0 0-2.79-7.85l-5 2.9-7.35 3.1zM208.32 222.6l11.97-7.36v13.56l-11.97 7.37V222.6zM198.17 230.3s-1.21 3.89-3.07 5.85l11.59-7.57z"/><path class="cls-9" d="M208.32 236.17V222.6L198 216.65a48.5 48.5 0 0 0-3.15-9.21l7.35-3.1-9.59-15.14-7.43 3.14a60 60 0 0 0-7.31-7.22v-10.53l-13.57-7.84v10.53a23 23 0 0 0-7.31-1.22l-7.43-11.71-9.56 4.05 7.33 11.6a14.26 14.26 0 0 0-3.15 5.58l-10.3-5.95v13.57l10.12 5.85a48.07 48.07 0 0 0 3.07 9.39l-7.12 3 9.59 15.13 7-3a60.54 60.54 0 0 0 7.7 7.66v9.93l13.65 7.84v-9.92a22.43 22.43 0 0 0 7.69 1.22l7 11.11 9.59-4.06-7.12-11.23a14.52 14.52 0 0 0 3.07-5.85zm-37.22-11.28c-9.39-5.42-17-17.42-17-26.81s7.61-12.61 17-7.19 17 17.43 17 26.82-7.61 12.6-17 7.18z"/><path class="cls-1" d="M214.19 240l-12 7.36-7.12-11.23 3.25-2.13 4.09.4s6.6 5.18 6.68 5.21 5.1.39 5.1.39z"/><path class="cls-2" d="M177.89 174.59l11.96-7.37v10.53l-11.96 7.37v-10.53zM157.01 176.06l7.31-4.67v-4.79l2.39-1.34-5.16-8.27-11.97 7.36 7.43 11.71z"/><ellipse cx="247.16" cy="317.52" rx="18.72" ry="11.99" fill="#a91f23"/><ellipse class="cls-11" cx="247.16" cy="304.76" rx="27.66" ry="17.72"/><ellipse cx="247.16" cy="299.22" rx="27.66" ry="17.72" fill="#cb3433"/><ellipse class="cls-11" cx="247.16" cy="293.67" rx="27.66" ry="17.72"/><path d="M246.63 161.93a52.64 52.64 0 0 1 38.64 89A38 38 0 0 0 275 277.18v12.63c-.36 9.59-12.64 17.3-27.77 17.3s-27.41-7.71-27.77-17.3v-12.63A37.88 37.88 0 0 0 209.11 251a52.64 52.64 0 0 1 37.52-89z" fill="url(#Degradado_sin_nombre_16)"/><circle cx="236.26" cy="203.67" r="36.57" transform="rotate(-13.16 236.265 203.692)" fill="url(#Degradado_sin_nombre_22)"/><path class="cls-1" d="M262.96 252.88l14.33-8.84-8.23-2.37 11.97-7.37 9.59-4.05 2.57 4.05.57 17.06-18.3 10.79-12.5-9.27z"/><path class="cls-2" d="M275.31 248.03l-2.82-1-9.53 5.85 12.5 9.27 8.84-5.21-8.99-8.91z"/><path class="cls-1" d="M293.39 240l12-7.37 13.57 7.84V251s2.72 6.35 7.31 7.22l6.6-3 10.42 15-7.62 4.88-4.34 2.49-8.72 1.24-9.11-6.23-12-10.46-8.28-21.72z"/><path class="cls-1" d="M349.37 302.07V288.5l-10.31-5.95a49.16 49.16 0 0 0-3.14-9.21l7.34-3.11-10.42-15-6.6 3a60 60 0 0 0-7.31-7.22v-10.52l-13.57-7.84v10.53a23 23 0 0 0-7.31-1.22l-7.43-11.71-9.62 4.05 7.34 11.59a14.12 14.12 0 0 0-3.14 5.58l-10.31-5.95 3.44 9.9 6.72 9.53a48.07 48.07 0 0 0 3.07 9.39l-7.12 3 9.59 15.13 7-3a60.54 60.54 0 0 0 7.7 7.66v9.93l13.57 7.83V305a22.68 22.68 0 0 0 7.69 1.22l7.05 11.1 9.59-4.05-7.12-11.23a14.52 14.52 0 0 0 3.07-5.85zm-60.14-37.28l-4.78-3.37-3.7 3.37v10.78l1.72 10.4 7.45 9.7s8.95 6.38 10.51 6.76a106.27 106.27 0 0 0 11.26 1c0-.16-4.61-7.4-4.61-7.4s-11.85-16.88-12.17-17.53-5.68-13.71-5.68-13.71zm22.91 26c-9.38-5.42-17-17.42-17-26.81s7.62-12.61 17-7.19 15 18.07 15 27.46-5.61 11.96-15 6.54zm6.41 23.9l-11.55 7.6v-9.92a23 23 0 0 0 7.7 1.22zM281 277.35l-12 7.36s11.67-4.12 11.83-4.28a26.53 26.53 0 0 0 .59-3.16z"/><path class="cls-2" d="M327.1 289.91l12-7.36a30.86 30.86 0 0 0-2.78-7.85l-5 2.9-7.32 3.1zM337.4 295.86l11.97-7.36v13.57l-11.97 7.36v-13.57zM327.24 303.57s-1.21 3.88-3.07 5.84l11.59-7.57z"/><path class="cls-9" d="M337.4 309.43v-13.57l-10.3-5.95a49.45 49.45 0 0 0-3.1-9.21l7.35-3.1-9.6-15.14-7.42 3.14a60.82 60.82 0 0 0-7.32-7.22v-10.53L293.39 240v10.53a22.65 22.65 0 0 0-7.31-1.22l-7.42-11.72-9.6 4.06 7.35 11.58a14 14 0 0 0-3.15 5.58L263 252.88v13.57l10.15 5.86a48.52 48.52 0 0 0 3.07 9.39l-7.12 3 9.6 15.14 7-3a61.22 61.22 0 0 0 7.69 7.67v9.92l13.61 7.86v-9.92a22.45 22.45 0 0 0 7.7 1.22l7 11.11 9.6-4.06-7.13-11.23a14.36 14.36 0 0 0 3.07-5.84zm-37.22-11.27c-9.39-5.42-17-17.43-17-26.82s7.61-12.61 17-7.19 17 17.43 17 26.82-7.61 12.61-17 7.19z"/><path class="cls-1" d="M343.26 313.28l-12 7.36-7.13-11.23 3.26-2.13 4.09.4s6.59 5.18 6.68 5.21 5.1.39 5.1.39z"/><path class="cls-2" d="M306.96 247.85l11.97-7.36v10.53l-11.97 7.36v-10.53zM286.08 249.33l7.31-4.68v-4.79l2.4-1.33-5.17-8.28-11.96 7.36 7.42 11.72z"/><path class="cls-15" d="M188.54 327.27s.33 5.63.78 6.23a1.71 1.71 0 0 0 2.39-.3c.45-.75-1.19-5.69-1.19-5.69z"/><path class="cls-16" d="M178.62 277l-1.77 11.15 1.36 22.29 1.23 16.71c.09.72-.24 1.15.47 1.29a1.69 1.69 0 0 0 2-1.74l-.51-17.7-.59-16.16 3.91.3 1.78 19.15 2.26 15.11 1.69.38-.45-16.42-1.77-22-1-7.22-3.73-.8z"/><path class="cls-15" d="M179.46 327.13l-4 2.13.29.48a3.57 3.57 0 0 0 2.6-.32l3.49-1.54.07-1.21z"/><path d="M184.33 277.79l5.16 7.88 2.79 20.5s-8.85 2.89-12.77.68-3.74-3.23-3.74-3.23l.81-17.67 4.35-12c.09-1.53.67-3.77 2.18-4.07l.54-1.77 3.94 1.09h-.41c1.16.8.36.25.68 1.63z" fill="#ca6728"/><path class="cls-16" d="M186.98 266.08l-6.51-.6 1.95 6.55 4.56-5.95z"/><path class="cls-18" d="M189.77 256.94a5.79 5.79 0 1 1-5.79-5.79 5.78 5.78 0 0 1 5.79 5.79z"/><circle class="cls-18" cx="187.5" cy="252.84" r="3.29" transform="rotate(-46.11 187.523 252.858)"/><path d="M179.69 265.41s-10.07 9.43-10.2 9-4.76-8.56-4.76-8.56l-1.36.81 4.51 10.8a1.66 1.66 0 0 0 2.21.87l9.89-4.09z" fill="#d8e5f3"/><path class="cls-16" d="M183.33 252.2a4.94 4.94 0 0 0-4.92 4.92v3.1a4.92 4.92 0 1 0 9.83 0v-3.11a4.93 4.93 0 0 0-4.91-4.91z"/><path class="cls-18" d="M183.33 252.2a4.93 4.93 0 0 1 4.91 4.92v2.55a4.29 4.29 0 0 1-2.45-5.15 4.31 4.31 0 0 1-5.92-.89 4.91 4.91 0 0 1 3.46-1.43z"/><path class="cls-9" d="M177.67 277.25l-1.47-2.17a3.32 3.32 0 0 1-.2-3.4l.85-1.64c1.29-1.71 1.33-4.33 2.84-4.63l9.87.9.31.22c.77.53 1.26 3.86.17 7.18a21.11 21.11 0 0 1-3 4.62l2.63 7.49a3.78 3.78 0 0 1-3 1.35c-2.65.11-8.5-.16-10.4-1.33z"/><path class="cls-9" d="M189.87 266.52l7.51 12.09-2.72 12.77-2.04.27.41-12.77-6.25-8.29 3.09-4.07z"/><path fill="#eab226" d="M198.06 290.57L188 294.1l1.77 9.65 10.33-3.94-2.04-9.24z"/><circle class="cls-16" cx="193.84" cy="292.61" r="1.72"/><path class="cls-15" transform="rotate(-39.6 164.16 263.12)" d="M160.08 263.65h8.2v.41h-8.2z"/><circle class="cls-16" cx="163.67" cy="265.35" r="1.72"/></svg>