<svg id="Layer_1" data-name="Layer 1" xmlns="http://www.w3.org/2000/svg" xmlns:xlink="http://www.w3.org/1999/xlink" viewBox="0 0 523.23 521.42"><defs><style>.cls-1{fill:#d1dbef}.cls-2{fill:#808cc5}.cls-3,.cls-8{fill:#ebf1f9}.cls-4{fill:#2b2e6e}.cls-6{fill:#6b78b9}.cls-8{opacity:.2}.cls-9{fill:#9c4d23}.cls-12{fill:#ca6728}</style><linearGradient id="linear-gradient" x1="204.08" y1="218.14" x2="210.21" y2="218.14" gradientUnits="userSpaceOnUse"><stop offset="0" stop-color="#eab226"/><stop offset=".43" stop-color="#f4ca19"/><stop offset=".98" stop-color="#fde800"/></linearGradient><linearGradient id="linear-gradient-2" x1="144.66" y1="238.69" x2="210.21" y2="238.69" xlink:href="#linear-gradient"/><linearGradient id="linear-gradient-3" x1="204.08" y1="241.03" x2="210.21" y2="241.03" xlink:href="#linear-gradient"/><linearGradient id="linear-gradient-4" x1="144.66" y1="261.58" x2="210.21" y2="261.58" xlink:href="#linear-gradient"/><linearGradient id="linear-gradient-5" x1="204.08" y1="265.26" x2="210.21" y2="265.26" xlink:href="#linear-gradient"/><linearGradient id="linear-gradient-6" x1="144.66" y1="285.81" x2="210.21" y2="285.81" xlink:href="#linear-gradient"/><linearGradient id="linear-gradient-7" x1="253.92" y1="231.45" x2="260.04" y2="231.45" xlink:href="#linear-gradient"/><linearGradient id="linear-gradient-8" x1="194.5" y1="252" x2="260.04" y2="252" xlink:href="#linear-gradient"/><linearGradient id="linear-gradient-9" x1="253.92" y1="254.34" x2="260.04" y2="254.34" xlink:href="#linear-gradient"/><linearGradient id="linear-gradient-10" x1="194.5" y1="274.89" x2="260.04" y2="274.89" xlink:href="#linear-gradient"/><linearGradient id="linear-gradient-11" x1="253.92" y1="278.57" x2="260.04" y2="278.57" xlink:href="#linear-gradient"/><linearGradient id="linear-gradient-12" x1="194.5" y1="299.12" x2="260.04" y2="299.12" xlink:href="#linear-gradient"/><linearGradient id="linear-gradient-13" x1="336.27" y1="216.86" x2="372.63" y2="161.12" xlink:href="#linear-gradient"/></defs><path class="cls-1" d="M87.64 361.16V235c0-7.09 2.32-10.54 6.93-13.24l166.81-96.31c1.7-1 3.26-1.33 4.47-.85s-2.85-1.6-3.07-1.7c-1.2-.46-2.74-.1-4.42.87L91.55 220.08c-4.61 2.7-6.93 6.14-6.93 13.24v126.14c0 3.39.93 5.3 2.41 6l2.51 1.41c-1.18-.87-1.9-2.72-1.9-5.71zM204.88 445.14c4.42 2.55 11.11 2.82 14.93.61l166.81-96.3a4.46 4.46 0 0 0 2.58-3.72v-6.83a4.51 4.51 0 0 1-2.57 3.5l-166.82 96.31c-3.82 2.21-10.51 1.93-14.93-.62z"/><path class="cls-2" d="M204.88 438.09L95.64 375c-2.24-1.29-3.47-2.93-3.63-4.51v6.37a3.53 3.53 0 0 0 0 .65v.05c.17 1.57 1.4 3.19 3.63 4.48l109.24 63.08z"/><path class="cls-3" d="M341 308.06l44.56 25.72c4.42 2.56 4.9 6.41 1.07 8.62l-166.82 96.31c-3.82 2.21-10.51 1.93-14.93-.62l-44.57-25.73z"/><path class="cls-1" d="M160.31 412.36L95.64 375c-4.42-2.55-4.9-6.41-1.07-8.62l166.81-96.31c3.82-2.21 10.51-1.93 14.93.62L341 308.06z"/><path class="cls-4" d="M132.63 375l-8.35 4.82a2.19 2.19 0 0 1-2-.08l-8-4.62c-.59-.34-.66-.85-.15-1.15l8.35-4.82a2.2 2.2 0 0 1 2 .09l8 4.61c.6.34.66.86.15 1.15zM143.93 368.48l-8.35 4.82a2.19 2.19 0 0 1-2-.08l-8-4.62c-.59-.34-.65-.85-.14-1.15l8.34-4.82a2.22 2.22 0 0 1 2 .08l8 4.62c.59.34.66.86.15 1.15zM155.22 362l-8.35 4.82a2.23 2.23 0 0 1-2-.08l-8-4.62c-.59-.34-.65-.85-.14-1.15l8.35-4.82a2.23 2.23 0 0 1 2 .08l8 4.62c.59.3.65.82.14 1.15zM166.51 355.44l-8.34 4.82a2.25 2.25 0 0 1-2-.08l-8-4.62c-.59-.34-.66-.86-.15-1.15l8.35-4.82a2.23 2.23 0 0 1 2 .08l8 4.62c.63.34.63.86.14 1.15zM177.81 348.92l-8.35 4.82a2.23 2.23 0 0 1-2-.08l-8-4.62c-.59-.34-.65-.86-.14-1.15l8.35-4.82a2.23 2.23 0 0 1 2 .08l8 4.62c.58.34.65.86.14 1.15zM189.1 342.4l-8.35 4.82a2.23 2.23 0 0 1-2-.08l-8-4.62c-.58-.34-.65-.86-.14-1.15l8.35-4.82a2.23 2.23 0 0 1 2 .08l8 4.62c.59.34.65.85.14 1.15zM200.39 335.88l-8.34 4.82a2.23 2.23 0 0 1-2-.08l-8-4.62c-.59-.34-.65-.86-.14-1.15l8.34-4.82a2.19 2.19 0 0 1 2 .08l8 4.62c.59.34.65.85.14 1.15zM211.69 329.36l-8.35 4.82a2.2 2.2 0 0 1-2-.09l-8-4.61c-.59-.34-.65-.86-.14-1.15l8.35-4.82a2.19 2.19 0 0 1 2 .08l8 4.62c.58.34.65.85.14 1.15zM223 322.84l-8.35 4.82a2.23 2.23 0 0 1-2-.09l-8-4.61c-.59-.34-.66-.86-.15-1.15l8.35-4.82a2.19 2.19 0 0 1 2 .08l8 4.62c.58.31.64.85.15 1.15zM234.28 316.32l-8.35 4.82a2.23 2.23 0 0 1-2-.09l-8-4.61c-.59-.34-.65-.86-.14-1.15l8.34-4.82a2.19 2.19 0 0 1 2 .08l8 4.62c.59.34.66.83.15 1.15zM245.57 309.8l-8.35 4.82a2.23 2.23 0 0 1-2-.09l-8-4.61c-.59-.34-.65-.86-.14-1.15l8.35-4.82a2.19 2.19 0 0 1 2 .08l8 4.62c.57.35.65.85.14 1.15zM256.86 303.28l-8.34 4.82a2.23 2.23 0 0 1-2-.09l-8-4.61c-.59-.34-.66-.86-.15-1.15l8.35-4.82a2.19 2.19 0 0 1 2 .08l8 4.62c.59.34.65.87.14 1.15zM268.16 296.76l-8.35 4.82a2.23 2.23 0 0 1-2-.09l-8-4.61c-.59-.35-.65-.86-.14-1.15l8.35-4.82a2.19 2.19 0 0 1 2 .08l8 4.62c.58.39.65.85.14 1.15zM284.55 287.29l-13.45 7.76a2.19 2.19 0 0 1-2-.08l-8-4.62c-.59-.34-.66-.85-.15-1.14l13.45-7.77a2.23 2.23 0 0 1 2 .08l8 4.62c.6.34.66.86.15 1.15zM277.3 292.74l8.35-4.82a2.23 2.23 0 0 1 2 .08l8 4.62c.59.34.66.85.15 1.15l-8.35 4.82a2.23 2.23 0 0 1-2-.08l-8-4.62c-.6-.34-.66-.89-.15-1.15zM266 299.26l8.34-4.82a2.23 2.23 0 0 1 2 .08l8 4.62c.59.34.65.85.14 1.15l-8.34 4.82a2.22 2.22 0 0 1-2-.08l-8-4.62c-.58-.34-.65-.86-.14-1.15zM254.71 305.78l8.35-4.82a2.23 2.23 0 0 1 2 .08l8 4.62c.59.34.65.86.14 1.15l-8.35 4.82a2.23 2.23 0 0 1-2-.08l-8-4.62c-.59-.34-.65-.86-.14-1.15zM243.42 312.3l8.34-4.82a2.25 2.25 0 0 1 2 .08l8 4.62c.59.34.66.86.15 1.15l-8.35 4.82a2.23 2.23 0 0 1-2-.08l-8-4.62c-.56-.34-.65-.86-.14-1.15zM232.12 318.82l8.35-4.82a2.23 2.23 0 0 1 2 .08l8 4.62c.59.34.65.86.14 1.15l-8.35 4.82a2.23 2.23 0 0 1-2-.08l-8-4.62c-.58-.34-.65-.85-.14-1.15zM220.83 325.34l8.35-4.82a2.23 2.23 0 0 1 2 .08l8 4.62c.58.34.65.86.14 1.15l-8.32 4.82a2.19 2.19 0 0 1-2-.08l-8-4.62c-.62-.34-.68-.85-.17-1.15zM209.54 331.86l8.34-4.82a2.2 2.2 0 0 1 2 .09l8 4.61c.59.34.65.86.14 1.15l-8.34 4.82a2.19 2.19 0 0 1-2-.08l-8-4.62c-.59-.34-.68-.85-.14-1.15zM198.24 338.38l8.35-4.82a2.23 2.23 0 0 1 2 .09l8 4.61c.59.34.65.86.14 1.15l-8.35 4.82a2.19 2.19 0 0 1-2-.08l-8-4.62c-.58-.34-.65-.85-.14-1.15zM187 344.9l8.35-4.82a2.23 2.23 0 0 1 2 .09l8 4.61c.59.34.66.86.15 1.15l-8.35 4.82a2.19 2.19 0 0 1-2-.08l-8-4.62c-.65-.34-.71-.85-.15-1.15zM175.65 351.42l8.35-4.82a2.23 2.23 0 0 1 2 .09l8 4.61c.59.34.65.86.14 1.15l-8.34 4.82a2.22 2.22 0 0 1-2-.08l-8-4.62c-.59-.34-.66-.85-.15-1.15zM164.36 357.94l8.35-4.82a2.23 2.23 0 0 1 2 .09l8 4.61c.59.34.65.86.14 1.15l-8.35 4.82a2.19 2.19 0 0 1-2-.08l-8-4.62c-.59-.34-.65-.85-.14-1.15zM153.07 364.46l8.34-4.82a2.23 2.23 0 0 1 2 .09l8 4.62c.59.34.66.85.15 1.14l-8.35 4.82a2.19 2.19 0 0 1-2-.08l-8-4.62c-.59-.34-.65-.85-.14-1.15zM141.77 371l8.35-4.81a2.19 2.19 0 0 1 2 .08l8 4.62c.59.34.65.85.14 1.14l-8.35 4.82a2.19 2.19 0 0 1-2-.08l-8-4.62c-.58-.36-.65-.87-.14-1.15zM125.38 380.45l13.45-7.76a2.19 2.19 0 0 1 2 .08l8 4.62c.59.34.66.85.15 1.15l-13.45 7.76a2.19 2.19 0 0 1-2-.08l-8-4.62c-.6-.34-.66-.85-.15-1.15zM280.37 303.93l16.5-9.53a2.19 2.19 0 0 1 2 .08l8 4.62c.59.34.65.85.14 1.15l-16.5 9.52a2.19 2.19 0 0 1-2-.08l-8-4.62c-.59-.34-.65-.85-.14-1.14zM136.69 386.88l16.5-9.53a2.23 2.23 0 0 1 2 .08l8 4.62c.59.34.65.86.14 1.15l-16.5 9.53a2.23 2.23 0 0 1-2-.09l-8-4.61c-.58-.34-.65-.86-.14-1.15zM269.08 310.45l8.34-4.82a2.19 2.19 0 0 1 2 .08l8 4.62c.59.34.66.85.14 1.15l-8.34 4.81a2.19 2.19 0 0 1-2-.08l-8-4.61c-.59-.35-.65-.86-.14-1.15zM257.78 317l8.35-4.82a2.19 2.19 0 0 1 2 .08l8 4.62c.59.34.65.85.14 1.15l-8.35 4.82a2.23 2.23 0 0 1-2-.09l-8-4.61c-.58-.37-.65-.89-.14-1.15zM246.49 323.49l8.35-4.82a2.19 2.19 0 0 1 2 .08l8 4.62c.59.34.66.85.15 1.15l-8.35 4.82a2.23 2.23 0 0 1-2-.09l-8-4.61c-.64-.34-.64-.86-.15-1.15zM235.19 330l8.35-4.82a2.19 2.19 0 0 1 2 .08l8 4.62c.59.34.65.85.14 1.15l-8.34 4.82a2.23 2.23 0 0 1-2-.09l-8-4.61c-.59-.33-.66-.85-.15-1.15zM223.9 336.53l8.35-4.82a2.19 2.19 0 0 1 2 .08l8 4.62c.59.34.65.85.14 1.15l-8.39 4.82a2.23 2.23 0 0 1-2-.09l-8-4.61c-.55-.34-.61-.86-.1-1.15zM212.61 343.05l8.34-4.82a2.19 2.19 0 0 1 2 .08l8 4.62c.59.34.66.85.15 1.15l-8.35 4.82a2.23 2.23 0 0 1-2-.09l-8-4.61c-.59-.34-.65-.86-.14-1.15zM201.31 349.57l8.35-4.82a2.19 2.19 0 0 1 2 .08l8 4.62c.59.34.65.85.14 1.15l-8.35 4.82a2.23 2.23 0 0 1-2-.08l-8-4.62c-.58-.34-.65-.86-.14-1.15zM190 356.09l8.35-4.82a2.23 2.23 0 0 1 2 .08l8 4.62c.59.34.66.85.15 1.15l-8.35 4.82a2.23 2.23 0 0 1-2-.08l-8-4.62c-.58-.34-.64-.86-.15-1.15zM178.73 362.61l8.34-4.82a2.23 2.23 0 0 1 2 .08l8 4.62c.59.34.65.86.14 1.15l-8.34 4.82a2.23 2.23 0 0 1-2-.08l-8-4.62c-.59-.34-.65-.86-.14-1.15zM167.43 369.13l8.35-4.82a2.23 2.23 0 0 1 2 .08l8 4.62c.59.34.65.86.14 1.15l-8.36 4.84a2.23 2.23 0 0 1-2-.08l-8-4.62c-.56-.36-.64-.88-.13-1.17zM156.14 375.65l8.34-4.82a2.25 2.25 0 0 1 2 .08l8 4.62c.59.34.66.86.15 1.15l-8.35 4.82a2.23 2.23 0 0 1-2-.08l-8-4.62c-.59-.34-.65-.8-.14-1.15zM286 313.64l22.1-12.76a2.19 2.19 0 0 1 2 .08l8 4.62c.59.34.65.85.14 1.15l-22.1 12.76a2.19 2.19 0 0 1-2-.08l-8-4.62c-.6-.34-.66-.85-.14-1.15zM274.69 320.16l8.35-4.82a2.23 2.23 0 0 1 2 .09l8 4.61c.59.34.65.86.14 1.15l-8.36 4.81a2.19 2.19 0 0 1-2-.08l-8-4.62c-.57-.3-.64-.84-.13-1.14zM263.4 326.68l8.35-4.82a2.23 2.23 0 0 1 2 .09l8 4.61c.59.34.66.86.15 1.15l-8.35 4.82a2.19 2.19 0 0 1-2-.08l-8-4.62c-.55-.34-.66-.83-.15-1.15zM252.11 333.2l8.34-4.82a2.23 2.23 0 0 1 2 .09l8 4.61c.59.34.65.86.14 1.15l-8.34 4.82a2.19 2.19 0 0 1-2-.08l-8-4.62c-.59-.35-.66-.85-.14-1.15zM240.81 339.72l8.35-4.82a2.23 2.23 0 0 1 2 .09l8 4.61c.59.34.65.86.14 1.15l-8.35 4.82a2.19 2.19 0 0 1-2-.08l-8-4.62c-.58-.34-.65-.87-.14-1.15zM229.52 346.24l8.34-4.81a2.22 2.22 0 0 1 2 .08l8 4.62c.59.34.66.85.15 1.14l-8.35 4.82a2.19 2.19 0 0 1-2-.08l-8-4.62c-.59-.34-.66-.85-.14-1.15zM218.22 352.76l8.35-4.81a2.19 2.19 0 0 1 2 .08l8 4.62c.59.34.65.85.14 1.14l-8.34 4.82a2.21 2.21 0 0 1-2-.08l-8-4.62c-.59-.34-.66-.85-.15-1.15zM206.93 359.29l8.35-4.82a2.19 2.19 0 0 1 2 .08l8 4.62c.58.34.65.85.14 1.15l-8.35 4.81a2.19 2.19 0 0 1-2-.08l-8-4.62c-.59-.34-.65-.85-.14-1.14zM195.64 365.81L204 361a2.19 2.19 0 0 1 2 .08l8 4.62c.59.34.65.85.14 1.15l-8.34 4.82a2.23 2.23 0 0 1-2-.09l-8-4.61c-.61-.35-.67-.87-.16-1.16zM184.34 372.33l8.35-4.82a2.19 2.19 0 0 1 2 .08l8 4.62c.59.34.65.85.14 1.15l-8.35 4.82a2.23 2.23 0 0 1-2-.09l-8-4.61c-.58-.34-.65-.86-.14-1.15zM173.05 378.85l8.35-4.85a2.19 2.19 0 0 1 2 .08l8 4.62c.59.34.66.85.15 1.15l-8.35 4.82a2.23 2.23 0 0 1-2-.09l-8-4.61c-.6-.31-.66-.83-.15-1.12zM147.92 393.36l22.18-12.81a2.19 2.19 0 0 1 2 .08l8 4.62c.59.34.65.85.14 1.15l-22.18 12.81a2.23 2.23 0 0 1-2-.09l-8-4.61c-.59-.34-.66-.86-.14-1.15zM206.86 372.29l53.52-30.91a2.23 2.23 0 0 1 2 .09l8 4.61c.59.34.65.86.14 1.15L217 378.13a2.19 2.19 0 0 1-2-.08l-8-4.62c-.59-.34-.65-.85-.14-1.14zM277.09 331.74l8.34-4.82a2.25 2.25 0 0 1 2 .08l8 4.62c.59.34.66.86.15 1.15l-8.35 4.82a2.23 2.23 0 0 1-2-.08l-8-4.62c-.59-.34-.65-.89-.14-1.15zM263.33 339.68l10.81-6.24a2.23 2.23 0 0 1 2 .08l8 4.62c.59.34.65.86.14 1.15l-10.81 6.24a2.19 2.19 0 0 1-2-.08l-8-4.62c-.59-.34-.65-.83-.14-1.15zM190.15 381.93l-8.34 4.82c-.51.29-.45.81.14 1.15l8 4.62a2.23 2.23 0 0 0 2 .08l8.35-4.82c.51-.29.44-.81-.15-1.15l-8-4.62a2.22 2.22 0 0 0-2-.08zM203.91 374l-10.81 6.24c-.51.29-.45.81.14 1.15l8 4.62a2.23 2.23 0 0 0 2 .08l10.76-6.25c.51-.3.45-.81-.14-1.15l-8-4.62a2.19 2.19 0 0 0-1.95-.07zM311 312.18l8.35-4.82a2.19 2.19 0 0 1 2 .08l8 4.62c.59.34.66.85.15 1.15l-8.4 4.79a2.2 2.2 0 0 1-2-.09l-8-4.61c-.58-.3-.64-.83-.1-1.12zM299.67 318.7l8.35-4.82a2.19 2.19 0 0 1 2 .08l8 4.62c.59.34.65.85.14 1.15l-8.34 4.82a2.22 2.22 0 0 1-2-.08l-8-4.62c-.59-.34-.66-.85-.15-1.15zM288.38 325.22l8.35-4.82a2.23 2.23 0 0 1 2 .08l8 4.62c.59.34.65.85.14 1.15l-8.35 4.82a2.23 2.23 0 0 1-2-.08l-8-4.62c-.59-.37-.65-.86-.14-1.15zM159.14 399.84l19.72-11.39a2.23 2.23 0 0 1 2 .08l8 4.62c.59.34.65.86.14 1.15l-19.72 11.39a2.23 2.23 0 0 1-2-.09l-8-4.61c-.59-.34-.65-.86-.14-1.15zM121.41 368.52l-8.35 4.82a2.19 2.19 0 0 1-2-.08l-4-2.3c-.59-.34-.65-.85-.14-1.15l8.38-4.81a2.23 2.23 0 0 1 2 .09l4 2.29c.55.33.62.85.11 1.14zM132.7 362l-8.35 4.82a2.19 2.19 0 0 1-2-.08l-4-2.3c-.59-.34-.66-.85-.15-1.15l8.35-4.82a2.23 2.23 0 0 1 2 .09l4 2.29c.6.34.66.86.15 1.15zM144 355.48l-8.35 4.82a2.23 2.23 0 0 1-2-.08l-4-2.3c-.59-.34-.65-.85-.14-1.15l8.34-4.82a2.25 2.25 0 0 1 2 .09l4 2.29c.59.34.66.86.15 1.15zM155.29 349l-8.35 4.82a2.23 2.23 0 0 1-2-.08l-4-2.3c-.58-.34-.65-.85-.14-1.15l8.35-4.82a2.23 2.23 0 0 1 2 .09l4 2.29c.59.3.65.82.14 1.15zM166.58 342.44l-8.34 4.82a2.22 2.22 0 0 1-2-.08l-4-2.3c-.59-.34-.65-.85-.14-1.15l8.34-4.82a2.23 2.23 0 0 1 2 .08l4 2.3c.56.34.65.86.14 1.15zM177.88 335.92l-8.35 4.82a2.23 2.23 0 0 1-2-.08l-4-2.3c-.59-.34-.65-.85-.14-1.15l8.35-4.82a2.23 2.23 0 0 1 2 .08l4 2.3c.58.34.65.86.14 1.15zM189.17 329.4l-8.35 4.82a2.23 2.23 0 0 1-2-.08l-4-2.3c-.59-.34-.66-.85-.15-1.15l8.35-4.82a2.23 2.23 0 0 1 2 .08l4 2.3c.6.34.66.85.15 1.15zM200.46 322.88l-8.34 4.82a2.23 2.23 0 0 1-2-.08l-4-2.3c-.59-.34-.65-.86-.14-1.15l8.34-4.82a2.25 2.25 0 0 1 2 .08l4 2.3c.59.34.68.85.14 1.15zM211.76 316.36l-8.35 4.82a2.23 2.23 0 0 1-2-.09l-4-2.29c-.59-.34-.65-.86-.14-1.15l8.35-4.82a2.23 2.23 0 0 1 2 .08l4 2.3c.58.34.65.85.14 1.15zM223.05 309.84l-8.34 4.82a2.25 2.25 0 0 1-2-.09l-4-2.29c-.59-.34-.66-.86-.15-1.15l8.35-4.82a2.23 2.23 0 0 1 2 .08l4 2.3c.59.31.65.85.14 1.15zM234.35 303.32l-8.35 4.82a2.23 2.23 0 0 1-2-.09l-4-2.29c-.59-.34-.65-.86-.14-1.15l8.35-4.82a2.19 2.19 0 0 1 2 .08l4 2.3c.58.34.65.83.14 1.15zM245.64 296.8l-8.35 4.82a2.23 2.23 0 0 1-2-.09l-4-2.29c-.59-.34-.66-.86-.15-1.15l8.35-4.82a2.19 2.19 0 0 1 2 .08l4 2.3c.6.35.66.85.15 1.15zM256.93 290.28l-8.34 4.82a2.23 2.23 0 0 1-2-.09l-4-2.29c-.59-.34-.65-.86-.14-1.15l8.34-4.82a2.19 2.19 0 0 1 2 .08l4 2.3c.59.34.65.87.14 1.15zM273.33 280.81l-13.45 7.76a2.19 2.19 0 0 1-2-.08l-4-2.29c-.59-.34-.65-.86-.14-1.15l13.45-7.77a2.23 2.23 0 0 1 2 .08l4 2.3c.59.34.65.85.14 1.15z"/><path class="cls-2" d="M315.51 382l-27.21 15.7c-.73.43-.73 1.11 0 1.53l29.85-17.24a2.87 2.87 0 0 0-2.64.01z"/><path fill="#9faed4" d="M250.42 278.64l-141.04 81.44-1.93-1.12 141.04-81.43 1.93 1.11z"/><path class="cls-2" d="M87.64 235.02v126.14l-3.02-1.74V233.28l3.02 1.74z"/><path class="cls-6" d="M261.38 270.09L94.57 366.4c-3.83 2.21-6.93 1-6.93-5.24V235c0-7.09 2.32-10.54 6.93-13.24l166.81-96.31c3.82-2.21 6.93-1.23 6.93 5.24v126.16c0 8.25-2.75 10.84-6.93 13.24z"/><path class="cls-4" d="M261.84 126.2L94.11 223a12.37 12.37 0 0 0-5.61 9.67v129.81c0 3.55 2.52 5 5.61 3.2l167.73-96.84a12.37 12.37 0 0 0 5.6-9.67V129.39c0-3.54-2.51-4.98-5.6-3.19z"/><path id="_Clipping_Path_" data-name="&lt;Clipping Path&gt;" class="cls-6" d="M94.97 351.32V229.96l166-95.84v121.36l-166 95.84z"/><path opacity=".2" fill="#eef5fb" d="M238.04 268.72l-105.06-60.7 127.99-73.9v121.36l-22.93 13.24z"/><path class="cls-1" d="M311.52 360.25l-23-13.3a5.5 5.5 0 0 0-5 0l-55.79 32.21c-1.38.8-1.39 2.09 0 2.88l23 13.3zM281.6 378.63l-29.92 17.27 12.47 7.2a5.49 5.49 0 0 0 5 0l27.42-15.82zM282.56 378.08l15 8.63 27.41-15.83c1.38-.79 1.39-2.08 0-2.88l-12.47-7.19z"/><path class="cls-2" d="M227.71 380.42l55.79-32.21a5.5 5.5 0 0 1 5 0l22 12.68 1.08-.63-23-13.3a5.5 5.5 0 0 0-5 0l-55.79 32.21c-1 .56-1.25 1.37-.86 2.07a2.2 2.2 0 0 1 .78-.82zM281.6 379.88l13.87 8.01 1.09-.62-14.96-8.64-29.92 17.27 1.08.63 28.84-16.65zM312.48 362.05l12.47 7.2a2.34 2.34 0 0 1 .84.81c.39-.7.12-1.5-.84-2.06l-12.47-7.19-29.92 17.27 1.08.62z"/><path class="cls-1" d="M432.43 316.52l-6.26-6.9-63.78-36.3c-3.91-2.22-7.13-8.3-7.17-13.49l-1-167.57c-4.89-6.46-3.11-14.36-3.11-14.36l5.42-3.13c1.25-.76 2.88-.72 4.67.3l70.32 40c3.91 2.23 7.14 8.3 7.17 13.5l1.12 179.36c0 2.62-.79 4.54-2.09 5.51z"/><path class="cls-2" d="M425 149.93l-6.43 13.59-64.31-56.64-.09-14.62c-4.89-6.46-3.11-14.36-3.11-14.36l5.42-3.13c1.25-.76 2.88-.72 4.67.3l70.32 40c3.91 2.23 7.14 8.3 7.17 13.5l.16 13.37zM424.05 295.26l15.63-9 .09 21.72c0 2.62-.79 4.54-2.09 5.51l-5.26 3-6.26-6.9-14.86-8.46z"/><path class="cls-1" d="M426.46 118l-70.32-40c-3.91-2.23-7.08.2-7.05 5.4l1.11 179.36c0 5.2 3.26 11.27 7.17 13.5l70.32 40c3.91 2.23 7.09-.2 7.06-5.4l-1.12-179.36c-.03-5.21-3.26-11.29-7.17-13.5z"/><path class="cls-3" d="M434.66 288.13l-84.49-47.94-1.44-144.43 85.02 48.85.91 143.52z"/><path class="cls-8" d="M414.02 294.74l-84.49-47.93-1.45-144.43 85.03 48.85.91 143.51z"/><ellipse class="cls-2" cx="388.41" cy="276.93" rx="6.41" ry="11.33" transform="rotate(-38.09 388.415 276.943)"/><path class="cls-2" d="M409.3 121.17L375.69 102c-.61-.35-1.11 0-1.1.84a2.65 2.65 0 0 0 1.11 2.11l33.61 19.19c.61.35 1.11 0 1.1-.84a2.65 2.65 0 0 0-1.11-2.13zM372.17 99.79c-.61-.35-1.1 0-1.1.84a2.66 2.66 0 0 0 1.12 2.11c.61.34 1.1 0 1.1-.85a2.65 2.65 0 0 0-1.12-2.1z"/><path class="cls-8" d="M287.72 261.53L121.34 356.8V235.81l166.38-95.27v120.99z"/><path class="cls-9" d="M138.53 249.93l6.13 3.37v8.68l-6.13-3.37v-8.68z"/><path fill="url(#linear-gradient)" d="M204.08 212.12l6.13 3.37v8.68l-6.13-3.37v-8.68z"/><path fill="url(#linear-gradient-2)" d="M210.21 224.09l-65.55 37.89v-8.68l65.55-37.89v8.68z"/><path class="cls-12" d="M210.21 215.41l-6.13-3.29-65.55 37.81 6.13 3.37 65.55-37.89z"/><path class="cls-9" d="M138.53 272.82l6.13 3.37v8.68l-6.13-3.37v-8.68z"/><path fill="url(#linear-gradient-3)" d="M204.08 235.01l6.13 3.37v8.68l-6.13-3.37v-8.68z"/><path fill="url(#linear-gradient-4)" d="M210.21 246.98l-65.55 37.89v-8.68l65.55-37.89v8.68z"/><path class="cls-12" d="M210.21 238.3l-6.13-3.29-65.55 37.81 6.13 3.37 65.55-37.89z"/><path class="cls-9" d="M138.53 297.05l6.13 3.37v8.67l-6.13-3.37v-8.67z"/><path fill="url(#linear-gradient-5)" d="M204.08 259.24l6.13 3.37v8.68l-6.13-3.37v-8.68z"/><path fill="url(#linear-gradient-6)" d="M210.21 271.2l-65.55 37.89v-8.67l65.55-37.89v8.67z"/><path class="cls-12" d="M210.21 262.53l-6.13-3.29-65.55 37.81 6.13 3.37 65.55-37.89z"/><path class="cls-8" d="M337.55 274.84L171.18 370.1V249.11l166.37-95.26v120.99z"/><path class="cls-9" d="M188.37 263.24l6.13 3.37v8.67l-6.13-3.37v-8.67z"/><path fill="url(#linear-gradient-7)" d="M253.91 225.43l6.14 3.37v8.67l-6.14-3.37v-8.67z"/><path fill="url(#linear-gradient-8)" d="M260.05 237.39l-65.55 37.89v-8.67l65.55-37.89v8.67z"/><path class="cls-12" d="M260.05 228.72l-6.14-3.29-65.54 37.81 6.13 3.37 65.55-37.89z"/><path class="cls-9" d="M188.37 286.13l6.13 3.37v8.67l-6.13-3.37v-8.67z"/><path fill="url(#linear-gradient-9)" d="M253.91 248.32l6.14 3.37v8.67l-6.14-3.37v-8.67z"/><path fill="url(#linear-gradient-10)" d="M260.05 260.28l-65.55 37.89v-8.67l65.55-37.89v8.67z"/><path class="cls-12" d="M260.05 251.61l-6.14-3.29-65.54 37.81 6.13 3.37 65.55-37.89z"/><path class="cls-9" d="M188.37 310.35l6.13 3.37v8.68l-6.13-3.37v-8.68z"/><path fill="url(#linear-gradient-11)" d="M253.91 272.55l6.14 3.37v8.67l-6.14-3.37v-8.67z"/><path fill="url(#linear-gradient-12)" d="M260.05 284.51L194.5 322.4v-8.68l65.55-37.89v8.68z"/><path class="cls-12" d="M260.05 275.83l-6.14-3.28-65.54 37.8 6.13 3.37 65.55-37.89z"/><path class="cls-1" d="M324.51 212c-.07-.26-.16-.49-.24-.75.77-4.88 1.33-8.46 1.33-8.46l-11.41-4.72a16.06 16.06 0 0 0-2.62-1.08c-5.27-1.6-11.42-.57-17.38 3.5-12.71 8.68-19.75 27.91-15.72 42.95 1.85 6.9 5.71 11.68 10.57 14l.59.24c.37.16.74.32 1.13.45l13.11 5.33s2.82-4.37 6.09-9.46c11.96-8.92 18.46-27.4 14.55-42z"/><ellipse class="cls-3" cx="313.2" cy="232.65" rx="32.35" ry="22.93" transform="rotate(-70.59 313.186 232.65)"/><path class="cls-12" d="M390.92 195.72a5.79 5.79 0 0 0 0-7.61l-31.08-35.88a5.72 5.72 0 0 0-6.53-1.6 5.65 5.65 0 0 0-1.32.72l-10 5.49.75 8.9 6.86 7.37v18.79a5.81 5.81 0 0 0 5.81 5.81h17.1l5.24 5.64 9.91-5.76a5.68 5.68 0 0 0 3.21-1.87z"/><path d="M380.26 194.14l-31.08-35.89a5.81 5.81 0 0 0-10.2 3.8v35.89a5.81 5.81 0 0 0 5.81 5.81h31.07a5.81 5.81 0 0 0 4.4-9.61z" fill="url(#linear-gradient-13)"/></svg>