<svg id="Layer_1" data-name="Layer 1" xmlns="http://www.w3.org/2000/svg" xmlns:xlink="http://www.w3.org/1999/xlink" viewBox="0 0 523.23 521.42"><defs><style>.cls-1{fill:#d1dbef}.cls-2{fill:#808cc5}.cls-26,.cls-3{fill:#ebf1f9}.cls-4{fill:#2b2e6e}.cls-6{fill:#6b78b9}.cls-26{opacity:.2}.cls-8{fill:#9c4d23}.cls-11{fill:#ca6728}.cls-35{fill:#82142a}.cls-36{fill:#cc1f36}.cls-37{fill:#edbbc3}.cls-38{fill:#282642}</style><linearGradient id="linear-gradient" x1="-577.12" y1="328.02" x2="-572.84" y2="328.02" gradientTransform="matrix(-1 0 0 1 -368.92 0)" gradientUnits="userSpaceOnUse"><stop offset="0" stop-color="#eab226"/><stop offset=".43" stop-color="#f4ca19"/><stop offset=".98" stop-color="#fde800"/></linearGradient><linearGradient id="linear-gradient-2" x1="-640.13" y1="348.51" x2="-572.84" y2="348.51" xlink:href="#linear-gradient"/><linearGradient id="linear-gradient-3" x1="-581.41" y1="319.6" x2="-577.13" y2="319.6" xlink:href="#linear-gradient"/><linearGradient id="linear-gradient-4" x1="-644.42" y1="340.09" x2="-577.13" y2="340.09" xlink:href="#linear-gradient"/><linearGradient id="linear-gradient-5" x1="-585.7" y1="311.17" x2="-581.41" y2="311.17" xlink:href="#linear-gradient"/><linearGradient id="linear-gradient-6" x1="-648.7" y1="331.66" x2="-581.41" y2="331.66" xlink:href="#linear-gradient"/><linearGradient id="linear-gradient-7" x1="-589.99" y1="302.75" x2="-585.7" y2="302.75" xlink:href="#linear-gradient"/><linearGradient id="linear-gradient-8" x1="-652.99" y1="323.24" x2="-585.7" y2="323.24" xlink:href="#linear-gradient"/><linearGradient id="linear-gradient-9" x1="-594.28" y1="294.32" x2="-589.99" y2="294.32" xlink:href="#linear-gradient"/><linearGradient id="linear-gradient-10" x1="-657.28" y1="314.81" x2="-589.99" y2="314.81" xlink:href="#linear-gradient"/><linearGradient id="linear-gradient-11" x1="-616.86" y1="147.09" x2="-613.31" y2="147.09" gradientTransform="matrix(-1 0 0 1 -364.92 0)" xlink:href="#linear-gradient"/><linearGradient id="linear-gradient-12" x1="-749.78" y1="187.12" x2="-613.31" y2="187.12" gradientTransform="matrix(-1 0 0 1 -364.92 0)" xlink:href="#linear-gradient"/><linearGradient id="linear-gradient-13" x1="-664.83" y1="158.05" x2="-661.27" y2="158.05" gradientTransform="matrix(-1 0 0 1 -364.92 0)" xlink:href="#linear-gradient"/><linearGradient id="linear-gradient-14" x1="-699.27" y1="169.96" x2="-661.27" y2="169.96" gradientTransform="matrix(-1 0 0 1 -364.92 0)" xlink:href="#linear-gradient"/><linearGradient id="linear-gradient-15" x1="-715.33" y1="186.95" x2="-711.77" y2="186.95" gradientTransform="matrix(-1 0 0 1 -364.92 0)" xlink:href="#linear-gradient"/><linearGradient id="linear-gradient-16" x1="-749.78" y1="198.87" x2="-711.77" y2="198.87" gradientTransform="matrix(-1 0 0 1 -364.92 0)" xlink:href="#linear-gradient"/><linearGradient id="linear-gradient-17" x1="-586.11" y1="161.39" x2="-582.56" y2="161.39" gradientTransform="matrix(-1 0 0 1 -364.92 0)" xlink:href="#linear-gradient"/><linearGradient id="linear-gradient-18" x1="-620.56" y1="187.82" x2="-582.56" y2="187.82" gradientTransform="matrix(-1 0 0 1 -364.92 0)" xlink:href="#linear-gradient"/><linearGradient id="linear-gradient-19" x1="-586.11" y1="146.15" x2="-582.56" y2="146.15" gradientTransform="matrix(-1 0 0 1 -364.92 0)" xlink:href="#linear-gradient"/><linearGradient id="linear-gradient-20" x1="-620.56" y1="158.07" x2="-582.56" y2="158.07" gradientTransform="matrix(-1 0 0 1 -364.92 0)" xlink:href="#linear-gradient"/><linearGradient id="linear-gradient-21" x1="-699.3" y1="226.13" x2="-695.75" y2="226.13" gradientTransform="matrix(-1 0 0 1 -364.92 0)" xlink:href="#linear-gradient"/><linearGradient id="linear-gradient-22" x1="-733.75" y1="238.05" x2="-695.75" y2="238.05" gradientTransform="matrix(-1 0 0 1 -364.92 0)" xlink:href="#linear-gradient"/><linearGradient id="linear-gradient-23" x1="-699.3" y1="210.9" x2="-695.75" y2="210.9" gradientTransform="matrix(-1 0 0 1 -364.92 0)" xlink:href="#linear-gradient"/><linearGradient id="linear-gradient-24" x1="-733.75" y1="222.81" x2="-695.75" y2="222.81" gradientTransform="matrix(-1 0 0 1 -364.92 0)" xlink:href="#linear-gradient"/></defs><path class="cls-1" d="M430.91 346.82V204.31c0-8-2.62-11.91-7.83-15L234.63 80.55c-1.93-1.11-3.69-1.51-5-1s3.17-1.84 3.47-2c1.35-.51 3.09-.11 5 1l188.39 108.88c5.21 3 7.83 6.94 7.83 14.95V344.9c0 3.83-1.05 6-2.72 6.74l-2.84 1.59c1.33-.96 2.15-3.03 2.15-6.41zM298.45 441.69c-5 2.88-12.54 3.2-16.86.7L93.13 333.59c-1.94-1.13-2.89-2.63-2.91-4.2v-7.72a5.12 5.12 0 0 0 2.9 4l188.46 108.8c4.32 2.5 11.87 2.18 16.86-.7z"/><path class="cls-2" d="M298.45 433.73l123.42-71.25c2.54-1.47 3.92-3.31 4.1-5.1v7.2a4.45 4.45 0 0 1 0 .73v.05c-.19 1.78-1.57 3.62-4.1 5.07l-123.42 71.26z"/><path class="cls-3" d="M144.69 286.82l-50.35 29.07c-5 2.88-5.53 7.24-1.21 9.74l188.46 108.8c4.32 2.5 11.87 2.18 16.86-.7l50.36-29.07z"/><path class="cls-1" d="M348.81 404.66l73.06-42.18c5-2.89 5.54-7.25 1.21-9.74L234.63 243.93c-4.32-2.49-11.88-2.18-16.87.7l-73.07 42.19z"/><path class="cls-4" d="M380.08 362.46l9.43 5.44a2.52 2.52 0 0 0 2.25-.09l9-5.22c.67-.38.74-1 .17-1.3l-9.43-5.44a2.49 2.49 0 0 0-2.25.09l-9 5.22c-.67.38-.75.96-.17 1.3zM367.32 355.09l9.43 5.44a2.49 2.49 0 0 0 2.25-.09l9-5.22c.66-.38.73-1 .16-1.3l-9.43-5.44a2.52 2.52 0 0 0-2.25.09l-9 5.22c-.66.38-.74.97-.16 1.3zM354.56 347.72l9.43 5.45a2.49 2.49 0 0 0 2.25-.1l9-5.21c.66-.39.73-1 .16-1.3l-9.4-5.45a2.49 2.49 0 0 0-2.25.1l-9 5.21c-.69.39-.75.97-.19 1.3zM341.8 340.36l9.43 5.44a2.52 2.52 0 0 0 2.25-.09l9-5.22c.66-.38.73-1 .16-1.3l-9.43-5.44a2.49 2.49 0 0 0-2.25.09l-9 5.22c-.66.38-.73.94-.16 1.3zM329 333l9.43 5.44a2.49 2.49 0 0 0 2.25-.09l9-5.22c.66-.38.74-1 .16-1.3l-9.43-5.44a2.52 2.52 0 0 0-2.25.09l-9 5.22c-.62.37-.69.96-.16 1.3zM316.28 325.62l9.43 5.45A2.49 2.49 0 0 0 328 331l9-5.21c.66-.39.74-1 .16-1.3l-9.43-5.49a2.49 2.49 0 0 0-2.25.1l-9 5.21c-.7.4-.77.98-.2 1.31zM303.52 318.26l9.48 5.44a2.52 2.52 0 0 0 2.25-.09l9-5.22c.66-.38.74-1 .16-1.3l-9.41-5.44a2.49 2.49 0 0 0-2.25.09l-9 5.22c-.75.38-.75.96-.23 1.3zM290.76 310.89l9.43 5.44a2.49 2.49 0 0 0 2.25-.09l9-5.22c.67-.38.74-1 .16-1.29l-9.43-5.45a2.52 2.52 0 0 0-2.25.09l-9 5.22c-.66.41-.73.97-.16 1.3zM278 303.52l9.43 5.45a2.47 2.47 0 0 0 2.24-.1l9-5.21c.67-.39.74-1 .16-1.3l-9.43-5.45a2.5 2.5 0 0 0-2.25.1l-9 5.21c-.65.39-.72.97-.15 1.3zM265.25 296.16l9.43 5.44a2.52 2.52 0 0 0 2.25-.09l9-5.22c.67-.38.74-1 .16-1.3l-9.43-5.44a2.49 2.49 0 0 0-2.25.09l-9 5.22c-.67.38-.74.96-.16 1.3zM252.49 288.79l9.43 5.44a2.46 2.46 0 0 0 2.25-.09l9-5.22c.67-.38.74-1 .16-1.29l-9.43-5.45a2.52 2.52 0 0 0-2.25.09l-9 5.22c-.65.39-.74.97-.16 1.3zM239.73 281.42l9.43 5.45a2.5 2.5 0 0 0 2.25-.1l9-5.21c.67-.39.74-1 .16-1.3l-9.43-5.45a2.5 2.5 0 0 0-2.25.1l-9 5.21c-.67.39-.74.97-.16 1.3zM227 274.06l9.43 5.44a2.52 2.52 0 0 0 2.25-.09l9-5.22c.67-.38.74-1 .16-1.3l-9.43-5.44a2.5 2.5 0 0 0-2.24.09l-9 5.22c-.71.38-.78.96-.17 1.3zM208.44 263.36l15.2 8.77a2.46 2.46 0 0 0 2.25-.09l9-5.22c.67-.38.74-1 .17-1.29l-15.2-8.78a2.49 2.49 0 0 0-2.25.1l-9 5.21c-.67.39-.74.94-.17 1.3zM216.64 269.52l-9.43-5.45a2.49 2.49 0 0 0-2.25.1l-9 5.21c-.67.39-.74 1-.17 1.3l9.43 5.45a2.49 2.49 0 0 0 2.25-.1l9-5.21c.67-.39.75-.97.17-1.3zM229.4 276.88l-9.4-5.44a2.52 2.52 0 0 0-2.25.09l-9 5.22c-.66.38-.73 1-.16 1.3l9.43 5.44a2.49 2.49 0 0 0 2.25-.09l9-5.22c.63-.38.73-.96.13-1.3zM242.16 284.25l-9.43-5.44a2.49 2.49 0 0 0-2.25.09l-9 5.22c-.66.38-.73 1-.16 1.29l9.43 5.45a2.52 2.52 0 0 0 2.25-.09l9-5.22c.66-.38.74-.97.16-1.3zM254.92 291.62l-9.43-5.45a2.49 2.49 0 0 0-2.25.1l-9 5.21c-.66.39-.73 1-.16 1.3l9.43 5.45a2.49 2.49 0 0 0 2.25-.1l9-5.21c.66-.39.73-.92.16-1.3zM267.68 299l-9.43-5.44a2.52 2.52 0 0 0-2.25.09l-9 5.22c-.66.38-.74 1-.16 1.3l9.43 5.44a2.49 2.49 0 0 0 2.25-.09l9-5.22c.66-.4.73-.98.16-1.3zM280.44 306.35l-9.44-5.44a2.49 2.49 0 0 0-2.25.09l-9 5.22c-.66.38-.74 1-.16 1.29L269 313a2.52 2.52 0 0 0 2.25-.09l9-5.22c.69-.42.75-1.01.19-1.34zM293.2 313.72l-9.43-5.45a2.49 2.49 0 0 0-2.25.1l-9 5.21c-.66.39-.74 1-.16 1.3l9.43 5.45a2.49 2.49 0 0 0 2.25-.1l9-5.21c.66-.39.73-.97.16-1.3zM306 321.08l-9.43-5.44a2.52 2.52 0 0 0-2.25.09l-9 5.22c-.66.38-.74 1-.16 1.3l9.43 5.44a2.49 2.49 0 0 0 2.25-.09l9-5.22c.62-.38.69-.96.16-1.3zM318.71 328.45l-9.43-5.45a2.44 2.44 0 0 0-2.24.09l-9 5.22c-.67.38-.74 1-.16 1.29l9.43 5.45a2.52 2.52 0 0 0 2.25-.09l9-5.22c.66-.38.73-.96.15-1.29zM331.47 335.82l-9.47-5.45a2.5 2.5 0 0 0-2.25.1l-9 5.21c-.67.39-.74 1-.16 1.3l9.43 5.45a2.5 2.5 0 0 0 2.25-.1l9-5.21c.73-.39.78-.97.2-1.3zM344.23 343.18l-9.43-5.44a2.52 2.52 0 0 0-2.25.09l-9 5.22c-.67.38-.74 1-.16 1.3l9.43 5.44a2.52 2.52 0 0 0 2.25-.09l9-5.22c.67-.38.74-.96.16-1.3zM357 350.55l-9.43-5.44a2.46 2.46 0 0 0-2.25.09l-9 5.22c-.67.38-.74 1-.16 1.29l9.43 5.45a2.52 2.52 0 0 0 2.25-.09l9-5.22c.66-.39.73-.97.16-1.3zM369.75 357.92l-9.43-5.45a2.5 2.5 0 0 0-2.25.1l-9 5.21c-.67.39-.74 1-.16 1.3l9.43 5.45a2.5 2.5 0 0 0 2.25-.1l9-5.21c.67-.39.74-.97.16-1.3zM388.28 368.61l-15.2-8.77a2.52 2.52 0 0 0-2.25.09l-9 5.22c-.67.38-.74 1-.16 1.3l15.19 8.77a2.52 2.52 0 0 0 2.25-.09l9-5.22c.67-.38.74-.97.17-1.3zM213.17 282.16l-18.64-10.77a2.49 2.49 0 0 0-2.25.1l-9 5.21c-.67.39-.74 1-.17 1.3l18.64 10.76a2.46 2.46 0 0 0 2.25-.09l9-5.22c.67-.38.75-.96.17-1.29zM375.49 375.87l-18.64-10.76a2.52 2.52 0 0 0-2.25.09l-9 5.22c-.67.38-.74 1-.16 1.3l18.64 10.76a2.52 2.52 0 0 0 2.25-.09l9-5.22c.67-.38.74-.96.16-1.3zM225.93 289.52l-9.43-5.44a2.52 2.52 0 0 0-2.25.09l-9 5.22c-.67.38-.74 1-.17 1.3l9.43 5.44a2.52 2.52 0 0 0 2.25-.09l9-5.22c.67-.38.75-.96.17-1.3zM238.69 296.89l-9.43-5.45a2.49 2.49 0 0 0-2.25.1l-9 5.21c-.66.39-.73 1-.16 1.3l9.43 5.45a2.49 2.49 0 0 0 2.25-.1l9-5.21c.66-.39.74-.97.16-1.3zM251.45 304.26l-9.45-5.45a2.52 2.52 0 0 0-2.25.09l-9 5.22c-.66.39-.73 1-.16 1.3l9.43 5.44a2.49 2.49 0 0 0 2.25-.09l9-5.22c.73-.38.73-.96.18-1.29zM264.21 311.62l-9.43-5.44a2.49 2.49 0 0 0-2.25.09l-9 5.22c-.66.38-.73 1-.16 1.3l9.43 5.44a2.52 2.52 0 0 0 2.25-.09l9-5.22c.66-.38.73-.92.16-1.3zM277 319l-9.43-5.45a2.49 2.49 0 0 0-2.25.1l-9 5.21c-.66.39-.74 1-.16 1.3l9.43 5.45a2.49 2.49 0 0 0 2.25-.1l9-5.21c.63-.4.7-.98.16-1.3zM289.73 326.36l-9.43-5.45a2.52 2.52 0 0 0-2.25.09l-9 5.22c-.66.38-.74 1-.16 1.3l9.43 5.44a2.49 2.49 0 0 0 2.25-.09l9-5.22c.66-.38.73-.96.16-1.29zM302.49 333.72l-9.43-5.44a2.49 2.49 0 0 0-2.25.09l-9 5.22c-.66.38-.74 1-.16 1.3l9.43 5.44a2.52 2.52 0 0 0 2.25-.09l9-5.22c.67-.38.73-.97.16-1.3zM315.24 341.09l-9.43-5.45a2.47 2.47 0 0 0-2.24.1l-9 5.21c-.67.39-.74 1-.16 1.3l9.43 5.45a2.49 2.49 0 0 0 2.25-.1l9-5.21c.66-.39.73-.97.15-1.3zM328 348.46l-9.43-5.46a2.5 2.5 0 0 0-2.24.09l-9 5.22c-.67.38-.74 1-.16 1.3l9.43 5.44a2.49 2.49 0 0 0 2.25-.09l9-5.22c.66-.37.73-.95.15-1.28zM340.76 355.82l-9.43-5.44a2.49 2.49 0 0 0-2.25.09l-9 5.22c-.67.38-.74 1-.16 1.3l9.43 5.44a2.52 2.52 0 0 0 2.25-.09l9-5.22c.67-.38.74-.97.16-1.3zM353.52 363.19l-9.43-5.45a2.5 2.5 0 0 0-2.25.1l-9 5.21c-.67.39-.74 1-.16 1.3l9.43 5.45a2.5 2.5 0 0 0 2.25-.1l9-5.21c.64-.39.74-.97.16-1.3zM206.83 293.13l-25-14.42a2.49 2.49 0 0 0-2.25.1l-9 5.21c-.67.39-.74 1-.17 1.3l25 14.42a2.52 2.52 0 0 0 2.25-.09l9-5.22c.67-.38.74-.96.17-1.3zM219.58 300.5l-9.43-5.44a2.44 2.44 0 0 0-2.24.09l-9 5.22c-.67.38-.74 1-.16 1.29l9.43 5.45a2.52 2.52 0 0 0 2.25-.09l9-5.22c.66-.39.73-.97.15-1.3zM232.34 307.87l-9.43-5.45a2.5 2.5 0 0 0-2.25.1l-9 5.21c-.67.39-.74 1-.16 1.3l9.43 5.44a2.46 2.46 0 0 0 2.25-.09l9-5.21c.67-.39.74-.97.16-1.3zM245.1 315.23l-9.43-5.44a2.52 2.52 0 0 0-2.25.09l-9 5.22c-.67.38-.74 1-.16 1.3l9.43 5.44a2.52 2.52 0 0 0 2.25-.09l9-5.22c.67-.38.74-.96.16-1.3zM257.86 322.6l-9.43-5.44a2.46 2.46 0 0 0-2.25.09l-9 5.21c-.67.39-.74 1-.16 1.3l9.43 5.45a2.5 2.5 0 0 0 2.25-.1l9-5.21c.67-.39.74-.97.16-1.3zM270.62 330l-9.43-5.45a2.49 2.49 0 0 0-2.25.1l-9 5.21c-.67.39-.74 1-.16 1.3l9.43 5.44a2.44 2.44 0 0 0 2.24-.09l9-5.22c.68-.41.75-.99.17-1.29zM283.38 337.33l-9.38-5.44a2.52 2.52 0 0 0-2.25.09l-9 5.22c-.67.38-.74 1-.17 1.3l9.43 5.44a2.52 2.52 0 0 0 2.25-.09l9-5.22c.63-.38.74-.96.12-1.3zM296.14 344.7l-9.43-5.44a2.46 2.46 0 0 0-2.25.09l-9 5.21c-.67.39-.74 1-.17 1.3l9.43 5.45a2.49 2.49 0 0 0 2.25-.1l9-5.21c.67-.39.75-1 .17-1.3zM308.9 352.07l-9.43-5.45a2.52 2.52 0 0 0-2.25.09l-9 5.22c-.66.39-.73 1-.16 1.3l9.43 5.44a2.46 2.46 0 0 0 2.25-.09l9-5.22c.66-.36.74-.96.16-1.29zM321.66 359.43l-9.43-5.43a2.52 2.52 0 0 0-2.25.09l-9 5.22c-.66.38-.73 1-.16 1.3l9.43 5.44a2.52 2.52 0 0 0 2.25-.09l9-5.22c.66-.39.74-.97.16-1.31zM334.42 366.8l-9.42-5.45a2.49 2.49 0 0 0-2.25.1l-9 5.21c-.66.39-.73 1-.16 1.3l9.43 5.45a2.49 2.49 0 0 0 2.25-.1l9-5.21c.65-.39.73-.97.15-1.3zM362.81 383.19l-25.06-14.47a2.52 2.52 0 0 0-2.25.09l-9 5.22c-.66.39-.74 1-.16 1.3l25.07 14.47a2.52 2.52 0 0 0 2.25-.09l9-5.22c.66-.38.73-.96.15-1.3zM296.22 359.39l-60.47-34.91a2.46 2.46 0 0 0-2.25.09l-9 5.22c-.67.38-.74 1-.16 1.29L284.77 366a2.49 2.49 0 0 0 2.25-.1l9-5.21c.7-.39.78-.97.2-1.3zM216.88 313.58l-9.43-5.45a2.49 2.49 0 0 0-2.25.1l-9 5.21c-.66.39-.73 1-.16 1.3l9.43 5.45a2.49 2.49 0 0 0 2.25-.1l9-5.21c.66-.39.74-.97.16-1.3zM232.42 322.55l-12.21-7.05a2.52 2.52 0 0 0-2.25.09l-9 5.22c-.66.39-.73 1-.16 1.3l12.2 7.05a2.49 2.49 0 0 0 2.25-.09l9-5.22c.68-.38.75-.96.17-1.3zM315.09 370.28l9.43 5.45c.58.33.51.91-.16 1.3l-9 5.21a2.5 2.5 0 0 1-2.25.1l-9.43-5.45c-.58-.33-.51-.91.16-1.3l9-5.21a2.5 2.5 0 0 1 2.25-.1zM299.55 361.31l12.21 7.05c.58.33.51.92-.16 1.3l-9 5.22a2.52 2.52 0 0 1-2.25.09l-12.22-7.05c-.57-.34-.5-.92.16-1.3l9-5.22a2.52 2.52 0 0 1 2.26-.09zM178.6 291.48l-9.43-5.48a2.49 2.49 0 0 0-2.25.1l-9 5.21c-.67.39-.74 1-.16 1.3l9.43 5.45a2.47 2.47 0 0 0 2.24-.1l9-5.21c.68-.36.75-.94.17-1.27zM191.36 298.85l-9.43-5.45a2.52 2.52 0 0 0-2.25.09l-9 5.22c-.67.39-.74 1-.17 1.3l9.43 5.44a2.46 2.46 0 0 0 2.25-.09l9-5.22c.67-.38.75-.96.17-1.29zM204.12 306.21l-9.43-5.44a2.52 2.52 0 0 0-2.25.09l-9 5.22c-.67.38-.74 1-.17 1.3l9.43 5.44a2.52 2.52 0 0 0 2.25-.09l9-5.22c.67-.38.75-.96.17-1.3zM350.13 390.51l-22.28-12.86a2.52 2.52 0 0 0-2.25.09l-9 5.22c-.67.38-.74 1-.16 1.3l22.28 12.86a2.52 2.52 0 0 0 2.25-.09l9-5.22c.67-.38.74-.96.16-1.3zM392.76 355.13l9.43 5.45a2.52 2.52 0 0 0 2.25-.09l4.49-2.6c.67-.38.74-1 .16-1.3l-9.43-5.44a2.52 2.52 0 0 0-2.25.09l-4.49 2.6c-.66.38-.74.96-.16 1.29zM380 347.77l9.43 5.44a2.49 2.49 0 0 0 2.25-.09l4.49-2.59c.67-.39.74-1 .16-1.3l-9.43-5.45a2.5 2.5 0 0 0-2.25.1l-4.49 2.59c-.66.38-.74.97-.16 1.3zM367.24 340.4l9.43 5.45a2.49 2.49 0 0 0 2.25-.1l4.49-2.59c.67-.39.74-1 .16-1.3l-9.43-5.44a2.44 2.44 0 0 0-2.24.09l-4.5 2.59c-.66.39-.74.97-.16 1.3zM354.48 333l9.43 5.45a2.52 2.52 0 0 0 2.25-.09l4.49-2.6c.67-.38.74-1 .17-1.3l-9.43-5.44a2.52 2.52 0 0 0-2.25.09l-4.5 2.6c-.64.41-.73.99-.16 1.29zM341.72 325.67l9.43 5.44a2.49 2.49 0 0 0 2.25-.09l4.49-2.59c.67-.39.74-1 .17-1.3l-9.43-5.45a2.49 2.49 0 0 0-2.25.1l-4.5 2.59c-.66.38-.73.97-.16 1.3zM329 318.3l9.43 5.45a2.49 2.49 0 0 0 2.25-.1l4.5-2.59c.66-.39.73-1 .16-1.3l-9.43-5.44a2.49 2.49 0 0 0-2.25.09l-4.5 2.59c-.7.39-.77 1-.16 1.3zM316.2 310.94l9.43 5.44a2.52 2.52 0 0 0 2.25-.09l4.5-2.6c.66-.38.73-1 .16-1.3l-9.43-5.39a2.52 2.52 0 0 0-2.25.09l-4.49 2.6c-.67.31-.74.91-.17 1.25zM303.44 303.57l9.43 5.44a2.49 2.49 0 0 0 2.25-.09l4.5-2.59c.66-.39.73-1 .16-1.3l-9.43-5.45a2.49 2.49 0 0 0-2.25.1l-4.49 2.59c-.67.38-.74.97-.17 1.3zM290.69 296.2l9.43 5.45a2.47 2.47 0 0 0 2.24-.1l4.5-2.59c.66-.38.74-1 .16-1.3l-9.43-5.44a2.49 2.49 0 0 0-2.25.09l-4.49 2.59c-.67.39-.74.97-.16 1.3zM277.93 288.84l9.43 5.44a2.52 2.52 0 0 0 2.25-.09l4.49-2.6c.66-.38.74-1 .16-1.3l-9.43-5.44a2.52 2.52 0 0 0-2.25.09l-4.49 2.6c-.67.38-.74.96-.16 1.3zM265.17 281.47l9.43 5.44a2.49 2.49 0 0 0 2.25-.09l4.49-2.59c.66-.39.74-1 .16-1.3l-9.43-5.45a2.49 2.49 0 0 0-2.25.1l-4.49 2.59c-.67.38-.74.97-.16 1.3zM252.41 274.1l9.43 5.45a2.5 2.5 0 0 0 2.25-.1l4.49-2.59c.66-.38.74-1 .16-1.3l-9.43-5.44a2.49 2.49 0 0 0-2.25.09l-4.49 2.59c-.67.39-.74.97-.16 1.3zM239.65 266.74l9.43 5.44a2.52 2.52 0 0 0 2.25-.09l4.49-2.6c.67-.38.74-1 .16-1.3l-9.43-5.44a2.52 2.52 0 0 0-2.25.09l-4.49 2.6c-.67.38-.74.96-.16 1.3zM221.12 256l15.2 8.77a2.49 2.49 0 0 0 2.25-.09l4.49-2.59c.67-.39.74-1 .16-1.3L228 252.05a2.49 2.49 0 0 0-2.25.1l-4.5 2.59c-.63.39-.7.97-.13 1.26z"/><path class="cls-2" d="M173.47 370.3l30.74 17.75a.91.91 0 0 1 0 1.72l-33.71-19.48a3.27 3.27 0 0 1 2.97.01z"/><path fill="#9faed4" d="M247 253.59l159.35 92.01 2.18-1.26-159.35-92-2.18 1.25z"/><path class="cls-2" d="M430.91 204.31v142.51l3.41-1.97V202.34l-3.41 1.97z"/><path class="cls-6" d="M234.63 243.93l188.45 108.81c4.33 2.49 7.83 1.07 7.83-5.92V204.31c0-8-2.62-11.91-7.83-15L234.63 80.55c-4.32-2.5-7.83-1.39-7.83 5.92V229c0 9.29 3.1 12.22 7.83 14.93z"/><path class="cls-4" d="M234.11 81.37l189.49 109.4a14 14 0 0 1 6.34 10.92v146.62c0 4-2.84 5.63-6.34 3.61l-189.49-109.4a14 14 0 0 1-6.33-10.93V85c0-4 2.84-5.65 6.33-3.63z"/><path id="_Clipping_Path_" data-name="&lt;Clipping Path&gt;" class="cls-6" d="M422.63 335.7V198.59L235.08 90.31v137.12L422.63 335.7z"/><path opacity=".2" fill="#eef5fb" d="M260.99 242.38l118.7-68.58-144.61-83.49v137.12l25.91 14.95z"/><path class="cls-1" d="M178 345.79l26-15a6.23 6.23 0 0 1 5.64 0l63 36.39c1.56.9 1.57 2.35 0 3.25l-26 15zM211.78 366.56l33.8 19.51-14.09 8.13a6.21 6.21 0 0 1-5.63 0l-31-17.88zM210.7 365.93l-16.9 9.75-31-17.88c-1.56-.9-1.57-2.35 0-3.25l14.09-8.13z"/><path class="cls-2" d="M272.67 368.58l-63-36.39a6.23 6.23 0 0 0-5.64 0L179.2 346.5l-1.22-.71 26-15a6.23 6.23 0 0 1 5.64 0l63 36.39c1.1.63 1.41 1.54 1 2.34a2.53 2.53 0 0 0-.95-.94zM211.78 367.97l-15.67 9.05-1.23-.71 16.9-9.75 33.8 19.51-1.22.7-32.58-18.8zM176.9 347.83L162.81 356a2.46 2.46 0 0 0-.95.91c-.44-.79-.14-1.69.95-2.32l14.09-8.13 33.8 19.51-1.23.7z"/><path class="cls-8" d="M275.5 362.49l-4.29 2.36v6.06l4.29-2.35v-6.07z"/><path fill="url(#linear-gradient)" d="M208.21 323.81l-4.29 2.36v6.07l4.29-2.36v-6.07z"/><path fill="url(#linear-gradient-2)" d="M203.92 332.18l67.29 38.73v-6.06l-67.29-38.74v6.07z"/><path class="cls-11" d="M203.92 326.11l4.29-2.3 67.29 38.68-4.29 2.36-67.29-38.74z"/><path class="cls-8" d="M279.79 354.06l-4.29 2.36v6.07l4.29-2.36v-6.07z"/><path fill="url(#linear-gradient-3)" d="M212.5 315.38l-4.29 2.36v6.07l4.29-2.36v-6.07z"/><path fill="url(#linear-gradient-4)" d="M208.21 323.75l67.29 38.74v-6.07l-67.29-38.73v6.06z"/><path class="cls-11" d="M208.21 317.69l4.29-2.31 67.29 38.68-4.29 2.36-67.29-38.73z"/><path class="cls-8" d="M284.07 345.64l-4.28 2.36v6.06l4.28-2.35v-6.07z"/><path fill="url(#linear-gradient-5)" d="M216.78 306.96l-4.28 2.36v6.06l4.28-2.35v-6.07z"/><path fill="url(#linear-gradient-6)" d="M212.5 315.33l67.29 38.73V348l-67.29-38.74v6.07z"/><path class="cls-11" d="M212.5 309.26l4.28-2.3 67.29 38.68-4.28 2.36-67.29-38.74z"/><path class="cls-8" d="M288.36 337.21l-4.29 2.36v6.07l4.29-2.36v-6.07z"/><path fill="url(#linear-gradient-7)" d="M221.07 298.53l-4.29 2.36v6.07l4.29-2.36v-6.07z"/><path fill="url(#linear-gradient-8)" d="M216.78 306.9l67.29 38.74v-6.07l-67.29-38.73v6.06z"/><path class="cls-11" d="M216.78 300.84l4.29-2.31 67.29 38.68-4.29 2.36-67.29-38.73z"/><path class="cls-8" d="M292.65 328.79l-4.29 2.35v6.07l4.29-2.35v-6.07z"/><path fill="url(#linear-gradient-9)" d="M225.36 290.11l-4.29 2.36v6.06l4.29-2.35v-6.07z"/><path fill="url(#linear-gradient-10)" d="M221.07 298.48l67.29 38.73v-6.07l-67.29-38.73v6.07z"/><path class="cls-11" d="M221.07 292.41l24.56-13.57 67.29 38.67-24.56 13.63-67.29-38.73z"/><path class="cls-8" d="M312.92 317.43v30.03l-41.71 23.45 2.14-4.21 2.93-5.54 15.11-30.02 1.26-2.35 20.27-11.36zM388.41 221.76l-3.55 1.96v5.02l3.55-1.95v-5.03z"/><path fill="url(#linear-gradient-11)" d="M251.94 143.6l-3.55 1.95v5.03l3.55-1.95v-5.03z"/><path fill="url(#linear-gradient-12)" d="M248.39 150.53l136.47 78.21v-5.02L248.39 145.5v5.03z"/><path class="cls-11" d="M248.39 145.5l3.55-1.9 136.47 78.16-3.55 1.96-136.47-78.22z"/><path class="cls-8" d="M337.91 176.48l-3.55 1.95v5.03l3.55-1.95v-5.03z"/><path fill="url(#linear-gradient-13)" d="M299.91 154.56l-3.55 1.95v5.03l3.55-1.95v-5.03z"/><path fill="url(#linear-gradient-14)" d="M296.36 161.49l38 21.97v-5.03l-38-21.96v5.02z"/><path class="cls-11" d="M296.36 156.47l3.55-1.91 38 21.92-3.55 1.95-38-21.96z"/><path class="cls-8" d="M388.41 205.38l-3.55 1.95v5.03l3.55-1.95v-5.03z"/><path fill="url(#linear-gradient-15)" d="M350.41 183.46l-3.55 1.95v5.03l3.55-1.95v-5.03z"/><path fill="url(#linear-gradient-16)" d="M346.86 190.4l38 21.96v-5.03l-38-21.96v5.03z"/><path class="cls-11" d="M346.86 185.37l3.55-1.91 38 21.92-3.55 1.95-38-21.96z"/><path class="cls-26" d="M212 243.83l66.51 38.08V154.38L212 116.3v127.53z"/><path class="cls-8" d="M259.2 179.82l-3.55 1.95v34.07l3.55-1.96v-34.06z"/><path fill="url(#linear-gradient-17)" d="M221.2 157.9l-3.56 1.95v5.03l3.56-1.95v-5.03z"/><path fill="url(#linear-gradient-18)" d="M217.64 193.87l38.01 21.97v-34.07l-38.01-21.96v34.06z"/><path class="cls-11" d="M217.64 159.81l3.56-1.91 38 21.92-3.55 1.95-38.01-21.96z"/><path class="cls-8" d="M259.2 164.58l-3.55 1.96v5.03l3.55-1.96v-5.03z"/><path fill="url(#linear-gradient-19)" d="M221.2 142.66l-3.56 1.96v5.03l3.56-1.96v-5.03z"/><path fill="url(#linear-gradient-20)" d="M217.64 149.6l38.01 21.97v-5.03l-38.01-21.97v5.03z"/><path class="cls-11" d="M217.64 144.57l3.56-1.91 38 21.92-3.55 1.96-38.01-21.97z"/><path class="cls-26" d="M325.19 308.58l66.51 38.08V219.12l-66.51-38.08v127.54z"/><path class="cls-8" d="M372.39 244.56l-3.56 1.96v5.03l3.56-1.96v-5.03z"/><path fill="url(#linear-gradient-21)" d="M334.38 222.64l-3.55 1.96v5.03l3.55-1.96v-5.03z"/><path fill="url(#linear-gradient-22)" d="M330.83 229.58l38 21.97v-5.03l-38-21.97v5.03z"/><path class="cls-11" d="M330.83 224.55l3.55-1.91 38.01 21.92-3.56 1.96-38-21.97z"/><path class="cls-8" d="M372.39 229.33l-3.56 1.95v5.03l3.56-1.95v-5.03z"/><path fill="url(#linear-gradient-23)" d="M334.38 207.41l-3.55 1.95v5.03l3.55-1.95v-5.03z"/><path fill="url(#linear-gradient-24)" d="M330.83 214.34l38 21.97v-5.03l-38-21.97v5.03z"/><path class="cls-11" d="M330.83 209.31l3.55-1.9 38.01 21.92-3.56 1.95-38-21.97z"/><path class="cls-1" d="M338.17 265.65c.05-.19.12-.35.17-.54-.55-3.54 1.64-7.21 1.64-7.21l5.68-2.35a11.67 11.67 0 0 1 1.9-.78c3.82-1.17 8.28-.42 12.6 2.53 9.22 6.3 14.33 20.25 11.4 31.16-1.34 5-4.14 8.47-7.66 10.18l-.43.17c-.27.12-.54.23-.82.33l-6.39 2.71s-5.16-2-7.53-5.71c-8.68-6.53-13.39-19.92-10.56-30.49z"/><ellipse class="cls-3" cx="348.35" cy="279.79" rx="16.63" ry="23.46" transform="rotate(-19.41 348.383 279.817)"/><path class="cls-1" d="M296.06 196.9c0-.08.05-.15.07-.22-.23-1.46-.39-2.54-.39-2.54l3.41-1.41a4.84 4.84 0 0 1 .79-.32 6.07 6.07 0 0 1 5.2 1 12.66 12.66 0 0 1 4.71 12.87 6.25 6.25 0 0 1-3.16 4.2l-.17.07-.34.14-3.93 1.6-1.82-2.84a12.73 12.73 0 0 1-4.37-12.55z"/><ellipse class="cls-3" cx="299.45" cy="203.07" rx="6.87" ry="9.69" transform="rotate(-19.41 299.488 203.088)"/><path class="cls-35" d="M261.48 229.43l-2.38 17.95 7.18 10.04 1.87-.87-4.26-10.71 6.05-16.08-4.08-2.85-4.38 2.52z"/><path class="cls-36" d="M265.86 226.91a14.69 14.69 0 0 1 7.09-1.18c4.88.49 7.29 4.34 7.29 5.05 0 1.26 3.36 30.31 3.36 30.31s-5.25 2.94-10.81 2.17-7.59-1.38-7.59-2c0-1.26.66-34.35.66-34.35z"/><path class="cls-35" d="M265.2 261.24l18.4-.15-7.57 40.38-3.35.41-.68-21.72-3.46-12.23-3.34-6.69zM261.28 303.61a19.23 19.23 0 0 0-1.62 2.31c0 .25.59 3.44.59 3.44s7.42-.83 7.42-1 1.38-1.18-.64-1.47-4.47-.15-4.47-.3.79-2.36.79-2.36z"/><path class="cls-36" d="M273.89 227.05s.05 6.88 5 8.83l16.42-15 5-14.49-3-.41-7.31 13.24z"/><path class="cls-37" d="M279.81 215.62a5.94 5.94 0 0 0-6.44-5.34h-.39a5.93 5.93 0 0 0-5.34 6.44l.25 2.66a5.94 5.94 0 0 0 6.44 5.34h.39a5.93 5.93 0 0 0 5.34-6.44z"/><path class="cls-38" d="M277.12 216.68a1.39 1.39 0 0 0-1.11 1.23 2.07 2.07 0 0 0 .63 1.61 3.41 3.41 0 0 1 .61.65 1.69 1.69 0 0 1-.19 1.63 8 8 0 0 1-3 2.59 3 3 0 0 1-1.1.49 3.13 3.13 0 0 1-1.68-.37 6.34 6.34 0 0 1-2.71-1.74 5.06 5.06 0 0 1-.83-1.9 12.43 12.43 0 0 1 .21-6.76 5.51 5.51 0 0 1 1.51-2.53 5.16 5.16 0 0 1 2.48-1 6.33 6.33 0 0 1 3 .11 3.53 3.53 0 0 1 2.21 2c.49 1.27.07 2.87.93 3.93.27.33.63.61.45 1-.43-.4-.71-1.04-1.41-.94z"/><path class="cls-38" d="M272.43 209.75a1.63 1.63 0 0 0-1 .68 1.53 1.53 0 0 0-.16.6c-.26 3.05 4 5.53 6.41 3.41 1-.9 1.51-2.91.39-3.88-1.31-1.11-4.07-1.25-5.64-.81z"/><path class="cls-36" d="M270.35 258.06l3.34 22.86-14.07 23.46 4.59.84 17.82-23.8 1.57-20.33-13.25-3.03z"/><path class="cls-37" d="M298.5 202.35a1.73 1.73 0 1 0 1.88 1.56 1.73 1.73 0 0 0-1.88-1.56z"/><path class="cls-35" d="M276 301.47l4.91-1.73s.41 1.15-.33 1.61-6.8 2.26-6.8 2.26l-1.13-1.73.72-3.83z"/></svg>