<svg id="Layer_1" data-name="Layer 1" xmlns="http://www.w3.org/2000/svg" xmlns:xlink="http://www.w3.org/1999/xlink" viewBox="0 0 523.23 521.42"><defs><style>.cls-1{fill:#9c4d23}.cls-100,.cls-2{fill:none}.cls-3{fill:#ca6728}.cls-4{isolation:isolate}.cls-9{fill:#fff}.cls-70{fill:#343b8e}.cls-71{fill:#464992}.cls-72{fill:#f2f1f1}.cls-73{fill:#cccbca}.cls-74{fill:#e42f32}.cls-75{fill:#2a357b}.cls-76{fill:#d1dbef}.cls-78{fill:#202140}.cls-79{fill:#808cc5}.cls-80{fill:#2b2e6e}.cls-81{fill:#454992}.cls-82{fill:#30378b}.cls-83{fill:#50549f}.cls-84{fill:#2daae1}.cls-86{fill:#ebf1f9}.cls-87{fill:#29265e}.cls-88{fill:#2a2760}.cls-90{fill:#2b2963}.cls-91{fill:#2c2a65}.cls-92{fill:#2d2b68}.cls-94{fill:#2e2e6c}.cls-95{fill:#302f6e}.cls-97{fill:#313072}.cls-98{fill:#282642}.cls-99{fill:#edbbc3}.cls-100{stroke:#282642;stroke-miterlimit:10;stroke-width:.25px}</style><clipPath id="clip-path"><path id="SVGID" class="cls-1" d="M322.69 349.24v8a2.18 2.18 0 0 1-1.29 1.81v-8a2.21 2.21 0 0 0 1.29-1.81z"/></clipPath><clipPath id="clip-path-2"><path id="SVGID-2" data-name="SVGID" class="cls-2" d="M233 357.25v-8a2.23 2.23 0 0 0 1.31 1.83v8a2.2 2.2 0 0 1-1.31-1.83z"/></clipPath><linearGradient id="linear-gradient" x1="277.84" y1="277.87" x2="277.84" y2="408.63" gradientUnits="userSpaceOnUse"><stop offset="0" stop-color="#eab226"/><stop offset=".43" stop-color="#f4ca19"/><stop offset=".98" stop-color="#fde800"/></linearGradient><clipPath id="clip-path-3"><path id="SVGID-3" data-name="SVGID" class="cls-2" d="M281.14 374.45v8a7 7 0 0 1-6.3 0v-8a7 7 0 0 0 6.3 0z"/></clipPath><linearGradient id="linear-gradient-2" x1="352.21" y1="277.87" x2="352.21" y2="408.63" xlink:href="#linear-gradient"/><linearGradient id="linear-gradient-3" x1="326.8" y1="359.59" x2="385.69" y2="394.78" xlink:href="#linear-gradient"/><linearGradient id="linear-gradient-4" x1="317.35" y1="442.8" x2="409.43" y2="360.81" xlink:href="#linear-gradient"/><linearGradient id="linear-gradient-5" x1="392.3" y1="401.95" x2="375.2" y2="380.82" xlink:href="#linear-gradient"/><linearGradient id="linear-gradient-6" x1="329.62" y1="277.87" x2="329.62" y2="408.63" xlink:href="#linear-gradient"/><linearGradient id="linear-gradient-7" x1="313.89" y1="381.2" x2="372.78" y2="416.38" xlink:href="#linear-gradient"/><linearGradient id="linear-gradient-8" x1="315.21" y1="440.4" x2="407.29" y2="358.41" xlink:href="#linear-gradient"/><linearGradient id="linear-gradient-9" x1="370.91" y1="419.26" x2="353.81" y2="398.12" xlink:href="#linear-gradient"/><linearGradient id="linear-gradient-10" x1="307.02" y1="277.87" x2="307.02" y2="408.63" xlink:href="#linear-gradient"/><linearGradient id="linear-gradient-11" x1="300.98" y1="402.8" x2="359.87" y2="437.99" xlink:href="#linear-gradient"/><linearGradient id="linear-gradient-12" x1="313.08" y1="438" x2="405.16" y2="356.01" xlink:href="#linear-gradient"/><linearGradient id="linear-gradient-13" x1="349.52" y1="436.56" x2="332.42" y2="415.42" xlink:href="#linear-gradient"/><linearGradient id="linear-gradient-14" x1="204.12" y1="277.87" x2="204.12" y2="408.63" xlink:href="#linear-gradient"/><linearGradient id="linear-gradient-15" x1="232.44" y1="353.53" x2="178.92" y2="391.67" xlink:href="#linear-gradient"/><linearGradient id="linear-gradient-16" x1="176.96" y1="480.84" x2="176.96" y2="441.39" xlink:href="#linear-gradient"/><linearGradient id="linear-gradient-17" x1="204.71" y1="364.21" x2="170.92" y2="388.68" xlink:href="#linear-gradient"/><linearGradient id="linear-gradient-18" x1="226.71" y1="277.87" x2="226.71" y2="408.63" xlink:href="#linear-gradient"/><linearGradient id="linear-gradient-19" x1="247.53" y1="374.69" x2="194.01" y2="412.84" xlink:href="#linear-gradient"/><linearGradient id="linear-gradient-20" x1="199.56" y1="480.84" x2="199.56" y2="441.39" xlink:href="#linear-gradient"/><linearGradient id="linear-gradient-21" x1="220" y1="385.32" x2="186.21" y2="409.79" xlink:href="#linear-gradient"/><linearGradient id="linear-gradient-22" x1="249.31" y1="277.87" x2="249.31" y2="408.63" xlink:href="#linear-gradient"/><linearGradient id="linear-gradient-23" x1="262.62" y1="395.86" x2="209.1" y2="434.01" xlink:href="#linear-gradient"/><linearGradient id="linear-gradient-24" x1="222.15" y1="480.84" x2="222.15" y2="441.39" xlink:href="#linear-gradient"/><linearGradient id="linear-gradient-25" x1="235.29" y1="406.43" x2="201.5" y2="430.9" xlink:href="#linear-gradient"/><linearGradient id="linear-gradient-26" x1="335.16" y1="287.19" x2="345.53" y2="274.23" xlink:href="#linear-gradient"/><linearGradient id="linear-gradient-27" x1="332.9" y1="285.38" x2="343.27" y2="272.42" xlink:href="#linear-gradient"/><linearGradient id="linear-gradient-28" x1="380.2" y1="271.19" x2="375.27" y2="273.14" xlink:href="#linear-gradient"/><linearGradient id="linear-gradient-29" x1="292.14" y1="323.78" x2="343.62" y2="286.56" xlink:href="#linear-gradient"/><linearGradient id="linear-gradient-30" x1="309.85" y1="297.4" x2="315.73" y2="292.02" xlink:href="#linear-gradient"/><linearGradient id="linear-gradient-31" x1="304.65" y1="277.87" x2="304.65" y2="408.63" xlink:href="#linear-gradient"/><linearGradient id="linear-gradient-32" x1="358.48" y1="305.84" x2="368.85" y2="292.88" xlink:href="#linear-gradient"/><linearGradient id="linear-gradient-33" x1="356.22" y1="304.04" x2="366.59" y2="291.08" xlink:href="#linear-gradient"/><linearGradient id="linear-gradient-34" x1="388.71" y1="292.75" x2="383.78" y2="294.69" xlink:href="#linear-gradient"/><linearGradient id="linear-gradient-35" x1="308.15" y1="345.91" x2="359.63" y2="308.69" xlink:href="#linear-gradient"/><linearGradient id="linear-gradient-36" x1="329.18" y1="318.54" x2="335.06" y2="313.17" xlink:href="#linear-gradient"/><linearGradient id="linear-gradient-37" x1="331.41" y1="277.87" x2="331.41" y2="408.63" xlink:href="#linear-gradient"/><linearGradient id="linear-gradient-38" x1="380.79" y1="323.69" x2="391.16" y2="310.73" xlink:href="#linear-gradient"/><linearGradient id="linear-gradient-39" x1="378.54" y1="321.89" x2="388.9" y2="308.93" xlink:href="#linear-gradient"/><linearGradient id="linear-gradient-40" x1="397.04" y1="313.85" x2="392.11" y2="315.79" xlink:href="#linear-gradient"/><linearGradient id="linear-gradient-41" x1="323.62" y1="367.31" x2="375.1" y2="330.09" xlink:href="#linear-gradient"/><linearGradient id="linear-gradient-42" x1="347.79" y1="338.89" x2="353.67" y2="333.51" xlink:href="#linear-gradient"/><linearGradient id="linear-gradient-43" x1="356.38" y1="277.87" x2="356.38" y2="408.63" xlink:href="#linear-gradient"/><linearGradient id="linear-gradient-44" x1="220.97" y1="288.62" x2="209.84" y2="266.83" xlink:href="#linear-gradient"/><linearGradient id="linear-gradient-45" x1="222.85" y1="287.66" x2="211.72" y2="265.87" xlink:href="#linear-gradient"/><linearGradient id="linear-gradient-46" x1="211.2" y1="303.41" x2="219.55" y2="295.46" xlink:href="#linear-gradient"/><linearGradient id="linear-gradient-47" x1="241.41" y1="310.77" x2="206.9" y2="272.84" xlink:href="#linear-gradient"/><linearGradient id="linear-gradient-48" x1="240.15" y1="291.13" x2="237.74" y2="288.51" xlink:href="#linear-gradient"/><linearGradient id="linear-gradient-49" x1="247.31" y1="277.87" x2="247.31" y2="408.63" xlink:href="#linear-gradient"/><linearGradient id="linear-gradient-50" x1="193.93" y1="302.43" x2="182.8" y2="280.64" xlink:href="#linear-gradient"/><linearGradient id="linear-gradient-51" x1="195.81" y1="301.47" x2="184.68" y2="279.69" xlink:href="#linear-gradient"/><linearGradient id="linear-gradient-52" x1="204.04" y1="296.17" x2="201.43" y2="299.7" xlink:href="#linear-gradient"/><linearGradient id="linear-gradient-53" x1="219.63" y1="330.59" x2="185.11" y2="292.66" xlink:href="#linear-gradient"/><linearGradient id="linear-gradient-54" x1="218.55" y1="311.07" x2="216.14" y2="308.45" xlink:href="#linear-gradient"/><linearGradient id="linear-gradient-55" x1="220.54" y1="277.87" x2="220.54" y2="408.63" xlink:href="#linear-gradient"/><linearGradient id="linear-gradient-56" x1="168.25" y1="315.56" x2="157.12" y2="293.77" xlink:href="#linear-gradient"/><linearGradient id="linear-gradient-57" x1="170.13" y1="314.6" x2="159" y2="292.81" xlink:href="#linear-gradient"/><linearGradient id="linear-gradient-58" x1="194.91" y1="289.39" x2="192.3" y2="292.91" xlink:href="#linear-gradient"/><linearGradient id="linear-gradient-59" x1="198.73" y1="349.6" x2="164.22" y2="311.67" xlink:href="#linear-gradient"/><linearGradient id="linear-gradient-60" x1="197.83" y1="330.2" x2="195.41" y2="327.58" xlink:href="#linear-gradient"/><linearGradient id="linear-gradient-61" x1="195.57" y1="277.87" x2="195.57" y2="408.63" xlink:href="#linear-gradient"/><linearGradient id="linear-gradient-62" x1="-2501.29" y1="227.23" x2="-2496.99" y2="227.23" gradientTransform="matrix(-1 0 0 1 -2155.1 0)" xlink:href="#linear-gradient"/></defs><path class="cls-1" d="M370.52 360.68a3.11 3.11 0 0 1-.08.44 3.49 3.49 0 0 1-.29.58c-.08.14-.12.27-.21.41a6.94 6.94 0 0 1-.59.65c-.09.09-.15.18-.25.27a7.79 7.79 0 0 1-1.17.83l-83.29 48.41a14.32 14.32 0 0 1-13 0l-83.84-48.4a8 8 0 0 1-1.19-.83c-.11-.11-.19-.22-.29-.33a3.89 3.89 0 0 1-.55-.61 3.23 3.23 0 0 1-.22-.41 3.49 3.49 0 0 1-.29-.58 3.11 3.11 0 0 1-.08-.44 3 3 0 0 1-.09-.58L185 366c0 1.37.9 2.75 2.72 3.79l83.83 48.4a14.26 14.26 0 0 0 13 0l83.29-48.4c1.79-1 2.68-2.39 2.69-3.75l.05-5.89a3.75 3.75 0 0 1-.06.53z"/><path class="cls-3" d="M185.26 361.11a3.49 3.49 0 0 0 .29.58 3.23 3.23 0 0 0 .22.41 3.89 3.89 0 0 0 .55.61c.1.11.18.22.29.33a8 8 0 0 0 1.19.83l83.84 48.41a14.32 14.32 0 0 0 13 0l83.29-48.41a7.79 7.79 0 0 0 1.17-.83c.1-.09.16-.18.25-.27a6.94 6.94 0 0 0 .59-.65c.09-.14.13-.27.21-.41a3.49 3.49 0 0 0 .29-.58 3.11 3.11 0 0 0 .08-.44c.29-1.55-.56-3.16-2.62-4.35l-83.83-48.4a14.36 14.36 0 0 0-13 0l-83.29 48.4c-1.79 1-2.68 2.4-2.67 3.76a3 3 0 0 0 .09.58 3.11 3.11 0 0 0 .06.43z"/><g class="cls-4"><g class="cls-4"><path id="SVGID-4" data-name="SVGID" class="cls-1" d="M322.69 349.24v8a2.18 2.18 0 0 1-1.29 1.81v-8a2.21 2.21 0 0 0 1.29-1.81z"/><g clip-path="url(#clip-path)"><path class="cls-1" d="M322.69 349.24v8a2.18 2.18 0 0 1-1.29 1.81v-8a2.21 2.21 0 0 0 1.29-1.81"/></g></g><g clip-path="url(#clip-path-2)"><path class="cls-1" d="M234.29 351v8a2.2 2.2 0 0 1-1.31-1.83v-8a2.2 2.2 0 0 0 1.3 1.83"/></g><path class="cls-1" d="M321.4 351.05l-.04 8.03-40.26 23.41.04-8.04 40.26-23.4zM274.84 374.45l-.04 8.04-40.54-23.41.03-8.04 40.55 23.41z"/><path d="M321.38 347.4c1.74 1 1.75 2.64 0 3.65l-40.26 23.4a7 7 0 0 1-6.3 0L234.29 351c-1.74-1-1.74-2.63 0-3.64L274.55 324a6.94 6.94 0 0 1 6.29 0z" fill="url(#linear-gradient)"/><g clip-path="url(#clip-path-3)"><path class="cls-1" d="M281.14 374.45v8a7 7 0 0 1-6.3 0v-8a7 7 0 0 0 6.3 0"/></g></g><path class="cls-2" d="M252.49 343.92l-.05-.1zM252.73 344.17l-.1-.1zM303.17 343.92zM252.35 343.65v-.12c0-.04-.01.08 0 .12z"/><path class="cls-1" d="M303.17 343.92a1.76 1.76 0 0 1-.55.48l-22.91 13.31a3.92 3.92 0 0 1-3.59 0l-23.07-13.31a1.54 1.54 0 0 1-.32-.23l-.1-.1-.14-.15-.05-.1c0-.06-.07-.12-.09-.17s0-.08 0-.12a.88.88 0 0 1 0-.16v4.58a1.28 1.28 0 0 0 .75 1l23 13.35a4 4 0 0 0 3.58 0L302.6 349a1.24 1.24 0 0 0 .73-1v-4.57a.92.92 0 0 1-.16.49z"/><path class="cls-3" d="M252.33 343.53v.12c0 .04.06.11.09.17l.05.1.14.15.1.1a1.54 1.54 0 0 0 .32.23l23.07 13.32a3.92 3.92 0 0 0 3.59 0l22.91-13.31a1.76 1.76 0 0 0 .55-.48 1 1 0 0 0 .18-.55 1.24 1.24 0 0 0-.74-1.05L279.54 329a3.93 3.93 0 0 0-3.58 0l-22.91 13.31a1.25 1.25 0 0 0-.74 1 .88.88 0 0 0 .02.22z"/><path class="cls-9" d="M260.94 343.36l16.81-9.77 16.97 9.79-16.81 9.77-16.97-9.79z"/><g class="cls-4"><path fill="url(#linear-gradient-2)" d="M328.7 360.75l5.7-3.31 41.32 23.85-5.7 3.31-41.32-23.85z"/><path fill="url(#linear-gradient-3)" d="M376.53 385.5l-.03 7.47-6.49-3.75.01-2.86-41.32-23.86v-1.75l41.32 23.85.01-2.86 6.5 3.76z"/><path fill="url(#linear-gradient-4)" d="M376.53 385.5l5.7-3.32-.02 7.48-5.71 3.31.03-7.47z"/><path fill="url(#linear-gradient-5)" d="M370.03 381.74l5.7-3.31 6.5 3.75-5.7 3.32-6.5-3.76z"/></g><g class="cls-4"><path fill="url(#linear-gradient-6)" d="M306.11 376.56l5.7-3.31 41.32 23.86-5.7 3.31-41.32-23.86z"/><path fill="url(#linear-gradient-7)" d="M353.93 401.31l-.02 7.48-6.5-3.75.01-2.86-41.32-23.86.01-1.76 41.32 23.86v-2.86l6.5 3.75z"/><path fill="url(#linear-gradient-8)" d="M353.93 401.31l5.7-3.31-.02 7.48-5.7 3.31.02-7.48z"/><path fill="url(#linear-gradient-9)" d="M347.43 397.56l5.71-3.31 6.49 3.75-5.7 3.31-6.5-3.75z"/></g><g class="cls-4"><path fill="url(#linear-gradient-10)" d="M283.51 392.38l5.7-3.31 41.32 23.85-5.7 3.32-41.32-23.86z"/><path fill="url(#linear-gradient-11)" d="M331.34 417.13l-.02 7.48-6.5-3.76.01-2.86-41.32-23.85v-1.76l41.32 23.86.01-2.86 6.5 3.75z"/><path fill="url(#linear-gradient-12)" d="M331.34 417.13l5.7-3.32-.02 7.48-5.7 3.32.02-7.48z"/><path fill="url(#linear-gradient-13)" d="M324.84 413.38l5.7-3.32 6.5 3.75-5.7 3.32-6.5-3.75z"/></g><g class="cls-4"><path fill="url(#linear-gradient-14)" d="M227.63 360.75l-5.7-3.31-41.32 23.85 5.7 3.31 41.32-23.85z"/><path fill="url(#linear-gradient-15)" d="M179.8 385.5l.02 7.47 6.5-3.75-.01-2.86 41.32-23.86v-1.75l-41.32 23.85-.01-2.86-6.5 3.76z"/><path fill="url(#linear-gradient-16)" d="M179.8 385.5l-5.7-3.32.02 7.48 5.7 3.31-.02-7.47z"/><path fill="url(#linear-gradient-17)" d="M186.3 381.74l-5.7-3.31-6.5 3.75 5.7 3.32 6.5-3.76z"/></g><g class="cls-4"><path fill="url(#linear-gradient-18)" d="M250.22 376.56l-5.7-3.31-41.32 23.86 5.7 3.31 41.32-23.86z"/><path fill="url(#linear-gradient-19)" d="M202.4 401.31l.02 7.48 6.5-3.75-.01-2.86 41.32-23.86-.01-1.76-41.32 23.86v-2.86l-6.5 3.75z"/><path fill="url(#linear-gradient-20)" d="M202.4 401.31l-5.7-3.31.02 7.48 5.7 3.31-.02-7.48z"/><path fill="url(#linear-gradient-21)" d="M208.9 397.56l-5.71-3.31-6.49 3.75 5.7 3.31 6.5-3.75z"/></g><g class="cls-4"><path fill="url(#linear-gradient-22)" d="M272.82 392.38l-5.7-3.31-41.32 23.85 5.7 3.32 41.32-23.86z"/><path fill="url(#linear-gradient-23)" d="M224.99 417.13l.02 7.48 6.5-3.76-.01-2.86 41.32-23.85v-1.76l-41.32 23.86-.01-2.86-6.5 3.75z"/><path fill="url(#linear-gradient-24)" d="M224.99 417.13l-5.7-3.32.02 7.48 5.7 3.32-.02-7.48z"/><path fill="url(#linear-gradient-25)" d="M231.49 413.38l-5.7-3.32-6.5 3.75 5.7 3.32 6.5-3.75z"/></g><g class="cls-4"><path fill="url(#linear-gradient-26)" d="M328.17 302.58l-5.7-3.31-.01-2.86 5.7 3.31.01 2.86z"/><path fill="url(#linear-gradient-27)" d="M328.16 297.96l-5.71-3.31v-2.85l5.7 3.32.01 2.84z"/><path fill="url(#linear-gradient-28)" d="M328.15 295.12l-5.7-3.32 6.49-3.75 5.71 3.31-6.5 3.76z"/><path fill="url(#linear-gradient-29)" d="M334.65 291.36l.02 7.47-6.5 3.75-.01-2.86-41.32 23.86v-1.76l41.32-23.86-.01-2.84 6.5-3.76z"/><path fill="url(#linear-gradient-30)" d="M286.84 323.58l-5.7-3.32v-1.75l5.7 3.31v1.76z"/><path fill="url(#linear-gradient-31)" d="M286.84 321.82l-5.7-3.31 41.31-23.86 5.71 3.31-41.32 23.86z"/></g><g class="cls-4"><path fill="url(#linear-gradient-32)" d="M354.94 316.93l-5.71-3.31v-2.86l5.7 3.31.01 2.86z"/><path fill="url(#linear-gradient-33)" d="M354.92 312.31l-5.7-3.31-.01-2.85 5.7 3.31.01 2.85z"/><path fill="url(#linear-gradient-34)" d="M354.91 309.46l-5.7-3.31 6.5-3.75 5.7 3.31-6.5 3.75z"/><path fill="url(#linear-gradient-35)" d="M361.41 305.71l.02 7.47-6.49 3.75-.01-2.86-41.32 23.86-.01-1.76 41.32-23.86-.01-2.85 6.5-3.75z"/><path fill="url(#linear-gradient-36)" d="M313.61 337.93l-5.7-3.32-.01-1.75 5.7 3.31.01 1.76z"/><path fill="url(#linear-gradient-37)" d="M313.6 336.17l-5.7-3.31L349.22 309l5.7 3.31-41.32 23.86z"/></g><g class="cls-4"><path fill="url(#linear-gradient-38)" d="M379.9 331.46l-5.7-3.31-.01-2.86 5.7 3.31.01 2.86z"/><path fill="url(#linear-gradient-39)" d="M379.89 326.85l-5.7-3.32-.01-2.85 5.7 3.32.01 2.85z"/><path fill="url(#linear-gradient-40)" d="M379.88 324l-5.7-3.32 6.5-3.75 5.7 3.32-6.5 3.75z"/><path fill="url(#linear-gradient-41)" d="M386.38 320.25l.02 7.46-6.5 3.75-.01-2.86-41.32 23.86v-1.76l41.32-23.85-.01-2.85 6.5-3.75z"/><path fill="url(#linear-gradient-42)" d="M338.57 352.46l-5.7-3.32v-1.75l5.7 3.31v1.76z"/><path fill="url(#linear-gradient-43)" d="M338.57 350.7l-5.7-3.31 41.32-23.86 5.7 3.32-41.32 23.85z"/></g><g class="cls-4"><path fill="url(#linear-gradient-44)" d="M223.78 302.79l5.7-3.31.01-2.86-5.7 3.31-.01 2.86z"/><path fill="url(#linear-gradient-45)" d="M223.79 298.17l5.71-3.31v-2.85l-5.7 3.31-.01 2.85z"/><path fill="url(#linear-gradient-46)" d="M223.8 295.32l5.7-3.31-6.49-3.75-5.7 3.31 6.49 3.75z"/><path fill="url(#linear-gradient-47)" d="M217.31 291.57l-.03 7.47 6.5 3.75.01-2.86 41.32 23.86v-1.76l-41.32-23.86.01-2.85-6.49-3.75z"/><path fill="url(#linear-gradient-48)" d="M265.11 323.79l5.7-3.32.01-1.75-5.71 3.31v1.76z"/><path fill="url(#linear-gradient-49)" d="M265.11 322.03l5.71-3.31-41.32-23.86-5.71 3.31 41.32 23.86z"/></g><g class="cls-4"><path fill="url(#linear-gradient-50)" d="M197.02 317.14l5.7-3.31.01-2.86-5.71 3.31v2.86z"/><path fill="url(#linear-gradient-51)" d="M197.03 312.52l5.7-3.31.01-2.85-5.7 3.32-.01 2.84z"/><path fill="url(#linear-gradient-52)" d="M197.04 309.68l5.7-3.32-6.5-3.75-5.7 3.31 6.5 3.76z"/><path fill="url(#linear-gradient-53)" d="M190.54 305.92l-.02 7.47 6.5 3.75v-2.86l41.32 23.86.01-1.76-41.32-23.86.01-2.84-6.5-3.76z"/><path fill="url(#linear-gradient-54)" d="M238.34 338.14l5.7-3.32.01-1.75-5.7 3.31-.01 1.76z"/><path fill="url(#linear-gradient-55)" d="M238.35 336.38l5.7-3.31-41.32-23.86-5.7 3.31 41.32 23.86z"/></g><g class="cls-4"><path fill="url(#linear-gradient-56)" d="M172.05 331.67l5.7-3.31.01-2.86-5.7 3.31-.01 2.86z"/><path fill="url(#linear-gradient-57)" d="M172.06 327.05l5.7-3.31.01-2.85-5.7 3.31-.01 2.85z"/><path fill="url(#linear-gradient-58)" d="M172.07 324.2l5.7-3.31-6.49-3.75-5.71 3.31 6.5 3.75z"/><path fill="url(#linear-gradient-59)" d="M165.57 320.45l-.02 7.47 6.5 3.75.01-2.86 41.32 23.86v-1.76l-41.32-23.86.01-2.85-6.5-3.75z"/><path fill="url(#linear-gradient-60)" d="M213.38 352.67l5.7-3.32v-1.75l-5.7 3.31v1.76z"/><path fill="url(#linear-gradient-61)" d="M213.38 350.91l5.7-3.31-41.32-23.86-5.7 3.31 41.32 23.86z"/></g><g class="cls-4"><path class="cls-70" d="M349.49 224.82a17 17 0 0 0 7.69 13.31L344 245.8c-4.26-2.46-7.71-8.43-7.69-13.32z"/><path class="cls-71" d="M352.73 232.26l-12.08 7-.19-.32 13.19-7.67c.07.11.13.22.2.32z"/><path class="cls-71" d="M353.44 230.91l.21.38-13.19 7.71-.21-.38zM352.33 231.55l-12.08 7a3.59 3.59 0 0 1-.17-.34l13.19-7.66.17.33z"/><path class="cls-71" d="M352.32 227.78a10.78 10.78 0 0 0 .95 2.8l-13.19 7.66a10.59 10.59 0 0 1-.95-2.79zM353.85 231.61a10.42 10.42 0 0 0 2.93 3.14l-13.19 7.66a10.41 10.41 0 0 1-2.94-3.13z"/><path class="cls-71" d="M356.78 234.75l.37.23-13.15 7.67-.37-.24zM357.15 235L344 242.65z"/><path class="cls-72" d="M357.19 235a5.68 5.68 0 0 0 1.28.54l-13.19 7.67a5.56 5.56 0 0 1-1.27-.53l13.17-7.68-13.18 7.68z"/><path class="cls-71" d="M357.17 235a5.44 5.44 0 0 0 1.32.56l-13.2 7.66a5 5 0 0 1-1.31-.56l13.16-7.66zM352.19 226.38a7.6 7.6 0 0 0 .13 1.4l-13.19 7.67A7.63 7.63 0 0 1 339 234l13.19-7.66L339 234a5 5 0 0 1 .26-1.67l13.19-7.66a4.92 4.92 0 0 0-.26 1.71z"/><path class="cls-71" d="M352.47 224.66v.05l-13.19 7.66v-.05zM359.39 235.68l-13.19 7.66a3.33 3.33 0 0 1-.91-.13l13.2-7.66a4.25 4.25 0 0 0 .9.13z"/><path class="cls-72" d="M359.42 235.67l-13.19 7.67a3.61 3.61 0 0 1-1-.13l13.19-7.67a3.61 3.61 0 0 0 1 .13z"/><path class="cls-71" d="M353.17 223.54a3 3 0 0 0-.7 1.12l-13.19 7.66a2.89 2.89 0 0 1 .7-1.12zM359.39 235.68a2.65 2.65 0 0 0 .81-.11l-13.2 7.67a2.62 2.62 0 0 1-.8.1l9.39-5.45 1.9-1.11.75-.43.24-.14.24-.14.46-.27a1.43 1.43 0 0 1 .21-.12z"/><path class="cls-71" d="M353.57 223.23a2.27 2.27 0 0 0-.4.31L340 231.2a2.31 2.31 0 0 1 .39-.31z"/><path class="cls-71" d="M350.91 224.77l-10.54 6.12h.08l13.19-7.67h-.07z"/><path class="cls-72" d="M359.42 235.67a2.53 2.53 0 0 0 1.29-.34L347.52 243a2.64 2.64 0 0 1-1.29.34l9.75-5.67 1.75-1 .25-.14.25-.15.25-.15.25-.14.47-.27a.8.8 0 0 1 .22-.15z"/><path class="cls-70" d="M351.73 219.87c-1.38.81-2.23 2.51-2.24 4.95l-13.19 7.66c0-2.43.86-4.14 2.24-4.94zM357.18 238.13c2.15 1.24 4.09 1.35 5.49.54l-13.19 7.66c-1.41.82-3.35.7-5.49-.53z"/><path class="cls-71" d="M360.2 235.57a2.14 2.14 0 0 0 .54-.23L347.55 243a2.45 2.45 0 0 1-.55.23l6.6-3.83.86-.51 3.39-2 1.59-.93c.23-.08.56-.28.76-.39z"/><path class="cls-73" d="M341.41 231.17l13.19-7.67a3.11 3.11 0 0 0-1.3 2.84 9.8 9.8 0 0 0 4.45 7.7 3.14 3.14 0 0 0 3.17.32L347.73 242a3.17 3.17 0 0 1-3.18-.31 9.79 9.79 0 0 1-4.44-7.7 3.08 3.08 0 0 1 1.3-2.82z"/><path class="cls-72" d="M362.17 232.21a2.8 2.8 0 0 1-1.25 2.15L347.73 242a2.82 2.82 0 0 0 1.25-2.15z"/><path class="cls-72" d="M362.19 232.15a3.5 3.5 0 0 1-1.45 3.2L347.55 243a3.48 3.48 0 0 0 1.45-3.19 11 11 0 0 0-5-8.62l13.2-7.67a11 11 0 0 1 4.99 8.63z"/><path class="cls-73" d="M360.73 233l-.19.11zm-1.86 1.08l-.6.35zm-.79.46l-1.45.85zm-2.3 1.34l-1.26.73zm-2.71 1.57l-.19.12zm-.79.46l-1.68 1zm-1.87 1.09l-1.43.83zm10.51-4.68l-12.2 7.08a2.76 2.76 0 0 1-1.2 1.56l13.19-7.67a3.45 3.45 0 0 0 1.46-3.12 2.8 2.8 0 0 1-1.25 2.19z"/><path class="cls-72" d="M354.6 223.5a2.83 2.83 0 0 1 2.53 0l-11.65 6.77-1.54.9a2.83 2.83 0 0 0-2.53 0z"/><path class="cls-73" d="M340.45 230.85l13.19-7.67a2.75 2.75 0 0 1 1.73-.31h.06a5.16 5.16 0 0 1 1.7.61l-13.19 7.67a4.74 4.74 0 0 0-1.7-.61h-.06a2.68 2.68 0 0 0-1.73.31z"/><path class="cls-72" d="M357.11 223.47l-13.19 7.66a5 5 0 0 0-1.68-.58l4-2.33 1.71-1 7.45-4.33a4.71 4.71 0 0 1 1.71.58z"/><path class="cls-72" d="M357.11 223.47l.12.06L344 231.2a.41.41 0 0 1-.11-.07z"/><path class="cls-71" d="M362.67 238.67l-13.19 7.66c1.38-.8 2.24-2.51 2.25-4.94 0-4-2.34-8.81-5.55-11.73l13.19-7.66c3.21 2.92 5.56 7.68 5.55 11.72-.01 2.43-.87 4.14-2.25 4.95z"/><path class="cls-70" d="M341.9 224.79l13.19-7.66-.01 2.39-13.19 7.67.01-2.4z"/><path class="cls-74" d="M346.19 227.27l13.19-7.66-.01 2.39-13.19 7.66.01-2.39z"/><path class="cls-71" d="M338.54 227.54l13.19-7.67a4.48 4.48 0 0 1 3.35-.35 8.23 8.23 0 0 1 2.15.9 12.16 12.16 0 0 1 2.14 1.58l-13.19 7.66a13.1 13.1 0 0 0-2.14-1.58 8.33 8.33 0 0 0-2.15-.89 4.43 4.43 0 0 0-3.35.35z"/><path class="cls-74" d="M341.9 224.79l13.19-7.66 4.29 2.48-13.19 7.66-4.29-2.48z"/><path class="cls-75" d="M334.87 221.21l13.2-7.67c2.08-1.21 4.87-1.19 8 .28.39.18.79.39 1.19.62s.79.48 1.18.75l-13.19 7.67a16.663 16.663 0 0 0-2.38-1.38c-3.12-1.48-5.87-1.48-8-.27zM366.34 245l-13.19 7.67c2.32-1.35 3.75-4.21 3.76-8.27 0-7.73-5.1-17-11.67-21.53l13.19-7.67c6.57 4.48 11.7 13.8 11.67 21.53-.01 4.06-1.44 6.92-3.76 8.27z"/><path class="cls-76" d="M345.24 222.86c6.57 4.48 11.69 13.8 11.67 21.53 0 8.18-5.81 11.48-12.94 7.37s-12.88-14.09-12.86-22.27c0-7.72 5.18-11.11 11.75-8q.6.28 1.2.63c.4.22.79.47 1.18.74zM344 245.8c4.26 2.45 7.72.48 7.74-4.41 0-4-2.34-8.81-5.55-11.73v-2.39l-4.29-2.47v2.39c-3.22-.79-5.58 1.25-5.59 5.29 0 4.89 3.43 10.86 7.69 13.32"/><path class="cls-71" d="M346.18 229.66c3.21 2.92 5.56 7.68 5.55 11.73 0 4.89-3.48 6.86-7.74 4.41s-7.71-8.43-7.69-13.32c0-4 2.37-6.08 5.59-5.29a8.33 8.33 0 0 1 2.15.89 13.1 13.1 0 0 1 2.14 1.58zm-2.2 13c2.77 1.6 5 .33 5-2.83a11 11 0 0 0-5-8.62 4.89 4.89 0 0 0-1.79-.65h-.06c-1.86-.24-3.18 1.07-3.18 3.5a11 11 0 0 0 5 8.61"/><path class="cls-72" d="M344 231.2a11 11 0 0 1 5 8.62c0 3.16-2.25 4.43-5 2.85 2.71 1.55 4.93.31 5-2.8-.32 2.31-2.18 3.13-4.43 1.84a9.79 9.79 0 0 1-4.44-7.7c0-2.57 1.68-3.74 3.83-2.85a4.74 4.74 0 0 0-1.7-.61 4.89 4.89 0 0 1 1.74.65z"/><path class="cls-73" d="M343.94 231.16c-2.15-.89-3.82.28-3.83 2.85a9.79 9.79 0 0 0 4.44 7.7c2.25 1.29 4.11.47 4.43-1.84-.05 3.11-2.27 4.35-5 2.79a11 11 0 0 1-5-8.62c0-2.43 1.32-3.74 3.18-3.5h.06a4.74 4.74 0 0 1 1.72.62z"/><path d="M346.19 227.27v2.39a13.1 13.1 0 0 0-2.14-1.58 8.33 8.33 0 0 0-2.15-.89v-2.39z" fill="url(#linear-gradient-62)"/><path class="cls-76" d="M345.25 219.47v3.39a16.663 16.663 0 0 0-2.38-1.38v-3.38z"/><path class="cls-78" d="M342.87 218.1l13.2-7.67 2.37 1.37-13.19 7.67-2.38-1.37z"/><path class="cls-79" d="M345.25 219.47l13.19-7.67-.01 3.39-13.19 7.66.01-3.38z"/></g><g class="cls-4"><path class="cls-79" d="M318.98 197.53l13.19-7.67 23.37 13.49-13.2 7.67-23.36-13.49z"/><path class="cls-70" d="M378.64 222.41l-13.19 7.67a2.19 2.19 0 0 0 .91-2l13.19-7.67a2.16 2.16 0 0 1-.91 2z"/><path class="cls-70" d="M366.37 224.89l13.19-7.67-.01 3.2-13.19 7.67.01-3.2z"/><path class="cls-79" d="M342.34 211.02l13.2-7.67 24.02 13.87-13.19 7.67-24.03-13.87z"/><path class="cls-70" d="M314.38 184.63l13.2-7.67 27.99 16.16-13.2 7.67-27.99-16.16z"/><path class="cls-70" d="M342.37 200.79l13.2-7.67 29.54 17.06-13.19 7.67-29.55-17.06z"/><path class="cls-76" d="M371.93 214.44l-.01 3.41-29.55-17.06-27.99-16.16.01-3.41 2.49 1.44 3.02 1.74 22.48 12.98 22.45 12.96 3.01 1.74 4.09 2.36z"/><path class="cls-70" d="M317.33 182.92l10.25-5.96.01-3.4-13.2 7.66 2.49 1.44.45.26z"/><path class="cls-70" d="M314.39 181.22l13.2-7.66 2.48 1.43-13.19 7.67-2.49-1.44z"/><path class="cls-78" d="M316.88 182.66l13.19-7.67 3.02 1.75-13.19 7.66-3.02-1.74z"/><path class="cls-79" d="M319.9 184.4l13.19-7.66 22.48 12.98-13.19 7.66-22.48-12.98z"/><path class="cls-76" d="M366.37 224.89v3.2c0 2-1.41 2.76-3.13 1.77l-41.16-23.76a6.81 6.81 0 0 1-3.11-5.37v-3.2L342.34 211z"/><path class="cls-79" d="M342.38 197.38l13.19-7.66 22.45 12.96-13.19 7.66-22.45-12.96z"/><path class="cls-78" d="M364.83 210.34l13.19-7.66 3.01 1.73-13.19 7.67-3.01-1.74zM371.93 214.44l13.19-7.67-.01 3.41-13.19 7.67.01-3.41z"/><path class="cls-70" d="M367.84 212.08l13.19-7.67 4.09 2.36-13.19 7.67-4.09-2.36z"/></g><g class="cls-4"><path class="cls-80" d="M321.93 181.25l13.19-7.66a4.48 4.48 0 0 0-2 3.15l-13.22 7.66a4.5 4.5 0 0 1 2.03-3.15z"/><path class="cls-70" d="M340.44 174.1l-4 2.34-9.18 5.33a6 6 0 0 1-.09-.92l13.2-7.67a4.86 4.86 0 0 0 .07.92zM327.16 178.29l13.2-7.66-.01 2.55-13.2 7.67.01-2.56z"/><path class="cls-76" d="M327.16 178.29v2.56a6 6 0 0 0 .09.92c-3.6-2.08-6.63-.87-7.34 2.63l-3-1.74c.72-5.35 5.09-7.32 10.25-4.37z"/><path class="cls-80" d="M319.82 177.63L333 170c1.88-1.09 4.47-1 7.33.67l-13.19 7.66c-2.84-1.66-5.44-1.79-7.32-.7z"/><path class="cls-71" d="M369.9 192.77l-13.19 7.66a1.8 1.8 0 0 0 .81-1.18 3.45 3.45 0 0 0 .1-.81l13.19-7.67a3.35 3.35 0 0 1-.09.81 1.84 1.84 0 0 1-.82 1.19z"/><path class="cls-71" d="M357.63 195.88l13.19-7.66-.01 2.55-13.19 7.67.01-2.56zM327.17 177.21l13.19-7.67 30.46 17.59-13.19 7.67-30.46-17.59z"/><path class="cls-76" d="M357.63 194.8v3.64a3.45 3.45 0 0 1-.1.81c-.34 1.36-1.57 1.81-3 1l-24.24-14a7 7 0 0 1-3-4.46 6 6 0 0 1-.09-.92v-3.64z"/><path class="cls-71" d="M357.63 194.8l13.19-7.67v1.09l-13.19 7.66v-1.08z"/><path class="cls-80" d="M357.63 195.88l13.19-7.66c5.2 3.06 9.5 10 10.21 16.19l-13.19 7.67c-.71-6.19-5.01-13.14-10.21-16.2z"/><path class="cls-76" d="M357.63 195.88c5.2 3.06 9.5 10 10.21 16.2l-3-1.74c-.69-4.31-3.7-9-7.31-11.09a3.45 3.45 0 0 0 .1-.81z"/></g><path class="cls-78" d="M282.35 236.07l-.08.04-.94.52.94-.52.08-.04zM288.05 207.17l.06-.53c0 .18-.05.35-.06.53z"/><path class="cls-80" d="M306.72 171c-.31.2-.63.38-.93.6-.83.58-1.63 1.21-2.4 1.87-.06.05-.13.09-.19.15-.83.71-1.63 1.48-2.4 2.27-.25.26-.47.55-.72.81-.5.56-1 1.12-1.49 1.72-.27.35-.53.72-.8 1.08-.41.55-.82 1.1-1.21 1.68-.27.4-.52.83-.78 1.25s-.71 1.14-1.05 1.74-.48.92-.72 1.38-.61 1.21-.9 1.84-.44 1-.65 1.49-.53 1.28-.77 1.94-.39 1.05-.57 1.59-.44 1.35-.65 2.05c-.17.55-.32 1.11-.48 1.67a76.295 76.295 0 0 0-.91 3.92c-.15.76-.29 1.53-.41 2.3-.1.6-.2 1.19-.29 1.8-.11.81-.2 1.63-.29 2.46l-.06.53c0 .43-.09.85-.13 1.29-.07.87-.12 1.77-.17 2.67 0 .59-.07 1.17-.09 1.77V217.48c0 1.56.09 3.14.19 4.75l.68 10.41 13.16-7.64-.69-10.4c-1.5-22.95 4.88-40.94 17.38-50.2l-6.58 3.82a33.22 33.22 0 0 0-5.08 2.78z"/><path class="cls-76" d="M288.5 232.67l-.68-10.41c-.1-1.61-.16-3.19-.19-4.75v-1.54-3.07c0-.6.06-1.18.09-1.77.05-.9.1-1.8.17-2.67 0-.44.09-.86.13-1.29 0-.18 0-.35.06-.53.09-.83.18-1.65.29-2.46.09-.61.19-1.2.29-1.8.12-.77.26-1.54.41-2.3.12-.59.25-1.17.38-1.75.17-.73.34-1.45.53-2.17.16-.56.31-1.12.48-1.67.21-.7.42-1.38.65-2.05s.37-1.07.57-1.59.5-1.31.77-1.94.42-1 .65-1.49.59-1.24.9-1.84.47-.93.72-1.38.69-1.17 1.05-1.74.51-.85.78-1.25c.39-.58.8-1.13 1.21-1.68.27-.36.53-.73.8-1.08.48-.6 1-1.16 1.49-1.72.25-.26.47-.55.72-.81.77-.79 1.57-1.56 2.4-2.27.06-.06.13-.1.19-.15.77-.66 1.57-1.29 2.4-1.87.3-.22.62-.4.93-.6a33.22 33.22 0 0 1 5.1-2.81l-19-11-1.19-.68c-14.63 8.54-20.4 29.81-15.16 55.93l4.83 24.12.94-.52h.08-.08l-.94.52 10.9 15.18 2.55 1.47.05-18.42 13.23-7.63-2.38-1.37-.17-.1-3.78-.7-13.19 7.66zm8.5-67.3a.56.56 0 0 1 0-.12 1.39 1.39 0 0 1 .38-.55l.09-.08a1.55 1.55 0 0 1 1.43-.19 3 3 0 0 1 .59.27A5.94 5.94 0 0 1 302 168a4.46 4.46 0 0 1 .2 1.32c0 1.69-1.2 2.38-2.67 1.53a4.56 4.56 0 0 1-.59-.42 6 6 0 0 1-2.07-4.18 2.51 2.51 0 0 1 .13-.88zm-6 5.87l.09-.08a1.55 1.55 0 0 1 1.43-.18 3.86 3.86 0 0 1 .6.27 5.88 5.88 0 0 1 2.66 4.6c0 1.69-1.21 2.39-2.68 1.54a5.46 5.46 0 0 1-.6-.42 6 6 0 0 1-2.07-4.2 2 2 0 0 1 .57-1.53zm-3.85 8.58a2.79 2.79 0 0 1 .59.27 5.88 5.88 0 0 1 2.66 4.61c0 1.69-1.2 2.38-2.67 1.53a4 4 0 0 1-.6-.42 6 6 0 0 1-2.06-4.18c.01-1.47.93-2.18 2.09-1.81z"/><path class="cls-80" d="M294.78 253.28l13.19-7.67.05-18.42-13.19 7.67-.05 18.42z"/><path class="cls-81" d="M304.86 148.91l-13.2 7.67 1.19.68 18.97 10.96 6.58-3.82 6.62-3.84-18.98-10.96-1.18-.69z"/><path class="cls-70" d="M390.91 291.37l3.05 4.27.73-9.57-6.16 3.58 2.38 1.37v.35zM396.5 248.58a1.29 1.29 0 0 0 .21-.06 1.47 1.47 0 0 0 1-1.17l-2 1.15a1.91 1.91 0 0 0 .79.08zM391.19 233.57a1.29 1.29 0 0 0 .21-.06 1.46 1.46 0 0 0 1-1.16l-2 1.15a1.9 1.9 0 0 0 .79.07zM384.85 219.66a.73.73 0 0 0 .21-.06 1.44 1.44 0 0 0 1-1.17l-2 1.15a1.74 1.74 0 0 0 .79.08z"/><path class="cls-76" d="M406.19 287.38c5.36-20-.26-47.84-14.8-73.22l-1.19-.69-19-11c16.76 26.72 25.5 56.93 23.63 81.54l-.16 2-.73 9.57-3-4.27V291l-2.38-1.37v18.4l2.38 1.37.21-.12 3.19.62 7-4.07zm-20.13-68.95a1.44 1.44 0 0 1-1 1.17.73.73 0 0 1-.21.06 1.74 1.74 0 0 1-.77-.08 2.6 2.6 0 0 1-.6-.26 5.89 5.89 0 0 1-2.66-4.6c0-1.71 1.21-2.39 2.68-1.54a4.56 4.56 0 0 1 .59.42 5.89 5.89 0 0 1 2.07 4.2 3 3 0 0 1-.1.63zm5.34 15.08a1.29 1.29 0 0 1-.21.06 1.9 1.9 0 0 1-.77-.07 2.79 2.79 0 0 1-.59-.27 5.86 5.86 0 0 1-2.65-4.61 1.85 1.85 0 0 1 .78-1.71 1.45 1.45 0 0 1 .22-.09 1.15 1.15 0 0 1 .17-.06 1.22 1.22 0 0 1 .27 0 .59.59 0 0 1 .19 0 2.46 2.46 0 0 1 .33.07h.17a4.09 4.09 0 0 1 .54.24 4.56 4.56 0 0 1 .59.42 6 6 0 0 1 2.07 4.18 2.59 2.59 0 0 1-.12.66 1.46 1.46 0 0 1-.99 1.18zm1.07 10.12c0-1.7 1.21-2.39 2.69-1.53a4.56 4.56 0 0 1 .59.42 5.94 5.94 0 0 1 2.06 4.19 3 3 0 0 1-.1.64 1.47 1.47 0 0 1-1 1.17 1.29 1.29 0 0 1-.21.06 1.91 1.91 0 0 1-.77-.08 3.33 3.33 0 0 1-.59-.26 5.89 5.89 0 0 1-2.67-4.61z"/><path class="cls-79" d="M293.11 177.39c1.47.85 2.67.15 2.68-1.54a5.88 5.88 0 0 0-2.66-4.6 3.86 3.86 0 0 0-.6-.27 1.55 1.55 0 0 0-1.43.18l-.09.08a2 2 0 0 0-.57 1.53 6 6 0 0 0 2.07 4.2 5.46 5.46 0 0 0 .6.42zM299.51 170.84c1.47.85 2.67.16 2.67-1.53A4.46 4.46 0 0 0 302 168a5.94 5.94 0 0 0-2.45-3.29 3 3 0 0 0-.59-.27 1.55 1.55 0 0 0-1.43.19l-.09.08a1.39 1.39 0 0 0-.38.55.56.56 0 0 0 0 .12 2.51 2.51 0 0 0-.15.87 6 6 0 0 0 2.07 4.18 4.56 4.56 0 0 0 .53.41zM287.74 186.23c1.47.85 2.66.16 2.67-1.53a5.88 5.88 0 0 0-2.66-4.61 2.79 2.79 0 0 0-.59-.27c-1.19-.37-2.08.34-2.08 1.81a6 6 0 0 0 2.06 4.18 4 4 0 0 0 .6.42zM390.44 227.51a4.56 4.56 0 0 0-.59-.42 4.09 4.09 0 0 0-.54-.24h-.17a2.46 2.46 0 0 0-.33-.07.59.59 0 0 0-.19 0 1.22 1.22 0 0 0-.27 0 1.15 1.15 0 0 0-.17.06 1.45 1.45 0 0 0-.22.09 1.85 1.85 0 0 0-.78 1.71 5.86 5.86 0 0 0 2.65 4.61 2.79 2.79 0 0 0 .59.27l2-1.15a2.59 2.59 0 0 0 .12-.66 6 6 0 0 0-2.1-4.2z"/><path class="cls-70" d="M383.5 213.18c-1.47-.85-2.67-.17-2.68 1.54a5.89 5.89 0 0 0 2.66 4.6 2.6 2.6 0 0 0 .6.26l2-1.15a3 3 0 0 0 .1-.63 5.89 5.89 0 0 0-2.07-4.2 4.56 4.56 0 0 0-.61-.42z"/><path class="cls-79" d="M395.73 248.5l2-1.15a3 3 0 0 0 .1-.64 5.94 5.94 0 0 0-2.06-4.19 4.56 4.56 0 0 0-.59-.42c-1.48-.86-2.68-.17-2.69 1.53a5.89 5.89 0 0 0 2.67 4.61 3.33 3.33 0 0 0 .57.26z"/><path class="cls-81" d="M391.39 214.16l13.2-7.66-1.2-.69-18.98-10.96-13.19 7.66 18.98 10.96 1.19.69z"/><path class="cls-80" d="M404.59 206.5l-13.2 7.66c14.54 25.38 20.16 53.22 14.8 73.22l-5 18.47-7 4.07 13.19-7.67 7-4.07 5-18.47c5.36-20-.26-47.84-14.79-73.21z"/><path class="cls-82" d="M261.71 130.49l-.02 4.47 11.57 11.15.03-8.94-11.58-6.68z"/><path class="cls-83" d="M299.67 121.84l-11.58-6.69-26.38 15.34 11.58 6.68 26.38-15.33z"/><path class="cls-76" d="M273.29 137.17l-.03 8.94 132.04 76.23.02-8.94-132.03-76.23z"/><path class="cls-80" d="M405.32 213.4l26.39-15.33-132.04-76.23-26.38 15.33 132.03 76.23z"/><path class="cls-82" d="M416.9 220.09l-11.58-6.69-.02 8.94 11.59 2.23 26.39-15.34.01-4.47-26.39 15.33z"/><path class="cls-83" d="M416.9 220.09l26.39-15.33-11.58-6.69-26.39 15.33 11.58 6.69z"/><g class="cls-4"><path class="cls-79" d="M446 187.33v6.47a52.7 52.7 0 0 0-20-4.79v-6.47a52.7 52.7 0 0 1 20 4.79zM419.59 182.54v6.47a52.31 52.31 0 0 0-20 4.79v-6.47a52.31 52.31 0 0 1 20-4.79z"/><path class="cls-84" d="M419.68 198.91l-.02 6.47-.09-16.37.01-6.47.1 16.37z"/><path class="cls-79" d="M458.79 201.51v6.47c-.66-4.15-3.43-8.21-8.33-11.58v-6.47c4.9 3.37 7.67 7.43 8.33 11.58zM450.46 189.93l-.02 6.48-19.92 11.57.02-6.47 19.92-11.58zM415.19 201.51l-.01 6.47-20.06-11.57.02-6.48 20.05 11.58z"/><path class="cls-79" d="M395.14 189.93v6.47c-4.86 3.37-7.59 7.43-8.2 11.58v-6.47c.61-4.15 3.34-8.21 8.2-11.58zM458.81 205.19l-.01 6.47h-28.26l.02-6.47h28.25z"/><path class="cls-79" d="M415.21 205.19l-.01 6.47h-28.26l.02-6.47h28.25zM446.13 219.37l-.02 6.47-20.05-11.58.01-6.47 20.06 11.58z"/><path class="cls-79" d="M419.73 207.79l-.02 6.47-19.93 11.58.02-6.47 19.93-11.58z"/><path class="cls-84" d="M419.82 224.16l-.02 6.47-.09-16.37.02-6.47.09 16.37z"/><path class="cls-79" d="M465.3 203.47v6.47c0 6.26-4.12 12.5-12.32 17.27-16.49 9.58-43.41 9.58-60 0-8.36-4.83-12.53-11.18-12.52-17.51v-6.47c0 6.33 4.16 12.68 12.52 17.51 16.6 9.58 43.52 9.58 60 0 8.2-4.74 12.3-11.02 12.32-17.27z"/><path class="cls-9" d="M452.79 186c16.6 9.58 16.69 25.18.19 34.77s-43.41 9.58-60 0-16.7-25.19-.21-34.77 43.42-9.62 60.02 0zm-2.18 30.8c4.86-3.37 7.6-7.43 8.2-11.58h-28.25l20.05 11.58m-31-34.23a52.31 52.31 0 0 0-20 4.79l20.06 11.58-.09-16.37m30.87 7.39l-19.92 11.58h28.25c-.66-4.15-3.43-8.21-8.33-11.58m-50.65 29.41a52.47 52.47 0 0 0 20 4.79l-.09-16.37-19.91 11.58m-4.51-2.6l19.93-11.58H387c.65 4.15 3.43 8.21 8.33 11.58m-.15-26.84c-4.86 3.37-7.59 7.43-8.2 11.58h28.25l-20.05-11.58m31 34.23a52.08 52.08 0 0 0 20-4.79l-20.06-11.58.1 16.37m-.22-25.25l20-11.58a52.7 52.7 0 0 0-20-4.79l.09 16.37"/></g><g class="cls-4"><path class="cls-79" d="M305.44 106.86v6.47a52.89 52.89 0 0 0-20-4.79v-6.47a52.7 52.7 0 0 1 20 4.79zM279.07 102.07v6.47a52.5 52.5 0 0 0-20 4.79v-6.47a52.31 52.31 0 0 1 20-4.79z"/><path class="cls-84" d="M279.17 118.48l-.02 6.47-.09-16.36.01-6.48.1 16.37z"/><path class="cls-79" d="M318.28 121v6.48c-.66-4.15-3.43-8.22-8.33-11.58v-6.47c4.9 3.4 7.67 7.46 8.33 11.57zM309.95 109.47l-.02 6.47-19.92 11.58.01-6.47 19.93-11.58zM274.68 121.05l-.01 6.47-20.06-11.58.02-6.47 20.05 11.58z"/><path class="cls-79" d="M254.63 109.51v6.47c-4.86 3.37-7.59 7.43-8.2 11.58v-6.47c.57-4.15 3.34-8.22 8.2-11.58zM318.3 124.72l-.01 6.47h-28.26l.02-6.47h28.25z"/><path class="cls-79" d="M274.7 124.76l-.01 6.48h-28.26l.02-6.48h28.25zM305.62 138.91l-.02 6.47-20.05-11.58.01-6.47 20.06 11.58z"/><path class="cls-79" d="M279.22 127.37l-.02 6.47-19.93 11.58.02-6.47 19.93-11.58z"/><path class="cls-84" d="M279.31 143.74l-.02 6.47-.09-16.37.02-6.47.09 16.37z"/><path class="cls-79" d="M324.79 123v6.47c0 6.26-4.12 12.51-12.32 17.27-16.49 9.58-43.41 9.58-60 0-8.36-4.82-12.53-11.17-12.52-17.51v-6.47c0 6.34 4.16 12.68 12.52 17.51 16.6 9.58 43.52 9.58 60 0 8.2-4.77 12.3-11.01 12.32-17.27z"/><path class="cls-9" d="M312.28 105.55c16.6 9.58 16.69 25.17.19 34.76s-43.41 9.58-60 0-16.7-25.18-.21-34.76 43.41-9.55 60.02 0zm-2.18 30.79c4.86-3.36 7.6-7.42 8.2-11.58h-28.25l20.05 11.58m-31-34.22a52.3 52.3 0 0 0-20 4.78l20.06 11.58-.1-16.36m30.94 7.39l-20 11.58h28.25c-.66-4.15-3.43-8.22-8.33-11.58M259.29 139a52.66 52.66 0 0 0 20 4.79l-.09-16.37L259.29 139m-4.51-2.61l19.92-11.58h-28.25c.65 4.16 3.43 8.22 8.33 11.58m-.15-26.83c-4.86 3.36-7.59 7.43-8.2 11.58h28.25l-20.05-11.58m31 34.23a52.26 52.26 0 0 0 20-4.79l-20.06-11.58.1 16.37m-.15-25.26l19.93-11.58a52.7 52.7 0 0 0-20-4.78l.09 16.36"/></g><g class="cls-4"><path fill="#313071" d="M119.05 198.8l-12.83-7.45.04 14.37 12.83 7.45-.04-14.37z"/><path class="cls-79" d="M202.2 143.16l.41.24a12.44 12.44 0 0 1 6.2 10.74 12.49 12.49 0 0 1-6.23 10.86l-83.49 48.2v-14.37l-12.83-7.45 83.49-48.21a12.47 12.47 0 0 1 12.45-.01z"/></g><path class="cls-86" d="M179 156.37l-.43-.25a13 13 0 0 0-9.4-1.42l7.31-4.21a12.45 12.45 0 0 1 12.49 0l.41.23a12.46 12.46 0 0 1 0 21.57l-7.57 4.38a13 13 0 0 0-2.81-20.3z"/><g class="cls-4"><path class="cls-80" d="M236.83 312.63l-6.41 3.73c-2.15 1.25-3.48 3.91-3.49 7.68a19.81 19.81 0 0 0 .81 5.43l6.41-3.73a20.6 20.6 0 0 1-.81-5.43c.01-3.77 1.35-6.43 3.49-7.68zM232.87 298.92l-6.41 3.72c3.2-1.85 7.63-1.59 12.52 1.23l6.41-3.73c-4.89-2.82-9.32-3.08-12.52-1.22z"/><path class="cls-86" d="M239 303.87c-9.72-5.61-17.63-1.1-17.66 10.06a33.52 33.52 0 0 0 3.3 13.74l3.12 1.8a19.81 19.81 0 0 1-.81-5.43c0-7.6 5.39-10.66 12-6.84s11.95 13.06 11.93 20.66a11.45 11.45 0 0 1-.85 4.47l3.12 1.81c2.11-2.12 3.36-5.47 3.37-9.89.02-11.17-7.83-24.77-17.52-30.38z"/><path class="cls-80" d="M253.14 344.14l6.42-3.73c2.1-2.12 3.36-5.47 3.37-9.89 0-11.17-7.82-24.77-17.54-30.38l-6.39 3.73c9.71 5.61 17.56 19.21 17.53 30.38-.03 4.42-1.28 7.75-3.39 9.89z"/></g><path class="cls-80" d="M242.13 303.87a3.56 3.56 0 0 0 3.56-3.56v-11.89h-7.12v11.89a3.56 3.56 0 0 0 3.56 3.56z"/><g class="cls-4"><path class="cls-70" d="M236.53 214.72l11.1-6.45-.04 12.43-11.1 6.45.04-12.43z"/><path class="cls-76" d="M164.57 166.57l-.35.2a10.81 10.81 0 0 0-5.37 9.3 10.79 10.79 0 0 0 5.4 9.37l72.24 41.71v-12.43l11.1-6.45-72.25-41.71a10.77 10.77 0 0 0-10.77.01z"/></g><path class="cls-76" d="M242.13 290.55a10.43 10.43 0 0 0 10.42-10.43V230H231.7v50.15a10.43 10.43 0 0 0 10.43 10.4z"/><g class="cls-4"><path class="cls-9" d="M221.26 206.58l20.71 12.03 20.82-12.03-20.7-12.03-20.83 12.03z"/><path class="cls-86" d="M221.26 206.58l.07 22.25 20.7 12.04-.06-22.26-20.71-12.03z"/><path class="cls-79" d="M241.97 218.61l.06 22.26 20.83-12.03-.07-22.26-20.82 12.03z"/></g><path class="cls-2" d="M59.3 347.82a3.73 3.73 0 0 0 .33.38 3.73 3.73 0 0 1-.33-.38zM59.8 348.38a5.05 5.05 0 0 0 .7.5 5.05 5.05 0 0 1-.7-.5zM59 347.23a2.26 2.26 0 0 0 .17.35 2.26 2.26 0 0 1-.17-.35zM170.07 347.22c0-.09 0-.18.05-.26-.02.04-.02.17-.05.26zM169.26 348.37a1.29 1.29 0 0 0 .16-.18 1.29 1.29 0 0 1-.16.18zM169.77 347.81a1.67 1.67 0 0 0 .12-.23 1.67 1.67 0 0 1-.12.23z"/><path class="cls-76" d="M59 347.23a2.26 2.26 0 0 0 .17.35 1.83 1.83 0 0 0 .13.24 3.73 3.73 0 0 0 .33.38c.06.06.1.12.17.18a5.05 5.05 0 0 0 .7.5l50 29a8.63 8.63 0 0 0 7.81 0l50.29-29a4.44 4.44 0 0 0 .71-.5 1.29 1.29 0 0 0 .16-.18 2.46 2.46 0 0 0 .35-.38 1.67 1.67 0 0 0 .12-.23 2 2 0 0 0 .18-.36c0-.09 0-.18.05-.26s0-.24.06-.35v10a2.75 2.75 0 0 1-1.62 2.27l-50.29 29a8.57 8.57 0 0 1-7.81 0l-49.95-29a3.17 3.17 0 0 1-1.5-1.64 1.86 1.86 0 0 1-.1-.61l-.05-10a2 2 0 0 0 .09.36 2.38 2.38 0 0 0 0 .23z"/><path class="cls-86" d="M170.12 347c0 .08 0 .17-.05.26a2 2 0 0 1-.18.36 1.67 1.67 0 0 1-.12.23 2.46 2.46 0 0 1-.35.38 1.29 1.29 0 0 1-.16.18 4.44 4.44 0 0 1-.71.5l-50.29 29a8.63 8.63 0 0 1-7.81 0l-49.95-29a5.05 5.05 0 0 1-.7-.5c-.07-.06-.11-.12-.17-.18a3.73 3.73 0 0 1-.33-.38 1.83 1.83 0 0 1-.13-.24 2.26 2.26 0 0 1-.17-.35 2.38 2.38 0 0 1 0-.26 2.57 2.57 0 0 1 1.57-2.62l50.29-29a8.61 8.61 0 0 1 7.8 0l50 29a2.76 2.76 0 0 1 1.62 2.26c-.11.08-.14.2-.16.36z"/><path class="cls-2" d="M109.74 184.83c-.28-.27-.56-.55-.84-.81.19.17.38.34.56.52s.18.2.28.29zM114.36 190.21l-.12-.16a.76.76 0 0 1 .08.11zM119.83 199.46v-.14.07s-.01.04 0 .07zM118.13 196.08c-.12-.22-.25-.43-.37-.64l.15.25c.09.13.15.31.22.39zM116.23 192.89l.2.34-.51-.79a1.88 1.88 0 0 1 .12.18zM111.93 187.17c-.1-.12-.21-.23-.31-.34.08.09.17.17.25.27zM108.09 183.27c-.36-.33-.72-.63-1.09-.94.25.21.51.41.75.63zM104.3 180.27c-.65-.44-1.31-.86-2-1.24.62.36 1.24.75 1.85 1.16zM95.53 176.38l-.33-.06h.18zM106.22 181.69c-.42-.33-.84-.64-1.26-.94.34.25.69.49 1 .75zM99.92 177.81l-.46-.19c.13 0 .25.09.37.15zM131.64 353.22c0 .1-.06.2-.08.3.02-.1.05-.2.08-.3zM130.67 356.25l-.13.31zM132.28 349.85v.27c-.03-.12-.01-.18 0-.27zM129.37 358.94a2.61 2.61 0 0 1-.17.28 2.61 2.61 0 0 0 .17-.28zM132.56 346.33a1 1 0 0 1 0-.17 1 1 0 0 0 0 .17zM123.12 209.17v-.01.01zM122.33 206.09c-.09-.3-.19-.6-.28-.9l.06.2zM127.78 361.27l-.2.24zM125.68 363.41l.22-.19zM121 202.06c.12.31.23.62.34.93a3.88 3.88 0 0 1-.34-.93zM88.69 176.71h.1c-.24.08-.47.17-.71.27l.24-.12zM90.27 176.28h.18l-.76.17.2-.06zM92.21 176.08c-.28 0-.54 0-.8.06.15 0 .29 0 .45-.06zM93.88 176.14h-.63.33z"/><path class="cls-76" d="M71.35 306.87l9.31-117.53c.49-5.94 2.94-10.05 6.6-12 .27-.14.54-.27.82-.39s.47-.19.71-.27.6-.19.9-.26l.76-.17c.31-.06.64-.09 1-.12s.52 0 .8-.06.68 0 1 0h.99l1 .15.33.06.75.16 1 .27c.49.15 1 .32 1.5.52l.72.29.46.19.43.19c.65.31 1.31.64 2 1s1.32.8 2 1.24l.51.38.15.1c.42.3.84.61 1.26.94l.49.4.29.24c.37.31.73.61 1.09.94l.4.37.41.38c.28.26.56.54.84.81.61.61 1.2 1.24 1.79 1.9l.09.1c.1.11.21.22.31.34.71.81 1.39 1.66 2 2.52l.26.36.12.16c.54.73 1.06 1.47 1.56 2.23l.51.79c.46.72.9 1.46 1.33 2.21.12.21.25.42.37.64.52.94 1 1.9 1.46 2.86.06.11.1.22.16.33v.14c.4.86.77 1.73 1.12 2.6.12.31.23.62.34.93.28.74.53 1.48.77 2.22.09.3.19.6.28.9.29 1 .56 2 .78 3 .2.94.36 1.87.48 2.81.11.77.19 1.53.24 2.29l8.64 127.89c.09 1.39.12 2.72.09 4a1 1 0 0 0 0 .17c0 1.22-.13 2.4-.28 3.52v.27a28.84 28.84 0 0 1-.6 3.1c0 .1-.06.2-.08.3a25.68 25.68 0 0 1-.89 2.73l-.13.31a20.24 20.24 0 0 1-1.17 2.38 2.61 2.61 0 0 1-.17.28 16.91 16.91 0 0 1-1.42 2l-.2.24a17 17 0 0 1-1.68 1.71l-.22.19a14.46 14.46 0 0 1-1.94 1.37c-5.56 3.31-13.31 2.93-21.93-2-18-10.12-32.08-35.92-30.51-55.62z"/><path class="cls-87" d="M140.66 193.53c.25.73.47 1.46.68 2.2-.19-.73-.43-1.47-.68-2.2zM122.33 206.09l-.21-.68z"/><path class="cls-88" d="M140.47 192.91c.07.2.15.4.21.61-.09-.2-.14-.41-.21-.61zM140 191.48c.12.3.22.61.33.92-.11-.31-.23-.6-.35-.91z"/><path d="M139.16 189.55c.28.64.55 1.28.79 1.93-.27-.64-.51-1.29-.79-1.93z" fill="#2b2862"/><path class="cls-90" d="M119.8 199.39v-.07c-.06-.11-.1-.22-.16-.33.05.13.1.27.16.4zM138.28 187.69c.29.62.58 1.25.85 1.88-.25-.65-.55-1.26-.85-1.88z"/><path class="cls-91" d="M137.37 185.83c.14.25.26.51.39.76-.13-.25-.28-.49-.41-.74zM137.9 186.86c.13.27.27.54.41.81z"/><path class="cls-92" d="M118.16 196.13c-.07-.13-.14-.26-.22-.39zM136.34 184c.35.6.69 1.21 1 1.82-.34-.59-.64-1.2-1-1.82z"/><path d="M135.21 182.19c.39.6.76 1.22 1.13 1.84-.34-.64-.75-1.24-1.13-1.84z" fill="#2d2d6a"/><path class="cls-94" d="M134 180.29l.48.73c-.16-.24-.34-.47-.51-.71zM134.56 181.16c.22.34.46.67.67 1zM116.23 192.89l-.19-.27z"/><path class="cls-95" d="M132.51 178.34c.49.64 1 1.3 1.45 2-.48-.7-.96-1.34-1.45-2zM114.32 190.16a.76.76 0 0 0-.08-.11l-.26-.36z"/><path d="M130.77 176.23c.6.68 1.18 1.39 1.74 2.11-.51-.72-1.14-1.43-1.74-2.11z" fill="#313070"/><path class="cls-97" d="M128.39 173.68a44.889 44.889 0 0 0 0 0zM111.87 187.1c-.08-.1-.17-.18-.25-.27l-.09-.1c.11.13.23.27.34.37z"/><path class="cls-80" d="M125.9 363.22a17 17 0 0 0 1.68-1.71l.2-.24a16.91 16.91 0 0 0 1.42-2 2.61 2.61 0 0 0 .17-.28 20.24 20.24 0 0 0 1.17-2.38l.13-.31a25.68 25.68 0 0 0 .89-2.73c0-.1.05-.2.08-.3a28.84 28.84 0 0 0 .6-3.1v-.27c.15-1.12.24-2.3.28-3.52a1 1 0 0 1 0-.17c0-1.28 0-2.61-.09-4l-8.64-127.89c0-.76-.13-1.52-.24-2.29-.12-.94-.28-1.87-.48-2.81-.22-1-.49-2-.78-3l-.21-.68-.06-.2c-.24-.74-.49-1.48-.77-2.22-.11-.31-.22-.62-.34-.93-.35-.87-.72-1.74-1.12-2.6v-.07c0-.02-.11-.27-.18-.4-.45-1-.94-1.92-1.46-2.86l-.25-.44-.15-.25c-.43-.75-.87-1.49-1.33-2.21l-.2-.34-.19-.27a1.88 1.88 0 0 0-.12-.18c-.5-.76-1-1.5-1.56-2.23v-.05l-.34-.47c-.66-.86-1.34-1.71-2-2.52l-.06-.07c-.11-.13-.23-.24-.34-.37a46.51 46.51 0 0 0-1.79-1.9c-.1-.09-.18-.2-.28-.29s-.37-.35-.56-.52l-.41-.38-.4-.37-.34-.31c-.24-.22-.5-.42-.75-.63l-.29-.24-.49-.4-.23-.19c-.34-.26-.69-.5-1-.75l-.15-.1-.51-.38-.12-.08c-.61-.41-1.23-.8-1.85-1.16s-1.33-.72-2-1l-.43-.19h-.09c-.12-.06-.24-.1-.37-.15l-.72-.29c-.51-.2-1-.37-1.5-.52l-1-.27-.75-.16H95.25l-1-.15h-2.34c-.16 0-.3 0-.45.06-.33 0-.66.06-1 .12h-.18l-.38.09-.2.06c-.3.07-.6.16-.9.26h-.1l-.37.13-.24.12c-.28.12-.55.25-.82.39s-.24.1-.36.17l18.85-11 .12-.07A8.44 8.44 0 0 1 107 166l.21-.08.37-.13.56-.2c.21-.06.43-.1.64-.14s.25-.07.38-.09l.2-.05c.42-.07.86-.12 1.31-.15h1.79l.66.07.59.06.55.12c.29 0 .59.11.9.19l.47.1c.16 0 .33.12.49.17.49.15 1 .32 1.5.52.18.06.35.1.54.18l.55.25.52.24c.65.31 1.31.64 2 1s1.2.72 1.79 1.12c.2.13.39.28.59.42.39.27.78.55 1.17.85.23.17.45.36.68.55s.69.55 1 .85.47.42.71.63.63.58.95.89l.3.28c.82.8 1.61 1.66 2.38 2.55.6.68 1.18 1.39 1.74 2.11s1 1.3 1.44 2c.17.24.35.47.51.71l.1.14.65 1c.38.6.77 1.2 1.13 1.82s.68 1.22 1 1.84c.13.25.28.49.41.74 0 .09.09.18.14.27l.38.83c.3.62.6 1.23.88 1.86s.52 1.29.77 1.94c.12.31.24.6.35.91l.19.51c.07.2.12.41.19.62.25.73.49 1.46.7 2.19.23.83.43 1.66.61 2.49.2.94.35 1.88.48 2.81v.2c.09.71.16 1.41.2 2.1l8.64 127.89a35.54 35.54 0 0 1-.87 11.18 22.16 22.16 0 0 1-2.31 5.74 17.09 17.09 0 0 1-1.62 2.32 15.2 15.2 0 0 1-4.06 3.47l-18.85 10.95a.94.94 0 0 0 .12-.09 14.46 14.46 0 0 0 1.94-1.37z"/><path class="cls-2" d="M93.75 195.6l.33-.09zM96.11 195.5l.37.06zM97 195.71l.34.1zM93.08 195.85l.29-.14zM98 196.08l.23.1zM95.28 195.42zM94.83 195.41l-.34.05zM108.15 214.45zM107.62 216.1zM106.77 217.42z"/><path class="cls-79" d="M106.77 217.42a5.37 5.37 0 0 0 .82-1.26 7.08 7.08 0 0 0 .52-1.63 11.11 11.11 0 0 0 .19-2c0-5.81-4.07-12.88-9.13-15.8a10.43 10.43 0 0 0-.94-.48l-.23-.1-.68-.27-.34-.1c-.18-.05-.36-.11-.54-.15l-.37-.06-.47-.07h-.81l-.34.05a2.7 2.7 0 0 0-.41 0l-.33.09a2.72 2.72 0 0 0-.38.11l-.29.14a2.37 2.37 0 0 0-.36.17l1.47-.85c1.66-1 4-.83 6.51.64 5.06 2.92 9.14 10 9.13 15.8 0 2.88-1 4.91-2.68 5.87l-1.46.85a4.35 4.35 0 0 0 1.12-.95z"/><path class="cls-86" d="M92.72 196a2.37 2.37 0 0 1 .36-.17l.29-.14a2.72 2.72 0 0 1 .38-.11l.33-.09a2.7 2.7 0 0 1 .41 0l.34-.05h.81l.47.07.37.06c.18 0 .36.1.54.15l.34.1.68.27.23.1a10.43 10.43 0 0 1 .94.48c5.06 2.92 9.14 10 9.13 15.8a11.11 11.11 0 0 1-.19 2 7.08 7.08 0 0 1-.52 1.63 5.37 5.37 0 0 1-.82 1.26 4.35 4.35 0 0 1-1.08.89c-1.67 1-4 .86-6.54-.61-5.05-2.93-9.13-10-9.12-15.8-.07-2.84 1-4.84 2.65-5.84z"/><path class="cls-2" d="M94.13 306.2c.22.07.44.11.66.19-.22-.08-.44-.12-.66-.19zM96.06 306.9l.56.22zM92.31 305.78c.24 0 .47.06.72.11-.25-.05-.48-.07-.72-.11zM116.79 339.77a20.25 20.25 0 0 1-.1 2.1 20.25 20.25 0 0 0 .1-2.1zM116.6 342.52c-.06.43-.11.87-.19 1.27.08-.4.13-.79.19-1.27zM90.62 305.61h.72c-.25 0-.48.01-.72 0zM87.56 306c.22 0 .42-.13.65-.18-.21.01-.43.08-.65.18zM86.18 306.47c.2-.09.4-.2.61-.28-.21.08-.41.19-.61.28zM89.73 305.6c-.24 0-.46 0-.69.08.23-.03.45-.07.69-.08zM116.23 344.5c-.09.35-.17.72-.28 1.05.11-.33.19-.7.28-1.05zM113.64 349.73a8.16 8.16 0 0 0 .5-.66 8.16 8.16 0 0 1-.5.66zM113.16 350.2c-.19.18-.37.38-.57.54.2-.16.41-.36.57-.54zM115.69 346.22c-.12.31-.22.62-.36.91.14-.29.24-.6.36-.91zM115 347.75c-.14.26-.27.53-.43.77.15-.24.28-.52.43-.77z"/><path class="cls-79" d="M113.16 350.2c.16-.16.33-.3.48-.47a8.16 8.16 0 0 0 .5-.66c.14-.18.29-.35.42-.55s.29-.51.43-.77.24-.4.34-.62.24-.6.36-.91a6.66 6.66 0 0 0 .26-.67c.11-.33.19-.7.28-1.05s.13-.46.18-.71c.08-.4.13-.84.19-1.27 0-.22.07-.42.09-.65a20.25 20.25 0 0 0 .1-2.1c0-11.65-8.16-25.82-18.28-31.67-.64-.37-1.27-.69-1.89-1l-.56-.22c-.43-.18-.85-.37-1.27-.51-.22-.08-.44-.12-.66-.19s-.74-.23-1.1-.31-.48-.07-.72-.11-.66-.12-1-.15-.48 0-.72 0h-.89c-.29 0-.46 0-.69.08s-.56.05-.83.1-.43.13-.65.18-.52.13-.77.23-.41.19-.61.28a7.5 7.5 0 0 0-.7.33l2.94-1.71c3.34-1.94 8-1.67 13.06 1.28 10.13 5.85 18.32 20 18.29 31.67 0 5.78-2.06 9.85-5.36 11.77l-2.94 1.71c.21-.12.4-.28.6-.42s.37-.24.55-.38.41-.35.57-.53z"/><path class="cls-86" d="M85.48 306.8a7.5 7.5 0 0 1 .7-.33c.2-.09.4-.2.61-.28s.51-.15.77-.23.42-.13.65-.18.55-.07.83-.1.45-.07.69-.08.59 0 .89 0h.72c.25 0 .65.1 1 .15s.47.06.72.11.73.2 1.1.31.44.11.66.19c.42.14.84.33 1.27.51l.56.22c.62.29 1.25.61 1.89 1 10.12 5.85 18.32 20 18.28 31.67a20.25 20.25 0 0 1-.1 2.1c0 .23-.07.43-.09.65-.06.43-.11.87-.19 1.27 0 .25-.12.47-.18.71s-.17.72-.28 1.05a6.66 6.66 0 0 1-.26.67c-.12.31-.22.62-.36.91s-.23.41-.34.62-.27.53-.43.77-.28.37-.42.55a8.16 8.16 0 0 1-.5.66c-.15.17-.32.31-.48.47s-.37.38-.57.54-.37.25-.55.38c-3.37 2.36-8.24 2.27-13.65-.86-10.14-5.85-18.32-20-18.29-31.67-.01-5.8 2.04-9.87 5.35-11.78z"/><path class="cls-3" d="M403.84 339.63v26.6l3.89 18.47 5 1-2.06-21.32 1.28-18 5.76.84 2.31 38.34 6.11.2-.32-19.05 2.67-27.71-3.06-3.37a53 53 0 0 0-5.68-2c-.68 0-10 1.34-10 1.34z"/><ellipse class="cls-98" cx="424.42" cy="285.41" rx="6.01" ry="5.91"/><path class="cls-99" d="M414.18 301.76s-1.35 9.3-.59 10.24 4.45-1.62 4.54-2.21c.37-2.52 1-10.81 1-10.81z"/><path class="cls-99" d="M424.6 295.42c-1.26 5.23-6 8.63-10.48 7.58s-7.18-6.15-5.92-11.38 5.95-8.63 10.47-7.58 7.18 6.15 5.93 11.38z"/><path class="cls-9" d="M413.74 304.49s.19 6.74 1 6.17 4-5.42 4-5.42l6.87 8.74-2.92 15.56 5.83 9.44c-12.23 9.95-24.64.65-24.64.65l2.68-12.85a5.93 5.93 0 0 0-.47-3.82l-1.09-2.24a5.9 5.9 0 0 1-.49-3.65l1.06-5.59-.29-8.87z"/><path class="cls-98" d="M420.71 288l-6.91-.84c-1-.16-2.08-.31-3.06-.46 1.51-1.66 3.46-3.14 5.72-3.23s4.42 1.3 6.25 2.73a5.21 5.21 0 0 1 1.62 1.75 9.15 9.15 0 0 1 1.14 2.54c.12 3.07-.27 6.71-2.72 9-.17-.9-1-2.44-.7-3.31s1.77-1.47 1.89-2.27a1.81 1.81 0 0 0-.94-2c-.74-.27-1.72 1.57-2.32 2.08a46.07 46.07 0 0 1 .03-5.99z"/><path class="cls-100" d="M410.41 291.34c-.27 1.62-1.43 2.78-2.61 2.59s-1.91-1.65-1.65-3.26 1.44-2.78 2.61-2.59 1.91 1.64 1.65 3.26zM415.79 293.16c-.26 1.61-1.43 2.77-2.61 2.59s-1.91-1.65-1.64-3.27 1.43-2.77 2.61-2.59 1.91 1.65 1.64 3.27z"/><path class="cls-9" d="M386.05 267.93l7.05 20.25 12.14 14.43.65 9.55-18.15-20.09s-5.93-20-5.36-20.81a33.64 33.64 0 0 1 3.67-3.33zM420.77 312.59l1.41-2.49 3.39 3.88L436 332.84l3.67 16.92s-3.95 2.5-4.23 1.39-3.39-11.65-5.93-16.37S420.4 321 420.4 321z"/><ellipse class="cls-99" cx="383.74" cy="267.61" rx="3.11" ry="3.05"/><path class="cls-3" d="M407.77 384.7l-6 6.56s.32 3.14 4.15 2.41l6.5-4.43.37-3.58zM420.06 385.5v3.74s1.39 10.29 3.62 9.56 2.67-8.9 2.67-8.9l-.18-4.2z"/><ellipse class="cls-99" cx="437.38" cy="353.69" rx="3.11" ry="3.05"/></svg>