<svg id="Layer_1" data-name="Layer 1" xmlns="http://www.w3.org/2000/svg" xmlns:xlink="http://www.w3.org/1999/xlink" viewBox="0 0 523.23 521.42"><defs><style>.cls-1{isolation:isolate}.cls-2{fill:#c0d0ea}.cls-3{fill:#165a91}.cls-4{fill:#10416b}.cls-5{fill:#fabf9d}.cls-6{fill:#cc1f36}.cls-7{fill:#282642}.cls-8{fill:#d1dbef}.cls-10{fill:#2d77a9}.cls-11{fill:#c5c8c2}.cls-16{fill:#fff}.cls-17{fill:#808cc5}</style><linearGradient id="linear-gradient" x1="329.23" y1="360.2" x2="361.38" y2="360.2" gradientUnits="userSpaceOnUse"><stop offset="0" stop-color="#eab226"/><stop offset=".43" stop-color="#f4ca19"/><stop offset=".98" stop-color="#fde800"/></linearGradient><linearGradient id="linear-gradient-2" x1="325.5" y1="342.88" x2="340.68" y2="342.88" xlink:href="#linear-gradient"/></defs><g class="cls-1"><path class="cls-2" d="M239.53 289.08l116.02-67.42.14 149.6-116.02 67.42-.14-149.6z"/><path class="cls-3" d="M258.81 288.75l77.5-45.03.1 77.87-77.5 45.03-.1-77.87z"/><path class="cls-4" d="M279 277.02v77.93l57.41-33.36-.1-77.87-57.31 33.3z"/><path class="cls-5" d="M314.94 316.78s.64 9.27-.25 14.06.31 10.16-.69 10.81-6.08-2.79-6.13-3.48-1.87-12.66-1.87-12.66v-8.43z"/><path class="cls-6" d="M307.35 312.87c0-1.89 0-3.78.09-5.66.14-2.8-1.05-6.78.75-9a14.5 14.5 0 0 1 6.54 5.7 16.55 16.55 0 0 1 1.35 6.68c.05 2.29-.17 4.57-.22 6.86-1.89.37-5.85 1.06-7.74.55-.9-.24-.64-1.23-.67-1.94-.05-1.06-.09-2.14-.1-3.19z"/><path class="cls-6" d="M309.44 336.13c-.83-1.92 1.83-3.89 1.51-6-1-6.59-2.69-13-1.5-19.44.58-3.1 1.72-6.73.86-9.85-1.45-5.25-9.44-3.26-13.24-2.53a36.14 36.14 0 0 0-10.38 3.69 12.17 12.17 0 0 0-4.25 3.39c-1.73 2.42-1.84 5.65-1.32 8.58s1.59 5.73 2 8.67a29.26 29.26 0 0 1-.82 10.81 92.67 92.67 0 0 0-.95 11.9c.1 5.73 4.53.7 9.15 1.19 5.79.61 11.94.86 17.3-1.79a5.44 5.44 0 0 0 3-3.25c.53-1.93-.61-3.64-1.36-5.37z"/><path class="cls-5" d="M299.6 304.44c-1.14-3.1-.08-6.61-.92-9.8a8.65 8.65 0 0 0-7.92-6.27c-.87 0-1.95.28-2.08 1.13l.26 3.32a26.46 26.46 0 0 1 1.34 9.49 3.17 3.17 0 0 0 .07.87 2.67 2.67 0 0 0 .36.74 9 9 0 0 0 6.83 4.06 2.41 2.41 0 0 0 2.45-1c.4-.77-.08-1.7-.39-2.54z"/><path class="cls-5" d="M303.14 283.18l-3.46-.77c-1.65.61-3.47.61-5.17 1.1s-3.4 1.78-3.46 3.54c0 .65-3.52 2.08-1.32 8.12.84 2.31 7.34 3.77 8.16 4.1a4 4 0 0 0 2.49.4 2.83 2.83 0 0 0 1.82-2 7.52 7.52 0 0 0 .19-2.76c-.25-3.91-.85-8.09.75-11.73z"/><path class="cls-7" d="M291.62 275a4.64 4.64 0 0 0-1.23.32c-1.13.47-1.19 1.39-2 2.09a1.5 1.5 0 0 1-.8.27 5.18 5.18 0 0 0-3 1c-1.6 1.66-2.08 5.11-1.8 7.28.31 2.43 1.78 4 3.27 5.85 1 1.26 1.6 3.51 3.67 3.34 0-.83-.07-1.67-.07-2.49a1.7 1.7 0 0 1 .23-1.05c.4-.52 2.19-.62 2.35 1.47a.31.31 0 0 0 .1.24.39.39 0 0 0 .26.06h.8a.28.28 0 0 0 .18 0 .26.26 0 0 0 .07-.21 7.09 7.09 0 0 0-.94-4.74 5.49 5.49 0 0 0 1.44-2.07l.08-.25a12.09 12.09 0 0 0 5.85-.43 6.17 6.17 0 0 0 4.16-3.67c1.92-6-7-7-11-7.07a10.15 10.15 0 0 0-1.62.06z"/><path class="cls-5" d="M288.41 319.64c-.88 3.47 8 10.91 10.73 12.84.48.34 4.18 3.35 4.53 3.15 1.39-.83 3.74-.92 5.36-1 .63 0 1.46.15 1.5.78 0 .15.07.36 0 .47-1.87 1.62 3.27 2.87 3.9 3.7a2.44 2.44 0 0 1-.35 3 5.23 5.23 0 0 1-2.95 1.4c-1.35.26-3.42-.82-4.65-1.24-2.64-.9-5.25-1.9-7.84-2.92-5-2-10-4.5-13.41-8.83-1.87-2.35-6.05-6.73-6.29-9.78z"/><path class="cls-6" d="M288.53 318.36c-.38-1.85-.82-3.69-1.34-5.5-.77-2.7-1.45-6.6-3.9-8.35a14.66 14.66 0 0 0-5.52 7 15 15 0 0 0 0 6.85c.45 2.24 1.19 4.42 1.75 6.64 2.14-.11 7.35-.54 9.31-1.5.92-.46.42-1.36.3-2.06-.19-1.01-.38-2.05-.6-3.08z"/><path class="cls-8" d="M133.74 176.22l119.3 101.81-.05 19.13-13.46-8.08.14 149.6-105.93-61.16v-201.3z"/><path fill="#ebf1f9" d="M133.74 176.22l116.02-67.42 119.3 101.81-116.02 67.42-119.3-101.81z"/><path class="cls-2" d="M253.04 278.03l116.02-67.42-.05 19.13-116.02 67.42.05-19.13z"/></g><g class="cls-1"><path class="cls-10" d="M239.53 367.99l29.27 17.54 116.26-67.13-29.27-17.53-116.26 67.12z"/><path class="cls-4" d="M239.53 367.99v7.59l29.27 17.54v-7.59l-29.27-17.54z"/><path class="cls-3" d="M268.8 385.53v7.59l116.26-67.13v-7.59L268.8 385.53z"/></g><g class="cls-1"><path class="cls-4" d="M209.53 300.72l-.36 126.66-48.78-28.12.36-126.65 48.78 28.11z"/><path class="cls-3" d="M209.53 300.72l5.49-3.19-.36 126.66-5.49 3.19.36-126.66z"/><path class="cls-10" d="M160.75 272.61l5.49-3.19 48.78 28.11-5.49 3.19-48.78-28.11z"/></g><path class="cls-11" d="M205.32 360a1.09 1.09 0 0 0 0-.18v-.19-.55-.27a.24.24 0 0 0 0-.08 1.17 1.17 0 0 0 0-.2v-.2L205 358c0-.06 0-.12-.07-.19v-.06l-.05-.12a1.46 1.46 0 0 0-.07-.19l-.06-.13v-.05a1.42 1.42 0 0 0-.08-.18l-.1-.2-.08-.16-.11-.19-.06-.1-.1-.17-.15-.24-.23-.33-.16-.22a2.09 2.09 0 0 1-.14-.17 1.15 1.15 0 0 1-.14-.17l-.15-.16-.1-.11-.16-.16-.08-.07-.17-.15-.07-.06h-.05l-.17-.13-.12-.09-.16-.1-.16-.1-.12-.07-.15-.08h-.1l-.15-.06-.15-.06H199.96a1.41 1.41 0 0 0-.22.06l-.29.14-2.56 1.49a1.55 1.55 0 0 1 .29-.14l.22-.06h1.02l.33.09.36.14.37.2a4 4 0 0 1 .38.24c.12.08.23.17.34.26l.32.28c.1.1.21.2.31.31l.32.36.3.39.26.37.15.24.12.2.06.1.19.35c.07.15.14.29.2.44l.18.43.15.45c0 .14.08.29.11.43l.09.45c0 .15 0 .3.05.44a3.24 3.24 0 0 1 0 .44v.41c0 .12 0 .24-.05.35a2.81 2.81 0 0 1-.08.31v.05a1.69 1.69 0 0 1-.11.27 1.17 1.17 0 0 1-.15.27 1.64 1.64 0 0 1-.26.33l-.07.06a1.72 1.72 0 0 1-.31.24l2.56-1.48a1.48 1.48 0 0 0 .31-.25l.07-.06a2.16 2.16 0 0 0 .27-.33 2.15 2.15 0 0 0 .14-.26l.07-.18v-.15a1.8 1.8 0 0 1 0-.19V361.1v-.24-.18-.36z"/><path d="M199 355.12a8.26 8.26 0 0 1 3.75 6.5c0 2.38-1.7 3.34-3.77 2.14a8.24 8.24 0 0 1-3.75-6.49c.02-2.38 1.7-3.35 3.77-2.15z" fill="#9eaa96"/><path class="cls-5" d="M322.36 322.59c1 .28 4 4.55 4.82 2.24.05-.15.26-.17.41-.22.59-.19 1.07.5 1.26 1.09.49 1.54 1.27 3.72 1 5.31-.06.39 4.06 2.69 4.55 3 3.24 2.1 7.88 5.38 10.81.78a16.35 16.35 0 0 1 1.91-2.46l8.81 4.37c-.49-.23-1.95 2.9-2.14 3.26-2.33 4.48-5.93 7.87-11.3 6.75a23.36 23.36 0 0 1-10.89-5.63 49.24 49.24 0 0 1-3.89-4.64 35.4 35.4 0 0 0-4.25-4c-1.13-1-3.71-3.78-4-5.25a5.28 5.28 0 0 1 .21-3.22 2.44 2.44 0 0 1 2.69-1.38z"/><path d="M338.86 323.5a2.85 2.85 0 0 1 .49-.75 28.63 28.63 0 0 1 5.16-5l.81 4.14-.09 5.09a2.73 2.73 0 0 1-.17 1.14 2.88 2.88 0 0 1-1.42 1.19l-4.17 2.16a22.94 22.94 0 0 1-.76-6.77 3.36 3.36 0 0 1 .15-1.2z" fill="#f58526"/><path class="cls-5" d="M335.32 310.14l3.13-1.24a19.94 19.94 0 0 1 4.05 3.78 7.74 7.74 0 0 1 1.73 5.15 10.79 10.79 0 0 1-2 4.85 10.47 10.47 0 0 1-2 2.48 4 4 0 0 1-3 1 1.83 1.83 0 0 1-1-.42 2.28 2.28 0 0 1-.56-1.5c-.47-4.68 1.06-9.58-.35-14.1z"/><path class="cls-7" d="M335 308a6.65 6.65 0 0 1 4.13-3.75 14.09 14.09 0 0 1 9.11-.37c1.87.57 3.78 1.72 4.35 3.59a4.07 4.07 0 0 0 .42 1.2 4.72 4.72 0 0 0 .84.83 5.15 5.15 0 0 1 1.35 4.09c-.17 3.13-1.88 5.95-3.62 8.56a16.15 16.15 0 0 1-3.06 3.67 5.83 5.83 0 0 1-4.44 1.41c-1.44-2.05-.48-4.89-1-7.34-.22-1.07-1.09-2.25-2.14-2s-1.21 1.8-1.09 2.93a2.34 2.34 0 0 1-1.56-.19 46.44 46.44 0 0 1 .44-6.56l-1.29-1.75c-1.93-.07-3.06-2.48-2.44-4.32z"/><path class="cls-11" d="M337 441c.59-1 1.88-1.15 3-1.15a21.5 21.5 0 0 1 9 2l8.06 4.76a.74.74 0 0 1 .95.28 2.14 2.14 0 0 1 .27 1.06l.39 5.36a.69.69 0 0 1-.08.51.74.74 0 0 1-.53.2c-1.28.11-2.58.14-3.87.16s-2.77 0-3.59-1c-.25-.31-.42-.69-.69-1a4.18 4.18 0 0 0-2-.95 23 23 0 0 1-9.58-6.26 6.34 6.34 0 0 1-1.36-1.78A2.4 2.4 0 0 1 337 441z"/><path class="cls-6" d="M343.15 381a2.78 2.78 0 0 1 1.75-.46l6.55-.22 7.44 2.81c1.23 6.61-1.17 13.28-1.91 20-.69 6.3.1 12.66.53 19a162.27 162.27 0 0 1-.31 25.52c-3.06 1.5-8.24 1.06-9.87-1.93-.5-.92-1.26-7.59-1.6-11-1.7-17.1-2.64-34.27-3.18-51.45a2.76 2.76 0 0 1 .6-2.27z"/><path class="cls-11" d="M322.38 445.46c.61-.94 1.91-1.09 3-1.06a21.39 21.39 0 0 1 8.91 2.25l7.92 5a.74.74 0 0 1 .94.31 2.14 2.14 0 0 1 .24 1.06l.24 5.37a.74.74 0 0 1-.1.51.76.76 0 0 1-.53.18c-1.29.08-2.58.07-3.88.05s-2.76-.11-3.56-1.13c-.24-.32-.39-.7-.66-1a4 4 0 0 0-1.94-1 23.06 23.06 0 0 1-9.4-6.53 6.17 6.17 0 0 1-1.3-1.83 2.35 2.35 0 0 1 .12-2.18z"/><path class="cls-6" d="M330.22 385.64a2.79 2.79 0 0 1 1.76-.42h6.55l7.36 3c1 6.64-1.55 13.24-2.48 19.89-.87 6.28-.26 12.66 0 19a162.11 162.11 0 0 1-1 25.5c-3.1 1.42-8.27.83-9.81-2.21-.47-.93-1-7.62-1.28-11-1.22-17.14-1.67-34.33-1.72-51.51a2.78 2.78 0 0 1 .62-2.25z"/><path d="M332.07 367.37a33.72 33.72 0 0 0-.06-11.25c-1.7-9.72-2.33-19.52 7.1-25.65 4.94-3.21 14.83-7 19.52-1.45 5.29 6.21 1.5 17 .41 24-1.35 8.67-2.75 17.67-.39 26.3.42 1.57 1 3.31.2 4.75a5.88 5.88 0 0 1-3.22 2.3 207.81 207.81 0 0 1-21.73 7.47c-1.29.36-2.88.63-3.79-.35a3.65 3.65 0 0 1-.71-2.15c-.8-8.18 1.33-15.84 2.67-23.97z" fill="url(#linear-gradient)"/><path class="cls-5" d="M328.07 346.66a1.05 1.05 0 0 0-.75 1.13c.38 3.89-6.66 15.24-8.24 17.59-.31.46-5.7 6.6-6.07 6.54a4.8 4.8 0 0 0-2.3.54c-.91.33-3.15 5.43-3.09 5.93.24 2 3.56 1.88 5.47 2.8 2.21 1.05 2.65-1.8 4.1-3.44 1.2-1.36.26-1.89 1.66-3.05s5.49-5.21 6.81-6.59c2.65-2.77 8.33-11.24 9.18-15 .35-1.55 2.19-7.74 1.82-9z"/><path d="M333 334.13a11.56 11.56 0 0 1 1-.69 3.6 3.6 0 0 1 1.81-.59c3.66 0 5.25 4.54 4.77 7.45a46 46 0 0 1-2.07 8.18c-.15.42-1.48 4.43-1.77 4.43-4.06 0-7.8-2.15-11.25-4.28 1.19-4.92 3.19-11.25 7.51-14.5z" fill="url(#linear-gradient-2)"/><path class="cls-5" d="M314.38 339.55c-.63-.83-5.77-2.08-3.9-3.7.12-.11.06-.32 0-.47 0-.63-.87-.82-1.5-.78-1.62.11-4 .2-5.36 1-.35.2-4.05-2.81-4.53-3.15-.79-.57-2.13-1.62-3.59-2.9-3.68.1-7.35.25-11 .63.24.28.45.54.64.78 3.44 4.33 8.36 6.85 13.41 8.83 2.59 1 5.2 2 7.84 2.92 1.23.42 3.3 1.5 4.65 1.24a5.23 5.23 0 0 0 2.95-1.4 2.44 2.44 0 0 0 .39-3z"/><path class="cls-16" d="M325 335.38c.56-1.13 1.55-17.61 1.55-17.61l-5.62.38-1.56 16.08z"/><path class="cls-8" d="M205.72 80.8l23.77-13.89s6.29-5.11 23 3L230.1 83.05s-17.35-8.11-24.38-2.25z"/><path class="cls-8" d="M230.1 74.94l22.37-13.09L267 70.24l-22.37 13.09-14.53-8.39zM293 104l-22.36 13.1A158.37 158.37 0 0 0 259 103.88a137.25 137.25 0 0 0-14.34-12.16L267 78.62A131.7 131.7 0 0 1 293 104z"/><path class="cls-17" d="M244.63 83.33L267 70.24v8.38l-22.37 13.1v-8.39z"/><path class="cls-8" d="M268.81 191.52l22.82-13.3a7.72 7.72 0 0 0 3.5-3.94c3.63-7.74 4.75-30-30.16-57.54l-21 14.12z"/><path class="cls-17" d="M262.09 122.63l-18.16 8.23v-21.1s13.74.45 14.12.59 4.04 12.28 4.04 12.28zM261.26 128.01l22.37-13.09 9.36-10.95-22.36 13.1-9.37 10.94zM230.8 100.92s-9.64-5.15-9.64 3.38c0 8.13 9.64 15.49 9.64 15.49zM211.7 158.47s29.35 20.8 29.9 20.91 23.4-.76 23.4-.76l1.51-14-36.13-39.22L208 138.5zM244.63 202.96l20.09-8.54v-5.87l-24.91-6.24 4.82 20.65z"/><path class="cls-16" d="M230.1 180.45a137.8 137.8 0 0 1-17.54-14.67 152.33 152.33 0 0 1-15.44-17.65L208 138.5q5.73 7.63 11.11 13.61A90.69 90.69 0 0 0 230.8 163v-22.25q-7.55-6.45-13.21-12.24a77.11 77.11 0 0 1-9.36-11.41 48 48 0 0 1-5.59-11.41 38 38 0 0 1-1.89-11.92v-.28a18.37 18.37 0 0 1 2.1-9.41 10.59 10.59 0 0 1 5.94-4.81 18.94 18.94 0 0 1 9.29-.3 49.49 49.49 0 0 1 12 4.08v-8.11l14.53 8.39v8.39a121 121 0 0 1 13.91 11.73 138.7 138.7 0 0 1 12.09 13.62L261.26 128q-4.18-5.2-8.52-9.88a92.43 92.43 0 0 0-8.81-8.37v21.1q15.94 13.53 23.13 24.68t7.2 22.88v.28q0 5.87-2.17 9.37a10.9 10.9 0 0 1-6 4.77 19.39 19.39 0 0 1-9.3.37 47.24 47.24 0 0 1-12.16-4.09V203l-14.53-8.39zm.7-79.53c-3.36-1.47-5.8-1.88-7.34-1.23s-2.3 2.09-2.3 4.33v.28a13.5 13.5 0 0 0 2 6.65q2 3.43 7.69 8.84zm13.13 70.33q9.93 4.19 9.93-3.22v-.27a13.77 13.77 0 0 0-2.1-7.15 45.87 45.87 0 0 0-7.83-8.92z"/></svg>