<svg id="Layer_1" data-name="Layer 1" xmlns="http://www.w3.org/2000/svg" xmlns:xlink="http://www.w3.org/1999/xlink" viewBox="0 0 523.23 521.42"><defs><style>.cls-1{fill:#ebf1f9}.cls-2{fill:#808cc5}.cls-3{fill:#2b2e6e}.cls-4{fill:#f6fafd}.cls-7{fill:#fff}.cls-8{fill:#fabf9d}.cls-11{fill:#c5c8c2}.cls-12{fill:#cc1f36}</style><linearGradient id="linear-gradient" x1="358.53" y1="371.84" x2="373.78" y2="371.84" gradientUnits="userSpaceOnUse"><stop offset="0" stop-color="#eab226"/><stop offset=".43" stop-color="#f4ca19"/><stop offset=".98" stop-color="#fde800"/></linearGradient><linearGradient id="linear-gradient-2" x1="356.76" y1="363.63" x2="363.96" y2="363.63" xlink:href="#linear-gradient"/></defs><path class="cls-1" d="M410.75 252.99l-111.99-65.68-167.56 94.67 113.41 65.69 166.14-94.68z"/><path class="cls-1" d="M410.75 339.75L298.76 293.4 131.2 368.73l113.41 65.69 166.14-94.67z"/><path class="cls-2" d="M131.2 281.98v10.32l113.41 65.69v-10.32L131.2 281.98z"/><path class="cls-3" d="M410.75 252.99v10.49l-166.14 94.67v-10.48l166.14-94.68z"/><path class="cls-4" d="M193.71 264.91c0 47.64 154.53 47.64 154.53 0 0 0 4.9-93.81-77.27-93.81s-77.26 93.81-77.26 93.81z"/><path class="cls-1" d="M246.4 177.9c0 15.15 49.15 15.15 49.15 0 0 0 1.56-29.84-24.58-29.84S246.4 177.9 246.4 177.9z"/><path fill="#c0d0ea" d="M244.61 358.15v76.27l166.14-94.67v-76.27l-166.14 94.67z"/><path fill="#d1dbef" d="M131.2 292.3v76.43l113.41 65.69v-76.27L131.2 292.3z"/><path class="cls-4" d="M324.14 342.77l-5.48-3.21-8.2 4.63 5.55 3.22 8.13-4.64z"/><path class="cls-3" d="M324.14 342.77l.3 53.26-8.21 4.63-.22-53.25 8.13-4.64z"/><path class="cls-2" d="M310.36 344.18l.24 53.11 5.69 3.22-.28-53.11-5.65-3.22z"/><g id="_Group_" data-name="&lt;Group&gt;"><g id="_Group_2" data-name="&lt;Group&gt;"><path id="_Path_" data-name="&lt;Path&gt;" class="cls-7" d="M296.44 345.71v32.47l-28.18 16.33-.1-32.47 28.28-16.33z"/></g><path id="_Path_2" data-name="&lt;Path&gt;" class="cls-3" d="M296.44 378.18l-4.12-2.37v-27.72l4.12-2.38v32.47z"/><path id="_Path_3" data-name="&lt;Path&gt;" class="cls-2" d="M292.32 375.81l-24.21 13.98.15 4.72 28.18-16.33-4.12-2.37z"/></g><g id="_Group_3" data-name="&lt;Group&gt;"><g id="_Group_4" data-name="&lt;Group&gt;"><path id="_Path_4" data-name="&lt;Path&gt;" class="cls-7" d="M401.87 286.09v32.47l-28.18 16.32-.09-32.47 28.27-16.32z"/></g><path id="_Path_5" data-name="&lt;Path&gt;" class="cls-3" d="M401.87 318.56l-4.12-2.37v-27.72l4.12-2.38v32.47z"/><path id="_Path_6" data-name="&lt;Path&gt;" class="cls-2" d="M397.75 316.19l-24.21 13.97.15 4.72 28.18-16.32-4.12-2.37z"/></g><g id="_Group_5" data-name="&lt;Group&gt;"><g id="_Group_6" data-name="&lt;Group&gt;"><path id="_Path_7" data-name="&lt;Path&gt;" class="cls-7" d="M355.73 315.69v55.52l-26.14 15.14-.08-55.52 26.22-15.14z"/></g><path id="_Path_8" data-name="&lt;Path&gt;" class="cls-3" d="M355.73 371.21l-3.82-2.21v-51.11l3.82-2.2v55.52z"/><path id="_Path_9" data-name="&lt;Path&gt;" class="cls-2" d="M351.91 369l-22.45 12.97.13 4.38 26.14-15.14-3.82-2.21z"/></g><path class="cls-4" d="M376.59 312.22l-5.49-3.21-8.2 4.63 5.55 3.22 8.14-4.64z"/><path class="cls-3" d="M376.59 312.22l.29 53.26-8.2 4.63-.23-53.25 8.14-4.64z"/><path class="cls-2" d="M362.81 313.63l.23 53.11 5.7 3.21-.29-53.1-5.64-3.22z"/><path class="cls-3" d="M269.66 107.82l36.04-21.4v21.74l-36.04 21.1v-21.44z"/><path class="cls-2" d="M271.17 154.6h-.39a2.52 2.52 0 0 1-2.53-2.52l1.41-44.26 2.55-1.51 1.49 45.77a2.52 2.52 0 0 1-2.53 2.52z"/><path class="cls-8" d="M355.27 354c.47.13 1.91 2.16 2.29 1.06 0-.07.13-.08.2-.1.28-.09.5.24.59.52a6.34 6.34 0 0 1 .48 2.52 13.25 13.25 0 0 0 2.16 1.42c1.54 1 3.74 2.56 5.13.37a8.54 8.54 0 0 1 .91-1.17l4.18 2.08c-.24-.11-.93 1.38-1 1.55-1.11 2.12-2.81 3.73-5.36 3.2a11.12 11.12 0 0 1-5.17-2.67 22.93 22.93 0 0 1-1.84-2.21 17.9 17.9 0 0 0-2-1.87 7 7 0 0 1-1.89-2.49 2.49 2.49 0 0 1 .1-1.53 1.15 1.15 0 0 1 1.22-.68z"/><path d="M363.1 354.44a1.23 1.23 0 0 1 .23-.36 14.09 14.09 0 0 1 2.45-2.37l.39 2v2.41a1.45 1.45 0 0 1-.09.55 1.33 1.33 0 0 1-.67.56l-2 1A10.81 10.81 0 0 1 363 355a1.57 1.57 0 0 1 .1-.56z" fill="#f58526"/><path class="cls-8" d="M361.42 348.1l1.49-.59a9.6 9.6 0 0 1 1.92 1.79 3.66 3.66 0 0 1 .82 2.44 5.15 5.15 0 0 1-.95 2.31 5.41 5.41 0 0 1-.95 1.17 1.92 1.92 0 0 1-1.4.48.77.77 0 0 1-.48-.2 1.09 1.09 0 0 1-.27-.71c-.23-2.23.49-4.55-.18-6.69z"/><path d="M361.26 347.09a3.13 3.13 0 0 1 2-1.78 6.66 6.66 0 0 1 4.32-.18 2.89 2.89 0 0 1 2.06 1.7 2.14 2.14 0 0 0 .2.57 1.85 1.85 0 0 0 .4.39 2.44 2.44 0 0 1 .64 1.95 8.41 8.41 0 0 1-1.72 4.06 7.59 7.59 0 0 1-1.45 1.74 2.82 2.82 0 0 1-2.1.67c-.69-1-.23-2.32-.47-3.48-.11-.51-.52-1.07-1-.94s-.57.85-.51 1.39a1.11 1.11 0 0 1-.74-.09A20.23 20.23 0 0 1 363 350l-.61-.83a1.57 1.57 0 0 1-1.13-2.08z" fill="#282642"/><path class="cls-11" d="M362.23 410.17a1.61 1.61 0 0 1 1.43-.54 10.1 10.1 0 0 1 4.25.95l3.82 2.25a.35.35 0 0 1 .45.14.93.93 0 0 1 .13.5l.19 2.54a.38.38 0 0 1 0 .24.37.37 0 0 1-.25.1c-.61 0-1.23.06-1.84.07a2.06 2.06 0 0 1-1.7-.49c-.12-.14-.2-.32-.33-.46a2 2 0 0 0-.94-.45 11 11 0 0 1-4.54-3 3.07 3.07 0 0 1-.64-.85 1.13 1.13 0 0 1-.03-1z"/><path class="cls-12" d="M365.14 381.7a1.32 1.32 0 0 1 .83-.22l3.1-.11 3.54 1.34c.58 3.13-.56 6.3-.91 9.46a51.21 51.21 0 0 0 .25 9 76.49 76.49 0 0 1-.15 12.11c-1.45.72-3.91.5-4.68-.92a35.9 35.9 0 0 1-.76-5.2c-.8-8.12-1.25-16.26-1.51-24.41a1.3 1.3 0 0 1 .29-1.05z"/><path class="cls-11" d="M355.28 412.29a1.58 1.58 0 0 1 1.44-.5 10 10 0 0 1 4.23 1.07l3.75 2.37a.34.34 0 0 1 .45.14.88.88 0 0 1 .11.5l.12 2.55c0 .08 0 .18-.05.24a.37.37 0 0 1-.25.09h-1.84a2.05 2.05 0 0 1-1.69-.54c-.11-.15-.19-.33-.31-.47a1.94 1.94 0 0 0-.92-.48 10.89 10.89 0 0 1-4.46-3.1 3.09 3.09 0 0 1-.62-.86 1.16 1.16 0 0 1 .04-1.01z"/><path class="cls-12" d="M359 383.91a1.34 1.34 0 0 1 .84-.19h3.11l3.49 1.44c.49 3.15-.74 6.28-1.18 9.43a52.25 52.25 0 0 0 0 9 75.34 75.34 0 0 1-.49 12.1c-1.47.67-3.92.39-4.65-1.06a35.19 35.19 0 0 1-.61-5.22c-.58-8.14-.79-16.29-.81-24.44a1.34 1.34 0 0 1 .3-1.06z"/><path d="M359.88 375.24a15.9 15.9 0 0 0 0-5.33c-.8-4.61-1.1-9.26 3.37-12.17 2.35-1.52 7-3.3 9.26-.69 2.51 2.95.71 8.07.19 11.4-.64 4.11-1.3 8.38-.18 12.47a3.11 3.11 0 0 1 .09 2.26 2.76 2.76 0 0 1-1.52 1.09 98.7 98.7 0 0 1-10.31 3.54c-.61.17-1.37.3-1.8-.17a1.67 1.67 0 0 1-.33-1c-.41-3.9.6-7.54 1.23-11.4z" fill="url(#linear-gradient)"/><path class="cls-8" d="M358 365.42a.49.49 0 0 0-.36.53c.18 1.85-3.16 7.24-3.91 8.35a32.3 32.3 0 0 1-2.88 3.1 2.3 2.3 0 0 0-1.09.26c-.43.16-1.5 2.58-1.47 2.81.12 1 1.69.9 2.6 1.33s1.25-.85 1.94-1.63.12-.9.79-1.45 2.61-2.47 3.23-3.12c1.26-1.32 4-5.34 4.36-7.12.16-.73 1-3.67.86-4.26z"/><path d="M360.31 359.48a5.25 5.25 0 0 1 .49-.33 1.69 1.69 0 0 1 .86-.28c1.73 0 2.49 2.15 2.26 3.53a20.91 20.91 0 0 1-1 3.89 12.45 12.45 0 0 1-.84 2.09c-1.92 0-3.7-1-5.34-2 .58-2.38 1.53-5.38 3.57-6.9z" fill="url(#linear-gradient-2)"/></svg>