<svg id="Layer_1" data-name="Layer 1" xmlns="http://www.w3.org/2000/svg" xmlns:xlink="http://www.w3.org/1999/xlink" viewBox="0 0 523.23 521.42"><defs><style>.cls-1{fill:#d1dbef}.cls-2{fill:#808cc5}.cls-3{fill:#ebf1f9}.cls-4{fill:#9c4d23}.cls-5{fill:#ca6728}.cls-10{fill:#fcd2b3}.cls-11{fill:#e9eff8}.cls-12{fill:#2b2e6e}.cls-13{fill:#f6fafd}.cls-14{fill:#fff}</style><linearGradient id="linear-gradient" x1="96.9" y1="188.7" x2="158.97" y2="74.6" gradientTransform="matrix(1 -.58 0 1 0 117.47)" gradientUnits="userSpaceOnUse"><stop offset="0" stop-color="#eab226"/><stop offset=".43" stop-color="#f4ca19"/><stop offset=".98" stop-color="#fde800"/></linearGradient><linearGradient id="linear-gradient-2" x1="253.62" y1="208.67" x2="297.02" y2="125.05" xlink:href="#linear-gradient"/><linearGradient id="linear-gradient-3" x1="247.7" y1="204.91" x2="262.13" y2="165.38" xlink:href="#linear-gradient"/><linearGradient id="linear-gradient-4" x1="222.13" y1="162.71" x2="261.11" y2="121.85" xlink:href="#linear-gradient"/></defs><path class="cls-1" d="M63.61 235.17L78.23 232l101.68-59.46c6.24-3.65 17.27-3.25 24.52.88l233.7 133.21c12.91-1.61 22.45 7.22 22.45 7.22v10.05c0 2.33-1.32 4.57-4.17 6.24l-112.12 65.58c-6.24 3.65-17.27 3.26-24.52-.88L69.63 252.26c-3.66-2.08-5.67-4.74-6-7.32z"/><path class="cls-2" d="M288.5 351.47l-1.15-12.58L417.74 295l20.39 11.62c12.91-1.61 22.45 7.22 22.45 7.22v10.05c0 2.33-1.32 4.57-4.17 6.24l-112.12 65.59c-6.24 3.65-17.27 3.26-24.52-.88l-31.27-17.78zM89 234.31v29l-19.34-11c-3.66-2.08-5.67-4.74-6-7.32v-9.76L78.23 232l23.69-13.86z"/><path class="cls-1" d="M344.29 386.42l112.12-65.56c6.24-3.65 5.41-10-1.84-14.15L204.43 164.13c-7.25-4.13-18.28-4.53-24.52-.88L67.79 228.81c-6.23 3.65-5.41 10 1.84 14.14l250.14 142.58c7.23 4.14 18.28 4.53 24.52.89z"/><path class="cls-3" d="M89.16 254.08l134.5-78.89 201.26 113.7L288.7 367.8 89.16 254.08z"/><ellipse class="cls-2" cx="381.51" cy="337.38" rx="18.19" ry="10.29" transform="rotate(-8.05 381.579 337.41)"/><path class="cls-2" d="M116.48 222.85l53.68-31.28c1-.56.85-1.56-.28-2.21a4.29 4.29 0 0 0-3.83-.14l-53.68 31.28c-1 .57-.85 1.56.29 2.21a4.24 4.24 0 0 0 3.82.14zM176 188.45c1-.56.85-1.56-.28-2.2a4.26 4.26 0 0 0-3.83-.15c-1 .56-.85 1.56.28 2.2a4.26 4.26 0 0 0 3.83.15z"/><path class="cls-4" d="M67.49 175.83s-8.82 66.4 60.83 67.74L83 185.58z"/><path class="cls-5" d="M92.4 196.57c.1.31 17.8-7.38 17.8-7.38L128.32 138l-12.15-7.62a14.79 14.79 0 0 1-3.4-2.13s-13.17 29-45.28 47.55L83 185.58s9.3 10.69 9.4 10.99z"/><path class="cls-4" d="M173.59 133.3l-15.5-9.74c-30.78 17.76-45 5-45.26 4.73l15.49 9.71 3.17 6.62 23.65 2.28.35-.26.72.53z"/><path d="M128.32 243.57C77 244.7 83 185.58 83 185.58c32.1-18.53 45.28-47.55 45.28-47.55s14.2 13.21 45.27-4.73c.04 0 5.8 52.5-45.23 110.27z" fill="url(#linear-gradient)"/><path class="cls-3" d="M128.32 232.64c-39.35.87-34.71-44.45-34.71-44.45 24.61-14.2 34.71-36.44 34.71-36.44s10.88 10.12 34.7-3.63c-.02 0 4.41 40.24-34.7 84.52z"/><path class="cls-2" d="M143.77 173.29l-5 2.91c0-5.75-4.66-7.72-10.41-4.4s-10.41 10.67-10.41 16.42l-5 2.91a2.74 2.74 0 0 0-1.31 2.07v20.26c0 .72.59 1 1.31.55l30.91-17.84a2.73 2.73 0 0 0 1.32-2.07v-20.26c-.09-.72-.68-.97-1.41-.55zm-12.13 25.49l-6.64 3.84 2-7.41a1.82 1.82 0 0 1-2.24-2 7.49 7.49 0 0 1 3.61-5.69c2-1.15 3.6-.46 3.6 1.53a7.11 7.11 0 0 1-2.24 4.63zm3.2-20.33l-13 7.53c0-3.61 2.92-8.21 6.52-10.29s6.52-.85 6.52 2.76z"/><path id="Rectangle_3" data-name="Rectangle 3" class="cls-3" d="M198 144.23l46 25.84v76.19l-46-25.84z"/><path id="Rectangle_3-2" data-name="Rectangle 3" class="cls-5" d="M201.93 153.64l36.72 21.47v1.82l-36.72-21.48z"/><path id="Rectangle_3-3" data-name="Rectangle 3" class="cls-5" d="M201.93 158.13l36.72 21.48v1.81L201.93 160z"/><path id="Rectangle_3-4" data-name="Rectangle 3" class="cls-5" d="M201.93 162.63l36.72 21.47v1.82l-36.72-21.48z"/><path id="Rectangle_3-5" data-name="Rectangle 3" class="cls-5" d="M201.93 167.12l36.72 21.48v1.81l-36.72-21.47z"/><path id="Rectangle_3-6" data-name="Rectangle 3" class="cls-5" d="M201.93 171.61l36.72 21.48v1.81l-36.72-21.47z"/><path id="Rectangle_3-7" data-name="Rectangle 3" class="cls-5" d="M201.93 176.11l36.72 21.47v1.82l-36.72-21.48z"/><path id="Rectangle_3-8" data-name="Rectangle 3" class="cls-5" d="M201.93 180.6l36.72 21.48v1.81l-36.72-21.47z"/><path class="cls-5" d="M243.98 170.07l28.09-15.95v76.18l-28.09 15.96v-76.19z"/><path fill="url(#linear-gradient-2)" d="M245.88 172.63l24.29-13.79v68.91l-24.29 13.78v-68.9z"/><path fill="url(#linear-gradient-3)" d="M248.03 175.51l19.99-11.36v13.58l-19.99 11.36v-13.58z"/><path fill="url(#linear-gradient-4)" d="M198.02 144.23l28.09-15.95 45.96 25.84-28.09 15.95-45.96-25.84z"/><ellipse class="cls-10" cx="246.41" cy="172.33" rx="1.77" ry="1.25" transform="rotate(-70.59 246.403 172.332)"/><path class="cls-10" d="M247.51 170.94l-.33-.19-1.57.75-.16.85.25 1.59.39.22.57-1.03.85-2.19z"/><ellipse class="cls-11" cx="246.77" cy="172.53" rx="1.77" ry="1.25" transform="rotate(-70.59 246.76 172.531)"/><path class="cls-10" d="M246.3 173.11a.56.56 0 0 0 .92.35 1.27 1.27 0 0 0 .48-1.3.6.6 0 0 0-.4-.45.61.61 0 0 0-.52.1 1.29 1.29 0 0 0-.48 1.3z"/><path class="cls-10" d="M247.73 171.88l-.43-.17-.35.23-.27.26s-.16.38-.17.44.11.9.11.9l.45.18.49-.76.17-1.08z"/><ellipse class="cls-3" cx="247.35" cy="172.79" rx=".98" ry=".69" transform="rotate(-70.59 247.344 172.785)"/><ellipse class="cls-10" cx="269.7" cy="158.93" rx="1.77" ry="1.25" transform="rotate(-70.59 269.694 158.93)"/><path class="cls-10" d="M270.8 157.54l-.33-.19-1.56.76-.17.85.25 1.58.39.22.57-1.03.85-2.19z"/><ellipse class="cls-11" cx="270.06" cy="159.13" rx="1.77" ry="1.25" transform="rotate(-70.59 270.046 159.137)"/><path class="cls-10" d="M269.59 159.72a.56.56 0 0 0 .92.34 1.27 1.27 0 0 0 .48-1.3.6.6 0 0 0-.39-.45.62.62 0 0 0-.53.1 1.31 1.31 0 0 0-.48 1.31z"/><path class="cls-10" d="M271 158.48l-.42-.17-.36.23-.27.26s-.16.38-.17.44.11.9.11.9l.45.18.49-.76.17-1.08z"/><ellipse class="cls-3" cx="270.65" cy="159.39" rx=".98" ry=".69" transform="rotate(-70.59 270.642 159.39)"/><ellipse class="cls-10" cx="246.41" cy="241" rx="1.77" ry="1.25" transform="rotate(-70.59 246.407 240.997)"/><path class="cls-10" d="M247.51 239.61l-.33-.19-1.57.76-.16.84.25 1.58.39.23.57-1.03.85-2.19z"/><ellipse class="cls-11" cx="246.77" cy="241.2" rx="1.77" ry="1.25" transform="rotate(-70.59 246.76 241.204)"/><path class="cls-10" d="M246.3 241.78a.56.56 0 0 0 .92.35 1.27 1.27 0 0 0 .48-1.3.6.6 0 0 0-.4-.45.61.61 0 0 0-.52.1 1.29 1.29 0 0 0-.48 1.3z"/><path class="cls-10" d="M247.73 240.55l-.43-.17-.35.23-.27.26s-.16.38-.17.44.11.9.11.9l.45.18.49-.76.17-1.08z"/><ellipse class="cls-3" cx="247.35" cy="241.46" rx=".98" ry=".69" transform="rotate(-70.59 247.343 241.458)"/><ellipse class="cls-1" cx="269.7" cy="227.6" rx="1.77" ry="1.25" transform="rotate(-70.59 269.698 227.596)"/><path class="cls-1" d="M270.8 226.21l-.33-.19-1.56.76-.17.85.25 1.58.39.22.57-1.03.85-2.19z"/><ellipse class="cls-11" cx="270.06" cy="227.81" rx="1.77" ry="1.25" transform="rotate(-70.59 270.05 227.803)"/><path class="cls-1" d="M269.59 228.39a.56.56 0 0 0 .92.34 1.27 1.27 0 0 0 .48-1.3.6.6 0 0 0-.39-.45.62.62 0 0 0-.53.1 1.31 1.31 0 0 0-.48 1.31z"/><path class="cls-1" d="M271 227.15l-.42-.17-.36.23-.27.26s-.16.38-.17.44.11.9.11.9l.45.18.49-.76.17-1.08z"/><ellipse class="cls-3" cx="270.65" cy="228.06" rx=".98" ry=".69" transform="rotate(-70.59 270.634 228.057)"/><path class="cls-5" d="M243.2 142.25l-17.22-9.94-17.83 10.13-2.83.02v1.58l19.95 11.52 20.66-11.73v-1.59l-2.73.01z"/><path class="cls-3" d="M205.32 142.46l20.66-11.74 19.95 11.52-20.66 11.73-19.95-11.51z"/><path class="cls-5" d="M212.3 142.42l13.56-7.7.97.54-13.57 7.71-.96-.55zM214.66 143.5l13.56-7.71.97.55-13.56 7.7-.97-.54zM217.17 144.81l13.57-7.71.96.55-13.56 7.71-.97-.55zM219.56 146.03l13.57-7.7.96.55-13.56 7.7-.97-.55zM221.98 147.33l13.57-7.71.96.55-13.56 7.7-.97-.54zM224.12 148.67l13.57-7.7.96.55-13.56 7.7-.97-.55z"/><path class="cls-10" d="M225.27 153.97v1.59l-19.95-11.52v-1.58l19.95 11.51z"/><path class="cls-3" d="M236 216.81L191.99 191l-65.85 37.2 44.57 25.81 65.29-37.2z"/><path class="cls-3" d="M236 250.9l-44.01-18.21-65.85 29.6 44.57 25.82L236 250.9z"/><path class="cls-2" d="M126.14 228.2v4.06l44.57 25.81v-4.06l-44.57-25.81z"/><path class="cls-12" d="M236 216.81v4.12l-65.29 37.21v-4.13l65.29-37.2z"/><path class="cls-13" d="M150.71 221.49c0 18.72 60.72 18.72 60.72 0 0 0 1.93-36.86-30.36-36.86s-30.36 36.86-30.36 36.86z"/><path class="cls-3" d="M171.41 187.3c0 5.95 19.32 5.95 19.32 0 0 0 .61-11.73-9.66-11.73s-9.66 11.73-9.66 11.73zM170.71 258.14v29.97L236 250.9v-29.97l-65.29 37.21z"/><path class="cls-13" d="M126.14 232.26v30.03l44.57 25.82v-29.97l-44.57-25.88zM201.97 252.09l-2.16-1.26-3.22 1.82 2.18 1.26 3.2-1.82z"/><path class="cls-12" d="M201.97 252.09l.11 20.93-3.22 1.82-.09-20.93 3.2-1.82z"/><path class="cls-2" d="M196.55 252.64l.09 20.87 2.24 1.27-.11-20.87-2.22-1.27z"/><g id="_Group_" data-name="&lt;Group&gt;"><g id="_Group_2" data-name="&lt;Group&gt;"><path id="_Path_" data-name="&lt;Path&gt;" class="cls-14" d="M191.08 253.25v12.76L180 272.42l-.03-12.76 11.11-6.41z"/></g><path id="_Path_2" data-name="&lt;Path&gt;" class="cls-12" d="M191.08 266.01l-1.62-.94v-10.89l1.62-.93v12.76z"/><path id="_Path_3" data-name="&lt;Path&gt;" class="cls-2" d="M189.46 265.07l-9.51 5.5.05 1.85 11.08-6.41-1.62-.94z"/></g><g id="_Group_3" data-name="&lt;Group&gt;"><g id="_Group_4" data-name="&lt;Group&gt;"><path id="_Path_4" data-name="&lt;Path&gt;" class="cls-14" d="M232.51 229.82v12.76l-11.07 6.41-.04-12.76 11.11-6.41z"/></g><path id="_Path_5" data-name="&lt;Path&gt;" class="cls-12" d="M232.51 242.58l-1.62-.94v-10.89l1.62-.93v12.76z"/><path id="_Path_6" data-name="&lt;Path&gt;" class="cls-2" d="M230.89 241.64l-9.51 5.5.06 1.85 11.07-6.41-1.62-.94z"/></g><g id="_Group_5" data-name="&lt;Group&gt;"><g id="_Group_6" data-name="&lt;Group&gt;"><path id="_Path_7" data-name="&lt;Path&gt;" class="cls-14" d="M214.38 241.45v21.82l-10.27 5.94-.04-21.81 10.31-5.95z"/></g><path id="_Path_8" data-name="&lt;Path&gt;" class="cls-12" d="M214.38 263.27l-1.5-.87v-20.09l1.5-.86v21.82z"/><path id="_Path_9" data-name="&lt;Path&gt;" class="cls-2" d="M212.88 262.4l-8.83 5.09.06 1.72 10.27-5.94-1.5-.87z"/></g><path class="cls-13" d="M222.57 240.09l-2.15-1.27-3.22 1.82 2.18 1.27 3.19-1.82z"/><path class="cls-12" d="M222.57 240.09l.12 20.92-3.22 1.82-.09-20.92 3.19-1.82z"/><path class="cls-2" d="M217.16 240.64l.09 20.87 2.24 1.26-.11-20.87-2.22-1.26z"/><path class="cls-12" d="M180.56 159.76l14.16-8.41v8.54l-14.16 8.29v-8.42z"/><path class="cls-2" d="M181.15 178.14H181a1 1 0 0 1-1-1l.56-17.39 1-.59.58 18a1 1 0 0 1-.99.98z"/><path d="M298.55 290.63a123.52 123.52 0 0 1-15.71-13.14A138.64 138.64 0 0 1 269 261.68l9.77-8.64q5.13 6.86 10 12.2a80.84 80.84 0 0 0 10.41 9.76v-19.94q-6.76-5.77-11.83-11a68.74 68.74 0 0 1-8.35-10.19 42.2 42.2 0 0 1-5-10.22 34 34 0 0 1-1.74-10.65v-.25a16.51 16.51 0 0 1 1.87-8.43 9.51 9.51 0 0 1 5.33-4.31 17 17 0 0 1 8.32-.27 44.33 44.33 0 0 1 10.77 3.65v-7.29l13 7.52v7.51A109.57 109.57 0 0 1 324 221.64a124.07 124.07 0 0 1 10.83 12.2l-8.39 9.81q-3.75-4.68-7.64-8.86a83 83 0 0 0-7.89-7.49v18.9q14.28 12.12 20.73 22.11a37.39 37.39 0 0 1 6.44 20.5v.25a15.77 15.77 0 0 1-1.94 8.39 9.75 9.75 0 0 1-5.38 4.28 17.34 17.34 0 0 1-8.33.33 42 42 0 0 1-10.89-3.66v12.39l-13-7.51zm.63-71.25q-4.51-2-6.58-1.11c-1.37.59-2.06 1.88-2.06 3.88v.25a12 12 0 0 0 1.75 6 38.52 38.52 0 0 0 6.89 7.92zm11.76 63q8.9 3.75 8.89-2.88v-.25a12.4 12.4 0 0 0-1.87-6.41 41.71 41.71 0 0 0-7-8z"/><path class="cls-1" d="M256.67 213.08L278 200.64s5.63-4.58 20.58 2.72l-20 11.74s-15.58-7.27-21.91-2.02z"/><path class="cls-1" d="M278.51 207.84l20.04-11.74 13.02 7.52-20.04 11.73-13.02-7.51zM334.86 233.84l-20 11.73a141.8 141.8 0 0 0-10.44-11.81 124.45 124.45 0 0 0-12.85-10.9l20-11.73a118.28 118.28 0 0 1 23.29 22.71z"/><path class="cls-2" d="M291.53 215.35l20.04-11.73v7.51l-20.04 11.73v-7.51z"/><path class="cls-1" d="M313.2 312.28l20.44-11.92a7 7 0 0 0 3.14-3.53c3.25-6.93 4.25-26.88-27-51.54l-18.85 12.65z"/><path class="cls-2" d="M307.17 250.56l-16.26 7.38V239s12.3.4 12.65.53 3.61 11.03 3.61 11.03zM306.43 255.38l20.04-11.73 8.39-9.81-20.04 11.73-8.39 9.81zM279.14 231.11s-8.64-4.62-8.64 3c0 7.29 8.64 13.88 8.64 13.88zM262 282.67s26.3 18.63 26.78 18.73 21-.68 21-.68l1.36-12.49L278.77 253l-20 11.73zM291.53 322.53l18-7.65v-5.26l-22.31-5.59 4.31 18.5z"/><path class="cls-14" d="M278.51 302.36a124.22 124.22 0 0 1-15.71-13.14 138.64 138.64 0 0 1-13.8-15.81l9.77-8.64q5.13 6.86 10 12.2a80.06 80.06 0 0 0 10.45 9.73v-19.91q-6.76-5.78-11.83-11a68.85 68.85 0 0 1-8.39-10.23 43.07 43.07 0 0 1-5-10.21 34.09 34.09 0 0 1-1.69-10.68v-.25a16.52 16.52 0 0 1 1.79-8.42 9.46 9.46 0 0 1 5.32-4.31 16.93 16.93 0 0 1 8.33-.26 43.56 43.56 0 0 1 10.76 3.65v-7.27l13 7.52v7.51A110.61 110.61 0 0 1 304 233.37a124.07 124.07 0 0 1 10.83 12.2l-8.39 9.81q-3.75-4.66-7.63-8.85a83.12 83.12 0 0 0-7.89-7.5v18.91q14.26 12.12 20.72 22.1a37.35 37.35 0 0 1 6.45 20.5v.25a15.87 15.87 0 0 1-1.94 8.4 9.85 9.85 0 0 1-5.39 4.28 17.31 17.31 0 0 1-8.32.32 41.91 41.91 0 0 1-10.9-3.66v12.4l-13-7.52zm.63-71.25q-4.51-2-6.57-1.11c-1.38.59-2.07 1.88-2.07 3.88v.25a12 12 0 0 0 1.75 6 38.84 38.84 0 0 0 6.89 7.92zm11.77 63q8.88 3.75 8.89-2.88V291a12.42 12.42 0 0 0-1.88-6.41 41.58 41.58 0 0 0-7-8z"/></svg>