<svg id="Layer_1" data-name="Layer 1" xmlns="http://www.w3.org/2000/svg" viewBox="0 0 523.23 521.42"><defs><style>.cls-1{fill:#d1dbef}.cls-2{fill:#808cc5}.cls-7{fill:#cc1f36}.cls-8{fill:#fff}.cls-9{fill:#edbbc3}.cls-10{fill:#eab226}.cls-11{fill:#282642}</style><linearGradient id="linear-gradient" x1="187.18" y1="272.99" x2="237.81" y2="195.37" gradientUnits="userSpaceOnUse"><stop offset="0" stop-color="#eab226"/><stop offset=".43" stop-color="#f4ca19"/><stop offset=".98" stop-color="#fde800"/></linearGradient></defs><path class="cls-1" d="M321.07 411.75l-8.72-9.61-88.79-50.53c-5.45-3.1-9.94-11.56-10-18.79L212.12 99.5c-6.81-9-4.33-20-4.33-20l7.55-4.37c1.74-1 4-1 6.5.42l97.91 55.72c5.45 3.1 9.94 11.56 10 18.79l1.55 249.74c0 3.65-1.09 6.32-2.9 7.67z"/><path class="cls-2" d="M310.75 179.79l-8.95 18.92-89.55-78.86-.13-20.35c-6.81-9-4.33-20-4.33-20l7.55-4.37c1.74-1 4-1 6.5.42l97.91 55.72c5.45 3.1 9.94 11.56 10 18.79l.22 18.61zM309.41 382.15l21.76-12.58.12 30.24c0 3.65-1.09 6.32-2.9 7.67l-7.33 4.23-8.72-9.61-20.69-11.77z"/><path class="cls-1" d="M312.76 135.32L214.85 79.6c-5.44-3.1-9.86.29-9.82 7.52l1.55 249.74c0 7.24 4.54 15.69 10 18.79l97.91 55.72c5.44 3.1 9.86-.28 9.82-7.52l-1.55-249.73c-.06-7.24-4.55-15.7-10-18.8z"/><path fill="#ebf1f9" d="M324.18 372.22l-117.64-66.74-2.01-201.11 118.39 68.03 1.26 199.82z"/><path opacity=".2" fill="#ebf1f9" d="M295.44 381.43L177.8 314.69l-2.02-201.11 118.4 68.03 1.26 199.82z"/><ellipse class="cls-2" cx="259.78" cy="356.64" rx="8.93" ry="15.78" transform="rotate(-38.09 259.784 356.643)"/><path class="cls-2" d="M288.86 139.75L242.07 113c-.85-.49-1.54 0-1.54 1.17a3.73 3.73 0 0 0 1.56 2.94l46.79 26.72c.85.49 1.54 0 1.54-1.17a3.73 3.73 0 0 0-1.56-2.91zM237.17 110c-.85-.48-1.54 0-1.54 1.17a3.74 3.74 0 0 0 1.55 2.94c.85.48 1.54 0 1.54-1.18a3.7 3.7 0 0 0-1.55-2.93z"/><path d="M263.28 243.56a8.07 8.07 0 0 0 0-10.6L220 183a7.93 7.93 0 0 0-9.09-2.22 8.6 8.6 0 0 0-1.83 1l-13.86 7.64 1 12.39 9.56 10.27v26.17a8.09 8.09 0 0 0 8.09 8.09h23.8l7.33 7.86 13.8-8a7.89 7.89 0 0 0 4.47-2.6z" fill="#ca6728"/><path d="M248.43 241.35l-43.28-50a8.09 8.09 0 0 0-14.2 5.29v50a8.09 8.09 0 0 0 8.09 8.09h43.27a8.1 8.1 0 0 0 6.12-13.38z" fill="url(#linear-gradient)"/><path class="cls-7" d="M208.36 315.2l-2.7 24.37 2.08 45.54 4.67 37.36a3.48 3.48 0 0 0 2.82 3 3.52 3.52 0 0 0 4.18-3.63l-1.08-36.73-1.25-33.65 8.15.62 3.69 36.46 4.73 34.89a5.09 5.09 0 0 0 4.54 4.17 5.07 5.07 0 0 0 5.49-5.66l-4.16-35-2.58-44.75-6.37-13.16-7.77-1.67z"/><path class="cls-8" d="M212.37 296.25l.51-4.84 4.73 1.83 5.76-2.11 1.67 7.04-4.89 3.21-6.9-1.28-.88-3.85z"/><path class="cls-9" d="M217.43 268.21a8.52 8.52 0 0 0-8.5 8.5v5.37a8.5 8.5 0 1 0 17 0v-5.37a8.52 8.52 0 0 0-8.5-8.5zM176.7 251.36a3.05 3.05 0 0 0-1.13 4.15l1 1.66a3 3 0 1 0 5.27-3l-1-1.66a3.05 3.05 0 0 0-4.14-1.15zM265.87 251.13a3.06 3.06 0 0 0-4.19 1l-1 1.63a3 3 0 0 0 5.15 3.23l1-1.63a3.06 3.06 0 0 0-.96-4.23z"/><path class="cls-8" d="M183.52 256.77l29.23 37.36s3.38 2.75 5.05 2.75 6.54-1.68 6.54-1.68l34.37-38.12 4.44 4.44L233.48 304l3.34 38.42s-15.13 5.55-20.13 3.89-11.1-6.94-11.1-6.94l-.59-34.79-25.91-44.05z"/><path class="cls-10" d="M214.78 324.89l2.3 4.08 3.84-4.08-2.58-29.54-1.27.31-2.29 29.23z"/><path class="cls-7" d="M214.28 422.82l-10.59 5.3 1.43.26a11.62 11.62 0 0 0 6.86-.79l7.29-3.21.14-2.53zM235.78 424.07s.93 9.34 1.87 10.59 4 .93 5-.62-2.49-11.84-2.49-11.84z"/><path class="cls-10" d="M215.29 292.69h4.61l-2.1 4.19-2.51-4.19z"/><path class="cls-11" d="M225.89 276.39a8.51 8.51 0 0 0-8.46-8.18 8.42 8.42 0 0 0-5.54 2.12c1.13 1.2 4.18 2.48 5 2.86a38.71 38.71 0 0 0 4 1.68c1.6.6 3.3 1.07 5 1.52zM208.93 276.71v1a5 5 0 0 0 2.9-3.25 6.67 6.67 0 0 0-.09-4 8.46 8.46 0 0 0-2.81 6.25z"/><path class="cls-11" d="M225.92 276.71a8.36 8.36 0 0 0-1.31-4.47 5.93 5.93 0 0 0-.51 1.8 7.63 7.63 0 0 0 .48 3.34 3.71 3.71 0 0 0 1 1.58 2 2 0 0 0 .36.18z"/><path class="cls-1" d="M258.86 327l23.36-13.64s6.17-5 22.57 3l-22 12.86s-17.02-8.01-23.93-2.22z"/><path class="cls-1" d="M282.82 321.21l21.97-12.86 14.27 8.24-21.97 12.86-14.27-8.24zM344.6 349.73l-22 12.86a153.72 153.72 0 0 0-11.45-12.95 135 135 0 0 0-14.09-11.95l22-12.87a129.56 129.56 0 0 1 25.54 24.91z"/><path class="cls-2" d="M297.09 329.45l21.97-12.86v8.23l-21.97 12.87v-8.24z"/><path class="cls-1" d="M320.85 435.73l22.41-13.06a7.63 7.63 0 0 0 3.44-3.88c3.57-7.59 4.67-29.47-29.63-56.52l-20.66 13.87z"/><path class="cls-2" d="M314.24 368.05l-17.83 8.09v-20.73s13.49.45 13.87.58 3.96 12.06 3.96 12.06zM313.43 373.34l21.97-12.86 9.2-10.75-21.97 12.86-9.2 10.75zM283.5 346.73s-9.47-5.07-9.47 3.32c0 8 9.47 15.21 9.47 15.21zM264.74 403.26s28.84 20.43 29.37 20.54 23-.74 23-.74l1.49-13.7-35.5-38.58-22 12.86zM297.09 446.97l19.73-8.39v-5.77l-24.46-6.12 4.73 20.28z"/><path class="cls-8" d="M282.82 424.86a136.12 136.12 0 0 1-17.23-14.41 150.44 150.44 0 0 1-15.17-17.34l10.71-9.47q5.63 7.52 10.87 13.36a88.84 88.84 0 0 0 11.46 10.67v-21.82q-7.41-6.33-13-12a75.21 75.21 0 0 1-9.2-11.21 47.35 47.35 0 0 1-5.49-11.2 37.6 37.6 0 0 1-1.77-11.73v-.28a18 18 0 0 1 2.06-9.24 10.34 10.34 0 0 1 5.83-4.73 18.55 18.55 0 0 1 9.13-.29 48.42 48.42 0 0 1 11.81 4v-8l14.27 8.24v8.24a119.54 119.54 0 0 1 13.66 11.52 136.14 136.14 0 0 1 11.88 13.38l-9.2 10.75q-4.11-5.11-8.37-9.71a92.85 92.85 0 0 0-8.65-8.22v20.73q15.64 13.29 22.72 24.24t7.07 22.48v.27q0 5.78-2.13 9.21a10.74 10.74 0 0 1-5.9 4.69 19.08 19.08 0 0 1-9.13.36 46.51 46.51 0 0 1-12-4V447l-14.27-8.25zm.68-78.13q-4.94-2.18-7.2-1.21c-1.51.64-2.27 2.05-2.27 4.25v.28a13.21 13.21 0 0 0 1.92 6.53q1.92 3.38 7.55 8.68zm12.91 69.09q9.73 4.11 9.74-3.16v-.27a13.52 13.52 0 0 0-2.06-7 45.52 45.52 0 0 0-7.68-8.76z"/></svg>