<svg id="Layer_1" data-name="Layer 1" xmlns="http://www.w3.org/2000/svg" xmlns:xlink="http://www.w3.org/1999/xlink" viewBox="0 0 523.23 521.42"><defs><style>.cls-2{fill:#cc1f36}.cls-3{fill:#d8d6eb}.cls-5{fill:#f3c4a4}.cls-14{fill:#305988}</style><linearGradient id="linear-gradient" x1="158.08" y1="317.05" x2="186.53" y2="317.05" gradientUnits="userSpaceOnUse"><stop offset="0" stop-color="#eab226"/><stop offset=".43" stop-color="#f4ca19"/><stop offset=".98" stop-color="#fde800"/></linearGradient><linearGradient id="linear-gradient-2" x1="157.95" y1="306.2" x2="186.09" y2="306.2" xlink:href="#linear-gradient"/><linearGradient id="linear-gradient-3" x1="158.24" y1="326.55" x2="186.88" y2="326.55" xlink:href="#linear-gradient"/></defs><path d="M276 392.88c0-7.6-23-13.75-51.37-13.75s-51.37 6.15-51.37 13.75 23 13.76 51.37 13.76S276 400.48 276 392.88z" fill="#2f5f98" opacity=".38"/><path class="cls-2" d="M239.8 397.05s32.84-27 35.35-18.43-23.62 21.17-23.62 21.17z"/><path class="cls-3" d="M275.32 380.08c.07 0 .15.51-.27 1.26a9.45 9.45 0 0 1-2.42 2.41c-2.18 1.77-5.24 4.16-8.67 6.72s-6.55 4.86-8.94 6.4-4.14 2-4.19 1.88 1.47-.93 3.68-2.62 5.25-4.13 8.69-6.68 6.58-4.83 8.9-6.42a12.52 12.52 0 0 0 2.54-2c.48-.53.57-.97.68-.95zM261.31 390.4c-.29.22-1.6-1.19-3.08-2.94a21.89 21.89 0 0 0-1.91-2.09c-.51-.46-.94-.64-.92-.82s.59-.31 1.39.06a7.56 7.56 0 0 1 2.41 2c1.55 1.86 2.38 3.59 2.11 3.79zM262.05 388.72c-.18 0-.36-.33-.71-.8s-.88-1.14-1.48-1.87c-1.19-1.44-2.28-2.56-2.07-2.85s1.74.45 3 2a6.64 6.64 0 0 1 1.32 2.3c.25.74.11 1.21-.06 1.22zM264.11 387.37c-.36.05-.92-1.28-2.14-2.65s-2.26-2.57-2-2.85 1.64.49 3 2a5.79 5.79 0 0 1 1.24 2.31c.14.72.06 1.15-.1 1.19zM254.39 391c-.07 0-.36-.25-.69-.93a6.47 6.47 0 0 1-.55-3.13 7 7 0 0 1 .15-1.07c0-.18.09-.37.15-.56a1.66 1.66 0 0 1 .38-.69.92.92 0 0 1 1.24-.1 1.26 1.26 0 0 1 .36.95l.09 1.23c.06.86.12 1.75.18 2.66a12.06 12.06 0 0 1 0 1.49v.41a1 1 0 0 1-.48.77 1 1 0 0 1-.88 0c-.2-.08-.27-.13-.4-.19a11 11 0 0 1-3.32-2.62 10.58 10.58 0 0 1-1.13-1.6 3 3 0 0 1-.43-2l.13-.62.56.21a8 8 0 0 1 3.87 3.16c.66 1 .88 1.63.79 1.69s-.51-.46-1.28-1.3a8.38 8.38 0 0 0-3.7-2.53l.69-.41c-.12.71.64 1.73 1.42 2.62a10.42 10.42 0 0 0 3 2.29l.26.13a1.25 1.25 0 0 0 0 .19.46.46 0 0 0 0 .2l-.13-.08-.11-.05h-.11v-.31a11.87 11.87 0 0 0 0-1.33c0-.92-.07-1.81-.11-2.66v-1.49h.12l.1-.07v.13l.06.07a2.49 2.49 0 0 0-.31.74 5.28 5.28 0 0 0-.21.92c-.4 2.33.5 3.8.29 3.88z"/><path class="cls-3" d="M271.59 386c-.14-.12 0-.53-.38-1.22s-.9-1.77-1.54-2.85a13.2 13.2 0 0 0-1.81-2.57c-.54-.56-1-.77-1-1s.66-.25 1.51.24a7.21 7.21 0 0 1 2.38 2.64 11.26 11.26 0 0 1 1.3 3.24 2 2 0 0 1-.1 1.19c-.12.33-.3.39-.36.33z"/><path d="M198.62 222.42s-2.53 23.4 0 31.61l4.86 5.47s5.08 47.67 3.13 57.05-3.57 12.51-4.33 14.07 1.59 50 1.59 50h8.6l15.24-62.91-2.34-51.2 16.8 53.54-2.35 77 11.73 2.74 10.94-88.68-10.56-77.4-51.57-9.77" fill="#2b2e6e"/><path class="cls-2" d="M253.91 182.5L248 234.07c-4.79 3.66-11.95 7.66-35.22 4.49-27.24-3.71-10.57-37.69-10.57-37.69l-3.69-56.12h51.87s10.08 3.06 16.8 16.46"/><path class="cls-5" d="M261.12 101.17s0 4-.24 9.25c-.44 8.8-1.68 21.21-5.16 24.91a10.33 10.33 0 0 1-12.09 2.52l-4-25.79z"/><path d="M248.41 88c1.34.59 26.42 10.43 3.19 30.41 0 0-4.31-5-6.17.1s13.2 9 1.12 30.81c0 0-7.9 5.11-3.71 17.19s-11.62 26.49-20.45 13.91-14.86-9.29-23.22-14.87-18.12-23.23 9.29-37.63c0 0 5.21-3 2.32-9.76-5.58-13.11 12.54-41.34 37.63-30.16z" fill="#282642"/><path d="M253.83 181.31s-5.53.11-8.24 20-3.86 35.17-3.86 35.17l7-3.67z" opacity=".29" fill="#4b7bbd"/><path d="M374.17 155.06v136.78a18.31 18.31 0 0 1-9 15.82l-212 124.07C141.06 438.79 126 430 126 415.92V274a10.86 10.86 0 0 1 5.38-9.4L347.1 139.2c12.02-6.99 27.07 1.8 27.07 15.86z" fill="#808cc5"/><path d="M374.17 151.76v145.78a10.69 10.69 0 0 1-5.33 9.25l-217.5 126a10.7 10.7 0 0 1-16.06-9.26V276.9a10.71 10.71 0 0 1 5.36-9.27l217.5-125.14a10.7 10.7 0 0 1 16.03 9.27z" fill="#ebf1f9"/><path fill="url(#linear-gradient)" d="M186.17 304.83l.36 8.53-28.32 15.91-.13-8.59 28.09-15.85z"/><path d="M158 313a8.11 8.11 0 0 1 3.76-7l18.53-11.75a3.66 3.66 0 0 1 5.62 2.94l.23 5.75-28 15.81z" fill="url(#linear-gradient-2)"/><path d="M186.87 321.79a3.67 3.67 0 0 1-1.86 3.35l-21.28 11.91a3.66 3.66 0 0 1-5.44-3.14v-3l28.38-15.32z" fill="url(#linear-gradient-3)"/><g opacity=".29"><path class="cls-14" d="M299.94 178.93l4.51 3.42s-6.59 18.23-16.19 25.79-24.81-17.32-24.81-17.32l7.55-9.55s10.85 14.9 12.69 14.41 16.25-16.75 16.25-16.75z"/><path class="cls-14" d="M299.94 178.93s-1.9-5.27-1.23-6.7 1.78 3.85 2.47 4.19 2.17-8.92 2.72-8.25.55 5.67.55 5.67.75-5.67 1.61-5.71.29 7 .29 7 .75-5.51 1.32-5.22.11 6.31 0 7.23-3.22 5.24-3.22 5.24z"/></g><path class="cls-5" d="M301.69 173.93l4.51 3.42s-6.59 18.23-16.19 25.79-24.81-17.32-24.81-17.32l7.55-9.55s10.85 14.9 12.69 14.41 16.25-16.75 16.25-16.75z"/><path class="cls-5" d="M301.69 173.93s-1.9-5.26-1.23-6.7 1.78 3.85 2.47 4.2 2.17-8.93 2.72-8.26.55 5.67.55 5.67.75-5.66 1.61-5.7.29 7 .29 7 .75-5.52 1.32-5.23.12 6.32 0 7.24-3.22 5.23-3.22 5.23z"/><path class="cls-2" d="M253 178.95l8.43 11.9 13.72-15.37-9.12-16.39L253 178.95z"/></svg>